<svg width="428" height="45" viewBox="0 0 428 45" fill="none" xmlns="http://www.w3.org/2000/svg">
<path d="M0 36.5H221.5" stroke="white" stroke-width="7"/>
<path d="M166 9.5L428 9.5" stroke="white" stroke-width="7"/>
<path d="M399.5 36.5L428 36.5" stroke="white" stroke-width="7"/>
<path d="M0 9.5H42" stroke="white" stroke-width="7"/>
<path d="M232.68 37.957V26.8047H234.73V38.5625C234.73 38.7188 234.809 38.9466 234.965 39.2461C235.134 39.5326 235.362 39.7344 235.648 39.8516C235.831 39.9167 236.085 39.9427 236.41 39.9297C236.736 39.9297 237.016 39.7865 237.25 39.5L239.223 40.2031C239.04 40.6458 238.676 41.0495 238.129 41.4141C237.595 41.7786 236.931 41.9609 236.137 41.9609C235.85 41.9609 235.557 41.9284 235.258 41.8633C234.32 41.694 233.656 41.2122 233.266 40.418C232.875 39.6237 232.68 38.8034 232.68 37.957ZM234.73 32.6836V30.6133H239.223L238.598 32.6836H234.73ZM231.566 32.6836L232.133 30.6133H232.68V32.6836H231.566ZM240.336 42V26.8828H242.445V31.0625C242.445 31.1797 242.491 31.2057 242.582 31.1406C243.246 30.763 244.021 30.5742 244.906 30.5742C245.987 30.5742 246.892 30.8672 247.621 31.4531C248.363 32.0391 248.845 32.6576 249.066 33.3086C249.288 33.9466 249.411 34.5716 249.438 35.1836V42H247.328V35.1836C247.328 34.806 247.289 34.4544 247.211 34.1289C247.133 33.8034 246.898 33.4779 246.508 33.1523C246.117 32.8138 245.583 32.6445 244.906 32.6445C244.411 32.6445 243.988 32.7357 243.637 32.918C243.285 33.0872 243.025 33.3216 242.855 33.6211C242.699 33.9076 242.589 34.168 242.523 34.4023C242.471 34.6367 242.445 34.8971 242.445 35.1836V42H240.336ZM253.188 27.0195C253.409 27.2148 253.52 27.4557 253.52 27.7422C253.52 28.0156 253.409 28.2565 253.188 28.4648C252.966 28.6732 252.719 28.7773 252.445 28.7773C252.172 28.7773 251.931 28.6732 251.723 28.4648C251.514 28.2565 251.41 28.0156 251.41 27.7422C251.41 27.4557 251.514 27.2148 251.723 27.0195C251.931 26.8112 252.172 26.707 252.445 26.707C252.719 26.707 252.966 26.8112 253.188 27.0195ZM253.52 30.7109V42.0391H251.449V30.7109H253.52ZM259.32 30.457C260.453 30.457 261.352 30.776 262.016 31.4141C262.68 32.0391 263.096 32.6836 263.266 33.3477L261.312 33.8945C261.013 32.9961 260.349 32.5469 259.32 32.5469C258.682 32.5469 258.233 32.6901 257.973 32.9766C257.725 33.263 257.602 33.582 257.602 33.9336C257.602 34.3763 258.064 34.6823 258.988 34.8516L259.164 34.8906C260.01 35.0078 260.727 35.2161 261.312 35.5156C261.911 35.8151 262.335 36.1016 262.582 36.375C262.842 36.6354 263.031 36.9284 263.148 37.2539C263.279 37.5794 263.35 37.8268 263.363 37.9961C263.389 38.1523 263.402 38.3216 263.402 38.5039C263.402 38.9857 263.344 39.3958 263.227 39.7344C262.732 41.2318 261.43 41.9805 259.32 41.9805C258.526 41.9805 257.829 41.8372 257.23 41.5508C256.632 41.2643 256.182 40.9062 255.883 40.4766C255.596 40.0339 255.382 39.6042 255.238 39.1875C255.108 38.7578 255.043 38.3607 255.043 37.9961H257.035C257.178 39.2591 257.94 39.8906 259.32 39.8906H259.477C260.505 39.8776 261.137 39.513 261.371 38.7969C261.397 38.7318 261.41 38.6862 261.41 38.6602V38.543C261.41 37.6966 260.661 37.1823 259.164 37C258.37 36.8958 257.706 36.7201 257.172 36.4727C256.651 36.2122 256.286 35.9062 256.078 35.5547C255.883 35.1901 255.753 34.8841 255.688 34.6367C255.622 34.3763 255.59 34.0898 255.59 33.7773C255.59 33.5039 255.642 33.1979 255.746 32.8594C255.85 32.5208 256.026 32.1628 256.273 31.7852C256.521 31.4076 256.911 31.0951 257.445 30.8477C257.979 30.5872 258.604 30.457 259.32 30.457ZM271.176 27.0195C271.397 27.2148 271.508 27.4557 271.508 27.7422C271.508 28.0156 271.397 28.2565 271.176 28.4648C270.954 28.6732 270.707 28.7773 270.434 28.7773C270.16 28.7773 269.919 28.6732 269.711 28.4648C269.503 28.2565 269.398 28.0156 269.398 27.7422C269.398 27.4557 269.503 27.2148 269.711 27.0195C269.919 26.8112 270.16 26.707 270.434 26.707C270.707 26.707 270.954 26.8112 271.176 27.0195ZM271.508 30.7109V42.0391H269.438V30.7109H271.508ZM277.309 30.457C278.441 30.457 279.34 30.776 280.004 31.4141C280.668 32.0391 281.085 32.6836 281.254 33.3477L279.301 33.8945C279.001 32.9961 278.337 32.5469 277.309 32.5469C276.671 32.5469 276.221 32.6901 275.961 32.9766C275.714 33.263 275.59 33.582 275.59 33.9336C275.59 34.3763 276.052 34.6823 276.977 34.8516L277.152 34.8906C277.999 35.0078 278.715 35.2161 279.301 35.5156C279.9 35.8151 280.323 36.1016 280.57 36.375C280.831 36.6354 281.02 36.9284 281.137 37.2539C281.267 37.5794 281.339 37.8268 281.352 37.9961C281.378 38.1523 281.391 38.3216 281.391 38.5039C281.391 38.9857 281.332 39.3958 281.215 39.7344C280.72 41.2318 279.418 41.9805 277.309 41.9805C276.514 41.9805 275.818 41.8372 275.219 41.5508C274.62 41.2643 274.171 40.9062 273.871 40.4766C273.585 40.0339 273.37 39.6042 273.227 39.1875C273.096 38.7578 273.031 38.3607 273.031 37.9961H275.023C275.167 39.2591 275.928 39.8906 277.309 39.8906H277.465C278.493 39.8776 279.125 39.513 279.359 38.7969C279.385 38.7318 279.398 38.6862 279.398 38.6602V38.543C279.398 37.6966 278.65 37.1823 277.152 37C276.358 36.8958 275.694 36.7201 275.16 36.4727C274.639 36.2122 274.275 35.9062 274.066 35.5547C273.871 35.1901 273.741 34.8841 273.676 34.6367C273.611 34.3763 273.578 34.0898 273.578 33.7773C273.578 33.5039 273.63 33.1979 273.734 32.8594C273.839 32.5208 274.014 32.1628 274.262 31.7852C274.509 31.4076 274.9 31.0951 275.434 30.8477C275.967 30.5872 276.592 30.457 277.309 30.457ZM287.387 42V26.8828H289.496V31.0625C289.496 31.1797 289.542 31.2057 289.633 31.1406C290.297 30.763 291.072 30.5742 291.957 30.5742C293.038 30.5742 293.943 30.8672 294.672 31.4531C295.414 32.0391 295.896 32.6576 296.117 33.3086C296.339 33.9466 296.462 34.5716 296.488 35.1836V42H294.379V35.1836C294.379 34.806 294.34 34.4544 294.262 34.1289C294.184 33.8034 293.949 33.4779 293.559 33.1523C293.168 32.8138 292.634 32.6445 291.957 32.6445C291.462 32.6445 291.039 32.7357 290.688 32.918C290.336 33.0872 290.076 33.3216 289.906 33.6211C289.75 33.9076 289.639 34.168 289.574 34.4023C289.522 34.6367 289.496 34.8971 289.496 35.1836V42H287.387ZM307.66 32.0781C308.793 33.2109 309.359 34.5781 309.359 36.1797C309.359 37.7682 308.793 39.1354 307.66 40.2812C306.54 41.4271 305.173 42 303.559 42C301.957 42 300.583 41.4271 299.438 40.2812C298.292 39.1354 297.719 37.7682 297.719 36.1797C297.719 34.5781 298.292 33.2109 299.438 32.0781C300.583 30.9323 301.957 30.3594 303.559 30.3594C305.173 30.3594 306.54 30.9323 307.66 32.0781ZM300.922 38.7969C301.651 39.526 302.53 39.8906 303.559 39.8906C304.587 39.8906 305.466 39.526 306.195 38.7969C306.924 38.0677 307.289 37.1953 307.289 36.1797C307.289 35.1641 306.924 34.2852 306.195 33.543C305.466 32.8008 304.587 32.4297 303.559 32.4297C302.53 32.4297 301.651 32.8008 300.922 33.543C300.193 34.2852 299.828 35.1641 299.828 36.1797C299.828 37.1953 300.193 38.0677 300.922 38.7969ZM312.816 30.5742V37.9961V38.2109C312.816 38.3021 312.855 38.4583 312.934 38.6797C313.012 38.901 313.096 39.0964 313.188 39.2656C313.292 39.4219 313.467 39.5716 313.715 39.7148C313.975 39.8581 314.275 39.9297 314.613 39.9297C315.173 39.9297 315.616 39.7734 315.941 39.4609C316.267 39.0964 316.443 38.7708 316.469 38.4844L316.508 37.9961V30.5742H318.578V37.9961V38.2109C318.578 38.3021 318.604 38.4583 318.656 38.6797C318.721 38.901 318.812 39.0964 318.93 39.2656C319.047 39.4219 319.242 39.5716 319.516 39.7148C319.802 39.8581 320.121 39.9297 320.473 39.9297C321.02 39.9036 321.436 39.7279 321.723 39.4023C322.035 39.0508 322.204 38.7448 322.23 38.4844L322.27 37.9961V30.5742H324.301V37.9961V38.1719C324.301 39.3698 323.923 40.3073 323.168 40.9844C322.426 41.6615 321.527 42 320.473 42C319.822 42 319.255 41.8828 318.773 41.6484C318.292 41.4141 317.96 41.1927 317.777 40.9844L317.523 40.6719L317.387 40.8281C317.243 40.9583 317.107 41.0755 316.977 41.1797C316.846 41.2839 316.677 41.3945 316.469 41.5117C316.26 41.6289 315.993 41.7396 315.668 41.8438C315.355 41.9479 315.004 42 314.613 42C313.572 42 312.66 41.6484 311.879 40.9453C311.098 40.2422 310.707 39.2591 310.707 37.9961V30.5742H312.816ZM332.445 30.5742V37.9961V38.2109C332.445 38.3021 332.484 38.4583 332.562 38.6797C332.641 38.901 332.725 39.0964 332.816 39.2656C332.921 39.4219 333.096 39.5716 333.344 39.7148C333.604 39.8581 333.904 39.9297 334.242 39.9297C334.802 39.9297 335.245 39.7734 335.57 39.4609C335.896 39.0964 336.072 38.7708 336.098 38.4844L336.137 37.9961V30.5742H338.207V37.9961V38.2109C338.207 38.3021 338.233 38.4583 338.285 38.6797C338.35 38.901 338.441 39.0964 338.559 39.2656C338.676 39.4219 338.871 39.5716 339.145 39.7148C339.431 39.8581 339.75 39.9297 340.102 39.9297C340.648 39.9036 341.065 39.7279 341.352 39.4023C341.664 39.0508 341.833 38.7448 341.859 38.4844L341.898 37.9961V30.5742H343.93V37.9961V38.1719C343.93 39.3698 343.552 40.3073 342.797 40.9844C342.055 41.6615 341.156 42 340.102 42C339.451 42 338.884 41.8828 338.402 41.6484C337.921 41.4141 337.589 41.1927 337.406 40.9844L337.152 40.6719L337.016 40.8281C336.872 40.9583 336.736 41.0755 336.605 41.1797C336.475 41.2839 336.306 41.3945 336.098 41.5117C335.889 41.6289 335.622 41.7396 335.297 41.8438C334.984 41.9479 334.633 42 334.242 42C333.201 42 332.289 41.6484 331.508 40.9453C330.727 40.2422 330.336 39.2591 330.336 37.9961V30.5742H332.445ZM354.691 37.2148L356.684 37.7422C356.592 38.1198 356.423 38.5299 356.176 38.9727C355.928 39.4023 355.59 39.8516 355.16 40.3203C354.743 40.7891 354.184 41.1862 353.48 41.5117C352.777 41.8372 351.983 42 351.098 42C349.366 42 347.979 41.4206 346.938 40.2617C345.909 39.1029 345.395 37.7487 345.395 36.1992C345.395 34.6758 345.922 33.3411 346.977 32.1953C348.031 31.0495 349.405 30.4766 351.098 30.4766C351.918 30.4766 352.693 30.6328 353.422 30.9453C354.164 31.2578 354.743 31.6549 355.16 32.1367C355.59 32.6185 355.935 33.0742 356.195 33.5039C356.456 33.9206 356.618 34.3177 356.684 34.6953C356.827 35.2552 356.898 35.5807 356.898 35.6719H356.859L348.07 37.9961C347.953 38.0352 347.934 38.1068 348.012 38.2109C348.78 39.3568 349.809 39.9167 351.098 39.8906C351.918 39.8906 352.647 39.6497 353.285 39.168C353.936 38.6862 354.405 38.0352 354.691 37.2148ZM347.543 35.3203L347.465 35.5156C347.452 35.5677 347.439 35.6328 347.426 35.7109C347.413 35.776 347.406 35.8346 347.406 35.8867C347.406 35.9779 347.413 36.0365 347.426 36.0625C347.439 36.1016 347.491 36.1016 347.582 36.0625L354.184 34.2656H354.223C354.249 34.2656 354.236 34.2201 354.184 34.1289C353.676 33.4258 352.973 32.931 352.074 32.6445C351.801 32.5534 351.488 32.5078 351.137 32.5078C350.355 32.5078 349.633 32.7617 348.969 33.2695C348.305 33.7904 347.829 34.474 347.543 35.3203ZM363.129 42V35.0078V30.5352H365.375V30.9648C366.013 30.5872 366.801 30.3984 367.738 30.3984C368.298 30.3984 368.812 30.457 369.281 30.5742L368.578 32.6445C368.344 32.5794 368.064 32.5339 367.738 32.5078C366.163 32.5078 365.375 33.3411 365.375 35.0078V42H363.129ZM378.871 32.0781C380.004 33.2109 380.57 34.5781 380.57 36.1797C380.57 37.7682 380.004 39.1354 378.871 40.2812C377.751 41.4271 376.384 42 374.77 42C373.168 42 371.794 41.4271 370.648 40.2812C369.503 39.1354 368.93 37.7682 368.93 36.1797C368.93 34.5781 369.503 33.2109 370.648 32.0781C371.794 30.9323 373.168 30.3594 374.77 30.3594C376.384 30.3594 377.751 30.9323 378.871 32.0781ZM372.133 38.7969C372.862 39.526 373.741 39.8906 374.77 39.8906C375.798 39.8906 376.677 39.526 377.406 38.7969C378.135 38.0677 378.5 37.1953 378.5 36.1797C378.5 35.1641 378.135 34.2852 377.406 33.543C376.677 32.8008 375.798 32.4297 374.77 32.4297C373.741 32.4297 372.862 32.8008 372.133 33.543C371.404 34.2852 371.039 35.1641 371.039 36.1797C371.039 37.1953 371.404 38.0677 372.133 38.7969ZM384.223 26.707V42H381.898V26.707H384.223ZM388.773 26.707V42H386.449V26.707H388.773Z" fill="white"/>
<path d="M54.707 4.45703C55.8398 4.45703 56.7383 4.77604 57.4023 5.41406C58.0664 6.03906 58.4831 6.68359 58.6523 7.34766L56.6992 7.89453C56.3997 6.99609 55.7357 6.54688 54.707 6.54688C54.069 6.54688 53.6198 6.6901 53.3594 6.97656C53.112 7.26302 52.9883 7.58203 52.9883 7.93359C52.9883 8.3763 53.4505 8.68229 54.375 8.85156L54.5508 8.89062C55.3971 9.00781 56.1133 9.21615 56.6992 9.51562C57.2982 9.8151 57.7214 10.1016 57.9688 10.375C58.2292 10.6354 58.418 10.9284 58.5352 11.2539C58.6654 11.5794 58.737 11.8268 58.75 11.9961C58.776 12.1523 58.7891 12.3216 58.7891 12.5039C58.7891 12.9857 58.7305 13.3958 58.6133 13.7344C58.1185 15.2318 56.8164 15.9805 54.707 15.9805C53.9128 15.9805 53.2161 15.8372 52.6172 15.5508C52.0182 15.2643 51.569 14.9062 51.2695 14.4766C50.9831 14.0339 50.7682 13.6042 50.625 13.1875C50.4948 12.7578 50.4297 12.3607 50.4297 11.9961H52.4219C52.5651 13.2591 53.3268 13.8906 54.707 13.8906H54.8633C55.8919 13.8776 56.5234 13.513 56.7578 12.7969C56.7839 12.7318 56.7969 12.6862 56.7969 12.6602V12.543C56.7969 11.6966 56.0482 11.1823 54.5508 11C53.7565 10.8958 53.0924 10.7201 52.5586 10.4727C52.0378 10.2122 51.6732 9.90625 51.4648 9.55469C51.2695 9.1901 51.1393 8.88411 51.0742 8.63672C51.0091 8.3763 50.9766 8.08984 50.9766 7.77734C50.9766 7.50391 51.0286 7.19792 51.1328 6.85938C51.237 6.52083 51.4128 6.16276 51.6602 5.78516C51.9076 5.40755 52.2982 5.09505 52.832 4.84766C53.3659 4.58724 53.9909 4.45703 54.707 4.45703ZM60.1172 11.3516V4.35938H62.3047V11.3516C62.3047 13.0052 63.1055 13.832 64.707 13.832C65.2279 13.832 65.6706 13.7409 66.0352 13.5586C66.3997 13.3763 66.6536 13.1354 66.7969 12.8359C66.9401 12.5234 67.0312 12.2565 67.0703 12.0352C67.1224 11.8008 67.1484 11.5729 67.1484 11.3516V4.35938H69.3359L69.3555 10.1602C69.3424 10.3815 69.3229 10.6484 69.2969 10.9609C69.2708 12.0026 69.1341 12.8164 68.8867 13.4023C68.6393 13.9492 68.3594 14.3984 68.0469 14.75C67.8255 14.9974 67.3763 15.2839 66.6992 15.6094C66.1784 15.8698 65.5078 15.987 64.6875 15.9609C63.9062 15.9609 63.2161 15.8242 62.6172 15.5508C62.0182 15.2773 61.5625 14.9583 61.25 14.5938C60.9505 14.2161 60.7096 13.793 60.5273 13.3242C60.3451 12.8555 60.2279 12.4714 60.1758 12.1719C60.1367 11.8724 60.1172 11.599 60.1172 11.3516ZM74.8633 4.45703C75.9961 4.45703 76.8945 4.77604 77.5586 5.41406C78.2227 6.03906 78.6393 6.68359 78.8086 7.34766L76.8555 7.89453C76.556 6.99609 75.8919 6.54688 74.8633 6.54688C74.2253 6.54688 73.776 6.6901 73.5156 6.97656C73.2682 7.26302 73.1445 7.58203 73.1445 7.93359C73.1445 8.3763 73.6068 8.68229 74.5312 8.85156L74.707 8.89062C75.5534 9.00781 76.2695 9.21615 76.8555 9.51562C77.4544 9.8151 77.8776 10.1016 78.125 10.375C78.3854 10.6354 78.5742 10.9284 78.6914 11.2539C78.8216 11.5794 78.8932 11.8268 78.9062 11.9961C78.9323 12.1523 78.9453 12.3216 78.9453 12.5039C78.9453 12.9857 78.8867 13.3958 78.7695 13.7344C78.2747 15.2318 76.9727 15.9805 74.8633 15.9805C74.069 15.9805 73.3724 15.8372 72.7734 15.5508C72.1745 15.2643 71.7253 14.9062 71.4258 14.4766C71.1393 14.0339 70.9245 13.6042 70.7812 13.1875C70.651 12.7578 70.5859 12.3607 70.5859 11.9961H72.5781C72.7214 13.2591 73.4831 13.8906 74.8633 13.8906H75.0195C76.0482 13.8776 76.6797 13.513 76.9141 12.7969C76.9401 12.7318 76.9531 12.6862 76.9531 12.6602V12.543C76.9531 11.6966 76.2044 11.1823 74.707 11C73.9128 10.8958 73.2487 10.7201 72.7148 10.4727C72.194 10.2122 71.8294 9.90625 71.6211 9.55469C71.4258 9.1901 71.2956 8.88411 71.2305 8.63672C71.1654 8.3763 71.1328 8.08984 71.1328 7.77734C71.1328 7.50391 71.1849 7.19792 71.2891 6.85938C71.3932 6.52083 71.569 6.16276 71.8164 5.78516C72.0638 5.40755 72.4544 5.09505 72.9883 4.84766C73.5221 4.58724 74.1471 4.45703 74.8633 4.45703ZM80.5664 16V0.882812H82.6758V5.0625C82.6758 5.17969 82.7214 5.20573 82.8125 5.14062C83.4766 4.76302 84.2513 4.57422 85.1367 4.57422C86.2174 4.57422 87.1224 4.86719 87.8516 5.45312C88.5938 6.03906 89.0755 6.65755 89.2969 7.30859C89.5182 7.94661 89.6419 8.57161 89.668 9.18359V16H87.5586V9.18359C87.5586 8.80599 87.5195 8.45443 87.4414 8.12891C87.3633 7.80339 87.1289 7.47786 86.7383 7.15234C86.3477 6.8138 85.8138 6.64453 85.1367 6.64453C84.6419 6.64453 84.2188 6.73568 83.8672 6.91797C83.5156 7.08724 83.2552 7.32161 83.0859 7.62109C82.9297 7.90755 82.819 8.16797 82.7539 8.40234C82.7018 8.63672 82.6758 8.89714 82.6758 9.18359V16H80.5664ZM93.418 1.01953C93.6393 1.21484 93.75 1.45573 93.75 1.74219C93.75 2.01562 93.6393 2.25651 93.418 2.46484C93.1966 2.67318 92.9492 2.77734 92.6758 2.77734C92.4023 2.77734 92.1615 2.67318 91.9531 2.46484C91.7448 2.25651 91.6406 2.01562 91.6406 1.74219C91.6406 1.45573 91.7448 1.21484 91.9531 1.01953C92.1615 0.811198 92.4023 0.707031 92.6758 0.707031C92.9492 0.707031 93.1966 0.811198 93.418 1.01953ZM93.75 4.71094V16.0391H91.6797V4.71094H93.75ZM103.926 4.45703C105.059 4.45703 105.957 4.77604 106.621 5.41406C107.285 6.03906 107.702 6.68359 107.871 7.34766L105.918 7.89453C105.618 6.99609 104.954 6.54688 103.926 6.54688C103.288 6.54688 102.839 6.6901 102.578 6.97656C102.331 7.26302 102.207 7.58203 102.207 7.93359C102.207 8.3763 102.669 8.68229 103.594 8.85156L103.77 8.89062C104.616 9.00781 105.332 9.21615 105.918 9.51562C106.517 9.8151 106.94 10.1016 107.188 10.375C107.448 10.6354 107.637 10.9284 107.754 11.2539C107.884 11.5794 107.956 11.8268 107.969 11.9961C107.995 12.1523 108.008 12.3216 108.008 12.5039C108.008 12.9857 107.949 13.3958 107.832 13.7344C107.337 15.2318 106.035 15.9805 103.926 15.9805C103.132 15.9805 102.435 15.8372 101.836 15.5508C101.237 15.2643 100.788 14.9062 100.488 14.4766C100.202 14.0339 99.987 13.6042 99.8438 13.1875C99.7135 12.7578 99.6484 12.3607 99.6484 11.9961H101.641C101.784 13.2591 102.546 13.8906 103.926 13.8906H104.082C105.111 13.8776 105.742 13.513 105.977 12.7969C106.003 12.7318 106.016 12.6862 106.016 12.6602V12.543C106.016 11.6966 105.267 11.1823 103.77 11C102.975 10.8958 102.311 10.7201 101.777 10.4727C101.257 10.2122 100.892 9.90625 100.684 9.55469C100.488 9.1901 100.358 8.88411 100.293 8.63672C100.228 8.3763 100.195 8.08984 100.195 7.77734C100.195 7.50391 100.247 7.19792 100.352 6.85938C100.456 6.52083 100.632 6.16276 100.879 5.78516C101.126 5.40755 101.517 5.09505 102.051 4.84766C102.585 4.58724 103.21 4.45703 103.926 4.45703ZM118.867 4.67188H120.918V21.3516H118.867V14.8086C118.867 14.6654 118.822 14.6523 118.73 14.7695C117.845 15.5898 116.673 16 115.215 16C113.809 16 112.474 15.4857 111.211 14.457C109.948 13.4284 109.316 12.0091 109.316 10.1992C109.316 8.38932 109.915 6.98307 111.113 5.98047C112.324 4.97786 113.691 4.47656 115.215 4.47656C116.1 4.47656 116.849 4.60677 117.461 4.86719C118.073 5.11458 118.509 5.40104 118.77 5.72656C118.835 5.77865 118.867 5.79818 118.867 5.78516V5.62891V4.67188ZM112.461 12.8359C113.177 13.5391 114.062 13.8906 115.117 13.8906C116.172 13.8906 117.057 13.5391 117.773 12.8359C118.503 12.1328 118.867 11.2669 118.867 10.2383C118.867 9.20964 118.503 8.33073 117.773 7.60156C117.057 6.8724 116.172 6.50781 115.117 6.50781C114.062 6.50781 113.177 6.8724 112.461 7.60156C111.745 8.33073 111.387 9.20964 111.387 10.2383C111.387 11.2669 111.745 12.1328 112.461 12.8359ZM122.52 11.3516V4.35938H124.707V11.3516C124.707 13.0052 125.508 13.832 127.109 13.832C127.63 13.832 128.073 13.7409 128.438 13.5586C128.802 13.3763 129.056 13.1354 129.199 12.8359C129.342 12.5234 129.434 12.2565 129.473 12.0352C129.525 11.8008 129.551 11.5729 129.551 11.3516V4.35938H131.738L131.758 10.1602C131.745 10.3815 131.725 10.6484 131.699 10.9609C131.673 12.0026 131.536 12.8164 131.289 13.4023C131.042 13.9492 130.762 14.3984 130.449 14.75C130.228 14.9974 129.779 15.2839 129.102 15.6094C128.581 15.8698 127.91 15.987 127.09 15.9609C126.309 15.9609 125.618 15.8242 125.02 15.5508C124.421 15.2773 123.965 14.9583 123.652 14.5938C123.353 14.2161 123.112 13.793 122.93 13.3242C122.747 12.8555 122.63 12.4714 122.578 12.1719C122.539 11.8724 122.52 11.599 122.52 11.3516ZM144.863 4.53516V16H142.715V14.8086V14.6719L142.676 14.7305C141.764 15.5768 140.547 16 139.023 16C137.617 16 136.302 15.4792 135.078 14.4375C133.867 13.3958 133.262 11.9831 133.262 10.1992C133.262 8.38932 133.861 6.97656 135.059 5.96094C136.257 4.94531 137.578 4.4375 139.023 4.4375C140.664 4.4375 141.882 4.83464 142.676 5.62891C142.702 5.65495 142.715 5.64193 142.715 5.58984V4.53516H144.863ZM136.387 12.8164C137.116 13.5326 137.995 13.8906 139.023 13.8906C140.052 13.8906 140.931 13.5326 141.66 12.8164C142.389 12.1003 142.754 11.2344 142.754 10.2188C142.754 9.20312 142.389 8.32422 141.66 7.58203C140.931 6.83984 140.052 6.46875 139.023 6.46875C137.995 6.46875 137.116 6.83984 136.387 7.58203C135.658 8.32422 135.293 9.20312 135.293 10.2188C135.293 11.2344 135.658 12.1003 136.387 12.8164ZM157.793 0.707031V15.9609H155.684V14.8086V14.6523C155.684 14.6393 155.651 14.6654 155.586 14.7305C154.622 15.5508 153.418 15.9609 151.973 15.9609C150.371 15.9609 148.997 15.3945 147.852 14.2617C146.706 13.1289 146.133 11.7682 146.133 10.1797C146.133 8.57812 146.706 7.21094 147.852 6.07812C148.997 4.93229 150.371 4.35938 151.973 4.35938C153.379 4.35938 154.583 4.78255 155.586 5.62891C155.651 5.69401 155.684 5.71354 155.684 5.6875V5.49219V0.707031H157.793ZM149.297 12.8164C150.039 13.5326 150.924 13.8906 151.953 13.8906C152.995 13.8906 153.874 13.5326 154.59 12.8164C155.319 12.1003 155.684 11.2214 155.684 10.1797C155.684 9.13802 155.319 8.24609 154.59 7.50391C153.874 6.7487 152.995 6.37109 151.953 6.37109C150.924 6.37109 150.039 6.7487 149.297 7.50391C148.568 8.24609 148.203 9.13802 148.203 10.1797C148.203 11.2214 148.568 12.1003 149.297 12.8164Z" fill="white"/>
</svg>
