<svg width="428" height="46" viewBox="0 0 428 46" fill="none" xmlns="http://www.w3.org/2000/svg">
<line x1="-31" y1="36.5" x2="236" y2="36.5" stroke="#FA719D" stroke-width="7"/>
<line x1="166" y1="9.5" x2="467" y2="9.5" stroke="#74DCCA" stroke-width="7"/>
<line x1="-31" y1="8.5" x2="42" y2="8.5" stroke="white" stroke-width="7"/>
<path d="M246.68 38.957V27.8047H248.73V39.5625C248.73 39.7188 248.809 39.9466 248.965 40.2461C249.134 40.5326 249.362 40.7344 249.648 40.8516C249.831 40.9167 250.085 40.9427 250.41 40.9297C250.736 40.9297 251.016 40.7865 251.25 40.5L253.223 41.2031C253.04 41.6458 252.676 42.0495 252.129 42.4141C251.595 42.7786 250.931 42.9609 250.137 42.9609C249.85 42.9609 249.557 42.9284 249.258 42.8633C248.32 42.694 247.656 42.2122 247.266 41.418C246.875 40.6237 246.68 39.8034 246.68 38.957ZM248.73 33.6836V31.6133H253.223L252.598 33.6836H248.73ZM245.566 33.6836L246.133 31.6133H246.68V33.6836H245.566ZM254.336 43V27.8828H256.445V32.0625C256.445 32.1797 256.491 32.2057 256.582 32.1406C257.246 31.763 258.021 31.5742 258.906 31.5742C259.987 31.5742 260.892 31.8672 261.621 32.4531C262.363 33.0391 262.845 33.6576 263.066 34.3086C263.288 34.9466 263.411 35.5716 263.438 36.1836V43H261.328V36.1836C261.328 35.806 261.289 35.4544 261.211 35.1289C261.133 34.8034 260.898 34.4779 260.508 34.1523C260.117 33.8138 259.583 33.6445 258.906 33.6445C258.411 33.6445 257.988 33.7357 257.637 33.918C257.285 34.0872 257.025 34.3216 256.855 34.6211C256.699 34.9076 256.589 35.168 256.523 35.4023C256.471 35.6367 256.445 35.8971 256.445 36.1836V43H254.336ZM267.188 28.0195C267.409 28.2148 267.52 28.4557 267.52 28.7422C267.52 29.0156 267.409 29.2565 267.188 29.4648C266.966 29.6732 266.719 29.7773 266.445 29.7773C266.172 29.7773 265.931 29.6732 265.723 29.4648C265.514 29.2565 265.41 29.0156 265.41 28.7422C265.41 28.4557 265.514 28.2148 265.723 28.0195C265.931 27.8112 266.172 27.707 266.445 27.707C266.719 27.707 266.966 27.8112 267.188 28.0195ZM267.52 31.7109V43.0391H265.449V31.7109H267.52ZM273.32 31.457C274.453 31.457 275.352 31.776 276.016 32.4141C276.68 33.0391 277.096 33.6836 277.266 34.3477L275.312 34.8945C275.013 33.9961 274.349 33.5469 273.32 33.5469C272.682 33.5469 272.233 33.6901 271.973 33.9766C271.725 34.263 271.602 34.582 271.602 34.9336C271.602 35.3763 272.064 35.6823 272.988 35.8516L273.164 35.8906C274.01 36.0078 274.727 36.2161 275.312 36.5156C275.911 36.8151 276.335 37.1016 276.582 37.375C276.842 37.6354 277.031 37.9284 277.148 38.2539C277.279 38.5794 277.35 38.8268 277.363 38.9961C277.389 39.1523 277.402 39.3216 277.402 39.5039C277.402 39.9857 277.344 40.3958 277.227 40.7344C276.732 42.2318 275.43 42.9805 273.32 42.9805C272.526 42.9805 271.829 42.8372 271.23 42.5508C270.632 42.2643 270.182 41.9062 269.883 41.4766C269.596 41.0339 269.382 40.6042 269.238 40.1875C269.108 39.7578 269.043 39.3607 269.043 38.9961H271.035C271.178 40.2591 271.94 40.8906 273.32 40.8906H273.477C274.505 40.8776 275.137 40.513 275.371 39.7969C275.397 39.7318 275.41 39.6862 275.41 39.6602V39.543C275.41 38.6966 274.661 38.1823 273.164 38C272.37 37.8958 271.706 37.7201 271.172 37.4727C270.651 37.2122 270.286 36.9062 270.078 36.5547C269.883 36.1901 269.753 35.8841 269.688 35.6367C269.622 35.3763 269.59 35.0898 269.59 34.7773C269.59 34.5039 269.642 34.1979 269.746 33.8594C269.85 33.5208 270.026 33.1628 270.273 32.7852C270.521 32.4076 270.911 32.0951 271.445 31.8477C271.979 31.5872 272.604 31.457 273.32 31.457ZM285.176 28.0195C285.397 28.2148 285.508 28.4557 285.508 28.7422C285.508 29.0156 285.397 29.2565 285.176 29.4648C284.954 29.6732 284.707 29.7773 284.434 29.7773C284.16 29.7773 283.919 29.6732 283.711 29.4648C283.503 29.2565 283.398 29.0156 283.398 28.7422C283.398 28.4557 283.503 28.2148 283.711 28.0195C283.919 27.8112 284.16 27.707 284.434 27.707C284.707 27.707 284.954 27.8112 285.176 28.0195ZM285.508 31.7109V43.0391H283.438V31.7109H285.508ZM291.309 31.457C292.441 31.457 293.34 31.776 294.004 32.4141C294.668 33.0391 295.085 33.6836 295.254 34.3477L293.301 34.8945C293.001 33.9961 292.337 33.5469 291.309 33.5469C290.671 33.5469 290.221 33.6901 289.961 33.9766C289.714 34.263 289.59 34.582 289.59 34.9336C289.59 35.3763 290.052 35.6823 290.977 35.8516L291.152 35.8906C291.999 36.0078 292.715 36.2161 293.301 36.5156C293.9 36.8151 294.323 37.1016 294.57 37.375C294.831 37.6354 295.02 37.9284 295.137 38.2539C295.267 38.5794 295.339 38.8268 295.352 38.9961C295.378 39.1523 295.391 39.3216 295.391 39.5039C295.391 39.9857 295.332 40.3958 295.215 40.7344C294.72 42.2318 293.418 42.9805 291.309 42.9805C290.514 42.9805 289.818 42.8372 289.219 42.5508C288.62 42.2643 288.171 41.9062 287.871 41.4766C287.585 41.0339 287.37 40.6042 287.227 40.1875C287.096 39.7578 287.031 39.3607 287.031 38.9961H289.023C289.167 40.2591 289.928 40.8906 291.309 40.8906H291.465C292.493 40.8776 293.125 40.513 293.359 39.7969C293.385 39.7318 293.398 39.6862 293.398 39.6602V39.543C293.398 38.6966 292.65 38.1823 291.152 38C290.358 37.8958 289.694 37.7201 289.16 37.4727C288.639 37.2122 288.275 36.9062 288.066 36.5547C287.871 36.1901 287.741 35.8841 287.676 35.6367C287.611 35.3763 287.578 35.0898 287.578 34.7773C287.578 34.5039 287.63 34.1979 287.734 33.8594C287.839 33.5208 288.014 33.1628 288.262 32.7852C288.509 32.4076 288.9 32.0951 289.434 31.8477C289.967 31.5872 290.592 31.457 291.309 31.457ZM301.387 43V27.8828H303.496V32.0625C303.496 32.1797 303.542 32.2057 303.633 32.1406C304.297 31.763 305.072 31.5742 305.957 31.5742C307.038 31.5742 307.943 31.8672 308.672 32.4531C309.414 33.0391 309.896 33.6576 310.117 34.3086C310.339 34.9466 310.462 35.5716 310.488 36.1836V43H308.379V36.1836C308.379 35.806 308.34 35.4544 308.262 35.1289C308.184 34.8034 307.949 34.4779 307.559 34.1523C307.168 33.8138 306.634 33.6445 305.957 33.6445C305.462 33.6445 305.039 33.7357 304.688 33.918C304.336 34.0872 304.076 34.3216 303.906 34.6211C303.75 34.9076 303.639 35.168 303.574 35.4023C303.522 35.6367 303.496 35.8971 303.496 36.1836V43H301.387ZM321.66 33.0781C322.793 34.2109 323.359 35.5781 323.359 37.1797C323.359 38.7682 322.793 40.1354 321.66 41.2812C320.54 42.4271 319.173 43 317.559 43C315.957 43 314.583 42.4271 313.438 41.2812C312.292 40.1354 311.719 38.7682 311.719 37.1797C311.719 35.5781 312.292 34.2109 313.438 33.0781C314.583 31.9323 315.957 31.3594 317.559 31.3594C319.173 31.3594 320.54 31.9323 321.66 33.0781ZM314.922 39.7969C315.651 40.526 316.53 40.8906 317.559 40.8906C318.587 40.8906 319.466 40.526 320.195 39.7969C320.924 39.0677 321.289 38.1953 321.289 37.1797C321.289 36.1641 320.924 35.2852 320.195 34.543C319.466 33.8008 318.587 33.4297 317.559 33.4297C316.53 33.4297 315.651 33.8008 314.922 34.543C314.193 35.2852 313.828 36.1641 313.828 37.1797C313.828 38.1953 314.193 39.0677 314.922 39.7969ZM326.816 31.5742V38.9961V39.2109C326.816 39.3021 326.855 39.4583 326.934 39.6797C327.012 39.901 327.096 40.0964 327.188 40.2656C327.292 40.4219 327.467 40.5716 327.715 40.7148C327.975 40.8581 328.275 40.9297 328.613 40.9297C329.173 40.9297 329.616 40.7734 329.941 40.4609C330.267 40.0964 330.443 39.7708 330.469 39.4844L330.508 38.9961V31.5742H332.578V38.9961V39.2109C332.578 39.3021 332.604 39.4583 332.656 39.6797C332.721 39.901 332.812 40.0964 332.93 40.2656C333.047 40.4219 333.242 40.5716 333.516 40.7148C333.802 40.8581 334.121 40.9297 334.473 40.9297C335.02 40.9036 335.436 40.7279 335.723 40.4023C336.035 40.0508 336.204 39.7448 336.23 39.4844L336.27 38.9961V31.5742H338.301V38.9961V39.1719C338.301 40.3698 337.923 41.3073 337.168 41.9844C336.426 42.6615 335.527 43 334.473 43C333.822 43 333.255 42.8828 332.773 42.6484C332.292 42.4141 331.96 42.1927 331.777 41.9844L331.523 41.6719L331.387 41.8281C331.243 41.9583 331.107 42.0755 330.977 42.1797C330.846 42.2839 330.677 42.3945 330.469 42.5117C330.26 42.6289 329.993 42.7396 329.668 42.8438C329.355 42.9479 329.004 43 328.613 43C327.572 43 326.66 42.6484 325.879 41.9453C325.098 41.2422 324.707 40.2591 324.707 38.9961V31.5742H326.816ZM346.445 31.5742V38.9961V39.2109C346.445 39.3021 346.484 39.4583 346.562 39.6797C346.641 39.901 346.725 40.0964 346.816 40.2656C346.921 40.4219 347.096 40.5716 347.344 40.7148C347.604 40.8581 347.904 40.9297 348.242 40.9297C348.802 40.9297 349.245 40.7734 349.57 40.4609C349.896 40.0964 350.072 39.7708 350.098 39.4844L350.137 38.9961V31.5742H352.207V38.9961V39.2109C352.207 39.3021 352.233 39.4583 352.285 39.6797C352.35 39.901 352.441 40.0964 352.559 40.2656C352.676 40.4219 352.871 40.5716 353.145 40.7148C353.431 40.8581 353.75 40.9297 354.102 40.9297C354.648 40.9036 355.065 40.7279 355.352 40.4023C355.664 40.0508 355.833 39.7448 355.859 39.4844L355.898 38.9961V31.5742H357.93V38.9961V39.1719C357.93 40.3698 357.552 41.3073 356.797 41.9844C356.055 42.6615 355.156 43 354.102 43C353.451 43 352.884 42.8828 352.402 42.6484C351.921 42.4141 351.589 42.1927 351.406 41.9844L351.152 41.6719L351.016 41.8281C350.872 41.9583 350.736 42.0755 350.605 42.1797C350.475 42.2839 350.306 42.3945 350.098 42.5117C349.889 42.6289 349.622 42.7396 349.297 42.8438C348.984 42.9479 348.633 43 348.242 43C347.201 43 346.289 42.6484 345.508 41.9453C344.727 41.2422 344.336 40.2591 344.336 38.9961V31.5742H346.445ZM368.691 38.2148L370.684 38.7422C370.592 39.1198 370.423 39.5299 370.176 39.9727C369.928 40.4023 369.59 40.8516 369.16 41.3203C368.743 41.7891 368.184 42.1862 367.48 42.5117C366.777 42.8372 365.983 43 365.098 43C363.366 43 361.979 42.4206 360.938 41.2617C359.909 40.1029 359.395 38.7487 359.395 37.1992C359.395 35.6758 359.922 34.3411 360.977 33.1953C362.031 32.0495 363.405 31.4766 365.098 31.4766C365.918 31.4766 366.693 31.6328 367.422 31.9453C368.164 32.2578 368.743 32.6549 369.16 33.1367C369.59 33.6185 369.935 34.0742 370.195 34.5039C370.456 34.9206 370.618 35.3177 370.684 35.6953C370.827 36.2552 370.898 36.5807 370.898 36.6719H370.859L362.07 38.9961C361.953 39.0352 361.934 39.1068 362.012 39.2109C362.78 40.3568 363.809 40.9167 365.098 40.8906C365.918 40.8906 366.647 40.6497 367.285 40.168C367.936 39.6862 368.405 39.0352 368.691 38.2148ZM361.543 36.3203L361.465 36.5156C361.452 36.5677 361.439 36.6328 361.426 36.7109C361.413 36.776 361.406 36.8346 361.406 36.8867C361.406 36.9779 361.413 37.0365 361.426 37.0625C361.439 37.1016 361.491 37.1016 361.582 37.0625L368.184 35.2656H368.223C368.249 35.2656 368.236 35.2201 368.184 35.1289C367.676 34.4258 366.973 33.931 366.074 33.6445C365.801 33.5534 365.488 33.5078 365.137 33.5078C364.355 33.5078 363.633 33.7617 362.969 34.2695C362.305 34.7904 361.829 35.474 361.543 36.3203ZM377.129 43V36.0078V31.5352H379.375V31.9648C380.013 31.5872 380.801 31.3984 381.738 31.3984C382.298 31.3984 382.812 31.457 383.281 31.5742L382.578 33.6445C382.344 33.5794 382.064 33.5339 381.738 33.5078C380.163 33.5078 379.375 34.3411 379.375 36.0078V43H377.129ZM392.871 33.0781C394.004 34.2109 394.57 35.5781 394.57 37.1797C394.57 38.7682 394.004 40.1354 392.871 41.2812C391.751 42.4271 390.384 43 388.77 43C387.168 43 385.794 42.4271 384.648 41.2812C383.503 40.1354 382.93 38.7682 382.93 37.1797C382.93 35.5781 383.503 34.2109 384.648 33.0781C385.794 31.9323 387.168 31.3594 388.77 31.3594C390.384 31.3594 391.751 31.9323 392.871 33.0781ZM386.133 39.7969C386.862 40.526 387.741 40.8906 388.77 40.8906C389.798 40.8906 390.677 40.526 391.406 39.7969C392.135 39.0677 392.5 38.1953 392.5 37.1797C392.5 36.1641 392.135 35.2852 391.406 34.543C390.677 33.8008 389.798 33.4297 388.77 33.4297C387.741 33.4297 386.862 33.8008 386.133 34.543C385.404 35.2852 385.039 36.1641 385.039 37.1797C385.039 38.1953 385.404 39.0677 386.133 39.7969ZM398.223 27.707V43H395.898V27.707H398.223ZM402.773 27.707V43H400.449V27.707H402.773Z" fill="white"/>
<path d="M54.707 4.45703C55.8398 4.45703 56.7383 4.77604 57.4023 5.41406C58.0664 6.03906 58.4831 6.68359 58.6523 7.34766L56.6992 7.89453C56.3997 6.99609 55.7357 6.54688 54.707 6.54688C54.069 6.54688 53.6198 6.6901 53.3594 6.97656C53.112 7.26302 52.9883 7.58203 52.9883 7.93359C52.9883 8.3763 53.4505 8.68229 54.375 8.85156L54.5508 8.89062C55.3971 9.00781 56.1133 9.21615 56.6992 9.51562C57.2982 9.8151 57.7214 10.1016 57.9688 10.375C58.2292 10.6354 58.418 10.9284 58.5352 11.2539C58.6654 11.5794 58.737 11.8268 58.75 11.9961C58.776 12.1523 58.7891 12.3216 58.7891 12.5039C58.7891 12.9857 58.7305 13.3958 58.6133 13.7344C58.1185 15.2318 56.8164 15.9805 54.707 15.9805C53.9128 15.9805 53.2161 15.8372 52.6172 15.5508C52.0182 15.2643 51.569 14.9062 51.2695 14.4766C50.9831 14.0339 50.7682 13.6042 50.625 13.1875C50.4948 12.7578 50.4297 12.3607 50.4297 11.9961H52.4219C52.5651 13.2591 53.3268 13.8906 54.707 13.8906H54.8633C55.8919 13.8776 56.5234 13.513 56.7578 12.7969C56.7839 12.7318 56.7969 12.6862 56.7969 12.6602V12.543C56.7969 11.6966 56.0482 11.1823 54.5508 11C53.7565 10.8958 53.0924 10.7201 52.5586 10.4727C52.0378 10.2122 51.6732 9.90625 51.4648 9.55469C51.2695 9.1901 51.1393 8.88411 51.0742 8.63672C51.0091 8.3763 50.9766 8.08984 50.9766 7.77734C50.9766 7.50391 51.0286 7.19792 51.1328 6.85938C51.237 6.52083 51.4128 6.16276 51.6602 5.78516C51.9076 5.40755 52.2982 5.09505 52.832 4.84766C53.3659 4.58724 53.9909 4.45703 54.707 4.45703ZM60.1172 11.3516V4.35938H62.3047V11.3516C62.3047 13.0052 63.1055 13.832 64.707 13.832C65.2279 13.832 65.6706 13.7409 66.0352 13.5586C66.3997 13.3763 66.6536 13.1354 66.7969 12.8359C66.9401 12.5234 67.0312 12.2565 67.0703 12.0352C67.1224 11.8008 67.1484 11.5729 67.1484 11.3516V4.35938H69.3359L69.3555 10.1602C69.3424 10.3815 69.3229 10.6484 69.2969 10.9609C69.2708 12.0026 69.1341 12.8164 68.8867 13.4023C68.6393 13.9492 68.3594 14.3984 68.0469 14.75C67.8255 14.9974 67.3763 15.2839 66.6992 15.6094C66.1784 15.8698 65.5078 15.987 64.6875 15.9609C63.9062 15.9609 63.2161 15.8242 62.6172 15.5508C62.0182 15.2773 61.5625 14.9583 61.25 14.5938C60.9505 14.2161 60.7096 13.793 60.5273 13.3242C60.3451 12.8555 60.2279 12.4714 60.1758 12.1719C60.1367 11.8724 60.1172 11.599 60.1172 11.3516ZM74.8633 4.45703C75.9961 4.45703 76.8945 4.77604 77.5586 5.41406C78.2227 6.03906 78.6393 6.68359 78.8086 7.34766L76.8555 7.89453C76.556 6.99609 75.8919 6.54688 74.8633 6.54688C74.2253 6.54688 73.776 6.6901 73.5156 6.97656C73.2682 7.26302 73.1445 7.58203 73.1445 7.93359C73.1445 8.3763 73.6068 8.68229 74.5312 8.85156L74.707 8.89062C75.5534 9.00781 76.2695 9.21615 76.8555 9.51562C77.4544 9.8151 77.8776 10.1016 78.125 10.375C78.3854 10.6354 78.5742 10.9284 78.6914 11.2539C78.8216 11.5794 78.8932 11.8268 78.9062 11.9961C78.9323 12.1523 78.9453 12.3216 78.9453 12.5039C78.9453 12.9857 78.8867 13.3958 78.7695 13.7344C78.2747 15.2318 76.9727 15.9805 74.8633 15.9805C74.069 15.9805 73.3724 15.8372 72.7734 15.5508C72.1745 15.2643 71.7253 14.9062 71.4258 14.4766C71.1393 14.0339 70.9245 13.6042 70.7812 13.1875C70.651 12.7578 70.5859 12.3607 70.5859 11.9961H72.5781C72.7214 13.2591 73.4831 13.8906 74.8633 13.8906H75.0195C76.0482 13.8776 76.6797 13.513 76.9141 12.7969C76.9401 12.7318 76.9531 12.6862 76.9531 12.6602V12.543C76.9531 11.6966 76.2044 11.1823 74.707 11C73.9128 10.8958 73.2487 10.7201 72.7148 10.4727C72.194 10.2122 71.8294 9.90625 71.6211 9.55469C71.4258 9.1901 71.2956 8.88411 71.2305 8.63672C71.1654 8.3763 71.1328 8.08984 71.1328 7.77734C71.1328 7.50391 71.1849 7.19792 71.2891 6.85938C71.3932 6.52083 71.569 6.16276 71.8164 5.78516C72.0638 5.40755 72.4544 5.09505 72.9883 4.84766C73.5221 4.58724 74.1471 4.45703 74.8633 4.45703ZM80.5664 16V0.882812H82.6758V5.0625C82.6758 5.17969 82.7214 5.20573 82.8125 5.14062C83.4766 4.76302 84.2513 4.57422 85.1367 4.57422C86.2174 4.57422 87.1224 4.86719 87.8516 5.45312C88.5938 6.03906 89.0755 6.65755 89.2969 7.30859C89.5182 7.94661 89.6419 8.57161 89.668 9.18359V16H87.5586V9.18359C87.5586 8.80599 87.5195 8.45443 87.4414 8.12891C87.3633 7.80339 87.1289 7.47786 86.7383 7.15234C86.3477 6.8138 85.8138 6.64453 85.1367 6.64453C84.6419 6.64453 84.2188 6.73568 83.8672 6.91797C83.5156 7.08724 83.2552 7.32161 83.0859 7.62109C82.9297 7.90755 82.819 8.16797 82.7539 8.40234C82.7018 8.63672 82.6758 8.89714 82.6758 9.18359V16H80.5664ZM93.418 1.01953C93.6393 1.21484 93.75 1.45573 93.75 1.74219C93.75 2.01562 93.6393 2.25651 93.418 2.46484C93.1966 2.67318 92.9492 2.77734 92.6758 2.77734C92.4023 2.77734 92.1615 2.67318 91.9531 2.46484C91.7448 2.25651 91.6406 2.01562 91.6406 1.74219C91.6406 1.45573 91.7448 1.21484 91.9531 1.01953C92.1615 0.811198 92.4023 0.707031 92.6758 0.707031C92.9492 0.707031 93.1966 0.811198 93.418 1.01953ZM93.75 4.71094V16.0391H91.6797V4.71094H93.75ZM103.926 4.45703C105.059 4.45703 105.957 4.77604 106.621 5.41406C107.285 6.03906 107.702 6.68359 107.871 7.34766L105.918 7.89453C105.618 6.99609 104.954 6.54688 103.926 6.54688C103.288 6.54688 102.839 6.6901 102.578 6.97656C102.331 7.26302 102.207 7.58203 102.207 7.93359C102.207 8.3763 102.669 8.68229 103.594 8.85156L103.77 8.89062C104.616 9.00781 105.332 9.21615 105.918 9.51562C106.517 9.8151 106.94 10.1016 107.188 10.375C107.448 10.6354 107.637 10.9284 107.754 11.2539C107.884 11.5794 107.956 11.8268 107.969 11.9961C107.995 12.1523 108.008 12.3216 108.008 12.5039C108.008 12.9857 107.949 13.3958 107.832 13.7344C107.337 15.2318 106.035 15.9805 103.926 15.9805C103.132 15.9805 102.435 15.8372 101.836 15.5508C101.237 15.2643 100.788 14.9062 100.488 14.4766C100.202 14.0339 99.987 13.6042 99.8438 13.1875C99.7135 12.7578 99.6484 12.3607 99.6484 11.9961H101.641C101.784 13.2591 102.546 13.8906 103.926 13.8906H104.082C105.111 13.8776 105.742 13.513 105.977 12.7969C106.003 12.7318 106.016 12.6862 106.016 12.6602V12.543C106.016 11.6966 105.267 11.1823 103.77 11C102.975 10.8958 102.311 10.7201 101.777 10.4727C101.257 10.2122 100.892 9.90625 100.684 9.55469C100.488 9.1901 100.358 8.88411 100.293 8.63672C100.228 8.3763 100.195 8.08984 100.195 7.77734C100.195 7.50391 100.247 7.19792 100.352 6.85938C100.456 6.52083 100.632 6.16276 100.879 5.78516C101.126 5.40755 101.517 5.09505 102.051 4.84766C102.585 4.58724 103.21 4.45703 103.926 4.45703ZM118.867 4.67188H120.918V21.3516H118.867V14.8086C118.867 14.6654 118.822 14.6523 118.73 14.7695C117.845 15.5898 116.673 16 115.215 16C113.809 16 112.474 15.4857 111.211 14.457C109.948 13.4284 109.316 12.0091 109.316 10.1992C109.316 8.38932 109.915 6.98307 111.113 5.98047C112.324 4.97786 113.691 4.47656 115.215 4.47656C116.1 4.47656 116.849 4.60677 117.461 4.86719C118.073 5.11458 118.509 5.40104 118.77 5.72656C118.835 5.77865 118.867 5.79818 118.867 5.78516V5.62891V4.67188ZM112.461 12.8359C113.177 13.5391 114.062 13.8906 115.117 13.8906C116.172 13.8906 117.057 13.5391 117.773 12.8359C118.503 12.1328 118.867 11.2669 118.867 10.2383C118.867 9.20964 118.503 8.33073 117.773 7.60156C117.057 6.8724 116.172 6.50781 115.117 6.50781C114.062 6.50781 113.177 6.8724 112.461 7.60156C111.745 8.33073 111.387 9.20964 111.387 10.2383C111.387 11.2669 111.745 12.1328 112.461 12.8359ZM122.52 11.3516V4.35938H124.707V11.3516C124.707 13.0052 125.508 13.832 127.109 13.832C127.63 13.832 128.073 13.7409 128.438 13.5586C128.802 13.3763 129.056 13.1354 129.199 12.8359C129.342 12.5234 129.434 12.2565 129.473 12.0352C129.525 11.8008 129.551 11.5729 129.551 11.3516V4.35938H131.738L131.758 10.1602C131.745 10.3815 131.725 10.6484 131.699 10.9609C131.673 12.0026 131.536 12.8164 131.289 13.4023C131.042 13.9492 130.762 14.3984 130.449 14.75C130.228 14.9974 129.779 15.2839 129.102 15.6094C128.581 15.8698 127.91 15.987 127.09 15.9609C126.309 15.9609 125.618 15.8242 125.02 15.5508C124.421 15.2773 123.965 14.9583 123.652 14.5938C123.353 14.2161 123.112 13.793 122.93 13.3242C122.747 12.8555 122.63 12.4714 122.578 12.1719C122.539 11.8724 122.52 11.599 122.52 11.3516ZM144.863 4.53516V16H142.715V14.8086V14.6719L142.676 14.7305C141.764 15.5768 140.547 16 139.023 16C137.617 16 136.302 15.4792 135.078 14.4375C133.867 13.3958 133.262 11.9831 133.262 10.1992C133.262 8.38932 133.861 6.97656 135.059 5.96094C136.257 4.94531 137.578 4.4375 139.023 4.4375C140.664 4.4375 141.882 4.83464 142.676 5.62891C142.702 5.65495 142.715 5.64193 142.715 5.58984V4.53516H144.863ZM136.387 12.8164C137.116 13.5326 137.995 13.8906 139.023 13.8906C140.052 13.8906 140.931 13.5326 141.66 12.8164C142.389 12.1003 142.754 11.2344 142.754 10.2188C142.754 9.20312 142.389 8.32422 141.66 7.58203C140.931 6.83984 140.052 6.46875 139.023 6.46875C137.995 6.46875 137.116 6.83984 136.387 7.58203C135.658 8.32422 135.293 9.20312 135.293 10.2188C135.293 11.2344 135.658 12.1003 136.387 12.8164ZM157.793 0.707031V15.9609H155.684V14.8086V14.6523C155.684 14.6393 155.651 14.6654 155.586 14.7305C154.622 15.5508 153.418 15.9609 151.973 15.9609C150.371 15.9609 148.997 15.3945 147.852 14.2617C146.706 13.1289 146.133 11.7682 146.133 10.1797C146.133 8.57812 146.706 7.21094 147.852 6.07812C148.997 4.93229 150.371 4.35938 151.973 4.35938C153.379 4.35938 154.583 4.78255 155.586 5.62891C155.651 5.69401 155.684 5.71354 155.684 5.6875V5.49219V0.707031H157.793ZM149.297 12.8164C150.039 13.5326 150.924 13.8906 151.953 13.8906C152.995 13.8906 153.874 13.5326 154.59 12.8164C155.319 12.1003 155.684 11.2214 155.684 10.1797C155.684 9.13802 155.319 8.24609 154.59 7.50391C153.874 6.7487 152.995 6.37109 151.953 6.37109C150.924 6.37109 150.039 6.7487 149.297 7.50391C148.568 8.24609 148.203 9.13802 148.203 10.1797C148.203 11.2214 148.568 12.1003 149.297 12.8164Z" fill="white"/>
<path d="M410 37L438.5 37" stroke="white" stroke-width="7"/>
</svg>
