<svg width="40" height="36" viewBox="0 0 40 36" fill="none" xmlns="http://www.w3.org/2000/svg">
<path d="M9.05378 26.1202C8.89744 27.017 8.28875 27.6654 7.69421 27.5685C7.09968 27.4716 6.74445 26.6661 6.90079 25.7693C7.05712 24.8724 7.66582 24.224 8.26035 24.3209C8.85489 24.4178 9.21011 25.2234 9.05378 26.1202Z" fill="white"/>
<path d="M24.1454 28.5799C23.9891 29.4768 23.3804 30.1252 22.7858 30.0283C22.1913 29.9314 21.8361 29.1258 21.9924 28.229C22.1488 27.3322 22.7574 26.6838 23.352 26.7807C23.9465 26.8776 24.3017 27.6831 24.1454 28.5799Z" fill="white"/>
<path fill-rule="evenodd" clip-rule="evenodd" d="M32.9257 35.1799C33.8907 34.9976 34.6859 34.7924 35.1858 34.5715C39.1505 32.8198 45.7082 21.1938 30.1505 5.75446C30.1528 5.67229 30.1538 5.60132 30.1538 5.54266C30.1538 5.10208 29.9752 4.34871 29.7008 3.65787C29.4275 2.96963 28.9469 2.04988 28.1542 1.49588C27.4925 1.03338 26.6084 0.720151 25.6708 0.502026C24.7136 0.279363 23.6096 0.135507 22.4412 0.0611425C20.1053 -0.0875336 17.4242 0.0361814 14.9804 0.418659C12.5502 0.799017 11.2411 2.02513 10.5935 3.26429C10.2837 3.85725 10.1418 4.41978 10.0765 4.83387C10.0436 5.0423 10.0293 5.21768 10.0235 5.34682C10.0218 5.38525 10.0208 5.41976 10.0203 5.45001C10.0071 5.53219 9.99397 5.62404 9.98117 5.72456C7.99808 8.08731 4.80431 12.08 2.57078 16.3146C1.36194 18.6065 0.411378 21.0113 0.104763 23.2961C-0.203 25.5895 0.132844 27.8189 1.57376 29.6656C3.31634 31.899 6.12982 33.3742 9.30863 34.334C12.4991 35.2972 16.1443 35.7673 19.6602 35.9307C23.1802 36.0943 26.5992 35.9517 29.3507 35.6757C30.7265 35.5377 31.9424 35.3656 32.9257 35.1799ZM3.94131 16.9895C2.77244 19.2056 1.90515 21.4386 1.63023 23.4872C1.35646 25.5273 1.6754 27.3269 2.80205 28.7709C4.26892 30.6509 6.73265 31.9991 9.7674 32.9153C12.7904 33.828 16.2952 34.2863 19.7341 34.4462C23.1691 34.6058 26.5099 34.4663 29.1918 34.1973C30.5327 34.0628 31.7018 33.8966 32.6306 33.7212C33.5777 33.5423 34.2215 33.3633 34.5461 33.2198C37.0336 32.1208 43.9394 22.3021 30.0062 7.76494C29.9623 8.18976 29.9074 8.64974 29.8396 9.1271C29.6088 10.7522 29.2127 12.7047 28.5365 14.1811C28.2404 14.8275 27.6125 15.1388 27.1698 15.2997C26.6778 15.4786 26.0888 15.5872 25.4781 15.6557C24.2469 15.7938 22.6965 15.7923 21.122 15.7202C17.9658 15.5755 14.5097 15.136 12.8728 14.8269C11.72 14.6092 11.0375 13.7416 10.648 12.9098C10.2546 12.0697 10.0519 11.0552 9.94788 10.0993C9.88148 9.48938 9.85182 8.86772 9.8469 8.2776C7.98012 10.6009 5.65967 13.7316 3.94131 16.9895Z" fill="white"/>
</svg>
