<svg width="124" height="120" viewBox="0 0 124 120" fill="none" xmlns="http://www.w3.org/2000/svg">
<path d="M53.8315 85.2725C54.5505 87.2048 54.1273 89.1464 52.8862 89.6093C51.6452 90.0722 50.0562 88.881 49.3373 86.9487C48.6183 85.0165 49.0415 83.0748 50.2825 82.6119C51.5236 82.149 53.1125 83.3402 53.8315 85.2725Z" fill="#56CBF9"/>
<path d="M85.3345 73.5227C86.0535 75.455 85.6302 77.3966 84.3892 77.8595C83.1481 78.3224 81.5592 77.1312 80.8402 75.1989C80.1212 73.2667 80.5444 71.325 81.7855 70.8621C83.0266 70.3992 84.6155 71.5904 85.3345 73.5227Z" fill="#56CBF9"/>
<path fill-rule="evenodd" clip-rule="evenodd" d="M109.521 76.8336C111.151 75.4157 112.431 74.1394 113.132 73.1566C118.69 65.3625 117.991 35.3353 70.8899 22.1168C70.8011 21.953 70.7227 21.8125 70.6562 21.6973C70.1568 20.8324 68.963 19.5497 67.658 18.4949C66.3579 17.4441 64.401 16.1665 62.2649 15.9497C60.4815 15.7687 58.4444 16.1249 56.4131 16.7268C54.3396 17.3411 52.0759 18.2715 49.7685 19.409C45.1555 21.6832 40.1942 24.8714 35.9779 28.3069C31.7849 31.7232 30.6839 35.5682 30.8562 38.7122C30.9387 40.2167 31.3064 41.4768 31.6514 42.3615C31.825 42.8068 31.9967 43.1668 32.132 43.4267C32.1723 43.504 32.2095 43.5729 32.2428 43.6328C32.3108 43.8086 32.39 44.0034 32.4796 44.2147C31.3843 51.0316 29.8328 62.3781 30.3826 73.1449C30.6801 78.972 31.5971 84.7371 33.6033 89.5593C35.617 94.3995 38.7829 98.4072 43.6176 100.45C49.4645 102.92 56.4899 102.725 63.626 101.117C70.7884 99.5033 78.257 96.4218 85.1319 92.8802C92.0148 89.3346 98.3585 85.2987 103.281 81.7343C105.742 79.952 107.861 78.2785 109.521 76.8336ZM33.7552 72.9641C34.0429 78.5987 34.9236 83.935 36.7224 88.2587C38.5137 92.5643 41.1603 95.7469 44.9406 97.3439C49.8624 99.4231 56.0783 99.3633 62.891 97.8282C69.6774 96.2991 76.8654 93.3488 83.5899 89.8847C90.3065 86.4246 96.5051 82.4809 101.303 79.0066C103.702 77.2696 105.738 75.659 107.306 74.2943C108.906 72.9026 109.928 71.844 110.383 71.2058C113.87 66.3156 115.881 39.4542 72.894 26.2221C73.2921 27.1043 73.7089 28.0676 74.1209 29.0792C75.5237 32.5229 76.983 36.7912 77.3696 40.4322C77.539 42.0266 76.697 43.3274 76.0372 44.1296C75.3038 45.0212 74.3062 45.8815 73.2218 46.6869C71.0358 48.3104 68.084 50.0108 65.0064 51.5988C58.8371 54.782 51.763 57.7157 48.298 58.9071C45.858 59.7462 43.576 58.7927 41.8923 57.5877C40.1915 56.3706 38.6559 54.6016 37.3746 52.8395C36.5569 51.715 35.7959 50.5272 35.1177 49.3742C34.199 55.9858 33.3322 64.6808 33.7552 72.9641Z" fill="#56CBF9"/>
<path d="M46.8315 90.2725C47.5505 92.2048 47.1273 94.1464 45.8862 94.6093C44.6452 95.0722 43.0562 93.881 42.3373 91.9487C41.6183 90.0165 42.0415 88.0748 43.2825 87.6119C44.5236 87.149 46.1125 88.3402 46.8315 90.2725Z" fill="#FA719D"/>
<path d="M78.3345 78.5227C79.0535 80.455 78.6302 82.3966 77.3892 82.8595C76.1481 83.3224 74.5592 82.1312 73.8402 80.1989C73.1212 78.2667 73.5444 76.325 74.7855 75.8621C76.0266 75.3992 77.6155 76.5904 78.3345 78.5227Z" fill="#FA719D"/>
<path fill-rule="evenodd" clip-rule="evenodd" d="M102.521 81.8336C104.151 80.4157 105.431 79.1394 106.132 78.1566C111.69 70.3625 110.991 40.3353 63.8899 27.1168C63.8011 26.953 63.7227 26.8125 63.6562 26.6973C63.1568 25.8324 61.963 24.5497 60.658 23.4949C59.3579 22.4441 57.401 21.1665 55.2649 20.9497C53.4815 20.7687 51.4444 21.1249 49.4131 21.7268C47.3396 22.3411 45.0759 23.2715 42.7685 24.409C38.1555 26.6832 33.1942 29.8714 28.9779 33.3069C24.7849 36.7232 23.6839 40.5682 23.8562 43.7122C23.9387 45.2167 24.3064 46.4768 24.6514 47.3615C24.825 47.8068 24.9967 48.1668 25.132 48.4267C25.1723 48.504 25.2095 48.5729 25.2428 48.6328C25.3108 48.8086 25.39 49.0034 25.4796 49.2147C24.3843 56.0316 22.8328 67.3781 23.3826 78.1449C23.6801 83.972 24.5971 89.7371 26.6033 94.5593C28.617 99.3995 31.7829 103.407 36.6176 105.45C42.4645 107.92 49.4899 107.725 56.626 106.117C63.7884 104.503 71.257 101.422 78.1319 97.8802C85.0148 94.3346 91.3585 90.2987 96.2809 86.7343C98.7423 84.952 100.861 83.2785 102.521 81.8336ZM26.7552 77.9641C27.0429 83.5987 27.9236 88.935 29.7224 93.2587C31.5137 97.5643 34.1603 100.747 37.9406 102.344C42.8624 104.423 49.0783 104.363 55.891 102.828C62.6774 101.299 69.8654 98.3488 76.5899 94.8847C83.3065 91.4246 89.5051 87.4809 94.3031 84.0066C96.7019 82.2696 98.7382 80.659 100.306 79.2943C101.906 77.9026 102.928 76.844 103.383 76.2058C106.87 71.3156 108.881 44.4542 65.894 31.2221C66.2921 32.1043 66.7089 33.0676 67.1209 34.0792C68.5237 37.5229 69.983 41.7912 70.3696 45.4322C70.539 47.0266 69.697 48.3274 69.0372 49.1296C68.3038 50.0212 67.3062 50.8815 66.2218 51.6869C64.0358 53.3104 61.084 55.0108 58.0064 56.5988C51.8371 59.782 44.763 62.7157 41.298 63.9071C38.858 64.7462 36.576 63.7927 34.8923 62.5877C33.1915 61.3706 31.6559 59.6016 30.3746 57.8395C29.5569 56.715 28.7959 55.5272 28.1177 54.3742C27.199 60.9858 26.3322 69.6808 26.7552 77.9641Z" fill="#FA719D"/>
<path d="M50.6842 88.0174C51.3982 89.9409 50.9713 91.8763 49.7308 92.3401C48.4903 92.8039 46.9059 91.6206 46.192 89.6971C45.478 87.7736 45.9049 85.8382 47.1454 85.3744C48.3859 84.9106 49.9703 86.0939 50.6842 88.0174Z" fill="white"/>
<path d="M82.1733 76.2436C82.8873 78.1671 82.4604 80.1024 81.2199 80.5663C79.9794 81.0301 78.395 79.8468 77.6811 77.9232C76.9671 75.9997 77.394 74.0644 78.6345 73.6006C79.875 73.1367 81.4594 74.3201 82.1733 76.2436Z" fill="white"/>
<path fill-rule="evenodd" clip-rule="evenodd" d="M106.323 79.49C107.953 78.074 109.235 76.7996 109.937 75.819C115.505 68.042 114.871 38.1283 67.8574 25.0606C67.7691 24.8976 67.6911 24.7578 67.6249 24.6432C67.1281 23.7826 65.9385 22.5073 64.6374 21.4592C63.3412 20.4151 61.3895 19.1464 59.2564 18.9351C57.4757 18.7586 55.4404 19.1179 53.4103 19.7219C51.338 20.3384 49.0751 21.2702 46.7682 22.4084C42.156 24.6841 37.194 27.8711 32.9755 31.3028C28.7804 34.7154 27.6725 38.5485 27.8378 41.6804C27.9169 43.179 28.2815 44.4337 28.6241 45.3143C28.7966 45.7576 28.9673 46.1158 29.1018 46.3745C29.1419 46.4515 29.1789 46.52 29.212 46.5796C29.2796 46.7546 29.3583 46.9484 29.4473 47.1588C28.3387 53.9526 26.7646 65.2602 27.2906 75.9855C27.5752 81.7903 28.4786 87.5319 30.4719 92.3318C32.4727 97.1496 35.626 101.136 40.4504 103.16C46.2847 105.608 53.3017 105.399 60.4324 103.782C67.5894 102.159 75.0553 99.0725 81.9293 95.5293C88.8112 91.9821 95.1557 87.9476 100.08 84.3859C102.542 82.6049 104.661 80.9331 106.323 79.49ZM30.6594 75.7982C30.9346 81.4111 31.8027 86.7257 33.59 91.0293C35.3698 95.315 38.0063 98.48 41.7784 100.063C46.6896 102.124 52.8978 102.051 59.7054 100.507C66.4867 98.9687 73.6721 96.0139 80.3957 92.5483C87.1113 89.0867 93.3108 85.1443 98.1103 81.6726C100.51 79.937 102.547 78.3279 104.116 76.965C105.717 75.5751 106.74 74.5182 107.196 73.8814C110.689 69.0019 112.756 42.2364 69.8502 29.1463C70.2459 30.0243 70.6601 30.9831 71.0695 31.9901C72.4631 35.4179 73.9113 39.6671 74.2897 43.2938C74.4554 44.8818 73.6117 46.1796 72.9509 46.9802C72.2165 47.8701 71.2184 48.7293 70.1335 49.534C67.9467 51.1562 64.995 52.8566 61.9178 54.4453C55.7493 57.6299 48.6777 60.5679 45.2144 61.7623C42.7757 62.6035 40.4985 61.6585 38.8195 60.4616C37.1234 59.2527 35.5936 57.4936 34.3176 55.7409C33.5034 54.6224 32.7459 53.4406 32.071 52.2933C31.1392 58.8823 30.2548 67.5467 30.6594 75.7982Z" fill="white"/>
</svg>
