<svg width="428" height="296" viewBox="0 0 428 296" fill="none" xmlns="http://www.w3.org/2000/svg">
<g filter="url(#filter0_d_441_371)">
<path d="M428.031 296H367.501L194.749 296C190.001 296 185.37 294.651 181.359 292.111L125.565 256.775C71.3259 267.609 -2.50751 274.648 8.00015 229.5C24.3717 159.157 1.50006 191.5 0.500061 163C-0.499939 134.5 -0.499939 50 6.10352e-05 54.5001V1.46812C-0.601562 0.492989 -0.659485 0.231807 6.10352e-05 0.870578C7.39835 8.03565 16.6783 17.8647 33.3719 35.6571C117.618 125.449 228.085 104.644 288.872 154.657C353.845 208.114 367.754 242.425 428 285L428.016 290.604C428.016 290.609 428.016 290.614 428.016 290.62C428.024 292.619 428.031 294.594 428.031 296Z" fill="#FF729F"/>
</g>
<g filter="url(#filter1_d_441_371)">
<path d="M94.5003 294L0.000305176 296C0.000305176 296 -0.198456 122.315 0.000305176 122.5C17.3627 138.645 38.0975 150.708 63.5003 156C135.5 171 211 156 283 213C304.707 230.185 335.413 261.14 367.718 296L215 296L94.5003 294Z" fill="#56CBF9"/>
</g>
<g filter="url(#filter2_d_441_371)">
<path d="M203.5 296H78.5H0.000198364L0.000198364 227C0.000198364 227 -1.9998 163.964 0.000198364 164.775C83.3144 198.577 192.915 249.176 211.751 288C213.162 290.909 214.43 293.57 215.562 296C215.563 296 215.562 296 215.562 296H209.531H203.5Z" fill="#81F4E1"/>
</g>
<defs>
<filter id="filter0_d_441_371" x="-4.47314" y="0.521729" width="436.504" height="303.478" filterUnits="userSpaceOnUse" color-interpolation-filters="sRGB">
<feFlood flood-opacity="0" result="BackgroundImageFix"/>
<feColorMatrix in="SourceAlpha" type="matrix" values="0 0 0 0 0 0 0 0 0 0 0 0 0 0 0 0 0 0 127 0" result="hardAlpha"/>
<feOffset dy="4"/>
<feGaussianBlur stdDeviation="2"/>
<feColorMatrix type="matrix" values="0 0 0 0 0 0 0 0 0 0 0 0 0 0 0 0 0 0 0.25 0"/>
<feBlend mode="normal" in2="BackgroundImageFix" result="effect1_dropShadow_441_371"/>
<feBlend mode="normal" in="SourceGraphic" in2="effect1_dropShadow_441_371" result="shape"/>
</filter>
<filter id="filter1_d_441_371" x="-4.08789" y="122.5" width="375.806" height="181.5" filterUnits="userSpaceOnUse" color-interpolation-filters="sRGB">
<feFlood flood-opacity="0" result="BackgroundImageFix"/>
<feColorMatrix in="SourceAlpha" type="matrix" values="0 0 0 0 0 0 0 0 0 0 0 0 0 0 0 0 0 0 127 0" result="hardAlpha"/>
<feOffset dy="4"/>
<feGaussianBlur stdDeviation="2"/>
<feColorMatrix type="matrix" values="0 0 0 0 0 0 0 0 0 0 0 0 0 0 0 0 0 0 0.25 0"/>
<feBlend mode="normal" in2="BackgroundImageFix" result="effect1_dropShadow_441_371"/>
<feBlend mode="normal" in="SourceGraphic" in2="effect1_dropShadow_441_371" result="shape"/>
</filter>
<filter id="filter2_d_441_371" x="-4.88867" y="164.768" width="224.451" height="139.233" filterUnits="userSpaceOnUse" color-interpolation-filters="sRGB">
<feFlood flood-opacity="0" result="BackgroundImageFix"/>
<feColorMatrix in="SourceAlpha" type="matrix" values="0 0 0 0 0 0 0 0 0 0 0 0 0 0 0 0 0 0 127 0" result="hardAlpha"/>
<feOffset dy="4"/>
<feGaussianBlur stdDeviation="2"/>
<feColorMatrix type="matrix" values="0 0 0 0 0 0 0 0 0 0 0 0 0 0 0 0 0 0 0.25 0"/>
<feBlend mode="normal" in2="BackgroundImageFix" result="effect1_dropShadow_441_371"/>
<feBlend mode="normal" in="SourceGraphic" in2="effect1_dropShadow_441_371" result="shape"/>
</filter>
</defs>
</svg>
