<svg width="428" height="176" viewBox="0 0 428 176" fill="none" xmlns="http://www.w3.org/2000/svg">
<g clip-path="url(#clip0_1367_116)">
<rect width="428" height="926" transform="translate(0 -750)" fill="black"/>
<path d="M343.45 12.2438C452.583 6.08109 550.594 212.757 482.782 291.186C424.359 358.756 398.813 322.29 319.248 365.889C280.328 387.216 298.225 422.045 258.233 483.1C218.242 544.156 168.491 557.542 129.384 553.385C24.0671 542.189 14.9344 460.593 -12.8068 382.32C-40.5481 304.047 -69.2084 288.902 -99.55 196.9C-129.891 104.899 -161.359 20.1409 -61.5499 12.244C108.438 -1.20544 99.3181 110.941 165.638 102.028C231.958 93.1154 238.449 18.1733 343.45 12.2438Z" fill="#4F4F4F"/>
<path d="M263.004 101.329C199.65 96.8716 194.612 38.2052 95.1568 39.3113C58.5772 39.7181 24.969 64.6627 -3.8366e-05 99.9944L-1.63625e-05 175.5L428 175.5L428 0.499995C340.623 32.031 312.387 104.804 263.004 101.329Z" fill="white"/>
</g>
<defs>
<clipPath id="clip0_1367_116">
<rect width="428" height="926" fill="white" transform="translate(0 -750)"/>
</clipPath>
</defs>
</svg>
