<svg width="428" height="176" viewBox="0 0 428 176" fill="none" xmlns="http://www.w3.org/2000/svg">
<g clip-path="url(#clip0_667_39)">
<rect width="428" height="926" transform="translate(0 -750)" fill="white"/>
<path d="M343.45 12.2438C452.583 6.08109 550.594 212.757 482.782 291.186C424.359 358.756 398.813 322.29 319.248 365.889C280.328 387.216 298.225 422.045 258.233 483.1C218.242 544.156 168.491 557.542 129.384 553.385C24.0671 542.189 14.9344 460.593 -12.8068 382.32C-40.5481 304.047 -69.2084 288.902 -99.55 196.9C-129.891 104.899 -161.359 20.1409 -61.5499 12.244C108.438 -1.20544 99.3181 110.941 165.638 102.028C231.958 93.1154 238.449 18.1733 343.45 12.2438Z" fill="#4F4F4F"/>
<path d="M95.1568 39.3113C-8.21192 40.4609 -87.8523 237.556 -15.8692 311.276C46.1468 374.787 66.4039 336.694 145.83 374.875C184.683 393.552 171.456 429.5 215.445 487.745C259.435 545.989 307.657 556.019 344.037 549.255C442.009 531.041 442.126 449.016 460.105 369.062C478.084 289.108 566.574 284.44 585.574 190.613C604.573 96.7874 614.381 -12.8778 519.609 -14.0821C358.2 -16.1331 326.358 105.787 263.004 101.329C199.65 96.8716 194.612 38.2053 95.1568 39.3113Z" fill="black"/>
</g>
<defs>
<clipPath id="clip0_667_39">
<rect width="428" height="926" fill="white" transform="translate(0 -750)"/>
</clipPath>
</defs>
</svg>
