<svg width="366" height="182" viewBox="0 0 366 182" fill="none" xmlns="http://www.w3.org/2000/svg">
<path d="M2.60973 35.002C2.61758 25.3371 10.459 17.5084 20.1239 17.5162L345.123 17.7803C354.788 17.7882 362.617 25.6295 362.609 35.2945L362.515 150.295C362.507 159.96 354.666 167.788 345.001 167.78L20.0021 167.516C10.3371 167.508 2.50844 159.667 2.51629 150.002L2.60973 35.002Z" fill="white" stroke="#292929" stroke-width="5" stroke-linejoin="round"/>
<rect x="94.6855" width="12.9914" height="27" transform="rotate(32.9501 94.6855 0)" fill="white"/>
<rect x="127.686" width="12.9914" height="27" transform="rotate(32.9501 127.686 0)" fill="white"/>
<rect x="156.686" y="4" width="12.9914" height="27" transform="rotate(32.9501 156.686 4)" fill="white"/>
<rect x="215.686" y="148" width="12.9914" height="27" transform="rotate(32.9501 215.686 148)" fill="white"/>
<rect x="248.686" y="148" width="12.9914" height="27" transform="rotate(32.9501 248.686 148)" fill="white"/>
<rect x="277.686" y="152" width="12.9914" height="27" transform="rotate(32.9501 277.686 152)" fill="white"/>
<rect width="33.227" height="130.529" rx="16.6135" transform="matrix(0.00041948 -1 1 0.00042091 21.9863 108.218)" fill="#FF7FA8" fill-opacity="0.8"/>
<rect x="103.061" y="157.542" width="31.6051" height="130.543" rx="15.8025" transform="rotate(-180 103.061 157.542)" fill="#FF729F" fill-opacity="0.85"/>
<path d="M249 92.5C249 127.018 221.018 155 186.5 155C151.982 155 124 127.018 124 92.5C124 57.9822 151.982 30 186.5 30C221.018 30 249 57.9822 249 92.5Z" fill="#6FD6FF" fill-opacity="0.7"/>
<path d="M273.015 45.6763C274.204 43.9166 276.796 43.9166 277.985 45.6763L331.659 125.07C333.006 127.062 331.578 129.75 329.173 129.75H221.827C219.422 129.75 217.994 127.062 219.341 125.07L273.015 45.6763Z" fill="#C0FAF0" fill-opacity="0.9"/>
<path d="M22 116H98L95.2147 121H22V116Z" fill="#96EBFF"/>
<path d="M327 36L245 36L252.175 32L327 32V36Z" fill="#FDAFC8"/>
<path d="M170.5 111.5H271.002L268.011 115.5H170.5V111.5Z" fill="black" stroke="black"/>
<path d="M84.4828 84.2227C86.5219 84.2227 88.1391 84.7969 89.3344 85.9453C90.5297 87.0703 91.2797 88.2305 91.5844 89.4258L88.0688 90.4102C87.5297 88.793 86.3344 87.9844 84.4828 87.9844C83.3344 87.9844 82.5258 88.2422 82.0571 88.7578C81.6117 89.2734 81.3891 89.8477 81.3891 90.4805C81.3891 91.2773 82.2211 91.8281 83.8852 92.1328L84.2016 92.2031C85.725 92.4141 87.0141 92.7891 88.0688 93.3281C89.1469 93.8672 89.9086 94.3828 90.3539 94.875C90.8227 95.3438 91.1625 95.8711 91.3735 96.457C91.6078 97.043 91.7367 97.4883 91.7602 97.793C91.8071 98.0742 91.8305 98.3789 91.8305 98.707C91.8305 99.5742 91.725 100.312 91.5141 100.922C90.6235 103.617 88.2797 104.965 84.4828 104.965C83.0531 104.965 81.7992 104.707 80.7211 104.191C79.643 103.676 78.8344 103.031 78.2953 102.258C77.7797 101.461 77.393 100.688 77.1352 99.9375C76.9008 99.1641 76.7836 98.4492 76.7836 97.793H80.3696C80.6274 100.066 81.9985 101.203 84.4828 101.203H84.7641C86.6156 101.18 87.7524 100.523 88.1742 99.2344C88.2211 99.1172 88.2446 99.0352 88.2446 98.9883V98.7773C88.2446 97.2539 86.8969 96.3281 84.2016 96C82.7719 95.8125 81.5766 95.4961 80.6156 95.0508C79.6781 94.582 79.0219 94.0312 78.6469 93.3984C78.2953 92.7422 78.061 92.1914 77.9438 91.7461C77.8266 91.2773 77.768 90.7617 77.768 90.1992C77.768 89.707 77.8617 89.1562 78.0492 88.5469C78.2367 87.9375 78.5531 87.293 78.9985 86.6133C79.4438 85.9336 80.1469 85.3711 81.1078 84.9258C82.0688 84.457 83.1938 84.2227 84.4828 84.2227ZM94.2211 96.6328V84.0469H98.1586V96.6328C98.1586 99.6094 99.6 101.098 102.483 101.098C103.42 101.098 104.217 100.934 104.873 100.605C105.53 100.277 105.987 99.8438 106.245 99.3047C106.502 98.7422 106.666 98.2617 106.737 97.8633C106.83 97.4414 106.877 97.0312 106.877 96.6328V84.0469H110.815L110.85 94.4883C110.827 94.8867 110.791 95.3672 110.745 95.9297C110.698 97.8047 110.452 99.2695 110.006 100.324C109.561 101.309 109.057 102.117 108.495 102.75C108.096 103.195 107.288 103.711 106.069 104.297C105.131 104.766 103.924 104.977 102.448 104.93C101.041 104.93 99.7992 104.684 98.7211 104.191C97.643 103.699 96.8227 103.125 96.2602 102.469C95.7211 101.789 95.2875 101.027 94.9594 100.184C94.6313 99.3398 94.4203 98.6484 94.3266 98.1094C94.2563 97.5703 94.2211 97.0781 94.2211 96.6328ZM120.764 84.2227C122.803 84.2227 124.42 84.7969 125.616 85.9453C126.811 87.0703 127.561 88.2305 127.866 89.4258L124.35 90.4102C123.811 88.793 122.616 87.9844 120.764 87.9844C119.616 87.9844 118.807 88.2422 118.338 88.7578C117.893 89.2734 117.67 89.8477 117.67 90.4805C117.67 91.2773 118.502 91.8281 120.166 92.1328L120.483 92.2031C122.006 92.4141 123.295 92.7891 124.35 93.3281C125.428 93.8672 126.19 94.3828 126.635 94.875C127.104 95.3438 127.444 95.8711 127.655 96.457C127.889 97.043 128.018 97.4883 128.041 97.793C128.088 98.0742 128.112 98.3789 128.112 98.707C128.112 99.5742 128.006 100.312 127.795 100.922C126.905 103.617 124.561 104.965 120.764 104.965C119.334 104.965 118.08 104.707 117.002 104.191C115.924 103.676 115.116 103.031 114.577 102.258C114.061 101.461 113.674 100.688 113.416 99.9375C113.182 99.1641 113.065 98.4492 113.065 97.793H116.651C116.909 100.066 118.28 101.203 120.764 101.203H121.045C122.897 101.18 124.034 100.523 124.455 99.2344C124.502 99.1172 124.526 99.0352 124.526 98.9883V98.7773C124.526 97.2539 123.178 96.3281 120.483 96C119.053 95.8125 117.858 95.4961 116.897 95.0508C115.959 94.582 115.303 94.0312 114.928 93.3984C114.577 92.7422 114.342 92.1914 114.225 91.7461C114.108 91.2773 114.049 90.7617 114.049 90.1992C114.049 89.707 114.143 89.1562 114.33 88.5469C114.518 87.9375 114.834 87.293 115.28 86.6133C115.725 85.9336 116.428 85.3711 117.389 84.9258C118.35 84.457 119.475 84.2227 120.764 84.2227ZM131.03 105V77.7891H134.827V85.3125C134.827 85.5234 134.909 85.5703 135.073 85.4531C136.268 84.7734 137.663 84.4336 139.256 84.4336C141.202 84.4336 142.83 84.9609 144.143 86.0156C145.479 87.0703 146.346 88.1836 146.745 89.3555C147.143 90.5039 147.366 91.6289 147.413 92.7305V105H143.616V92.7305C143.616 92.0508 143.545 91.418 143.405 90.832C143.264 90.2461 142.842 89.6602 142.139 89.0742C141.436 88.4648 140.475 88.1602 139.256 88.1602C138.366 88.1602 137.604 88.3242 136.971 88.6523C136.338 88.957 135.87 89.3789 135.565 89.918C135.284 90.4336 135.084 90.9023 134.967 91.3242C134.873 91.7461 134.827 92.2148 134.827 92.7305V105H131.03ZM154.163 78.0352C154.561 78.3867 154.76 78.8203 154.76 79.3359C154.76 79.8281 154.561 80.2617 154.163 80.6367C153.764 81.0117 153.319 81.1992 152.827 81.1992C152.334 81.1992 151.901 81.0117 151.526 80.6367C151.151 80.2617 150.963 79.8281 150.963 79.3359C150.963 78.8203 151.151 78.3867 151.526 78.0352C151.901 77.6602 152.334 77.4727 152.827 77.4727C153.319 77.4727 153.764 77.6602 154.163 78.0352ZM154.76 84.6797V105.07H151.034V84.6797H154.76ZM173.077 84.2227C175.116 84.2227 176.733 84.7969 177.928 85.9453C179.123 87.0703 179.873 88.2305 180.178 89.4258L176.663 90.4102C176.123 88.793 174.928 87.9844 173.077 87.9844C171.928 87.9844 171.12 88.2422 170.651 88.7578C170.205 89.2734 169.983 89.8477 169.983 90.4805C169.983 91.2773 170.815 91.8281 172.479 92.1328L172.795 92.2031C174.319 92.4141 175.608 92.7891 176.663 93.3281C177.741 93.8672 178.502 94.3828 178.948 94.875C179.416 95.3438 179.756 95.8711 179.967 96.457C180.202 97.043 180.33 97.4883 180.354 97.793C180.401 98.0742 180.424 98.3789 180.424 98.707C180.424 99.5742 180.319 100.312 180.108 100.922C179.217 103.617 176.873 104.965 173.077 104.965C171.647 104.965 170.393 104.707 169.315 104.191C168.237 103.676 167.428 103.031 166.889 102.258C166.373 101.461 165.987 100.688 165.729 99.9375C165.495 99.1641 165.377 98.4492 165.377 97.793H168.963C169.221 100.066 170.592 101.203 173.077 101.203H173.358C175.209 101.18 176.346 100.523 176.768 99.2344C176.815 99.1172 176.838 99.0352 176.838 98.9883V98.7773C176.838 97.2539 175.491 96.3281 172.795 96C171.366 95.8125 170.17 95.4961 169.209 95.0508C168.272 94.582 167.616 94.0312 167.241 93.3984C166.889 92.7422 166.655 92.1914 166.538 91.7461C166.42 91.2773 166.362 90.7617 166.362 90.1992C166.362 89.707 166.455 89.1562 166.643 88.5469C166.83 87.9375 167.147 87.293 167.592 86.6133C168.038 85.9336 168.741 85.3711 169.702 84.9258C170.663 84.457 171.788 84.2227 173.077 84.2227ZM201.764 99.6914C201.178 100.91 200.088 102.105 198.495 103.277C196.924 104.426 194.979 105 192.659 105C189.541 105 187.034 103.945 185.135 101.836C183.237 99.7266 182.288 97.3242 182.288 94.6289C182.288 91.9336 183.248 89.5195 185.17 87.3867C187.092 85.2539 189.588 84.1875 192.659 84.1875C194.979 84.1875 196.924 84.75 198.495 85.875C200.088 86.9766 201.178 88.125 201.764 89.3203L198.354 91.1484C196.924 88.9453 195.026 87.8672 192.659 87.9141C190.901 87.9141 189.342 88.5352 187.983 89.7773C186.623 91.0195 185.944 92.625 185.944 94.5938C185.944 96.5625 186.623 98.1562 187.983 99.375C189.342 100.594 190.901 101.203 192.659 101.203C194.932 101.203 196.854 100.066 198.424 97.793L201.764 99.6914ZM220.854 87.1406C222.893 89.1797 223.913 91.6406 223.913 94.5234C223.913 97.3828 222.893 99.8438 220.854 101.906C218.838 103.969 216.377 105 213.471 105C210.588 105 208.116 103.969 206.053 101.906C203.991 99.8438 202.959 97.3828 202.959 94.5234C202.959 91.6406 203.991 89.1797 206.053 87.1406C208.116 85.0781 210.588 84.0469 213.471 84.0469C216.377 84.0469 218.838 85.0781 220.854 87.1406ZM208.725 99.2344C210.038 100.547 211.62 101.203 213.471 101.203C215.323 101.203 216.905 100.547 218.217 99.2344C219.53 97.9219 220.186 96.3516 220.186 94.5234C220.186 92.6953 219.53 91.1133 218.217 89.7773C216.905 88.4414 215.323 87.7734 213.471 87.7734C211.62 87.7734 210.038 88.4414 208.725 89.7773C207.413 91.1133 206.756 92.6953 206.756 94.5234C206.756 96.3516 207.413 97.9219 208.725 99.2344ZM226.092 96.6328V84.0469H230.03V96.6328C230.03 99.6094 231.471 101.098 234.354 101.098C235.291 101.098 236.088 100.934 236.745 100.605C237.401 100.277 237.858 99.8438 238.116 99.3047C238.373 98.7422 238.538 98.2617 238.608 97.8633C238.702 97.4414 238.748 97.0312 238.748 96.6328V84.0469H242.686L242.721 94.4883C242.698 94.8867 242.663 95.3672 242.616 95.9297C242.569 97.8047 242.323 99.2695 241.877 100.324C241.432 101.309 240.928 102.117 240.366 102.75C239.967 103.195 239.159 103.711 237.94 104.297C237.002 104.766 235.795 104.977 234.319 104.93C232.913 104.93 231.67 104.684 230.592 104.191C229.514 103.699 228.694 103.125 228.131 102.469C227.592 101.789 227.159 101.027 226.83 100.184C226.502 99.3398 226.291 98.6484 226.198 98.1094C226.127 97.5703 226.092 97.0781 226.092 96.6328ZM246.834 97.7227V77.6484H250.526V98.8125C250.526 99.0938 250.666 99.5039 250.948 100.043C251.252 100.559 251.663 100.922 252.178 101.133C252.506 101.25 252.963 101.297 253.549 101.273C254.135 101.273 254.639 101.016 255.061 100.5L258.612 101.766C258.284 102.562 257.627 103.289 256.643 103.945C255.682 104.602 254.487 104.93 253.057 104.93C252.541 104.93 252.014 104.871 251.475 104.754C249.788 104.449 248.592 103.582 247.889 102.152C247.186 100.723 246.834 99.2461 246.834 97.7227ZM250.526 88.2305V84.5039H258.612L257.487 88.2305H250.526ZM244.83 88.2305L245.85 84.5039H246.834V88.2305H244.83ZM267.471 84.2227C269.51 84.2227 271.127 84.7969 272.323 85.9453C273.518 87.0703 274.268 88.2305 274.573 89.4258L271.057 90.4102C270.518 88.793 269.323 87.9844 267.471 87.9844C266.323 87.9844 265.514 88.2422 265.045 88.7578C264.6 89.2734 264.377 89.8477 264.377 90.4805C264.377 91.2773 265.209 91.8281 266.873 92.1328L267.19 92.2031C268.713 92.4141 270.002 92.7891 271.057 93.3281C272.135 93.8672 272.897 94.3828 273.342 94.875C273.811 95.3438 274.151 95.8711 274.362 96.457C274.596 97.043 274.725 97.4883 274.748 97.793C274.795 98.0742 274.819 98.3789 274.819 98.707C274.819 99.5742 274.713 100.312 274.502 100.922C273.612 103.617 271.268 104.965 267.471 104.965C266.041 104.965 264.788 104.707 263.709 104.191C262.631 103.676 261.823 103.031 261.284 102.258C260.768 101.461 260.381 100.688 260.123 99.9375C259.889 99.1641 259.772 98.4492 259.772 97.793H263.358C263.616 100.066 264.987 101.203 267.471 101.203H267.752C269.604 101.18 270.741 100.523 271.163 99.2344C271.209 99.1172 271.233 99.0352 271.233 98.9883V98.7773C271.233 97.2539 269.885 96.3281 267.19 96C265.76 95.8125 264.565 95.4961 263.604 95.0508C262.666 94.582 262.01 94.0312 261.635 93.3984C261.284 92.7422 261.049 92.1914 260.932 91.7461C260.815 91.2773 260.756 90.7617 260.756 90.1992C260.756 89.707 260.85 89.1562 261.038 88.5469C261.225 87.9375 261.541 87.293 261.987 86.6133C262.432 85.9336 263.135 85.3711 264.096 84.9258C265.057 84.457 266.182 84.2227 267.471 84.2227Z" fill="#0A0A0A"/>
</svg>
