<svg width="352" height="131" viewBox="0 0 352 131" fill="none" xmlns="http://www.w3.org/2000/svg">
<rect width="33.227" height="130.529" rx="16.6135" transform="matrix(0.00041948 -1 1 0.00042091 21.9863 81.2178)" fill="#FF729F"/>
<rect x="103.061" y="130.542" width="31.6051" height="130.543" rx="15.8025" transform="rotate(-180 103.061 130.542)" fill="#FF729F"/>
<circle cx="186.5" cy="65.5" r="62.5" fill="#56CBF9"/>
<path d="M254.512 32.694C255.701 30.9286 258.299 30.9286 259.488 32.694L296.286 87.324C297.628 89.3167 296.2 92 293.797 92H220.203C217.8 92 216.372 89.3167 217.714 87.324L254.512 32.694Z" fill="#81F4E1"/>
<path d="M21.9863 89.3188H94.8154L92.1463 93.4412H21.9863V89.3188Z" fill="black"/>
<path d="M324.326 22.1226L246 22.1226L252.854 18.0002L324.326 18.0002V22.1226Z" fill="#FF729F"/>
<path d="M84.4828 52.2227C86.5219 52.2227 88.1391 52.7969 89.3344 53.9453C90.5297 55.0703 91.2797 56.2305 91.5844 57.4258L88.0688 58.4102C87.5297 56.793 86.3344 55.9844 84.4828 55.9844C83.3344 55.9844 82.5258 56.2422 82.0571 56.7578C81.6117 57.2734 81.3891 57.8477 81.3891 58.4805C81.3891 59.2773 82.2211 59.8281 83.8852 60.1328L84.2016 60.2031C85.725 60.4141 87.0141 60.7891 88.0688 61.3281C89.1469 61.8672 89.9086 62.3828 90.3539 62.875C90.8227 63.3438 91.1625 63.8711 91.3735 64.457C91.6078 65.043 91.7367 65.4883 91.7602 65.793C91.8071 66.0742 91.8305 66.3789 91.8305 66.707C91.8305 67.5742 91.725 68.3125 91.5141 68.9219C90.6235 71.6172 88.2797 72.9648 84.4828 72.9648C83.0531 72.9648 81.7992 72.707 80.7211 72.1914C79.643 71.6758 78.8344 71.0312 78.2953 70.2578C77.7797 69.4609 77.393 68.6875 77.1352 67.9375C76.9008 67.1641 76.7836 66.4492 76.7836 65.793H80.3696C80.6274 68.0664 81.9985 69.2031 84.4828 69.2031H84.7641C86.6156 69.1797 87.7524 68.5234 88.1742 67.2344C88.2211 67.1172 88.2446 67.0352 88.2446 66.9883V66.7773C88.2446 65.2539 86.8969 64.3281 84.2016 64C82.7719 63.8125 81.5766 63.4961 80.6156 63.0508C79.6781 62.582 79.0219 62.0312 78.6469 61.3984C78.2953 60.7422 78.061 60.1914 77.9438 59.7461C77.8266 59.2773 77.768 58.7617 77.768 58.1992C77.768 57.707 77.8617 57.1562 78.0492 56.5469C78.2367 55.9375 78.5531 55.293 78.9985 54.6133C79.4438 53.9336 80.1469 53.3711 81.1078 52.9258C82.0688 52.457 83.1938 52.2227 84.4828 52.2227ZM94.2211 64.6328V52.0469H98.1586V64.6328C98.1586 67.6094 99.6 69.0977 102.483 69.0977C103.42 69.0977 104.217 68.9336 104.873 68.6055C105.53 68.2773 105.987 67.8438 106.245 67.3047C106.502 66.7422 106.666 66.2617 106.737 65.8633C106.83 65.4414 106.877 65.0312 106.877 64.6328V52.0469H110.815L110.85 62.4883C110.827 62.8867 110.791 63.3672 110.745 63.9297C110.698 65.8047 110.452 67.2695 110.006 68.3242C109.561 69.3086 109.057 70.1172 108.495 70.75C108.096 71.1953 107.288 71.7109 106.069 72.2969C105.131 72.7656 103.924 72.9766 102.448 72.9297C101.041 72.9297 99.7992 72.6836 98.7211 72.1914C97.643 71.6992 96.8227 71.125 96.2602 70.4688C95.7211 69.7891 95.2875 69.0273 94.9594 68.1836C94.6313 67.3398 94.4203 66.6484 94.3266 66.1094C94.2563 65.5703 94.2211 65.0781 94.2211 64.6328ZM120.764 52.2227C122.803 52.2227 124.42 52.7969 125.616 53.9453C126.811 55.0703 127.561 56.2305 127.866 57.4258L124.35 58.4102C123.811 56.793 122.616 55.9844 120.764 55.9844C119.616 55.9844 118.807 56.2422 118.338 56.7578C117.893 57.2734 117.67 57.8477 117.67 58.4805C117.67 59.2773 118.502 59.8281 120.166 60.1328L120.483 60.2031C122.006 60.4141 123.295 60.7891 124.35 61.3281C125.428 61.8672 126.19 62.3828 126.635 62.875C127.104 63.3438 127.444 63.8711 127.655 64.457C127.889 65.043 128.018 65.4883 128.041 65.793C128.088 66.0742 128.112 66.3789 128.112 66.707C128.112 67.5742 128.006 68.3125 127.795 68.9219C126.905 71.6172 124.561 72.9648 120.764 72.9648C119.334 72.9648 118.08 72.707 117.002 72.1914C115.924 71.6758 115.116 71.0312 114.577 70.2578C114.061 69.4609 113.674 68.6875 113.416 67.9375C113.182 67.1641 113.065 66.4492 113.065 65.793H116.651C116.909 68.0664 118.28 69.2031 120.764 69.2031H121.045C122.897 69.1797 124.034 68.5234 124.455 67.2344C124.502 67.1172 124.526 67.0352 124.526 66.9883V66.7773C124.526 65.2539 123.178 64.3281 120.483 64C119.053 63.8125 117.858 63.4961 116.897 63.0508C115.959 62.582 115.303 62.0312 114.928 61.3984C114.577 60.7422 114.342 60.1914 114.225 59.7461C114.108 59.2773 114.049 58.7617 114.049 58.1992C114.049 57.707 114.143 57.1562 114.33 56.5469C114.518 55.9375 114.834 55.293 115.28 54.6133C115.725 53.9336 116.428 53.3711 117.389 52.9258C118.35 52.457 119.475 52.2227 120.764 52.2227ZM131.03 73V45.7891H134.827V53.3125C134.827 53.5234 134.909 53.5703 135.073 53.4531C136.268 52.7734 137.663 52.4336 139.256 52.4336C141.202 52.4336 142.83 52.9609 144.143 54.0156C145.479 55.0703 146.346 56.1836 146.745 57.3555C147.143 58.5039 147.366 59.6289 147.413 60.7305V73H143.616V60.7305C143.616 60.0508 143.545 59.418 143.405 58.832C143.264 58.2461 142.842 57.6602 142.139 57.0742C141.436 56.4648 140.475 56.1602 139.256 56.1602C138.366 56.1602 137.604 56.3242 136.971 56.6523C136.338 56.957 135.87 57.3789 135.565 57.918C135.284 58.4336 135.084 58.9023 134.967 59.3242C134.873 59.7461 134.827 60.2148 134.827 60.7305V73H131.03ZM154.163 46.0352C154.561 46.3867 154.76 46.8203 154.76 47.3359C154.76 47.8281 154.561 48.2617 154.163 48.6367C153.764 49.0117 153.319 49.1992 152.827 49.1992C152.334 49.1992 151.901 49.0117 151.526 48.6367C151.151 48.2617 150.963 47.8281 150.963 47.3359C150.963 46.8203 151.151 46.3867 151.526 46.0352C151.901 45.6602 152.334 45.4727 152.827 45.4727C153.319 45.4727 153.764 45.6602 154.163 46.0352ZM154.76 52.6797V73.0703H151.034V52.6797H154.76ZM173.077 52.2227C175.116 52.2227 176.733 52.7969 177.928 53.9453C179.123 55.0703 179.873 56.2305 180.178 57.4258L176.663 58.4102C176.123 56.793 174.928 55.9844 173.077 55.9844C171.928 55.9844 171.12 56.2422 170.651 56.7578C170.205 57.2734 169.983 57.8477 169.983 58.4805C169.983 59.2773 170.815 59.8281 172.479 60.1328L172.795 60.2031C174.319 60.4141 175.608 60.7891 176.663 61.3281C177.741 61.8672 178.502 62.3828 178.948 62.875C179.416 63.3438 179.756 63.8711 179.967 64.457C180.202 65.043 180.33 65.4883 180.354 65.793C180.401 66.0742 180.424 66.3789 180.424 66.707C180.424 67.5742 180.319 68.3125 180.108 68.9219C179.217 71.6172 176.873 72.9648 173.077 72.9648C171.647 72.9648 170.393 72.707 169.315 72.1914C168.237 71.6758 167.428 71.0312 166.889 70.2578C166.373 69.4609 165.987 68.6875 165.729 67.9375C165.495 67.1641 165.377 66.4492 165.377 65.793H168.963C169.221 68.0664 170.592 69.2031 173.077 69.2031H173.358C175.209 69.1797 176.346 68.5234 176.768 67.2344C176.815 67.1172 176.838 67.0352 176.838 66.9883V66.7773C176.838 65.2539 175.491 64.3281 172.795 64C171.366 63.8125 170.17 63.4961 169.209 63.0508C168.272 62.582 167.616 62.0312 167.241 61.3984C166.889 60.7422 166.655 60.1914 166.538 59.7461C166.42 59.2773 166.362 58.7617 166.362 58.1992C166.362 57.707 166.455 57.1562 166.643 56.5469C166.83 55.9375 167.147 55.293 167.592 54.6133C168.038 53.9336 168.741 53.3711 169.702 52.9258C170.663 52.457 171.788 52.2227 173.077 52.2227ZM201.764 67.6914C201.178 68.9102 200.088 70.1055 198.495 71.2773C196.924 72.4258 194.979 73 192.659 73C189.541 73 187.034 71.9453 185.135 69.8359C183.237 67.7266 182.288 65.3242 182.288 62.6289C182.288 59.9336 183.248 57.5195 185.17 55.3867C187.092 53.2539 189.588 52.1875 192.659 52.1875C194.979 52.1875 196.924 52.75 198.495 53.875C200.088 54.9766 201.178 56.125 201.764 57.3203L198.354 59.1484C196.924 56.9453 195.026 55.8672 192.659 55.9141C190.901 55.9141 189.342 56.5352 187.983 57.7773C186.623 59.0195 185.944 60.625 185.944 62.5938C185.944 64.5625 186.623 66.1562 187.983 67.375C189.342 68.5938 190.901 69.2031 192.659 69.2031C194.932 69.2031 196.854 68.0664 198.424 65.793L201.764 67.6914ZM220.854 55.1406C222.893 57.1797 223.913 59.6406 223.913 62.5234C223.913 65.3828 222.893 67.8438 220.854 69.9062C218.838 71.9688 216.377 73 213.471 73C210.588 73 208.116 71.9688 206.053 69.9062C203.991 67.8438 202.959 65.3828 202.959 62.5234C202.959 59.6406 203.991 57.1797 206.053 55.1406C208.116 53.0781 210.588 52.0469 213.471 52.0469C216.377 52.0469 218.838 53.0781 220.854 55.1406ZM208.725 67.2344C210.038 68.5469 211.62 69.2031 213.471 69.2031C215.323 69.2031 216.905 68.5469 218.217 67.2344C219.53 65.9219 220.186 64.3516 220.186 62.5234C220.186 60.6953 219.53 59.1133 218.217 57.7773C216.905 56.4414 215.323 55.7734 213.471 55.7734C211.62 55.7734 210.038 56.4414 208.725 57.7773C207.413 59.1133 206.756 60.6953 206.756 62.5234C206.756 64.3516 207.413 65.9219 208.725 67.2344ZM226.092 64.6328V52.0469H230.03V64.6328C230.03 67.6094 231.471 69.0977 234.354 69.0977C235.291 69.0977 236.088 68.9336 236.745 68.6055C237.401 68.2773 237.858 67.8438 238.116 67.3047C238.373 66.7422 238.538 66.2617 238.608 65.8633C238.702 65.4414 238.748 65.0312 238.748 64.6328V52.0469H242.686L242.721 62.4883C242.698 62.8867 242.663 63.3672 242.616 63.9297C242.569 65.8047 242.323 67.2695 241.877 68.3242C241.432 69.3086 240.928 70.1172 240.366 70.75C239.967 71.1953 239.159 71.7109 237.94 72.2969C237.002 72.7656 235.795 72.9766 234.319 72.9297C232.913 72.9297 231.67 72.6836 230.592 72.1914C229.514 71.6992 228.694 71.125 228.131 70.4688C227.592 69.7891 227.159 69.0273 226.83 68.1836C226.502 67.3398 226.291 66.6484 226.198 66.1094C226.127 65.5703 226.092 65.0781 226.092 64.6328ZM246.834 65.7227V45.6484H250.526V66.8125C250.526 67.0938 250.666 67.5039 250.948 68.043C251.252 68.5586 251.663 68.9219 252.178 69.1328C252.506 69.25 252.963 69.2969 253.549 69.2734C254.135 69.2734 254.639 69.0156 255.061 68.5L258.612 69.7656C258.284 70.5625 257.627 71.2891 256.643 71.9453C255.682 72.6016 254.487 72.9297 253.057 72.9297C252.541 72.9297 252.014 72.8711 251.475 72.7539C249.788 72.4492 248.592 71.582 247.889 70.1523C247.186 68.7227 246.834 67.2461 246.834 65.7227ZM250.526 56.2305V52.5039H258.612L257.487 56.2305H250.526ZM244.83 56.2305L245.85 52.5039H246.834V56.2305H244.83ZM267.471 52.2227C269.51 52.2227 271.127 52.7969 272.323 53.9453C273.518 55.0703 274.268 56.2305 274.573 57.4258L271.057 58.4102C270.518 56.793 269.323 55.9844 267.471 55.9844C266.323 55.9844 265.514 56.2422 265.045 56.7578C264.6 57.2734 264.377 57.8477 264.377 58.4805C264.377 59.2773 265.209 59.8281 266.873 60.1328L267.19 60.2031C268.713 60.4141 270.002 60.7891 271.057 61.3281C272.135 61.8672 272.897 62.3828 273.342 62.875C273.811 63.3438 274.151 63.8711 274.362 64.457C274.596 65.043 274.725 65.4883 274.748 65.793C274.795 66.0742 274.819 66.3789 274.819 66.707C274.819 67.5742 274.713 68.3125 274.502 68.9219C273.612 71.6172 271.268 72.9648 267.471 72.9648C266.041 72.9648 264.788 72.707 263.709 72.1914C262.631 71.6758 261.823 71.0312 261.284 70.2578C260.768 69.4609 260.381 68.6875 260.123 67.9375C259.889 67.1641 259.772 66.4492 259.772 65.793H263.358C263.616 68.0664 264.987 69.2031 267.471 69.2031H267.752C269.604 69.1797 270.741 68.5234 271.163 67.2344C271.209 67.1172 271.233 67.0352 271.233 66.9883V66.7773C271.233 65.2539 269.885 64.3281 267.19 64C265.76 63.8125 264.565 63.4961 263.604 63.0508C262.666 62.582 262.01 62.0312 261.635 61.3984C261.284 60.7422 261.049 60.1914 260.932 59.7461C260.815 59.2773 260.756 58.7617 260.756 58.1992C260.756 57.707 260.85 57.1562 261.038 56.5469C261.225 55.9375 261.541 55.293 261.987 54.6133C262.432 53.9336 263.135 53.3711 264.096 52.9258C265.057 52.457 266.182 52.2227 267.471 52.2227Z" fill="black"/>
</svg>
