<svg width="366" height="182" viewBox="0 0 366 182" fill="none" xmlns="http://www.w3.org/2000/svg">
<path d="M2.60973 35.002C2.61758 25.3371 10.459 17.5084 20.1239 17.5162L345.123 17.7803C354.788 17.7882 362.617 25.6295 362.609 35.2945L362.515 150.295C362.507 159.96 354.666 167.788 345.001 167.78L20.0021 167.516C10.3371 167.508 2.50844 159.667 2.51629 150.002L2.60973 35.002Z" fill="black" stroke="white" stroke-width="5" stroke-linejoin="round"/>
<rect x="94.6855" width="12.9914" height="27" transform="rotate(32.9501 94.6855 0)" fill="black"/>
<rect x="127.686" width="12.9914" height="27" transform="rotate(32.9501 127.686 0)" fill="black"/>
<rect x="156.686" y="4" width="12.9914" height="27" transform="rotate(32.9501 156.686 4)" fill="black"/>
<rect x="215.686" y="148" width="12.9914" height="27" transform="rotate(32.9501 215.686 148)" fill="black"/>
<rect x="248.686" y="148" width="12.9914" height="27" transform="rotate(32.9501 248.686 148)" fill="black"/>
<rect x="277.686" y="152" width="12.9914" height="27" transform="rotate(32.9501 277.686 152)" fill="black"/>
<rect width="33.227" height="130.529" rx="16.6135" transform="matrix(0.00041948 -1 1 0.00042091 21.9863 108.218)" fill="#FF729F" fill-opacity="0.85"/>
<rect x="103.061" y="157.542" width="31.6051" height="130.543" rx="15.8025" transform="rotate(-180 103.061 157.542)" fill="#FF729F" fill-opacity="0.85"/>
<path d="M249 92.5C249 127.018 221.018 155 186.5 155C151.982 155 124 127.018 124 92.5C124 57.9822 151.982 30 186.5 30C221.018 30 249 57.9822 249 92.5Z" fill="#38C1FF"/>
<path d="M273.015 45.6763C274.204 43.9166 276.796 43.9166 277.985 45.6763L331.659 125.07C333.006 127.062 331.578 129.75 329.173 129.75H221.827C219.422 129.75 217.994 127.062 219.341 125.07L273.015 45.6763Z" fill="#81F4E1" fill-opacity="0.9"/>
<path d="M17.25 118.25H97.6543L94.8506 126.75H17.25V118.25Z" fill="#74DCCA" stroke="black" stroke-width="0.5"/>
<path d="M335.5 38.5L246.11 38.5L253.188 30.5L335.5 30.5V38.5Z" fill="#FF729F" stroke="black"/>
<path d="M170 111H272L268.262 116H170V111Z" fill="white"/>
<path d="M94.4828 80.2227C93.1821 80.2227 92.0571 80.4688 91.1078 80.9258C90.1235 81.3828 89.4203 81.9453 88.9985 82.6133C88.5414 83.3164 88.225 83.9492 88.0492 84.5469C87.8383 85.1797 87.768 85.707 87.768 86.1992C87.768 86.7617 87.8031 87.2891 87.9438 87.7461C88.0492 88.2031 88.2953 88.7656 88.6469 89.3984C88.9985 90.0312 89.6664 90.5938 90.6156 91.0508C91.5649 91.5078 92.7602 91.8242 94.2016 92C96.8735 92.3516 98.2446 93.2656 98.2446 94.7773V94.9883C98.2446 95.0586 98.2094 95.1289 98.1742 95.2344C97.7524 96.5352 96.5922 97.2031 94.7641 97.2031H94.4828C91.9867 97.2031 90.6156 96.0781 90.3696 93.793H86.7836C86.7836 94.4609 86.8891 95.1641 87.1352 95.9375C87.3813 96.7109 87.768 97.4844 88.2953 98.2578C88.8227 99.0312 89.6313 99.6992 90.7211 100.191C91.7758 100.719 93.0414 100.965 94.4828 100.965C98.2797 100.965 100.6 99.6289 101.514 96.9219C101.725 96.3242 101.83 95.5859 101.83 94.707C101.83 94.3906 101.795 94.0742 101.76 93.793C101.725 93.5117 101.584 93.0547 101.373 92.457C101.163 91.8945 100.811 91.3672 100.354 90.875C99.8969 90.3828 99.1235 89.8906 98.0688 89.3281C97.0141 88.8008 95.7133 88.4141 94.2016 88.2031L93.8852 88.1328C92.1977 87.8516 91.3891 87.2891 91.3891 86.4805C91.3891 85.8477 91.6 85.2852 92.0571 84.7578C92.5141 84.2656 93.3227 83.9844 94.4828 83.9844C96.311 83.9844 97.5063 84.793 98.0688 86.4102L101.584 85.4258C101.268 84.2305 100.53 83.0703 99.3344 81.9453C98.1391 80.8203 96.5219 80.2227 94.4828 80.2227ZM104.221 92.6328C104.221 93.0898 104.256 93.582 104.327 94.1094C104.397 94.6719 104.608 95.3398 104.959 96.1836C105.276 97.0273 105.698 97.8008 106.26 98.4688C106.823 99.1367 107.631 99.6992 108.721 100.191C109.776 100.684 111.041 100.93 112.448 100.93C113.924 101 115.12 100.789 116.069 100.297C117.264 99.7344 118.073 99.207 118.495 98.75C119.057 98.1172 119.549 97.3086 120.006 96.3242C120.428 95.2695 120.674 93.8281 120.745 91.9297C120.78 91.3672 120.815 90.9102 120.85 90.4883L120.815 80.0469H116.877V92.6328C116.877 93.0547 116.807 93.4414 116.737 93.8633C116.666 94.2852 116.491 94.7422 116.245 95.3047C115.963 95.8672 115.506 96.2891 114.873 96.6055C114.205 96.957 113.397 97.0977 112.483 97.0977C109.6 97.0977 108.159 95.6211 108.159 92.6328V80.0469H104.221V92.6328ZM130.764 80.2227C129.463 80.2227 128.338 80.4688 127.389 80.9258C126.405 81.3828 125.702 81.9453 125.28 82.6133C124.823 83.3164 124.506 83.9492 124.33 84.5469C124.12 85.1797 124.049 85.707 124.049 86.1992C124.049 86.7617 124.084 87.2891 124.225 87.7461C124.33 88.2031 124.577 88.7656 124.928 89.3984C125.28 90.0312 125.948 90.5938 126.897 91.0508C127.846 91.5078 129.041 91.8242 130.483 92C133.155 92.3516 134.526 93.2656 134.526 94.7773V94.9883C134.526 95.0586 134.491 95.1289 134.455 95.2344C134.034 96.5352 132.873 97.2031 131.045 97.2031H130.764C128.268 97.2031 126.897 96.0781 126.651 93.793H123.065C123.065 94.4609 123.17 95.1641 123.416 95.9375C123.663 96.7109 124.049 97.4844 124.577 98.2578C125.104 99.0312 125.913 99.6992 127.002 100.191C128.057 100.719 129.323 100.965 130.764 100.965C134.561 100.965 136.881 99.6289 137.795 96.9219C138.006 96.3242 138.112 95.5859 138.112 94.707C138.112 94.3906 138.077 94.0742 138.041 93.793C138.006 93.5117 137.866 93.0547 137.655 92.457C137.444 91.8945 137.092 91.3672 136.635 90.875C136.178 90.3828 135.405 89.8906 134.35 89.3281C133.295 88.8008 131.995 88.4141 130.483 88.2031L130.166 88.1328C128.479 87.8516 127.67 87.2891 127.67 86.4805C127.67 85.8477 127.881 85.2852 128.338 84.7578C128.795 84.2656 129.604 83.9844 130.764 83.9844C132.592 83.9844 133.788 84.793 134.35 86.4102L137.866 85.4258C137.549 84.2305 136.811 83.0703 135.616 81.9453C134.42 80.8203 132.803 80.2227 130.764 80.2227ZM141.03 101H144.827V88.7305C144.827 88.2383 144.862 87.7461 144.967 87.3242C145.073 86.9023 145.284 86.4453 145.565 85.918C145.846 85.3906 146.338 84.9688 146.971 84.6523C147.604 84.3359 148.342 84.1602 149.256 84.1602C150.452 84.1602 151.436 84.4766 152.139 85.0742C152.842 85.6719 153.264 86.2695 153.405 86.832C153.545 87.4297 153.616 88.0625 153.616 88.7305V101H157.413V88.7305C157.342 87.6406 157.131 86.5156 156.745 85.3555C156.323 84.1953 155.479 83.0703 154.143 82.0156C152.807 80.9609 151.19 80.4336 149.256 80.4336C147.639 80.4336 146.268 80.7852 145.073 81.4531C144.897 81.5938 144.827 81.5234 144.827 81.3125V73.7891H141.03V101ZM164.76 75.3359C164.76 74.8438 164.549 74.3867 164.163 74.0352C163.741 73.6836 163.319 73.4727 162.827 73.4727C162.334 73.4727 161.877 73.6836 161.526 74.0352C161.139 74.3867 160.963 74.8438 160.963 75.3359C160.963 75.8281 161.139 76.2852 161.526 76.6367C161.877 77.0234 162.334 77.1992 162.827 77.1992C163.319 77.1992 163.741 77.0234 164.163 76.6367C164.549 76.2852 164.76 75.8281 164.76 75.3359ZM164.76 80.6797H161.034V101.07H164.76V80.6797ZM183.077 80.2227C181.776 80.2227 180.651 80.4688 179.702 80.9258C178.717 81.3828 178.014 81.9453 177.592 82.6133C177.135 83.3164 176.819 83.9492 176.643 84.5469C176.432 85.1797 176.362 85.707 176.362 86.1992C176.362 86.7617 176.397 87.2891 176.538 87.7461C176.643 88.2031 176.889 88.7656 177.241 89.3984C177.592 90.0312 178.26 90.5938 179.209 91.0508C180.159 91.5078 181.354 91.8242 182.795 92C185.467 92.3516 186.838 93.2656 186.838 94.7773V94.9883C186.838 95.0586 186.803 95.1289 186.768 95.2344C186.346 96.5352 185.186 97.2031 183.358 97.2031H183.077C180.58 97.2031 179.209 96.0781 178.963 93.793H175.377C175.377 94.4609 175.483 95.1641 175.729 95.9375C175.975 96.7109 176.362 97.4844 176.889 98.2578C177.416 99.0312 178.225 99.6992 179.315 100.191C180.37 100.719 181.635 100.965 183.077 100.965C186.873 100.965 189.194 99.6289 190.108 96.9219C190.319 96.3242 190.424 95.5859 190.424 94.707C190.424 94.3906 190.389 94.0742 190.354 93.793C190.319 93.5117 190.178 93.0547 189.967 92.457C189.756 91.8945 189.405 91.3672 188.948 90.875C188.491 90.3828 187.717 89.8906 186.663 89.3281C185.608 88.8008 184.307 88.4141 182.795 88.2031L182.479 88.1328C180.791 87.8516 179.983 87.2891 179.983 86.4805C179.983 85.8477 180.194 85.2852 180.651 84.7578C181.108 84.2656 181.916 83.9844 183.077 83.9844C184.905 83.9844 186.1 84.793 186.663 86.4102L190.178 85.4258C189.862 84.2305 189.123 83.0703 187.928 81.9453C186.733 80.8203 185.116 80.2227 183.077 80.2227ZM211.764 95.6914L208.424 93.793C206.842 96.0781 204.909 97.2031 202.659 97.2031C200.901 97.2031 199.319 96.6055 197.983 95.375C196.612 94.1797 195.944 92.5625 195.944 90.5938C195.944 88.625 196.612 87.043 197.983 85.7773C199.319 84.5469 200.901 83.9141 202.659 83.9141C205.014 83.8789 206.913 84.9688 208.354 87.1484L211.764 85.3203C211.166 84.125 210.077 83 208.495 81.875C206.913 80.75 204.979 80.1875 202.659 80.1875C199.565 80.1875 197.069 81.2773 195.17 83.3867C193.237 85.5312 192.288 87.957 192.288 90.6289C192.288 93.3359 193.237 95.7266 195.135 97.8359C197.034 99.9453 199.53 101 202.659 101C204.979 101 206.913 100.438 208.495 99.2773C210.077 98.1172 211.166 96.9219 211.764 95.6914ZM233.913 90.5234C233.913 87.6406 232.893 85.1797 230.854 83.1406C228.815 81.1016 226.354 80.0469 223.471 80.0469C220.588 80.0469 218.092 81.1016 216.053 83.1406C213.979 85.1797 212.959 87.6406 212.959 90.5234C212.959 93.4062 213.979 95.8672 216.053 97.9062C218.092 99.9805 220.588 101 223.471 101C226.354 101 228.815 99.9805 230.854 97.9062C232.893 95.8672 233.913 93.4062 233.913 90.5234ZM223.471 97.2031C221.608 97.2031 220.026 96.5703 218.725 95.2344C217.389 93.9336 216.756 92.3516 216.756 90.5234C216.756 88.6953 217.389 87.1133 218.725 85.7773C220.026 84.4414 221.608 83.7734 223.471 83.7734C225.299 83.7734 226.881 84.4414 228.217 85.7773C229.518 87.1133 230.186 88.6953 230.186 90.5234C230.186 92.3516 229.518 93.9336 228.217 95.2344C226.881 96.5703 225.299 97.2031 223.471 97.2031ZM236.092 92.6328C236.092 93.0898 236.127 93.582 236.198 94.1094C236.268 94.6719 236.479 95.3398 236.83 96.1836C237.147 97.0273 237.569 97.8008 238.131 98.4688C238.694 99.1367 239.502 99.6992 240.592 100.191C241.647 100.684 242.913 100.93 244.319 100.93C245.795 101 246.991 100.789 247.94 100.297C249.135 99.7344 249.944 99.207 250.366 98.75C250.928 98.1172 251.42 97.3086 251.877 96.3242C252.299 95.2695 252.545 93.8281 252.616 91.9297C252.651 91.3672 252.686 90.9102 252.721 90.4883L252.686 80.0469H248.748V92.6328C248.748 93.0547 248.678 93.4414 248.608 93.8633C248.538 94.2852 248.362 94.7422 248.116 95.3047C247.834 95.8672 247.377 96.2891 246.745 96.6055C246.077 96.957 245.268 97.0977 244.354 97.0977C241.471 97.0977 240.03 95.6211 240.03 92.6328V80.0469H236.092V92.6328ZM256.834 93.7227C256.834 95.2695 257.186 96.7461 257.889 98.1523C258.592 99.5938 259.788 100.473 261.475 100.754C262.002 100.895 262.53 100.93 263.057 100.93C264.463 100.93 265.659 100.613 266.643 99.9453C267.627 99.3125 268.26 98.5742 268.612 97.7656L265.061 96.5C264.639 97.0273 264.112 97.2734 263.549 97.2734C262.952 97.3086 262.495 97.2734 262.178 97.1328C261.651 96.9219 261.229 96.5703 260.948 96.043C260.666 95.5156 260.526 95.0938 260.526 94.8125V73.6484H256.834V93.7227ZM260.526 84.2305H267.487L268.612 80.5039H260.526V84.2305ZM254.83 84.2305H256.834V80.5039H255.85L254.83 84.2305ZM277.471 80.2227C276.17 80.2227 275.045 80.4688 274.096 80.9258C273.112 81.3828 272.409 81.9453 271.987 82.6133C271.53 83.3164 271.213 83.9492 271.038 84.5469C270.827 85.1797 270.756 85.707 270.756 86.1992C270.756 86.7617 270.791 87.2891 270.932 87.7461C271.038 88.2031 271.284 88.7656 271.635 89.3984C271.987 90.0312 272.655 90.5938 273.604 91.0508C274.553 91.5078 275.748 91.8242 277.19 92C279.862 92.3516 281.233 93.2656 281.233 94.7773V94.9883C281.233 95.0586 281.198 95.1289 281.163 95.2344C280.741 96.5352 279.581 97.2031 277.752 97.2031H277.471C274.975 97.2031 273.604 96.0781 273.358 93.793H269.772C269.772 94.4609 269.877 95.1641 270.123 95.9375C270.37 96.7109 270.756 97.4844 271.284 98.2578C271.811 99.0312 272.62 99.6992 273.709 100.191C274.764 100.719 276.03 100.965 277.471 100.965C281.268 100.965 283.588 99.6289 284.502 96.9219C284.713 96.3242 284.819 95.5859 284.819 94.707C284.819 94.3906 284.784 94.0742 284.748 93.793C284.713 93.5117 284.573 93.0547 284.362 92.457C284.151 91.8945 283.799 91.3672 283.342 90.875C282.885 90.3828 282.112 89.8906 281.057 89.3281C280.002 88.8008 278.702 88.4141 277.19 88.2031L276.873 88.1328C275.186 87.8516 274.377 87.2891 274.377 86.4805C274.377 85.8477 274.588 85.2852 275.045 84.7578C275.502 84.2656 276.311 83.9844 277.471 83.9844C279.299 83.9844 280.495 84.793 281.057 86.4102L284.573 85.4258C284.256 84.2305 283.518 83.0703 282.323 81.9453C281.127 80.8203 279.51 80.2227 277.471 80.2227Z" fill="white"/>
</svg>
