<svg width="326" height="199" viewBox="0 0 326 199" fill="none" xmlns="http://www.w3.org/2000/svg">
<path d="M99.1485 117C99.1606 113.134 102.304 110.01 106.17 110.022L251.173 110.475C255.039 110.487 258.163 113.631 258.151 117.497L258.024 158.064C258.012 161.93 254.868 165.054 251.002 165.042L106 164.589C102.134 164.577 99.0096 161.433 99.0217 157.567L99.1485 117Z" fill="#C0FAF0" fill-opacity="0.7"/>
<ellipse cx="66.5" cy="134.5" rx="66.5" ry="64.5" fill="#6FD6FF" fill-opacity="0.7"/>
<path d="M122.877 55.0815L124.181 53.5648C123.724 53.1719 123.114 53.0061 122.52 53.1136C121.927 53.2211 121.414 53.5904 121.124 54.1188L122.877 55.0815ZM162.63 89.2494L161.326 90.7662C161.953 91.3052 162.848 91.4027 163.576 91.0114L162.63 89.2494ZM208.354 66.2993C208.673 65.2417 208.074 64.1261 207.016 63.8075L189.781 58.6161C188.723 58.2976 187.607 58.8967 187.289 59.9543C186.97 61.0119 187.569 62.1276 188.627 62.4461L203.947 67.0607L199.333 82.3808C199.014 83.4385 199.613 84.5541 200.671 84.8727C201.729 85.1912 202.844 84.5921 203.163 83.5345L208.354 66.2993ZM89.253 120.463L124.63 56.0443L121.124 54.1188L85.747 118.537L89.253 120.463ZM121.573 56.5983L161.326 90.7662L163.934 87.7327L124.181 53.5648L121.573 56.5983ZM163.576 91.0114L207.385 67.4845L205.493 63.9605L161.684 87.4874L163.576 91.0114Z" fill="#2E2E2E"/>
<rect width="31.8197" height="125.413" rx="15.9098" transform="matrix(-0.867975 -0.496609 0.491797 -0.87071 246.168 125)" fill="#FF7FA8" fill-opacity="0.8"/>
<rect width="30.3664" height="125.013" rx="15.1832" transform="matrix(-0.491432 0.870916 -0.868183 -0.496243 325.458 80.5991)" fill="#FF729F" fill-opacity="0.9"/>
<path d="M19.3441 124.223C21.3832 124.223 23.0004 124.797 24.1957 125.945C25.391 127.07 26.141 128.23 26.4457 129.426L22.9301 130.41C22.391 128.793 21.1957 127.984 19.3441 127.984C18.1957 127.984 17.3871 128.242 16.9184 128.758C16.473 129.273 16.2504 129.848 16.2504 130.48C16.2504 131.277 17.0824 131.828 18.7465 132.133L19.0629 132.203C20.5863 132.414 21.8754 132.789 22.9301 133.328C24.0082 133.867 24.7699 134.383 25.2152 134.875C25.684 135.344 26.0238 135.871 26.2348 136.457C26.4691 137.043 26.598 137.488 26.6215 137.793C26.6684 138.074 26.6918 138.379 26.6918 138.707C26.6918 139.574 26.5863 140.312 26.3754 140.922C25.4848 143.617 23.141 144.965 19.3441 144.965C17.9145 144.965 16.6605 144.707 15.5824 144.191C14.5043 143.676 13.6957 143.031 13.1566 142.258C12.641 141.461 12.2543 140.688 11.9965 139.938C11.7621 139.164 11.6449 138.449 11.6449 137.793H15.2309C15.4887 140.066 16.8598 141.203 19.3441 141.203H19.6254C21.477 141.18 22.6137 140.523 23.0355 139.234C23.0824 139.117 23.1059 139.035 23.1059 138.988V138.777C23.1059 137.254 21.7582 136.328 19.0629 136C17.6332 135.812 16.4379 135.496 15.477 135.051C14.5395 134.582 13.8832 134.031 13.5082 133.398C13.1566 132.742 12.9223 132.191 12.8051 131.746C12.6879 131.277 12.6293 130.762 12.6293 130.199C12.6293 129.707 12.723 129.156 12.9105 128.547C13.098 127.938 13.4145 127.293 13.8598 126.613C14.3051 125.934 15.0082 125.371 15.9691 124.926C16.9301 124.457 18.0551 124.223 19.3441 124.223ZM29.0824 136.633V124.047H33.0199V136.633C33.0199 139.609 34.4613 141.098 37.3441 141.098C38.2816 141.098 39.0785 140.934 39.7348 140.605C40.391 140.277 40.848 139.844 41.1059 139.305C41.3637 138.742 41.5277 138.262 41.598 137.863C41.6918 137.441 41.7387 137.031 41.7387 136.633V124.047H45.6762L45.7113 134.488C45.6879 134.887 45.6527 135.367 45.6059 135.93C45.559 137.805 45.3129 139.27 44.8676 140.324C44.4223 141.309 43.9184 142.117 43.3559 142.75C42.9574 143.195 42.1488 143.711 40.9301 144.297C39.9926 144.766 38.7855 144.977 37.309 144.93C35.9027 144.93 34.6605 144.684 33.5824 144.191C32.5043 143.699 31.684 143.125 31.1215 142.469C30.5824 141.789 30.1488 141.027 29.8207 140.184C29.4926 139.34 29.2816 138.648 29.1879 138.109C29.1176 137.57 29.0824 137.078 29.0824 136.633ZM55.6254 124.223C57.6645 124.223 59.2816 124.797 60.477 125.945C61.6723 127.07 62.4223 128.23 62.727 129.426L59.2113 130.41C58.6723 128.793 57.477 127.984 55.6254 127.984C54.477 127.984 53.6684 128.242 53.1996 128.758C52.7543 129.273 52.5316 129.848 52.5316 130.48C52.5316 131.277 53.3637 131.828 55.0277 132.133L55.3441 132.203C56.8676 132.414 58.1566 132.789 59.2113 133.328C60.2895 133.867 61.0512 134.383 61.4965 134.875C61.9652 135.344 62.3051 135.871 62.516 136.457C62.7504 137.043 62.8793 137.488 62.9027 137.793C62.9496 138.074 62.973 138.379 62.973 138.707C62.973 139.574 62.8676 140.312 62.6566 140.922C61.766 143.617 59.4223 144.965 55.6254 144.965C54.1957 144.965 52.9418 144.707 51.8637 144.191C50.7855 143.676 49.977 143.031 49.4379 142.258C48.9223 141.461 48.5355 140.688 48.2777 139.938C48.0434 139.164 47.9262 138.449 47.9262 137.793H51.5121C51.7699 140.066 53.141 141.203 55.6254 141.203H55.9066C57.7582 141.18 58.8949 140.523 59.3168 139.234C59.3637 139.117 59.3871 139.035 59.3871 138.988V138.777C59.3871 137.254 58.0395 136.328 55.3441 136C53.9145 135.812 52.7191 135.496 51.7582 135.051C50.8207 134.582 50.1645 134.031 49.7895 133.398C49.4379 132.742 49.2035 132.191 49.0863 131.746C48.9691 131.277 48.9105 130.762 48.9105 130.199C48.9105 129.707 49.0043 129.156 49.1918 128.547C49.3793 127.938 49.6957 127.293 50.141 126.613C50.5863 125.934 51.2895 125.371 52.2504 124.926C53.2113 124.457 54.3363 124.223 55.6254 124.223ZM65.891 145V117.789H69.6879V125.312C69.6879 125.523 69.7699 125.57 69.934 125.453C71.1293 124.773 72.5238 124.434 74.1176 124.434C76.0629 124.434 77.6918 124.961 79.0043 126.016C80.3402 127.07 81.2074 128.184 81.6059 129.355C82.0043 130.504 82.227 131.629 82.2738 132.73V145H78.477V132.73C78.477 132.051 78.4066 131.418 78.266 130.832C78.1254 130.246 77.7035 129.66 77.0004 129.074C76.2973 128.465 75.3363 128.16 74.1176 128.16C73.227 128.16 72.4652 128.324 71.8324 128.652C71.1996 128.957 70.7309 129.379 70.4262 129.918C70.1449 130.434 69.9457 130.902 69.8285 131.324C69.7348 131.746 69.6879 132.215 69.6879 132.73V145H65.891ZM89.0238 118.035C89.4223 118.387 89.6215 118.82 89.6215 119.336C89.6215 119.828 89.4223 120.262 89.0238 120.637C88.6254 121.012 88.1801 121.199 87.6879 121.199C87.1957 121.199 86.7621 121.012 86.3871 120.637C86.0121 120.262 85.8246 119.828 85.8246 119.336C85.8246 118.82 86.0121 118.387 86.3871 118.035C86.7621 117.66 87.1957 117.473 87.6879 117.473C88.1801 117.473 88.6254 117.66 89.0238 118.035ZM89.6215 124.68V145.07H85.8949V124.68H89.6215ZM107.938 124.223C109.977 124.223 111.594 124.797 112.789 125.945C113.985 127.07 114.735 128.23 115.039 129.426L111.524 130.41C110.985 128.793 109.789 127.984 107.938 127.984C106.789 127.984 105.981 128.242 105.512 128.758C105.067 129.273 104.844 129.848 104.844 130.48C104.844 131.277 105.676 131.828 107.34 132.133L107.657 132.203C109.18 132.414 110.469 132.789 111.524 133.328C112.602 133.867 113.364 134.383 113.809 134.875C114.278 135.344 114.618 135.871 114.829 136.457C115.063 137.043 115.192 137.488 115.215 137.793C115.262 138.074 115.286 138.379 115.286 138.707C115.286 139.574 115.18 140.312 114.969 140.922C114.079 143.617 111.735 144.965 107.938 144.965C106.508 144.965 105.254 144.707 104.176 144.191C103.098 143.676 102.289 143.031 101.75 142.258C101.235 141.461 100.848 140.688 100.59 139.938C100.356 139.164 100.239 138.449 100.239 137.793H103.825C104.082 140.066 105.454 141.203 107.938 141.203H108.219C110.071 141.18 111.207 140.523 111.629 139.234C111.676 139.117 111.7 139.035 111.7 138.988V138.777C111.7 137.254 110.352 136.328 107.657 136C106.227 135.812 105.032 135.496 104.071 135.051C103.133 134.582 102.477 134.031 102.102 133.398C101.75 132.742 101.516 132.191 101.399 131.746C101.282 131.277 101.223 130.762 101.223 130.199C101.223 129.707 101.317 129.156 101.504 128.547C101.692 127.938 102.008 127.293 102.454 126.613C102.899 125.934 103.602 125.371 104.563 124.926C105.524 124.457 106.649 124.223 107.938 124.223ZM119.61 137.723V117.648H123.301V138.812C123.301 139.094 123.442 139.504 123.723 140.043C124.028 140.559 124.438 140.922 124.954 141.133C125.282 141.25 125.739 141.297 126.325 141.273C126.911 141.273 127.414 141.016 127.836 140.5L131.387 141.766C131.059 142.562 130.403 143.289 129.418 143.945C128.457 144.602 127.262 144.93 125.832 144.93C125.317 144.93 124.789 144.871 124.25 144.754C122.563 144.449 121.368 143.582 120.664 142.152C119.961 140.723 119.61 139.246 119.61 137.723ZM123.301 128.23V124.504H131.387L130.262 128.23H123.301ZM117.606 128.23L118.625 124.504H119.61V128.23H117.606ZM134.164 145V132.414V124.363H138.207V125.137C139.356 124.457 140.774 124.117 142.461 124.117C143.469 124.117 144.395 124.223 145.239 124.434L143.973 128.16C143.551 128.043 143.047 127.961 142.461 127.914C139.625 127.914 138.207 129.414 138.207 132.414V145H134.164ZM165.77 124.363V145H161.903V142.855V142.609L161.832 142.715C160.192 144.238 158 145 155.258 145C152.727 145 150.36 144.062 148.157 142.188C145.977 140.312 144.887 137.77 144.887 134.559C144.887 131.301 145.965 128.758 148.121 126.93C150.278 125.102 152.657 124.188 155.258 124.188C158.211 124.188 160.403 124.902 161.832 126.332C161.879 126.379 161.903 126.355 161.903 126.262V124.363H165.77ZM150.512 139.27C151.825 140.559 153.407 141.203 155.258 141.203C157.11 141.203 158.692 140.559 160.004 139.27C161.317 137.98 161.973 136.422 161.973 134.594C161.973 132.766 161.317 131.184 160.004 129.848C158.692 128.512 157.11 127.844 155.258 127.844C153.407 127.844 151.825 128.512 150.512 129.848C149.2 131.184 148.543 132.766 148.543 134.594C148.543 136.422 149.2 137.98 150.512 139.27ZM170.059 137.723V117.648H173.75V138.812C173.75 139.094 173.891 139.504 174.172 140.043C174.477 140.559 174.887 140.922 175.403 141.133C175.731 141.25 176.188 141.297 176.774 141.273C177.36 141.273 177.864 141.016 178.286 140.5L181.836 141.766C181.508 142.562 180.852 143.289 179.868 143.945C178.907 144.602 177.711 144.93 176.282 144.93C175.766 144.93 175.239 144.871 174.7 144.754C173.012 144.449 171.817 143.582 171.114 142.152C170.411 140.723 170.059 139.246 170.059 137.723ZM173.75 128.23V124.504H181.836L180.711 128.23H173.75ZM168.055 128.23L169.075 124.504H170.059V128.23H168.055ZM199.239 136.387L202.825 137.336C202.661 138.016 202.356 138.754 201.911 139.551C201.465 140.324 200.856 141.133 200.082 141.977C199.332 142.82 198.325 143.535 197.059 144.121C195.793 144.707 194.364 145 192.77 145C189.653 145 187.157 143.957 185.282 141.871C183.43 139.785 182.504 137.348 182.504 134.559C182.504 131.816 183.454 129.414 185.352 127.352C187.25 125.289 189.723 124.258 192.77 124.258C194.246 124.258 195.641 124.539 196.954 125.102C198.289 125.664 199.332 126.379 200.082 127.246C200.856 128.113 201.477 128.934 201.946 129.707C202.414 130.457 202.707 131.172 202.825 131.852C203.082 132.859 203.211 133.445 203.211 133.609H203.141L187.321 137.793C187.11 137.863 187.075 137.992 187.215 138.18C188.598 140.242 190.45 141.25 192.77 141.203C194.246 141.203 195.559 140.77 196.707 139.902C197.879 139.035 198.723 137.863 199.239 136.387ZM186.371 132.977L186.231 133.328C186.207 133.422 186.184 133.539 186.161 133.68C186.137 133.797 186.125 133.902 186.125 133.996C186.125 134.16 186.137 134.266 186.161 134.312C186.184 134.383 186.278 134.383 186.442 134.312L198.325 131.078H198.395C198.442 131.078 198.418 130.996 198.325 130.832C197.411 129.566 196.145 128.676 194.528 128.16C194.036 127.996 193.473 127.914 192.84 127.914C191.434 127.914 190.133 128.371 188.938 129.285C187.743 130.223 186.887 131.453 186.371 132.977ZM222.512 124.504H226.309V142.609V142.855C226.309 143.77 226.215 144.707 226.028 145.668C225.84 146.652 225.5 147.695 225.008 148.797C224.516 149.898 223.907 150.871 223.18 151.715C222.477 152.559 221.493 153.273 220.227 153.859C218.961 154.445 217.532 154.738 215.938 154.738C212.985 154.738 210.676 154.035 209.012 152.629C207.371 151.246 206.282 149.594 205.743 147.672L209.469 146.758C210.407 149.594 212.563 150.988 215.938 150.941C217.579 150.941 218.926 150.438 219.981 149.43C221.036 148.422 221.715 147.379 222.02 146.301C222.348 145.223 222.512 144.133 222.512 143.031V142.609L222.371 142.785C220.871 144.262 218.727 145 215.938 145C213.407 145 211.016 144.062 208.766 142.188C206.539 140.312 205.426 137.77 205.426 134.559C205.426 131.301 206.493 128.758 208.625 126.93C210.758 125.102 213.196 124.188 215.938 124.188C217.532 124.188 218.891 124.434 220.016 124.926C221.164 125.395 221.95 125.887 222.371 126.402L222.512 126.648V126.332V124.504ZM211.051 139.27C212.364 140.559 213.946 141.203 215.797 141.203C217.649 141.203 219.231 140.559 220.543 139.27C221.856 137.98 222.512 136.422 222.512 134.594C222.512 132.766 221.856 131.184 220.543 129.848C219.231 128.512 217.649 127.844 215.797 127.844C213.946 127.844 212.364 128.512 211.051 129.848C209.739 131.184 209.082 132.766 209.082 134.594C209.082 136.422 209.739 137.98 211.051 139.27ZM245.61 124.609H249.547V142.609V142.855C249.547 143.77 249.454 144.707 249.266 145.668C249.079 146.652 248.75 147.695 248.282 148.797C247.813 149.898 247.215 150.871 246.489 151.715C245.786 152.559 244.801 153.273 243.536 153.859C242.27 154.445 240.852 154.738 239.282 154.738C236.329 154.738 234.032 154.047 232.391 152.664C230.75 151.305 229.672 149.641 229.157 147.672L232.778 146.758C233.715 149.547 235.813 150.941 239.071 150.941C239.141 150.941 239.211 150.941 239.282 150.941C240.969 150.941 242.317 150.438 243.325 149.43C244.356 148.422 245.024 147.344 245.329 146.195C245.657 145.07 245.821 143.957 245.821 142.855V142.715C245.821 142.645 245.797 142.645 245.75 142.715L245.61 142.855C244.18 144.285 242.071 145 239.282 145C236.75 145 234.348 144.074 232.075 142.223C229.801 140.371 228.664 137.816 228.664 134.559V124.609L232.637 124.68V134.629C232.637 136.527 233.246 138.109 234.465 139.375C235.707 140.641 237.254 141.273 239.106 141.273C240.957 141.273 242.504 140.629 243.746 139.34C244.989 138.051 245.61 136.457 245.61 134.559V124.609Z" fill="#2E2E2E"/>
</svg>
