<svg width="428" height="203" viewBox="0 0 428 203" fill="none" xmlns="http://www.w3.org/2000/svg">
<line y1="-3.75" x2="106.153" y2="-3.75" transform="matrix(0.261603 0.965175 -0.966661 0.25606 420.517 2.87695)" stroke="#4F4F4F" stroke-width="7.5"/>
<line y1="-3.75" x2="106.153" y2="-3.75" transform="matrix(0.261603 0.965175 -0.966661 0.25606 404.589 7.09619)" stroke="#4F4F4F" stroke-width="7.5"/>
<line y1="-3.75" x2="106.153" y2="-3.75" transform="matrix(0.261603 0.965175 -0.966661 0.25606 388.66 11.3153)" stroke="#4F4F4F" stroke-width="7.5"/>
<line y1="-3.75" x2="106.153" y2="-3.75" transform="matrix(0.261603 0.965175 -0.966661 0.25606 372.732 15.5347)" stroke="#4F4F4F" stroke-width="7.5"/>
<line y1="-3.75" x2="106.153" y2="-3.75" transform="matrix(0.261603 0.965175 -0.966661 0.25606 356.805 19.7538)" stroke="#4F4F4F" stroke-width="7.5"/>
<line y1="-3.75" x2="106.153" y2="-3.75" transform="matrix(0.261603 0.965175 -0.966661 0.25606 340.876 23.973)" stroke="#4F4F4F" stroke-width="7.5"/>
<line y1="-3.75" x2="106.153" y2="-3.75" transform="matrix(0.261603 0.965175 -0.966661 0.25606 324.947 28.1923)" stroke="#4F4F4F" stroke-width="7.5"/>
<line y1="-3.75" x2="106.153" y2="-3.75" transform="matrix(0.261603 0.965175 -0.966661 0.25606 309.02 32.4114)" stroke="#4F4F4F" stroke-width="7.5"/>
<line y1="-3.75" x2="106.153" y2="-3.75" transform="matrix(0.261603 0.965175 -0.966661 0.25606 293.092 36.6307)" stroke="#4F4F4F" stroke-width="7.5"/>
<line y1="-3.75" x2="106.153" y2="-3.75" transform="matrix(0.261603 0.965175 -0.966661 0.25606 277.163 40.8499)" stroke="#4F4F4F" stroke-width="7.5"/>
<line y1="-3.75" x2="106.153" y2="-3.75" transform="matrix(0.261603 0.965175 -0.966661 0.25606 261.235 45.0691)" stroke="#4F4F4F" stroke-width="7.5"/>
<line y1="-3.75" x2="106.153" y2="-3.75" transform="matrix(0.261603 0.965175 -0.966661 0.25606 245.308 49.2883)" stroke="#4F4F4F" stroke-width="7.5"/>
<line y1="-3.75" x2="106.153" y2="-3.75" transform="matrix(0.261603 0.965175 -0.966661 0.25606 229.38 53.5076)" stroke="#4F4F4F" stroke-width="7.5"/>
<line y1="-3.75" x2="106.153" y2="-3.75" transform="matrix(0.261603 0.965175 -0.966661 0.25606 213.451 57.7268)" stroke="#4F4F4F" stroke-width="7.5"/>
<path d="M202.832 60.5396L218.268 117.489M221.967 131.136L230.602 162.996" stroke="#4F4F4F" stroke-width="7.5"/>
<line y1="-3.75" x2="106.153" y2="-3.75" transform="matrix(0.261603 0.965175 -0.966661 0.25606 184.812 64.001)" stroke="#4F4F4F" stroke-width="7.5"/>
<line y1="-3.75" x2="106.153" y2="-3.75" transform="matrix(0.261603 0.965175 -0.966661 0.25606 168.884 68.2192)" stroke="#4F4F4F" stroke-width="7.5"/>
<line y1="-3.75" x2="106.153" y2="-3.75" transform="matrix(0.261603 0.965175 -0.966661 0.25606 152.955 72.4385)" stroke="#4F4F4F" stroke-width="7.5"/>
<line y1="-3.75" x2="106.153" y2="-3.75" transform="matrix(0.261603 0.965175 -0.966661 0.25606 137.027 76.6577)" stroke="#4F4F4F" stroke-width="7.5"/>
<line y1="-3.75" x2="106.153" y2="-3.75" transform="matrix(0.261603 0.965175 -0.966661 0.25606 121.1 80.877)" stroke="#4F4F4F" stroke-width="7.5"/>
<line y1="-3.75" x2="106.153" y2="-3.75" transform="matrix(0.261603 0.965175 -0.966661 0.25606 105.172 85.0962)" stroke="#4F4F4F" stroke-width="7.5"/>
<line y1="-3.75" x2="106.153" y2="-3.75" transform="matrix(0.261603 0.965175 -0.966661 0.25606 89.2432 89.3153)" stroke="#4F4F4F" stroke-width="7.5"/>
<line y1="-3.75" x2="106.153" y2="-3.75" transform="matrix(0.261603 0.965175 -0.966661 0.25606 73.3145 93.5347)" stroke="#4F4F4F" stroke-width="7.5"/>
<line y1="-3.75" x2="106.153" y2="-3.75" transform="matrix(0.261603 0.965175 -0.966661 0.25606 57.3867 97.7538)" stroke="#FCD6F6" stroke-width="7.5"/>
<line y1="-3.75" x2="106.153" y2="-3.75" transform="matrix(0.261603 0.965175 -0.966661 0.25606 41.459 101.973)" stroke="#4F4F4F" stroke-width="7.5"/>
<line y1="-3.75" x2="106.153" y2="-3.75" transform="matrix(0.261603 0.965175 -0.966661 0.25606 25.5303 106.192)" stroke="#4F4F4F" stroke-width="7.5"/>
<line y1="-3.75" x2="106.153" y2="-3.75" transform="matrix(0.261603 0.965175 -0.966661 0.25606 9.60254 110.411)" stroke="#4F4F4F" stroke-width="7.5"/>
<line y1="-3.75" x2="106.153" y2="-3.75" transform="matrix(0.261603 0.965175 -0.966661 0.25606 -6.3252 114.631)" stroke="#4F4F4F" stroke-width="7.5"/>
<path d="M-18.6289 117.89L-0.168137 186L4.48646 203.173L9.14105 220.346" stroke="#4F4F4F" stroke-width="7.5"/>
</svg>
