<svg width="288" height="123" viewBox="0 0 288 123" fill="none" xmlns="http://www.w3.org/2000/svg">
<rect x="66" y="39" width="60" height="84" fill="#FCD6F6"/>
<rect y="67" width="66" height="56" fill="#FF729F"/>
<rect x="242" y="26" width="46" height="97" fill="#81F4E1"/>
<rect x="126" width="60" height="123" fill="#56CBF9"/>
<rect x="186" y="45" width="56" height="78" fill="#FCD6F6"/>
<path d="M41.5195 74.2227C43.5586 74.2227 45.1758 74.7969 46.3711 75.9453C47.5664 77.0703 48.3164 78.2305 48.6211 79.4258L45.1055 80.4102C44.5664 78.793 43.3711 77.9844 41.5195 77.9844C40.3711 77.9844 39.5625 78.2422 39.0938 78.7578C38.6484 79.2734 38.4258 79.8477 38.4258 80.4805C38.4258 81.2773 39.2578 81.8281 40.9219 82.1328L41.2383 82.2031C42.7617 82.4141 44.0508 82.7891 45.1055 83.3281C46.1836 83.8672 46.9453 84.3828 47.3906 84.875C47.8594 85.3438 48.1992 85.8711 48.4102 86.457C48.6445 87.043 48.7734 87.4883 48.7969 87.793C48.8438 88.0742 48.8672 88.3789 48.8672 88.707C48.8672 89.5742 48.7617 90.3125 48.5508 90.9219C47.6602 93.6172 45.3164 94.9648 41.5195 94.9648C40.0898 94.9648 38.8359 94.707 37.7578 94.1914C36.6797 93.6758 35.8711 93.0312 35.332 92.2578C34.8164 91.4609 34.4297 90.6875 34.1719 89.9375C33.9375 89.1641 33.8203 88.4492 33.8203 87.793H37.4062C37.6641 90.0664 39.0352 91.2031 41.5195 91.2031H41.8008C43.6523 91.1797 44.7891 90.5234 45.2109 89.2344C45.2578 89.1172 45.2812 89.0352 45.2812 88.9883V88.7773C45.2812 87.2539 43.9336 86.3281 41.2383 86C39.8086 85.8125 38.6133 85.4961 37.6523 85.0508C36.7148 84.582 36.0586 84.0312 35.6836 83.3984C35.332 82.7422 35.0977 82.1914 34.9805 81.7461C34.8633 81.2773 34.8047 80.7617 34.8047 80.1992C34.8047 79.707 34.8984 79.1562 35.0859 78.5469C35.2734 77.9375 35.5898 77.293 36.0352 76.6133C36.4805 75.9336 37.1836 75.3711 38.1445 74.9258C39.1055 74.457 40.2305 74.2227 41.5195 74.2227ZM51.2578 86.6328V74.0469H55.1953V86.6328C55.1953 89.6094 56.6367 91.0977 59.5195 91.0977C60.457 91.0977 61.2539 90.9336 61.9102 90.6055C62.5664 90.2773 63.0234 89.8438 63.2812 89.3047C63.5391 88.7422 63.7031 88.2617 63.7734 87.8633C63.8672 87.4414 63.9141 87.0312 63.9141 86.6328V74.0469H67.8516L67.8867 84.4883C67.8633 84.8867 67.8281 85.3672 67.7812 85.9297C67.7344 87.8047 67.4883 89.2695 67.043 90.3242C66.5977 91.3086 66.0938 92.1172 65.5312 92.75C65.1328 93.1953 64.3242 93.7109 63.1055 94.2969C62.168 94.7656 60.9609 94.9766 59.4844 94.9297C58.0781 94.9297 56.8359 94.6836 55.7578 94.1914C54.6797 93.6992 53.8594 93.125 53.2969 92.4688C52.7578 91.7891 52.3242 91.0273 51.9961 90.1836C51.668 89.3398 51.457 88.6484 51.3633 88.1094C51.293 87.5703 51.2578 87.0781 51.2578 86.6328ZM77.8008 74.2227C79.8398 74.2227 81.457 74.7969 82.6523 75.9453C83.8477 77.0703 84.5977 78.2305 84.9023 79.4258L81.3867 80.4102C80.8477 78.793 79.6523 77.9844 77.8008 77.9844C76.6523 77.9844 75.8438 78.2422 75.375 78.7578C74.9297 79.2734 74.707 79.8477 74.707 80.4805C74.707 81.2773 75.5391 81.8281 77.2031 82.1328L77.5195 82.2031C79.043 82.4141 80.332 82.7891 81.3867 83.3281C82.4648 83.8672 83.2266 84.3828 83.6719 84.875C84.1406 85.3438 84.4805 85.8711 84.6914 86.457C84.9258 87.043 85.0547 87.4883 85.0781 87.793C85.125 88.0742 85.1484 88.3789 85.1484 88.707C85.1484 89.5742 85.043 90.3125 84.832 90.9219C83.9414 93.6172 81.5977 94.9648 77.8008 94.9648C76.3711 94.9648 75.1172 94.707 74.0391 94.1914C72.9609 93.6758 72.1523 93.0312 71.6133 92.2578C71.0977 91.4609 70.7109 90.6875 70.4531 89.9375C70.2188 89.1641 70.1016 88.4492 70.1016 87.793H73.6875C73.9453 90.0664 75.3164 91.2031 77.8008 91.2031H78.082C79.9336 91.1797 81.0703 90.5234 81.4922 89.2344C81.5391 89.1172 81.5625 89.0352 81.5625 88.9883V88.7773C81.5625 87.2539 80.2148 86.3281 77.5195 86C76.0898 85.8125 74.8945 85.4961 73.9336 85.0508C72.9961 84.582 72.3398 84.0312 71.9648 83.3984C71.6133 82.7422 71.3789 82.1914 71.2617 81.7461C71.1445 81.2773 71.0859 80.7617 71.0859 80.1992C71.0859 79.707 71.1797 79.1562 71.3672 78.5469C71.5547 77.9375 71.8711 77.293 72.3164 76.6133C72.7617 75.9336 73.4648 75.3711 74.4258 74.9258C75.3867 74.457 76.5117 74.2227 77.8008 74.2227ZM88.0664 95V67.7891H91.8633V75.3125C91.8633 75.5234 91.9453 75.5703 92.1094 75.4531C93.3047 74.7734 94.6992 74.4336 96.293 74.4336C98.2383 74.4336 99.8672 74.9609 101.18 76.0156C102.516 77.0703 103.383 78.1836 103.781 79.3555C104.18 80.5039 104.402 81.6289 104.449 82.7305V95H100.652V82.7305C100.652 82.0508 100.582 81.418 100.441 80.832C100.301 80.2461 99.8789 79.6602 99.1758 79.0742C98.4727 78.4648 97.5117 78.1602 96.293 78.1602C95.4023 78.1602 94.6406 78.3242 94.0078 78.6523C93.375 78.957 92.9062 79.3789 92.6016 79.918C92.3203 80.4336 92.1211 80.9023 92.0039 81.3242C91.9102 81.7461 91.8633 82.2148 91.8633 82.7305V95H88.0664ZM111.199 68.0352C111.598 68.3867 111.797 68.8203 111.797 69.3359C111.797 69.8281 111.598 70.2617 111.199 70.6367C110.801 71.0117 110.355 71.1992 109.863 71.1992C109.371 71.1992 108.938 71.0117 108.562 70.6367C108.188 70.2617 108 69.8281 108 69.3359C108 68.8203 108.188 68.3867 108.562 68.0352C108.938 67.6602 109.371 67.4727 109.863 67.4727C110.355 67.4727 110.801 67.6602 111.199 68.0352ZM111.797 74.6797V95.0703H108.07V74.6797H111.797ZM130.113 74.2227C132.152 74.2227 133.77 74.7969 134.965 75.9453C136.16 77.0703 136.91 78.2305 137.215 79.4258L133.699 80.4102C133.16 78.793 131.965 77.9844 130.113 77.9844C128.965 77.9844 128.156 78.2422 127.688 78.7578C127.242 79.2734 127.02 79.8477 127.02 80.4805C127.02 81.2773 127.852 81.8281 129.516 82.1328L129.832 82.2031C131.355 82.4141 132.645 82.7891 133.699 83.3281C134.777 83.8672 135.539 84.3828 135.984 84.875C136.453 85.3438 136.793 85.8711 137.004 86.457C137.238 87.043 137.367 87.4883 137.391 87.793C137.438 88.0742 137.461 88.3789 137.461 88.707C137.461 89.5742 137.355 90.3125 137.145 90.9219C136.254 93.6172 133.91 94.9648 130.113 94.9648C128.684 94.9648 127.43 94.707 126.352 94.1914C125.273 93.6758 124.465 93.0312 123.926 92.2578C123.41 91.4609 123.023 90.6875 122.766 89.9375C122.531 89.1641 122.414 88.4492 122.414 87.793H126C126.258 90.0664 127.629 91.2031 130.113 91.2031H130.395C132.246 91.1797 133.383 90.5234 133.805 89.2344C133.852 89.1172 133.875 89.0352 133.875 88.9883V88.7773C133.875 87.2539 132.527 86.3281 129.832 86C128.402 85.8125 127.207 85.4961 126.246 85.0508C125.309 84.582 124.652 84.0312 124.277 83.3984C123.926 82.7422 123.691 82.1914 123.574 81.7461C123.457 81.2773 123.398 80.7617 123.398 80.1992C123.398 79.707 123.492 79.1562 123.68 78.5469C123.867 77.9375 124.184 77.293 124.629 76.6133C125.074 75.9336 125.777 75.3711 126.738 74.9258C127.699 74.457 128.824 74.2227 130.113 74.2227ZM141.785 87.7227V67.6484H145.477V88.8125C145.477 89.0938 145.617 89.5039 145.898 90.043C146.203 90.5586 146.613 90.9219 147.129 91.1328C147.457 91.25 147.914 91.2969 148.5 91.2734C149.086 91.2734 149.59 91.0156 150.012 90.5L153.562 91.7656C153.234 92.5625 152.578 93.2891 151.594 93.9453C150.633 94.6016 149.438 94.9297 148.008 94.9297C147.492 94.9297 146.965 94.8711 146.426 94.7539C144.738 94.4492 143.543 93.582 142.84 92.1523C142.137 90.7227 141.785 89.2461 141.785 87.7227ZM145.477 78.2305V74.5039H153.562L152.438 78.2305H145.477ZM139.781 78.2305L140.801 74.5039H141.785V78.2305H139.781ZM156.34 95V82.4141V74.3633H160.383V75.1367C161.531 74.457 162.949 74.1172 164.637 74.1172C165.645 74.1172 166.57 74.2227 167.414 74.4336L166.148 78.1602C165.727 78.043 165.223 77.9609 164.637 77.9141C161.801 77.9141 160.383 79.4141 160.383 82.4141V95H156.34ZM187.945 74.3633V95H184.078V92.8555V92.6094L184.008 92.7148C182.367 94.2383 180.176 95 177.434 95C174.902 95 172.535 94.0625 170.332 92.1875C168.152 90.3125 167.062 87.7695 167.062 84.5586C167.062 81.3008 168.141 78.7578 170.297 76.9297C172.453 75.1016 174.832 74.1875 177.434 74.1875C180.387 74.1875 182.578 74.9023 184.008 76.332C184.055 76.3789 184.078 76.3555 184.078 76.2617V74.3633H187.945ZM172.688 89.2695C174 90.5586 175.582 91.2031 177.434 91.2031C179.285 91.2031 180.867 90.5586 182.18 89.2695C183.492 87.9805 184.148 86.4219 184.148 84.5938C184.148 82.7656 183.492 81.1836 182.18 79.8477C180.867 78.5117 179.285 77.8438 177.434 77.8438C175.582 77.8438 174 78.5117 172.688 79.8477C171.375 81.1836 170.719 82.7656 170.719 84.5938C170.719 86.4219 171.375 87.9805 172.688 89.2695ZM192.234 87.7227V67.6484H195.926V88.8125C195.926 89.0938 196.066 89.5039 196.348 90.043C196.652 90.5586 197.062 90.9219 197.578 91.1328C197.906 91.25 198.363 91.2969 198.949 91.2734C199.535 91.2734 200.039 91.0156 200.461 90.5L204.012 91.7656C203.684 92.5625 203.027 93.2891 202.043 93.9453C201.082 94.6016 199.887 94.9297 198.457 94.9297C197.941 94.9297 197.414 94.8711 196.875 94.7539C195.188 94.4492 193.992 93.582 193.289 92.1523C192.586 90.7227 192.234 89.2461 192.234 87.7227ZM195.926 78.2305V74.5039H204.012L202.887 78.2305H195.926ZM190.23 78.2305L191.25 74.5039H192.234V78.2305H190.23ZM221.414 86.3867L225 87.3359C224.836 88.0156 224.531 88.7539 224.086 89.5508C223.641 90.3242 223.031 91.1328 222.258 91.9766C221.508 92.8203 220.5 93.5352 219.234 94.1211C217.969 94.707 216.539 95 214.945 95C211.828 95 209.332 93.957 207.457 91.8711C205.605 89.7852 204.68 87.3477 204.68 84.5586C204.68 81.8164 205.629 79.4141 207.527 77.3516C209.426 75.2891 211.898 74.2578 214.945 74.2578C216.422 74.2578 217.816 74.5391 219.129 75.1016C220.465 75.6641 221.508 76.3789 222.258 77.2461C223.031 78.1133 223.652 78.9336 224.121 79.707C224.59 80.457 224.883 81.1719 225 81.8516C225.258 82.8594 225.387 83.4453 225.387 83.6094H225.316L209.496 87.793C209.285 87.8633 209.25 87.9922 209.391 88.1797C210.773 90.2422 212.625 91.25 214.945 91.2031C216.422 91.2031 217.734 90.7695 218.883 89.9023C220.055 89.0352 220.898 87.8633 221.414 86.3867ZM208.547 82.9766L208.406 83.3281C208.383 83.4219 208.359 83.5391 208.336 83.6797C208.312 83.7969 208.301 83.9023 208.301 83.9961C208.301 84.1602 208.312 84.2656 208.336 84.3125C208.359 84.3828 208.453 84.3828 208.617 84.3125L220.5 81.0781H220.57C220.617 81.0781 220.594 80.9961 220.5 80.832C219.586 79.5664 218.32 78.6758 216.703 78.1602C216.211 77.9961 215.648 77.9141 215.016 77.9141C213.609 77.9141 212.309 78.3711 211.113 79.2852C209.918 80.2227 209.062 81.4531 208.547 82.9766ZM244.688 74.5039H248.484V92.6094V92.8555C248.484 93.7695 248.391 94.707 248.203 95.668C248.016 96.6523 247.676 97.6953 247.184 98.7969C246.691 99.8984 246.082 100.871 245.355 101.715C244.652 102.559 243.668 103.273 242.402 103.859C241.137 104.445 239.707 104.738 238.113 104.738C235.16 104.738 232.852 104.035 231.188 102.629C229.547 101.246 228.457 99.5938 227.918 97.6719L231.645 96.7578C232.582 99.5938 234.738 100.988 238.113 100.941C239.754 100.941 241.102 100.438 242.156 99.4297C243.211 98.4219 243.891 97.3789 244.195 96.3008C244.523 95.2227 244.688 94.1328 244.688 93.0312V92.6094L244.547 92.7852C243.047 94.2617 240.902 95 238.113 95C235.582 95 233.191 94.0625 230.941 92.1875C228.715 90.3125 227.602 87.7695 227.602 84.5586C227.602 81.3008 228.668 78.7578 230.801 76.9297C232.934 75.1016 235.371 74.1875 238.113 74.1875C239.707 74.1875 241.066 74.4336 242.191 74.9258C243.34 75.3945 244.125 75.8867 244.547 76.4023L244.688 76.6484V76.332V74.5039ZM233.227 89.2695C234.539 90.5586 236.121 91.2031 237.973 91.2031C239.824 91.2031 241.406 90.5586 242.719 89.2695C244.031 87.9805 244.688 86.4219 244.688 84.5938C244.688 82.7656 244.031 81.1836 242.719 79.8477C241.406 78.5117 239.824 77.8438 237.973 77.8438C236.121 77.8438 234.539 78.5117 233.227 79.8477C231.914 81.1836 231.258 82.7656 231.258 84.5938C231.258 86.4219 231.914 87.9805 233.227 89.2695ZM267.785 74.6094H271.723V92.6094V92.8555C271.723 93.7695 271.629 94.707 271.441 95.668C271.254 96.6523 270.926 97.6953 270.457 98.7969C269.988 99.8984 269.391 100.871 268.664 101.715C267.961 102.559 266.977 103.273 265.711 103.859C264.445 104.445 263.027 104.738 261.457 104.738C258.504 104.738 256.207 104.047 254.566 102.664C252.926 101.305 251.848 99.6406 251.332 97.6719L254.953 96.7578C255.891 99.5469 257.988 100.941 261.246 100.941C261.316 100.941 261.387 100.941 261.457 100.941C263.145 100.941 264.492 100.438 265.5 99.4297C266.531 98.4219 267.199 97.3438 267.504 96.1953C267.832 95.0703 267.996 93.957 267.996 92.8555V92.7148C267.996 92.6445 267.973 92.6445 267.926 92.7148L267.785 92.8555C266.355 94.2852 264.246 95 261.457 95C258.926 95 256.523 94.0742 254.25 92.2227C251.977 90.3711 250.84 87.8164 250.84 84.5586V74.6094L254.812 74.6797V84.6289C254.812 86.5273 255.422 88.1094 256.641 89.375C257.883 90.6406 259.43 91.2734 261.281 91.2734C263.133 91.2734 264.68 90.6289 265.922 89.3398C267.164 88.0508 267.785 86.457 267.785 84.5586V74.6094Z" fill="black"/>
</svg>
