<svg width="326" height="199" viewBox="0 0 326 199" fill="none" xmlns="http://www.w3.org/2000/svg">
<path d="M99.1485 117C99.1606 113.134 102.304 110.01 106.17 110.022L251.173 110.475C255.039 110.487 258.163 113.631 258.151 117.497L258.034 154.911C258.022 158.777 254.878 161.901 251.012 161.889L106.01 161.436C102.144 161.424 99.0195 158.28 99.0315 154.414L99.1485 117Z" fill="#74DCCA"/>
<ellipse cx="66.5" cy="134.5" rx="66.5" ry="64.5" fill="#38C1FF"/>
<path d="M86.2235 120.973C85.6918 121.941 86.0457 123.157 87.0138 123.689C87.982 124.221 89.1979 123.867 89.7296 122.899L86.2235 120.973ZM123.354 57.5176L124.657 56.0008C124.2 55.6079 123.59 55.4421 122.997 55.5496C122.404 55.6572 121.891 56.0265 121.601 56.5549L123.354 57.5176ZM163.106 91.6855L161.803 93.2022C162.43 93.7412 163.324 93.8387 164.053 93.4474L163.106 91.6855ZM208.831 68.7354C209.149 67.6777 208.55 66.5621 207.492 66.2435L190.257 61.0522C189.2 60.7336 188.084 61.3327 187.765 62.3903C187.447 63.448 188.046 64.5636 189.104 64.8822L204.424 69.4967L199.809 84.8169C199.491 85.8745 200.09 86.9901 201.147 87.3087C202.205 87.6273 203.321 87.0281 203.639 85.9705L208.831 68.7354ZM89.7296 122.899L125.107 58.4803L121.601 56.5549L86.2235 120.973L89.7296 122.899ZM122.05 59.0343L161.803 93.2022L164.41 90.1687L124.657 56.0008L122.05 59.0343ZM164.053 93.4474L207.862 69.9205L205.969 66.3965L162.16 89.9235L164.053 93.4474Z" fill="white"/>
<rect width="31.8197" height="125.413" rx="15.9098" transform="matrix(-0.867975 -0.496609 0.491797 -0.87071 246.168 125)" fill="#FF7FA8" fill-opacity="0.8"/>
<rect width="30.3664" height="125.013" rx="15.1832" transform="matrix(-0.491432 0.870916 -0.868183 -0.496243 325.458 80.5991)" fill="#FF729F" fill-opacity="0.9"/>
<path d="M20.0195 126.223C18.7188 126.223 17.5938 126.469 16.6445 126.926C15.6602 127.383 14.957 127.945 14.5352 128.613C14.0781 129.316 13.7617 129.949 13.5859 130.547C13.375 131.18 13.3047 131.707 13.3047 132.199C13.3047 132.762 13.3398 133.289 13.4805 133.746C13.5859 134.203 13.832 134.766 14.1836 135.398C14.5352 136.031 15.2031 136.594 16.1523 137.051C17.1016 137.508 18.2969 137.824 19.7383 138C22.4102 138.352 23.7812 139.266 23.7812 140.777V140.988C23.7812 141.059 23.7461 141.129 23.7109 141.234C23.2891 142.535 22.1289 143.203 20.3008 143.203H20.0195C17.5234 143.203 16.1523 142.078 15.9062 139.793H12.3203C12.3203 140.461 12.4258 141.164 12.6719 141.938C12.918 142.711 13.3047 143.484 13.832 144.258C14.3594 145.031 15.168 145.699 16.2578 146.191C17.3125 146.719 18.5781 146.965 20.0195 146.965C23.8164 146.965 26.1367 145.629 27.0508 142.922C27.2617 142.324 27.3672 141.586 27.3672 140.707C27.3672 140.391 27.332 140.074 27.2969 139.793C27.2617 139.512 27.1211 139.055 26.9102 138.457C26.6992 137.895 26.3477 137.367 25.8906 136.875C25.4336 136.383 24.6602 135.891 23.6055 135.328C22.5508 134.801 21.25 134.414 19.7383 134.203L19.4219 134.133C17.7344 133.852 16.9258 133.289 16.9258 132.48C16.9258 131.848 17.1367 131.285 17.5938 130.758C18.0508 130.266 18.8594 129.984 20.0195 129.984C21.8477 129.984 23.043 130.793 23.6055 132.41L27.1211 131.426C26.8047 130.23 26.0664 129.07 24.8711 127.945C23.6758 126.82 22.0586 126.223 20.0195 126.223ZM29.7578 138.633C29.7578 139.09 29.793 139.582 29.8633 140.109C29.9336 140.672 30.1445 141.34 30.4961 142.184C30.8125 143.027 31.2344 143.801 31.7969 144.469C32.3594 145.137 33.168 145.699 34.2578 146.191C35.3125 146.684 36.5781 146.93 37.9844 146.93C39.4609 147 40.6562 146.789 41.6055 146.297C42.8008 145.734 43.6094 145.207 44.0312 144.75C44.5938 144.117 45.0859 143.309 45.543 142.324C45.9648 141.27 46.2109 139.828 46.2812 137.93C46.3164 137.367 46.3516 136.91 46.3867 136.488L46.3516 126.047H42.4141V138.633C42.4141 139.055 42.3438 139.441 42.2734 139.863C42.2031 140.285 42.0273 140.742 41.7812 141.305C41.5 141.867 41.043 142.289 40.4102 142.605C39.7422 142.957 38.9336 143.098 38.0195 143.098C35.1367 143.098 33.6953 141.621 33.6953 138.633V126.047H29.7578V138.633ZM56.3008 126.223C55 126.223 53.875 126.469 52.9258 126.926C51.9414 127.383 51.2383 127.945 50.8164 128.613C50.3594 129.316 50.043 129.949 49.8672 130.547C49.6562 131.18 49.5859 131.707 49.5859 132.199C49.5859 132.762 49.6211 133.289 49.7617 133.746C49.8672 134.203 50.1133 134.766 50.4648 135.398C50.8164 136.031 51.4844 136.594 52.4336 137.051C53.3828 137.508 54.5781 137.824 56.0195 138C58.6914 138.352 60.0625 139.266 60.0625 140.777V140.988C60.0625 141.059 60.0273 141.129 59.9922 141.234C59.5703 142.535 58.4102 143.203 56.582 143.203H56.3008C53.8047 143.203 52.4336 142.078 52.1875 139.793H48.6016C48.6016 140.461 48.707 141.164 48.9531 141.938C49.1992 142.711 49.5859 143.484 50.1133 144.258C50.6406 145.031 51.4492 145.699 52.5391 146.191C53.5938 146.719 54.8594 146.965 56.3008 146.965C60.0977 146.965 62.418 145.629 63.332 142.922C63.543 142.324 63.6484 141.586 63.6484 140.707C63.6484 140.391 63.6133 140.074 63.5781 139.793C63.543 139.512 63.4023 139.055 63.1914 138.457C62.9805 137.895 62.6289 137.367 62.1719 136.875C61.7148 136.383 60.9414 135.891 59.8867 135.328C58.832 134.801 57.5312 134.414 56.0195 134.203L55.7031 134.133C54.0156 133.852 53.207 133.289 53.207 132.48C53.207 131.848 53.418 131.285 53.875 130.758C54.332 130.266 55.1406 129.984 56.3008 129.984C58.1289 129.984 59.3242 130.793 59.8867 132.41L63.4023 131.426C63.0859 130.23 62.3477 129.07 61.1523 127.945C59.957 126.82 58.3398 126.223 56.3008 126.223ZM66.5664 147H70.3633V134.73C70.3633 134.238 70.3984 133.746 70.5039 133.324C70.6094 132.902 70.8203 132.445 71.1016 131.918C71.3828 131.391 71.875 130.969 72.5078 130.652C73.1406 130.336 73.8789 130.16 74.793 130.16C75.9883 130.16 76.9727 130.477 77.6758 131.074C78.3789 131.672 78.8008 132.27 78.9414 132.832C79.082 133.43 79.1523 134.062 79.1523 134.73V147H82.9492V134.73C82.8789 133.641 82.668 132.516 82.2812 131.355C81.8594 130.195 81.0156 129.07 79.6797 128.016C78.3438 126.961 76.7266 126.434 74.793 126.434C73.1758 126.434 71.8047 126.785 70.6094 127.453C70.4336 127.594 70.3633 127.523 70.3633 127.312V119.789H66.5664V147ZM90.2969 121.336C90.2969 120.844 90.0859 120.387 89.6992 120.035C89.2773 119.684 88.8555 119.473 88.3633 119.473C87.8711 119.473 87.4141 119.684 87.0625 120.035C86.6758 120.387 86.5 120.844 86.5 121.336C86.5 121.828 86.6758 122.285 87.0625 122.637C87.4141 123.023 87.8711 123.199 88.3633 123.199C88.8555 123.199 89.2773 123.023 89.6992 122.637C90.0859 122.285 90.2969 121.828 90.2969 121.336ZM90.2969 126.68H86.5703V147.07H90.2969V126.68ZM108.613 126.223C107.312 126.223 106.188 126.469 105.238 126.926C104.254 127.383 103.551 127.945 103.129 128.613C102.672 129.316 102.355 129.949 102.18 130.547C101.969 131.18 101.898 131.707 101.898 132.199C101.898 132.762 101.934 133.289 102.074 133.746C102.18 134.203 102.426 134.766 102.777 135.398C103.129 136.031 103.797 136.594 104.746 137.051C105.695 137.508 106.891 137.824 108.332 138C111.004 138.352 112.375 139.266 112.375 140.777V140.988C112.375 141.059 112.34 141.129 112.305 141.234C111.883 142.535 110.723 143.203 108.895 143.203H108.613C106.117 143.203 104.746 142.078 104.5 139.793H100.914C100.914 140.461 101.02 141.164 101.266 141.938C101.512 142.711 101.898 143.484 102.426 144.258C102.953 145.031 103.762 145.699 104.852 146.191C105.906 146.719 107.172 146.965 108.613 146.965C112.41 146.965 114.73 145.629 115.645 142.922C115.855 142.324 115.961 141.586 115.961 140.707C115.961 140.391 115.926 140.074 115.891 139.793C115.855 139.512 115.715 139.055 115.504 138.457C115.293 137.895 114.941 137.367 114.484 136.875C114.027 136.383 113.254 135.891 112.199 135.328C111.145 134.801 109.844 134.414 108.332 134.203L108.016 134.133C106.328 133.852 105.52 133.289 105.52 132.48C105.52 131.848 105.73 131.285 106.188 130.758C106.645 130.266 107.453 129.984 108.613 129.984C110.441 129.984 111.637 130.793 112.199 132.41L115.715 131.426C115.398 130.23 114.66 129.07 113.465 127.945C112.27 126.82 110.652 126.223 108.613 126.223ZM120.285 139.723C120.285 141.27 120.637 142.746 121.34 144.152C122.043 145.594 123.238 146.473 124.926 146.754C125.453 146.895 125.98 146.93 126.508 146.93C127.914 146.93 129.109 146.613 130.094 145.945C131.078 145.312 131.711 144.574 132.062 143.766L128.512 142.5C128.09 143.027 127.562 143.273 127 143.273C126.402 143.309 125.945 143.273 125.629 143.133C125.102 142.922 124.68 142.57 124.398 142.043C124.117 141.516 123.977 141.094 123.977 140.812V119.648H120.285V139.723ZM123.977 130.23H130.938L132.062 126.504H123.977V130.23ZM118.281 130.23H120.285V126.504H119.301L118.281 130.23ZM134.84 147H138.883V134.414C138.883 131.426 140.289 129.914 143.137 129.914C143.699 129.984 144.227 130.055 144.648 130.16L145.914 126.434C145.07 126.223 144.121 126.117 143.137 126.117C141.449 126.117 140.008 126.469 138.883 127.137V126.363H134.84V134.414V147ZM166.445 126.363H162.578V128.262C162.578 128.367 162.543 128.402 162.508 128.332C161.066 126.926 158.887 126.188 155.934 126.188C153.332 126.188 150.941 127.102 148.797 128.93C146.617 130.758 145.562 133.324 145.562 136.559C145.562 139.793 146.652 142.324 148.832 144.188C151.012 146.086 153.402 147 155.934 147C158.676 147 160.855 146.262 162.508 144.715L162.578 144.609V144.855V147H166.445V126.363ZM155.934 143.203C154.07 143.203 152.488 142.57 151.188 141.27C149.852 140.004 149.219 138.422 149.219 136.594C149.219 134.766 149.852 133.184 151.188 131.848C152.488 130.512 154.07 129.844 155.934 129.844C157.762 129.844 159.344 130.512 160.68 131.848C161.98 133.184 162.648 134.766 162.648 136.594C162.648 138.422 161.98 140.004 160.68 141.27C159.344 142.57 157.762 143.203 155.934 143.203ZM170.734 139.723C170.734 141.27 171.086 142.746 171.789 144.152C172.492 145.594 173.688 146.473 175.375 146.754C175.902 146.895 176.43 146.93 176.957 146.93C178.363 146.93 179.559 146.613 180.543 145.945C181.527 145.312 182.16 144.574 182.512 143.766L178.961 142.5C178.539 143.027 178.012 143.273 177.449 143.273C176.852 143.309 176.395 143.273 176.078 143.133C175.551 142.922 175.129 142.57 174.848 142.043C174.566 141.516 174.426 141.094 174.426 140.812V119.648H170.734V139.723ZM174.426 130.23H181.387L182.512 126.504H174.426V130.23ZM168.73 130.23H170.734V126.504H169.75L168.73 130.23ZM199.914 138.387C199.387 139.863 198.543 141.059 197.383 141.902C196.223 142.781 194.922 143.203 193.445 143.203C191.125 143.273 189.262 142.254 187.891 140.18C187.75 140.004 187.785 139.863 187.996 139.793L203.816 135.609H203.887C203.887 135.469 203.746 134.871 203.5 133.852C203.359 133.184 203.078 132.48 202.621 131.707C202.129 130.934 201.531 130.125 200.758 129.246C199.984 128.402 198.965 127.664 197.629 127.102C196.293 126.539 194.922 126.258 193.445 126.258C190.387 126.258 187.926 127.312 186.027 129.352C184.129 131.426 183.18 133.816 183.18 136.559C183.18 139.371 184.094 141.797 185.957 143.871C187.82 145.98 190.316 147 193.445 147C195.027 147 196.469 146.719 197.734 146.121C199 145.559 199.984 144.82 200.758 143.977C201.531 143.133 202.129 142.324 202.586 141.551C203.008 140.777 203.324 140.039 203.5 139.336L199.914 138.387ZM187.047 134.977C187.539 133.465 188.418 132.234 189.613 131.285C190.809 130.371 192.109 129.914 193.516 129.914C194.148 129.914 194.711 130.02 195.203 130.16C196.82 130.688 198.086 131.566 199 132.832C199.07 133.008 199.105 133.078 199.07 133.078H199L187.117 136.312C186.941 136.383 186.836 136.383 186.836 136.312C186.801 136.277 186.801 136.172 186.801 135.996C186.801 135.926 186.801 135.82 186.836 135.68C186.836 135.539 186.871 135.434 186.906 135.328L187.047 134.977ZM223.188 126.504V128.332V128.648L223.047 128.402C222.625 127.91 221.816 127.418 220.691 126.926C219.566 126.434 218.195 126.188 216.613 126.188C213.871 126.188 211.41 127.102 209.301 128.93C207.156 130.758 206.102 133.324 206.102 136.559C206.102 139.793 207.191 142.324 209.441 144.188C211.691 146.086 214.082 147 216.613 147C219.391 147 221.535 146.262 223.047 144.785L223.188 144.609V145.031C223.188 146.156 223.012 147.246 222.695 148.301C222.379 149.391 221.711 150.445 220.656 151.43C219.602 152.449 218.23 152.941 216.613 152.941C213.238 153.012 211.059 151.605 210.145 148.758L206.418 149.672C206.945 151.605 208.035 153.258 209.688 154.664C211.34 156.07 213.66 156.738 216.613 156.738C218.195 156.738 219.637 156.457 220.902 155.859C222.168 155.297 223.152 154.559 223.855 153.715C224.559 152.871 225.191 151.922 225.684 150.797C226.176 149.707 226.492 148.688 226.703 147.703C226.879 146.719 226.984 145.77 226.984 144.855V144.609V126.504H223.188ZM216.473 143.203C214.609 143.203 213.027 142.57 211.727 141.27C210.391 140.004 209.758 138.422 209.758 136.594C209.758 134.766 210.391 133.184 211.727 131.848C213.027 130.512 214.609 129.844 216.473 129.844C218.301 129.844 219.883 130.512 221.219 131.848C222.52 133.184 223.188 134.766 223.188 136.594C223.188 138.422 222.52 140.004 221.219 141.27C219.883 142.57 218.301 143.203 216.473 143.203ZM246.285 126.609V136.559C246.285 138.457 245.652 140.074 244.422 141.34C243.156 142.641 241.609 143.273 239.781 143.273C237.918 143.273 236.371 142.641 235.141 141.375C233.91 140.109 233.312 138.527 233.312 136.629V126.68L229.34 126.609V136.559C229.34 139.828 230.465 142.395 232.75 144.223C235 146.086 237.426 147 239.957 147C242.734 147 244.844 146.297 246.285 144.855L246.426 144.715C246.461 144.645 246.496 144.645 246.496 144.715V144.855C246.496 145.98 246.32 147.105 246.004 148.23C245.688 149.355 245.02 150.445 244 151.43C242.98 152.449 241.645 152.941 239.957 152.941H239.746C236.477 152.941 234.367 151.57 233.453 148.758L229.832 149.672C230.324 151.641 231.414 153.328 233.066 154.699C234.684 156.07 237.004 156.738 239.957 156.738C241.504 156.738 242.945 156.457 244.211 155.859C245.477 155.297 246.461 154.559 247.164 153.715C247.867 152.871 248.465 151.922 248.957 150.797C249.414 149.707 249.73 148.688 249.941 147.703C250.117 146.719 250.223 145.77 250.223 144.855V144.609V126.609H246.285Z" fill="white"/>
</svg>
