<svg width="302" height="119" viewBox="0 0 302 119" fill="none" xmlns="http://www.w3.org/2000/svg">
<path d="M-3 56L-3 31L283.994 31L302 56L-3 56Z" fill="white"/>
<path d="M0.5 0.5L0.5 24.5L143.438 24.5L160.046 0.5L0.5 0.5Z" fill="#FCD6F6" stroke="#FCD6F6"/>
<path d="M-15 0L-15 25L128.7 25L146 0L-15 0Z" fill="#FF729F"/>
<path d="M-3 0L-3 25L91.6097 25L103 0L-3 0Z" fill="#56CBF9"/>
<path d="M-3 63L-3 88L175.017 88L184 63L-3 63Z" fill="white"/>
<path d="M-9.5 95.5L-9.5 117.5L106.731 117.5L114.848 95.5L-9.5 95.5Z" stroke="white" stroke-width="3"/>
</svg>
