<svg width="428" height="95" viewBox="0 0 428 95" fill="none" xmlns="http://www.w3.org/2000/svg">
<path d="M431.887 48.1586L428 40.8155L411.196 9.07269L393.64 48.1586L381.726 18.3789L365.424 65.6542L351.003 35.8744L334.7 83.8943L314.636 35.8744L305.858 65.6542L283.285 18.3789L270.118 48.1586L251.307 2L241.275 59.326L226.227 18.3789L211.806 65.6542L194.249 41.0859L176.693 93.2004L160.39 41.0859L147.223 74.9604L127.786 18.3789L114.618 53.37L97.062 9.07269L81.3867 48.1586L68.2194 18.3789L53.1711 65.6542L38.7498 41.0859L22.4474 83.8943L0.501947 41.0859L-9.53027 65.6542" stroke="#56CBF9" stroke-width="3" stroke-linejoin="round"/>
</svg>
