<svg width="335" height="127" viewBox="0 0 335 127" fill="none" xmlns="http://www.w3.org/2000/svg">
<rect x="34.1531" y="124.914" width="88.0176" height="244.924" transform="rotate(-90 34.1531 124.914)" stroke="white" stroke-width="3"/>
<rect x="197.13" y="108.715" width="96.0741" height="137.87" transform="rotate(-90 197.13 108.715)" fill="#4F4F4F"/>
<rect x="1.5" y="1.5" width="119.148" height="105.715" stroke="#4F4F4F" stroke-width="3"/>
<mask id="mask0_1432_288" style="mask-type:alpha" maskUnits="userSpaceOnUse" x="3" y="24" width="116" height="81">
<path d="M117.02 42.7223V103.423H5.12817V37.4203L32.3511 25.6527L93.8345 52.2301L94.4297 52.4874L95.0249 52.2301L117.02 42.7223Z" fill="white" stroke="white" stroke-width="3"/>
</mask>
<g mask="url(#mask0_1432_288)">
<rect width="165.776" height="41.186" transform="matrix(0.993359 -0.115057 0.526857 0.849954 -13.0498 88.7515)" fill="#81F4E1"/>
<rect width="165.776" height="35.1117" transform="matrix(0.993359 -0.115057 -0.526857 -0.849954 -7.93115 97.0093)" fill="#56CBF9"/>
<rect width="165.776" height="29.5389" transform="matrix(0.993359 -0.115057 0.526857 0.849954 -40.6538 44.2188)" fill="#FF729F"/>
<rect width="165.776" height="29.2251" transform="matrix(0.993359 -0.115057 -0.526857 -0.849954 -38.1802 48.21)" fill="#FCD6F6"/>
</g>
<path d="M40.3727 70.1797C42.4118 70.1797 44.029 70.7539 45.2243 71.9023C46.4196 73.0273 47.1696 74.1875 47.4743 75.3828L43.9586 76.3672C43.4196 74.75 42.2243 73.9414 40.3727 73.9414C39.2243 73.9414 38.4157 74.1992 37.9469 74.7148C37.5016 75.2305 37.279 75.8047 37.279 76.4375C37.279 77.2344 38.111 77.7852 39.7751 78.0898L40.0915 78.1602C41.6149 78.3711 42.904 78.7461 43.9586 79.2852C45.0368 79.8242 45.7985 80.3398 46.2438 80.832C46.7126 81.3008 47.0524 81.8281 47.2633 82.4141C47.4977 83 47.6266 83.4453 47.6501 83.75C47.6969 84.0312 47.7204 84.3359 47.7204 84.6641C47.7204 85.5312 47.6149 86.2695 47.404 86.8789C46.5133 89.5742 44.1696 90.9219 40.3727 90.9219C38.943 90.9219 37.6891 90.6641 36.611 90.1484C35.5329 89.6328 34.7243 88.9883 34.1852 88.2148C33.6696 87.418 33.2829 86.6445 33.0251 85.8945C32.7907 85.1211 32.6735 84.4062 32.6735 83.75H36.2594C36.5172 86.0234 37.8883 87.1602 40.3727 87.1602H40.654C42.5055 87.1367 43.6422 86.4805 44.0641 85.1914C44.111 85.0742 44.1344 84.9922 44.1344 84.9453V84.7344C44.1344 83.2109 42.7868 82.2852 40.0915 81.957C38.6618 81.7695 37.4665 81.4531 36.5055 81.0078C35.568 80.5391 34.9118 79.9883 34.5368 79.3555C34.1852 78.6992 33.9508 78.1484 33.8336 77.7031C33.7165 77.2344 33.6579 76.7188 33.6579 76.1562C33.6579 75.6641 33.7516 75.1133 33.9391 74.5039C34.1266 73.8945 34.443 73.25 34.8883 72.5703C35.3336 71.8906 36.0368 71.3281 36.9977 70.8828C37.9586 70.4141 39.0836 70.1797 40.3727 70.1797ZM50.111 82.5898V70.0039H54.0485V82.5898C54.0485 85.5664 55.4899 87.0547 58.3727 87.0547C59.3102 87.0547 60.1071 86.8906 60.7633 86.5625C61.4196 86.2344 61.8766 85.8008 62.1344 85.2617C62.3922 84.6992 62.5563 84.2188 62.6266 83.8203C62.7204 83.3984 62.7672 82.9883 62.7672 82.5898V70.0039H66.7047L66.7399 80.4453C66.7165 80.8438 66.6813 81.3242 66.6344 81.8867C66.5876 83.7617 66.3415 85.2266 65.8961 86.2812C65.4508 87.2656 64.9469 88.0742 64.3844 88.707C63.986 89.1523 63.1774 89.668 61.9586 90.2539C61.0211 90.7227 59.8141 90.9336 58.3376 90.8867C56.9313 90.8867 55.6891 90.6406 54.611 90.1484C53.5329 89.6562 52.7126 89.082 52.1501 88.4258C51.611 87.7461 51.1774 86.9844 50.8493 86.1406C50.5211 85.2969 50.3102 84.6055 50.2165 84.0664C50.1461 83.5273 50.111 83.0352 50.111 82.5898ZM76.654 70.1797C78.693 70.1797 80.3102 70.7539 81.5055 71.9023C82.7008 73.0273 83.4508 74.1875 83.7555 75.3828L80.2399 76.3672C79.7008 74.75 78.5055 73.9414 76.654 73.9414C75.5055 73.9414 74.6969 74.1992 74.2282 74.7148C73.7829 75.2305 73.5602 75.8047 73.5602 76.4375C73.5602 77.2344 74.3922 77.7852 76.0563 78.0898L76.3727 78.1602C77.8961 78.3711 79.1852 78.7461 80.2399 79.2852C81.318 79.8242 82.0797 80.3398 82.5251 80.832C82.9938 81.3008 83.3336 81.8281 83.5446 82.4141C83.779 83 83.9079 83.4453 83.9313 83.75C83.9782 84.0312 84.0016 84.3359 84.0016 84.6641C84.0016 85.5312 83.8961 86.2695 83.6852 86.8789C82.7946 89.5742 80.4508 90.9219 76.654 90.9219C75.2243 90.9219 73.9704 90.6641 72.8922 90.1484C71.8141 89.6328 71.0055 88.9883 70.4665 88.2148C69.9508 87.418 69.5641 86.6445 69.3063 85.8945C69.0719 85.1211 68.9547 84.4062 68.9547 83.75H72.5407C72.7985 86.0234 74.1696 87.1602 76.654 87.1602H76.9352C78.7868 87.1367 79.9235 86.4805 80.3454 85.1914C80.3922 85.0742 80.4157 84.9922 80.4157 84.9453V84.7344C80.4157 83.2109 79.068 82.2852 76.3727 81.957C74.943 81.7695 73.7477 81.4531 72.7868 81.0078C71.8493 80.5391 71.193 79.9883 70.818 79.3555C70.4665 78.6992 70.2321 78.1484 70.1149 77.7031C69.9977 77.2344 69.9391 76.7188 69.9391 76.1562C69.9391 75.6641 70.0329 75.1133 70.2204 74.5039C70.4079 73.8945 70.7243 73.25 71.1696 72.5703C71.6149 71.8906 72.318 71.3281 73.279 70.8828C74.2399 70.4141 75.3649 70.1797 76.654 70.1797ZM86.9196 90.957V63.7461H90.7165V71.2695C90.7165 71.4805 90.7985 71.5273 90.9626 71.4102C92.1579 70.7305 93.5524 70.3906 95.1461 70.3906C97.0915 70.3906 98.7204 70.918 100.033 71.9727C101.369 73.0273 102.236 74.1406 102.634 75.3125C103.033 76.4609 103.256 77.5859 103.302 78.6875V90.957H99.5055V78.6875C99.5055 78.0078 99.4352 77.375 99.2946 76.7891C99.154 76.2031 98.7321 75.6172 98.029 75.0312C97.3258 74.4219 96.3649 74.1172 95.1461 74.1172C94.2555 74.1172 93.4938 74.2812 92.861 74.6094C92.2282 74.9141 91.7594 75.3359 91.4547 75.875C91.1735 76.3906 90.9743 76.8594 90.8571 77.2812C90.7633 77.7031 90.7165 78.1719 90.7165 78.6875V90.957H86.9196ZM110.052 63.9922C110.451 64.3438 110.65 64.7773 110.65 65.293C110.65 65.7852 110.451 66.2188 110.052 66.5938C109.654 66.9688 109.209 67.1562 108.716 67.1562C108.224 67.1562 107.791 66.9688 107.416 66.5938C107.041 66.2188 106.853 65.7852 106.853 65.293C106.853 64.7773 107.041 64.3438 107.416 63.9922C107.791 63.6172 108.224 63.4297 108.716 63.4297C109.209 63.4297 109.654 63.6172 110.052 63.9922ZM110.65 70.6367V91.0273H106.923V70.6367H110.65Z" fill="black"/>
<path d="M128.966 70.1797C131.006 70.1797 132.623 70.7539 133.818 71.9023C135.013 73.0273 135.763 74.1875 136.068 75.3828L132.552 76.3672C132.013 74.75 130.818 73.9414 128.966 73.9414C127.818 73.9414 127.009 74.1992 126.541 74.7148C126.095 75.2305 125.873 75.8047 125.873 76.4375C125.873 77.2344 126.705 77.7852 128.369 78.0898L128.685 78.1602C130.209 78.3711 131.498 78.7461 132.552 79.2852C133.631 79.8242 134.392 80.3398 134.838 80.832C135.306 81.3008 135.646 81.8281 135.857 82.4141C136.091 83 136.22 83.4453 136.244 83.75C136.291 84.0312 136.314 84.3359 136.314 84.6641C136.314 85.5312 136.209 86.2695 135.998 86.8789C135.107 89.5742 132.763 90.9219 128.966 90.9219C127.537 90.9219 126.283 90.6641 125.205 90.1484C124.127 89.6328 123.318 88.9883 122.779 88.2148C122.263 87.418 121.877 86.6445 121.619 85.8945C121.384 85.1211 121.267 84.4062 121.267 83.75H124.853C125.111 86.0234 126.482 87.1602 128.966 87.1602H129.248C131.099 87.1367 132.236 86.4805 132.658 85.1914C132.705 85.0742 132.728 84.9922 132.728 84.9453V84.7344C132.728 83.2109 131.381 82.2852 128.685 81.957C127.256 81.7695 126.06 81.4531 125.099 81.0078C124.162 80.5391 123.506 79.9883 123.131 79.3555C122.779 78.6992 122.545 78.1484 122.427 77.7031C122.31 77.2344 122.252 76.7188 122.252 76.1562C122.252 75.6641 122.345 75.1133 122.533 74.5039C122.72 73.8945 123.037 73.25 123.482 72.5703C123.927 71.8906 124.631 71.3281 125.591 70.8828C126.552 70.4141 127.677 70.1797 128.966 70.1797ZM138.705 82.5898V70.0039H142.642V82.5898C142.642 85.5664 144.084 87.0547 146.966 87.0547C147.904 87.0547 148.701 86.8906 149.357 86.5625C150.013 86.2344 150.47 85.8008 150.728 85.2617C150.986 84.6992 151.15 84.2188 151.22 83.8203C151.314 83.3984 151.361 82.9883 151.361 82.5898V70.0039H155.298L155.334 80.4453C155.31 80.8438 155.275 81.3242 155.228 81.8867C155.181 83.7617 154.935 85.2266 154.49 86.2812C154.045 87.2656 153.541 88.0742 152.978 88.707C152.58 89.1523 151.771 89.668 150.552 90.2539C149.615 90.7227 148.408 90.9336 146.931 90.8867C145.525 90.8867 144.283 90.6406 143.205 90.1484C142.127 89.6562 141.306 89.082 140.744 88.4258C140.205 87.7461 139.771 86.9844 139.443 86.1406C139.115 85.2969 138.904 84.6055 138.81 84.0664C138.74 83.5273 138.705 83.0352 138.705 82.5898ZM162.435 70.5664V72.2891C162.435 72.5469 162.482 72.6055 162.576 72.4648C162.998 71.9258 163.771 71.4219 164.896 70.9531C166.045 70.4609 167.416 70.2148 169.009 70.2148C171.681 70.2148 174.095 71.1289 176.252 72.957C178.431 74.7852 179.521 77.3047 179.521 80.5156C179.521 83.7266 178.396 86.2695 176.146 88.1445C173.92 90.0195 171.541 90.957 169.009 90.957C166.361 90.957 164.252 90.2188 162.681 88.7422C162.517 88.5781 162.435 88.6016 162.435 88.8125V100.449H158.709V70.5664H161.064H162.435ZM164.404 85.2617C165.716 86.5273 167.298 87.1602 169.15 87.1602C171.002 87.1602 172.584 86.5273 173.896 85.2617C175.209 83.9961 175.865 82.4375 175.865 80.5859C175.865 78.7344 175.209 77.1523 173.896 75.8398C172.584 74.5273 171.002 73.8711 169.15 73.8711C167.298 73.8711 165.716 74.5273 164.404 75.8398C163.091 77.1523 162.435 78.7344 162.435 80.5859C162.435 82.4375 163.091 83.9961 164.404 85.2617ZM198.224 82.3438L201.81 83.293C201.646 83.9727 201.341 84.7109 200.896 85.5078C200.451 86.2812 199.841 87.0898 199.068 87.9336C198.318 88.7773 197.31 89.4922 196.045 90.0781C194.779 90.6641 193.349 90.957 191.756 90.957C188.638 90.957 186.142 89.9141 184.267 87.8281C182.416 85.7422 181.49 83.3047 181.49 80.5156C181.49 77.7734 182.439 75.3711 184.338 73.3086C186.236 71.2461 188.709 70.2148 191.756 70.2148C193.232 70.2148 194.627 70.4961 195.939 71.0586C197.275 71.6211 198.318 72.3359 199.068 73.2031C199.841 74.0703 200.463 74.8906 200.931 75.6641C201.4 76.4141 201.693 77.1289 201.81 77.8086C202.068 78.8164 202.197 79.4023 202.197 79.5664H202.127L186.306 83.75C186.095 83.8203 186.06 83.9492 186.201 84.1367C187.584 86.1992 189.435 87.207 191.756 87.1602C193.232 87.1602 194.545 86.7266 195.693 85.8594C196.865 84.9922 197.709 83.8203 198.224 82.3438ZM185.357 78.9336L185.216 79.2852C185.193 79.3789 185.17 79.4961 185.146 79.6367C185.123 79.7539 185.111 79.8594 185.111 79.9531C185.111 80.1172 185.123 80.2227 185.146 80.2695C185.17 80.3398 185.263 80.3398 185.427 80.2695L197.31 77.0352H197.381C197.427 77.0352 197.404 76.9531 197.31 76.7891C196.396 75.5234 195.131 74.6328 193.513 74.1172C193.021 73.9531 192.459 73.8711 191.826 73.8711C190.42 73.8711 189.119 74.3281 187.923 75.2422C186.728 76.1797 185.873 77.4102 185.357 78.9336ZM204.834 90.957V78.3711V70.3203H208.877V71.0938C210.025 70.4141 211.443 70.0742 213.131 70.0742C214.138 70.0742 215.064 70.1797 215.908 70.3906L214.642 74.1172C214.22 74 213.716 73.918 213.131 73.8711C210.295 73.8711 208.877 75.3711 208.877 78.3711V90.957H204.834ZM221.216 70.4609L227.158 86.457L233.064 70.4609H236.861L229.338 90.957H224.908L217.314 70.4609H221.216ZM242.416 63.9922C242.814 64.3438 243.013 64.7773 243.013 65.293C243.013 65.7852 242.814 66.2188 242.416 66.5938C242.017 66.9688 241.572 67.1562 241.08 67.1562C240.588 67.1562 240.154 66.9688 239.779 66.5938C239.404 66.2188 239.216 65.7852 239.216 65.293C239.216 64.7773 239.404 64.3438 239.779 63.9922C240.154 63.6172 240.588 63.4297 241.08 63.4297C241.572 63.4297 242.017 63.6172 242.416 63.9922ZM243.013 70.6367V91.0273H239.287V70.6367H243.013ZM253.455 70.1797C255.494 70.1797 257.111 70.7539 258.306 71.9023C259.502 73.0273 260.252 74.1875 260.556 75.3828L257.041 76.3672C256.502 74.75 255.306 73.9414 253.455 73.9414C252.306 73.9414 251.498 74.1992 251.029 74.7148C250.584 75.2305 250.361 75.8047 250.361 76.4375C250.361 77.2344 251.193 77.7852 252.857 78.0898L253.173 78.1602C254.697 78.3711 255.986 78.7461 257.041 79.2852C258.119 79.8242 258.881 80.3398 259.326 80.832C259.795 81.3008 260.134 81.8281 260.345 82.4141C260.58 83 260.709 83.4453 260.732 83.75C260.779 84.0312 260.802 84.3359 260.802 84.6641C260.802 85.5312 260.697 86.2695 260.486 86.8789C259.595 89.5742 257.252 90.9219 253.455 90.9219C252.025 90.9219 250.771 90.6641 249.693 90.1484C248.615 89.6328 247.806 88.9883 247.267 88.2148C246.752 87.418 246.365 86.6445 246.107 85.8945C245.873 85.1211 245.756 84.4062 245.756 83.75H249.341C249.599 86.0234 250.97 87.1602 253.455 87.1602H253.736C255.588 87.1367 256.724 86.4805 257.146 85.1914C257.193 85.0742 257.216 84.9922 257.216 84.9453V84.7344C257.216 83.2109 255.869 82.2852 253.173 81.957C251.744 81.7695 250.548 81.4531 249.588 81.0078C248.65 80.5391 247.994 79.9883 247.619 79.3555C247.267 78.6992 247.033 78.1484 246.916 77.7031C246.798 77.2344 246.74 76.7188 246.74 76.1562C246.74 75.6641 246.834 75.1133 247.021 74.5039C247.209 73.8945 247.525 73.25 247.97 72.5703C248.416 71.8906 249.119 71.3281 250.08 70.8828C251.041 70.4141 252.166 70.1797 253.455 70.1797ZM279.47 82.3438L283.056 83.293C282.892 83.9727 282.588 84.7109 282.142 85.5078C281.697 86.2812 281.088 87.0898 280.314 87.9336C279.564 88.7773 278.556 89.4922 277.291 90.0781C276.025 90.6641 274.595 90.957 273.002 90.957C269.884 90.957 267.388 89.9141 265.513 87.8281C263.662 85.7422 262.736 83.3047 262.736 80.5156C262.736 77.7734 263.685 75.3711 265.584 73.3086C267.482 71.2461 269.955 70.2148 273.002 70.2148C274.478 70.2148 275.873 70.4961 277.185 71.0586C278.521 71.6211 279.564 72.3359 280.314 73.2031C281.088 74.0703 281.709 74.8906 282.177 75.6641C282.646 76.4141 282.939 77.1289 283.056 77.8086C283.314 78.8164 283.443 79.4023 283.443 79.5664H283.373L267.552 83.75C267.341 83.8203 267.306 83.9492 267.447 84.1367C268.83 86.1992 270.681 87.207 273.002 87.1602C274.478 87.1602 275.791 86.7266 276.939 85.8594C278.111 84.9922 278.955 83.8203 279.47 82.3438ZM266.603 78.9336L266.463 79.2852C266.439 79.3789 266.416 79.4961 266.392 79.6367C266.369 79.7539 266.357 79.8594 266.357 79.9531C266.357 80.1172 266.369 80.2227 266.392 80.2695C266.416 80.3398 266.509 80.3398 266.673 80.2695L278.556 77.0352H278.627C278.673 77.0352 278.65 76.9531 278.556 76.7891C277.642 75.5234 276.377 74.6328 274.759 74.1172C274.267 73.9531 273.705 73.8711 273.072 73.8711C271.666 73.8711 270.365 74.3281 269.17 75.2422C267.974 76.1797 267.119 77.4102 266.603 78.9336Z" fill="white"/>
</svg>
