<svg width="317" height="127" viewBox="0 0 317 127" fill="none" xmlns="http://www.w3.org/2000/svg">
<rect x="34.1533" y="124.914" width="88.0176" height="244.924" transform="rotate(-90 34.1533 124.914)" stroke="white" stroke-width="3"/>
<rect x="101" y="99" width="41" height="187" transform="rotate(-90 101 99)" fill="black"/>
<rect x="1.5" y="1.5" width="117" height="105" fill="black" stroke="white" stroke-width="3"/>
<mask id="mask0_1529_93" style="mask-type:alpha" maskUnits="userSpaceOnUse" x="2" y="18" width="118" height="87">
<path d="M94.6396 48.223L95.2581 48.5029L95.8766 48.223L118.5 37.9838V103.5H3.5V32.3191L31.5 19.6465L94.6396 48.223Z" fill="white" stroke="white" stroke-width="3"/>
</mask>
<g mask="url(#mask0_1529_93)">
<rect width="170.37" height="43.7461" transform="matrix(0.992727 -0.12039 0.509445 0.860503 -15.1289 87.6099)" fill="#81F4E1"/>
<rect width="170.37" height="37.2942" transform="matrix(0.992727 -0.12039 -0.509445 -0.860503 -9.87207 96.4897)" fill="#6FD6FF"/>
<rect width="170.37" height="31.3749" transform="matrix(0.992727 -0.12039 0.509445 0.860503 -43.48 39.7222)" fill="#FF89AF"/>
<rect width="170.37" height="31.0417" transform="matrix(0.992727 -0.12039 -0.509445 -0.860503 -40.9395 44.0142)" fill="#FCD6F6" fill-opacity="0.9"/>
</g>
<rect x="1.5" y="1.5" width="117" height="105" stroke="white" stroke-width="3"/>
<path d="M279.08 63V55" stroke="white" stroke-width="3"/>
<path d="M43.8522 70.2227C42.5514 70.2227 41.4264 70.4688 40.4772 70.9258C39.4928 71.3828 38.7897 71.9453 38.3678 72.6133C37.9108 73.3164 37.5944 73.9492 37.4186 74.5469C37.2077 75.1797 37.1374 75.707 37.1374 76.1992C37.1374 76.7617 37.1725 77.2891 37.3131 77.7461C37.4186 78.2031 37.6647 78.7656 38.0163 79.3984C38.3678 80.0312 39.0358 80.5938 39.985 81.0508C40.9342 81.5078 42.1295 81.8242 43.571 82C46.2428 82.3516 47.6139 83.2656 47.6139 84.7773V84.9883C47.6139 85.0586 47.5788 85.1289 47.5436 85.2344C47.1217 86.5352 45.9616 87.2031 44.1335 87.2031H43.8522C41.3561 87.2031 39.985 86.0781 39.7389 83.793H36.153C36.153 84.4609 36.2585 85.1641 36.5045 85.9375C36.7506 86.7109 37.1374 87.4844 37.6647 88.2578C38.192 89.0312 39.0006 89.6992 40.0905 90.1914C41.1452 90.7188 42.4108 90.9648 43.8522 90.9648C47.6491 90.9648 49.9694 89.6289 50.8835 86.9219C51.0944 86.3242 51.1999 85.5859 51.1999 84.707C51.1999 84.3906 51.1647 84.0742 51.1295 83.793C51.0944 83.5117 50.9538 83.0547 50.7428 82.457C50.5319 81.8945 50.1803 81.3672 49.7233 80.875C49.2663 80.3828 48.4928 79.8906 47.4381 79.3281C46.3835 78.8008 45.0827 78.4141 43.571 78.2031L43.2545 78.1328C41.567 77.8516 40.7585 77.2891 40.7585 76.4805C40.7585 75.8477 40.9694 75.2852 41.4264 74.7578C41.8835 74.2656 42.692 73.9844 43.8522 73.9844C45.6803 73.9844 46.8756 74.793 47.4381 76.4102L50.9538 75.4258C50.6374 74.2305 49.8991 73.0703 48.7038 71.9453C47.5085 70.8203 45.8913 70.2227 43.8522 70.2227ZM53.5905 82.6328C53.5905 83.0898 53.6256 83.582 53.696 84.1094C53.7663 84.6719 53.9772 85.3398 54.3288 86.1836C54.6452 87.0273 55.067 87.8008 55.6295 88.4688C56.192 89.1367 57.0006 89.6992 58.0905 90.1914C59.1452 90.6836 60.4108 90.9297 61.817 90.9297C63.2936 91 64.4889 90.7891 65.4381 90.2969C66.6335 89.7344 67.442 89.207 67.8639 88.75C68.4264 88.1172 68.9186 87.3086 69.3756 86.3242C69.7975 85.2695 70.0436 83.8281 70.1139 81.9297C70.1491 81.3672 70.1842 80.9102 70.2194 80.4883L70.1842 70.0469H66.2467V82.6328C66.2467 83.0547 66.1764 83.4414 66.1061 83.8633C66.0358 84.2852 65.86 84.7422 65.6139 85.3047C65.3327 85.8672 64.8756 86.2891 64.2428 86.6055C63.5749 86.957 62.7663 87.0977 61.8522 87.0977C58.9694 87.0977 57.528 85.6211 57.528 82.6328V70.0469H53.5905V82.6328ZM80.1335 70.2227C78.8327 70.2227 77.7077 70.4688 76.7585 70.9258C75.7741 71.3828 75.071 71.9453 74.6491 72.6133C74.192 73.3164 73.8756 73.9492 73.6999 74.5469C73.4889 75.1797 73.4186 75.707 73.4186 76.1992C73.4186 76.7617 73.4538 77.2891 73.5944 77.7461C73.6999 78.2031 73.946 78.7656 74.2975 79.3984C74.6491 80.0312 75.317 80.5938 76.2663 81.0508C77.2155 81.5078 78.4108 81.8242 79.8522 82C82.5241 82.3516 83.8952 83.2656 83.8952 84.7773V84.9883C83.8952 85.0586 83.86 85.1289 83.8249 85.2344C83.403 86.5352 82.2428 87.2031 80.4147 87.2031H80.1335C77.6374 87.2031 76.2663 86.0781 76.0202 83.793H72.4342C72.4342 84.4609 72.5397 85.1641 72.7858 85.9375C73.0319 86.7109 73.4186 87.4844 73.946 88.2578C74.4733 89.0312 75.2819 89.6992 76.3717 90.1914C77.4264 90.7188 78.692 90.9648 80.1335 90.9648C83.9303 90.9648 86.2506 89.6289 87.1647 86.9219C87.3756 86.3242 87.4811 85.5859 87.4811 84.707C87.4811 84.3906 87.446 84.0742 87.4108 83.793C87.3756 83.5117 87.235 83.0547 87.0241 82.457C86.8131 81.8945 86.4616 81.3672 86.0045 80.875C85.5475 80.3828 84.7741 79.8906 83.7194 79.3281C82.6647 78.8008 81.3639 78.4141 79.8522 78.2031L79.5358 78.1328C77.8483 77.8516 77.0397 77.2891 77.0397 76.4805C77.0397 75.8477 77.2506 75.2852 77.7077 74.7578C78.1647 74.2656 78.9733 73.9844 80.1335 73.9844C81.9616 73.9844 83.1569 74.793 83.7194 76.4102L87.235 75.4258C86.9186 74.2305 86.1803 73.0703 84.985 71.9453C83.7897 70.8203 82.1725 70.2227 80.1335 70.2227ZM90.3991 91H94.196V78.7305C94.196 78.2383 94.2311 77.7461 94.3366 77.3242C94.442 76.9023 94.653 76.4453 94.9342 75.918C95.2155 75.3906 95.7077 74.9688 96.3405 74.6523C96.9733 74.3359 97.7116 74.1602 98.6256 74.1602C99.821 74.1602 100.805 74.4766 101.508 75.0742C102.212 75.6719 102.633 76.2695 102.774 76.832C102.915 77.4297 102.985 78.0625 102.985 78.7305V91H106.782V78.7305C106.712 77.6406 106.501 76.5156 106.114 75.3555C105.692 74.1953 104.848 73.0703 103.512 72.0156C102.176 70.9609 100.559 70.4336 98.6256 70.4336C97.0085 70.4336 95.6374 70.7852 94.442 71.4531C94.2663 71.5938 94.196 71.5234 94.196 71.3125V63.7891H90.3991V91ZM114.13 65.3359C114.13 64.8438 113.919 64.3867 113.532 64.0352C113.11 63.6836 112.688 63.4727 112.196 63.4727C111.704 63.4727 111.247 63.6836 110.895 64.0352C110.508 64.3867 110.333 64.8438 110.333 65.3359C110.333 65.8281 110.508 66.2852 110.895 66.6367C111.247 67.0234 111.704 67.1992 112.196 67.1992C112.688 67.1992 113.11 67.0234 113.532 66.6367C113.919 66.2852 114.13 65.8281 114.13 65.3359ZM114.13 70.6797H110.403V91.0703H114.13V70.6797ZM132.446 70.2227C131.145 70.2227 130.02 70.4688 129.071 70.9258C128.087 71.3828 127.383 71.9453 126.962 72.6133C126.505 73.3164 126.188 73.9492 126.012 74.5469C125.801 75.1797 125.731 75.707 125.731 76.1992C125.731 76.7617 125.766 77.2891 125.907 77.7461C126.012 78.2031 126.258 78.7656 126.61 79.3984C126.962 80.0312 127.63 80.5938 128.579 81.0508C129.528 81.5078 130.723 81.8242 132.165 82C134.837 82.3516 136.208 83.2656 136.208 84.7773V84.9883C136.208 85.0586 136.173 85.1289 136.137 85.2344C135.715 86.5352 134.555 87.2031 132.727 87.2031H132.446C129.95 87.2031 128.579 86.0781 128.333 83.793H124.747C124.747 84.4609 124.852 85.1641 125.098 85.9375C125.344 86.7109 125.731 87.4844 126.258 88.2578C126.786 89.0312 127.594 89.6992 128.684 90.1914C129.739 90.7188 131.005 90.9648 132.446 90.9648C136.243 90.9648 138.563 89.6289 139.477 86.9219C139.688 86.3242 139.794 85.5859 139.794 84.707C139.794 84.3906 139.758 84.0742 139.723 83.793C139.688 83.5117 139.548 83.0547 139.337 82.457C139.126 81.8945 138.774 81.3672 138.317 80.875C137.86 80.3828 137.087 79.8906 136.032 79.3281C134.977 78.8008 133.676 78.4141 132.165 78.2031L131.848 78.1328C130.161 77.8516 129.352 77.2891 129.352 76.4805C129.352 75.8477 129.563 75.2852 130.02 74.7578C130.477 74.2656 131.286 73.9844 132.446 73.9844C134.274 73.9844 135.469 74.793 136.032 76.4102L139.548 75.4258C139.231 74.2305 138.493 73.0703 137.298 71.9453C136.102 70.8203 134.485 70.2227 132.446 70.2227ZM142.184 82.6328C142.184 83.0898 142.219 83.582 142.29 84.1094C142.36 84.6719 142.571 85.3398 142.923 86.1836C143.239 87.0273 143.661 87.8008 144.223 88.4688C144.786 89.1367 145.594 89.6992 146.684 90.1914C147.739 90.6836 149.005 90.9297 150.411 90.9297C151.887 91 153.083 90.7891 154.032 90.2969C155.227 89.7344 156.036 89.207 156.458 88.75C157.02 88.1172 157.512 87.3086 157.969 86.3242C158.391 85.2695 158.637 83.8281 158.708 81.9297C158.743 81.3672 158.778 80.9102 158.813 80.4883L158.778 70.0469H154.84V82.6328C154.84 83.0547 154.77 83.4414 154.7 83.8633C154.63 84.2852 154.454 84.7422 154.208 85.3047C153.926 85.8672 153.469 86.2891 152.837 86.6055C152.169 86.957 151.36 87.0977 150.446 87.0977C147.563 87.0977 146.122 85.6211 146.122 82.6328V70.0469H142.184V82.6328ZM165.915 70.6094H164.544H162.188V100.492H165.915V88.8555C165.915 88.6445 165.985 88.6445 166.161 88.7852C167.708 90.2617 169.817 91 172.489 91C175.02 91 177.376 90.0859 179.626 88.1875C181.876 86.3242 183.001 83.793 183.001 80.5586C183.001 77.3594 181.911 74.8281 179.731 73C177.551 71.1719 175.161 70.2578 172.489 70.2578C170.872 70.2578 169.501 70.5039 168.376 70.9961C167.251 71.4883 166.477 71.9805 166.055 72.5078C165.95 72.6484 165.915 72.6133 165.915 72.332V70.6094ZM172.63 87.2031C170.766 87.2031 169.184 86.5703 167.883 85.3047C166.548 84.0391 165.915 82.4922 165.915 80.6289C165.915 78.8008 166.548 77.2188 167.883 75.8828C169.184 74.582 170.766 73.9141 172.63 73.9141C174.458 73.9141 176.04 74.582 177.376 75.8828C178.676 77.2188 179.344 78.8008 179.344 80.6289C179.344 82.4922 178.676 84.0391 177.376 85.3047C176.04 86.5703 174.458 87.2031 172.63 87.2031ZM201.704 82.3867C201.176 83.8633 200.333 85.0586 199.173 85.9023C198.012 86.7812 196.712 87.2031 195.235 87.2031C192.915 87.2734 191.051 86.2539 189.68 84.1797C189.54 84.0039 189.575 83.8633 189.786 83.793L205.606 79.6094H205.676C205.676 79.4688 205.536 78.8711 205.29 77.8516C205.149 77.1836 204.868 76.4805 204.411 75.707C203.919 74.9336 203.321 74.125 202.548 73.2461C201.774 72.4023 200.755 71.6641 199.419 71.1016C198.083 70.5391 196.712 70.2578 195.235 70.2578C192.176 70.2578 189.715 71.3125 187.817 73.3516C185.919 75.4258 184.969 77.8164 184.969 80.5586C184.969 83.3711 185.883 85.7969 187.747 87.8711C189.61 89.9805 192.106 91 195.235 91C196.817 91 198.258 90.7188 199.524 90.1211C200.79 89.5586 201.774 88.8203 202.548 87.9766C203.321 87.1328 203.919 86.3242 204.376 85.5508C204.798 84.7773 205.114 84.0391 205.29 83.3359L201.704 82.3867ZM188.837 78.9766C189.329 77.4648 190.208 76.2344 191.403 75.2852C192.598 74.3711 193.899 73.9141 195.305 73.9141C195.938 73.9141 196.501 74.0195 196.993 74.1602C198.61 74.6875 199.876 75.5664 200.79 76.832C200.86 77.0078 200.895 77.0781 200.86 77.0781H200.79L188.907 80.3125C188.731 80.3828 188.626 80.3828 188.626 80.3125C188.59 80.2773 188.59 80.1719 188.59 79.9961C188.59 79.9258 188.59 79.8203 188.626 79.6797C188.626 79.5391 188.661 79.4336 188.696 79.3281L188.837 78.9766ZM208.313 91H212.356V78.4141C212.356 75.4258 213.762 73.9141 216.61 73.9141C217.173 73.9844 217.7 74.0547 218.122 74.1602L219.387 70.4336C218.544 70.2227 217.594 70.1172 216.61 70.1172C214.923 70.1172 213.481 70.4688 212.356 71.1367V70.3633H208.313V78.4141V91ZM224.696 70.5039H220.794L228.387 91H232.817L240.34 70.5039H236.544L230.637 86.5L224.696 70.5039ZM246.493 65.3359C246.493 64.8438 246.282 64.3867 245.895 64.0352C245.473 63.6836 245.051 63.4727 244.559 63.4727C244.067 63.4727 243.61 63.6836 243.258 64.0352C242.872 64.3867 242.696 64.8438 242.696 65.3359C242.696 65.8281 242.872 66.2852 243.258 66.6367C243.61 67.0234 244.067 67.1992 244.559 67.1992C245.051 67.1992 245.473 67.0234 245.895 66.6367C246.282 66.2852 246.493 65.8281 246.493 65.3359ZM246.493 70.6797H242.766V91.0703H246.493V70.6797ZM256.934 70.2227C255.633 70.2227 254.508 70.4688 253.559 70.9258C252.575 71.3828 251.872 71.9453 251.45 72.6133C250.993 73.3164 250.676 73.9492 250.501 74.5469C250.29 75.1797 250.219 75.707 250.219 76.1992C250.219 76.7617 250.255 77.2891 250.395 77.7461C250.501 78.2031 250.747 78.7656 251.098 79.3984C251.45 80.0312 252.118 80.5938 253.067 81.0508C254.016 81.5078 255.212 81.8242 256.653 82C259.325 82.3516 260.696 83.2656 260.696 84.7773V84.9883C260.696 85.0586 260.661 85.1289 260.626 85.2344C260.204 86.5352 259.044 87.2031 257.215 87.2031H256.934C254.438 87.2031 253.067 86.0781 252.821 83.793H249.235C249.235 84.4609 249.34 85.1641 249.587 85.9375C249.833 86.7109 250.219 87.4844 250.747 88.2578C251.274 89.0312 252.083 89.6992 253.173 90.1914C254.227 90.7188 255.493 90.9648 256.934 90.9648C260.731 90.9648 263.051 89.6289 263.965 86.9219C264.176 86.3242 264.282 85.5859 264.282 84.707C264.282 84.3906 264.247 84.0742 264.212 83.793C264.176 83.5117 264.036 83.0547 263.825 82.457C263.614 81.8945 263.262 81.3672 262.805 80.875C262.348 80.3828 261.575 79.8906 260.52 79.3281C259.465 78.8008 258.165 78.4141 256.653 78.2031L256.337 78.1328C254.649 77.8516 253.84 77.2891 253.84 76.4805C253.84 75.8477 254.051 75.2852 254.508 74.7578C254.965 74.2656 255.774 73.9844 256.934 73.9844C258.762 73.9844 259.958 74.793 260.52 76.4102L264.036 75.4258C263.719 74.2305 262.981 73.0703 261.786 71.9453C260.59 70.8203 258.973 70.2227 256.934 70.2227ZM282.95 82.3867C282.423 83.8633 281.579 85.0586 280.419 85.9023C279.258 86.7812 277.958 87.2031 276.481 87.2031C274.161 87.2734 272.298 86.2539 270.926 84.1797C270.786 84.0039 270.821 83.8633 271.032 83.793L286.852 79.6094H286.923C286.923 79.4688 286.782 78.8711 286.536 77.8516C286.395 77.1836 286.114 76.4805 285.657 75.707C285.165 74.9336 284.567 74.125 283.794 73.2461C283.02 72.4023 282.001 71.6641 280.665 71.1016C279.329 70.5391 277.958 70.2578 276.481 70.2578C273.423 70.2578 270.962 71.3125 269.063 73.3516C267.165 75.4258 266.215 77.8164 266.215 80.5586C266.215 83.3711 267.13 85.7969 268.993 87.8711C270.856 89.9805 273.352 91 276.481 91C278.063 91 279.505 90.7188 280.77 90.1211C282.036 89.5586 283.02 88.8203 283.794 87.9766C284.567 87.1328 285.165 86.3242 285.622 85.5508C286.044 84.7773 286.36 84.0391 286.536 83.3359L282.95 82.3867ZM270.083 78.9766C270.575 77.4648 271.454 76.2344 272.649 75.2852C273.844 74.3711 275.145 73.9141 276.551 73.9141C277.184 73.9141 277.747 74.0195 278.239 74.1602C279.856 74.6875 281.122 75.5664 282.036 76.832C282.106 77.0078 282.141 77.0781 282.106 77.0781H282.036L270.153 80.3125C269.977 80.3828 269.872 80.3828 269.872 80.3125C269.837 80.2773 269.837 80.1719 269.837 79.9961C269.837 79.9258 269.837 79.8203 269.872 79.6797C269.872 79.5391 269.907 79.4336 269.942 79.3281L270.083 78.9766Z" fill="white"/>
<g style="mix-blend-mode:overlay" opacity="0.5">
<rect x="31" y="61" width="85" height="36" fill="black"/>
</g>
</svg>
