<svg width="256" height="95" viewBox="0 0 256 95" fill="none" xmlns="http://www.w3.org/2000/svg">
<rect width="24.1803" height="94.9898" rx="12.0902" transform="matrix(0.00041948 -1 1 0.00042091 16 59.1045)" fill="#FF729F"/>
<rect x="75" y="95" width="23" height="95" rx="11.5" transform="rotate(-180 75 95)" fill="#FF729F"/>
<circle cx="127" cy="47" r="35" fill="#56CBF9"/>
<path d="M168.424 29.3123C169.588 27.3634 172.412 27.3634 173.576 29.3123L194.27 63.9617C195.465 65.9614 194.024 68.5 191.695 68.5H150.305C147.976 68.5 146.535 65.9614 147.73 63.9617L168.424 29.3123Z" fill="#81F4E1"/>
<path d="M16 65H69L67.0576 68H16V65Z" fill="black"/>
<path d="M236 24L179 24L183.988 21L236 21V24Z" fill="#FF729F"/>
<path d="M36.5938 37.2227C35.293 37.2227 34.168 37.4688 33.2188 37.9258C32.2344 38.3828 31.5312 38.9453 31.1094 39.6133C30.6523 40.3164 30.3359 40.9492 30.1602 41.5469C29.9492 42.1797 29.8789 42.707 29.8789 43.1992C29.8789 43.7617 29.9141 44.2891 30.0547 44.7461C30.1602 45.2031 30.4062 45.7656 30.7578 46.3984C31.1094 47.0312 31.7773 47.5938 32.7266 48.0508C33.6758 48.5078 34.8711 48.8242 36.3125 49C38.9844 49.3516 40.3555 50.2656 40.3555 51.7773V51.9883C40.3555 52.0586 40.3203 52.1289 40.2852 52.2344C39.8633 53.5352 38.7031 54.2031 36.875 54.2031H36.5938C34.0977 54.2031 32.7266 53.0781 32.4805 50.793H28.8945C28.8945 51.4609 29 52.1641 29.2461 52.9375C29.4922 53.7109 29.8789 54.4844 30.4062 55.2578C30.9336 56.0312 31.7422 56.6992 32.832 57.1914C33.8867 57.7188 35.1523 57.9648 36.5938 57.9648C40.3906 57.9648 42.7109 56.6289 43.625 53.9219C43.8359 53.3242 43.9414 52.5859 43.9414 51.707C43.9414 51.3906 43.9062 51.0742 43.8711 50.793C43.8359 50.5117 43.6953 50.0547 43.4844 49.457C43.2734 48.8945 42.9219 48.3672 42.4648 47.875C42.0078 47.3828 41.2344 46.8906 40.1797 46.3281C39.125 45.8008 37.8242 45.4141 36.3125 45.2031L35.9961 45.1328C34.3086 44.8516 33.5 44.2891 33.5 43.4805C33.5 42.8477 33.7109 42.2852 34.168 41.7578C34.625 41.2656 35.4336 40.9844 36.5938 40.9844C38.4219 40.9844 39.6172 41.793 40.1797 43.4102L43.6953 42.4258C43.3789 41.2305 42.6406 40.0703 41.4453 38.9453C40.25 37.8203 38.6328 37.2227 36.5938 37.2227ZM46.332 49.6328C46.332 50.0898 46.3672 50.582 46.4375 51.1094C46.5078 51.6719 46.7188 52.3398 47.0703 53.1836C47.3867 54.0273 47.8086 54.8008 48.3711 55.4688C48.9336 56.1367 49.7422 56.6992 50.832 57.1914C51.8867 57.6836 53.1523 57.9297 54.5586 57.9297C56.0352 58 57.2305 57.7891 58.1797 57.2969C59.375 56.7344 60.1836 56.207 60.6055 55.75C61.168 55.1172 61.6602 54.3086 62.1172 53.3242C62.5391 52.2695 62.7852 50.8281 62.8555 48.9297C62.8906 48.3672 62.9258 47.9102 62.9609 47.4883L62.9258 37.0469H58.9883V49.6328C58.9883 50.0547 58.918 50.4414 58.8477 50.8633C58.7773 51.2852 58.6016 51.7422 58.3555 52.3047C58.0742 52.8672 57.6172 53.2891 56.9844 53.6055C56.3164 53.957 55.5078 54.0977 54.5938 54.0977C51.7109 54.0977 50.2695 52.6211 50.2695 49.6328V37.0469H46.332V49.6328ZM72.875 37.2227C71.5742 37.2227 70.4492 37.4688 69.5 37.9258C68.5156 38.3828 67.8125 38.9453 67.3906 39.6133C66.9336 40.3164 66.6172 40.9492 66.4414 41.5469C66.2305 42.1797 66.1602 42.707 66.1602 43.1992C66.1602 43.7617 66.1953 44.2891 66.3359 44.7461C66.4414 45.2031 66.6875 45.7656 67.0391 46.3984C67.3906 47.0312 68.0586 47.5938 69.0078 48.0508C69.957 48.5078 71.1523 48.8242 72.5938 49C75.2656 49.3516 76.6367 50.2656 76.6367 51.7773V51.9883C76.6367 52.0586 76.6016 52.1289 76.5664 52.2344C76.1445 53.5352 74.9844 54.2031 73.1562 54.2031H72.875C70.3789 54.2031 69.0078 53.0781 68.7617 50.793H65.1758C65.1758 51.4609 65.2812 52.1641 65.5273 52.9375C65.7734 53.7109 66.1602 54.4844 66.6875 55.2578C67.2148 56.0312 68.0234 56.6992 69.1133 57.1914C70.168 57.7188 71.4336 57.9648 72.875 57.9648C76.6719 57.9648 78.9922 56.6289 79.9062 53.9219C80.1172 53.3242 80.2227 52.5859 80.2227 51.707C80.2227 51.3906 80.1875 51.0742 80.1523 50.793C80.1172 50.5117 79.9766 50.0547 79.7656 49.457C79.5547 48.8945 79.2031 48.3672 78.7461 47.875C78.2891 47.3828 77.5156 46.8906 76.4609 46.3281C75.4062 45.8008 74.1055 45.4141 72.5938 45.2031L72.2773 45.1328C70.5898 44.8516 69.7812 44.2891 69.7812 43.4805C69.7812 42.8477 69.9922 42.2852 70.4492 41.7578C70.9062 41.2656 71.7148 40.9844 72.875 40.9844C74.7031 40.9844 75.8984 41.793 76.4609 43.4102L79.9766 42.4258C79.6602 41.2305 78.9219 40.0703 77.7266 38.9453C76.5312 37.8203 74.9141 37.2227 72.875 37.2227ZM83.1406 58H86.9375V45.7305C86.9375 45.2383 86.9727 44.7461 87.0781 44.3242C87.1836 43.9023 87.3945 43.4453 87.6758 42.918C87.957 42.3906 88.4492 41.9688 89.082 41.6523C89.7148 41.3359 90.4531 41.1602 91.3672 41.1602C92.5625 41.1602 93.5469 41.4766 94.25 42.0742C94.9531 42.6719 95.375 43.2695 95.5156 43.832C95.6562 44.4297 95.7266 45.0625 95.7266 45.7305V58H99.5234V45.7305C99.4531 44.6406 99.2422 43.5156 98.8555 42.3555C98.4336 41.1953 97.5898 40.0703 96.2539 39.0156C94.918 37.9609 93.3008 37.4336 91.3672 37.4336C89.75 37.4336 88.3789 37.7852 87.1836 38.4531C87.0078 38.5938 86.9375 38.5234 86.9375 38.3125V30.7891H83.1406V58ZM106.871 32.3359C106.871 31.8438 106.66 31.3867 106.273 31.0352C105.852 30.6836 105.43 30.4727 104.938 30.4727C104.445 30.4727 103.988 30.6836 103.637 31.0352C103.25 31.3867 103.074 31.8438 103.074 32.3359C103.074 32.8281 103.25 33.2852 103.637 33.6367C103.988 34.0234 104.445 34.1992 104.938 34.1992C105.43 34.1992 105.852 34.0234 106.273 33.6367C106.66 33.2852 106.871 32.8281 106.871 32.3359ZM106.871 37.6797H103.145V58.0703H106.871V37.6797ZM125.188 37.2227C123.887 37.2227 122.762 37.4688 121.812 37.9258C120.828 38.3828 120.125 38.9453 119.703 39.6133C119.246 40.3164 118.93 40.9492 118.754 41.5469C118.543 42.1797 118.473 42.707 118.473 43.1992C118.473 43.7617 118.508 44.2891 118.648 44.7461C118.754 45.2031 119 45.7656 119.352 46.3984C119.703 47.0312 120.371 47.5938 121.32 48.0508C122.27 48.5078 123.465 48.8242 124.906 49C127.578 49.3516 128.949 50.2656 128.949 51.7773V51.9883C128.949 52.0586 128.914 52.1289 128.879 52.2344C128.457 53.5352 127.297 54.2031 125.469 54.2031H125.188C122.691 54.2031 121.32 53.0781 121.074 50.793H117.488C117.488 51.4609 117.594 52.1641 117.84 52.9375C118.086 53.7109 118.473 54.4844 119 55.2578C119.527 56.0312 120.336 56.6992 121.426 57.1914C122.48 57.7188 123.746 57.9648 125.188 57.9648C128.984 57.9648 131.305 56.6289 132.219 53.9219C132.43 53.3242 132.535 52.5859 132.535 51.707C132.535 51.3906 132.5 51.0742 132.465 50.793C132.43 50.5117 132.289 50.0547 132.078 49.457C131.867 48.8945 131.516 48.3672 131.059 47.875C130.602 47.3828 129.828 46.8906 128.773 46.3281C127.719 45.8008 126.418 45.4141 124.906 45.2031L124.59 45.1328C122.902 44.8516 122.094 44.2891 122.094 43.4805C122.094 42.8477 122.305 42.2852 122.762 41.7578C123.219 41.2656 124.027 40.9844 125.188 40.9844C127.016 40.9844 128.211 41.793 128.773 43.4102L132.289 42.4258C131.973 41.2305 131.234 40.0703 130.039 38.9453C128.844 37.8203 127.227 37.2227 125.188 37.2227ZM153.875 52.6914L150.535 50.793C148.953 53.0781 147.02 54.2031 144.77 54.2031C143.012 54.2031 141.43 53.6055 140.094 52.375C138.723 51.1797 138.055 49.5625 138.055 47.5938C138.055 45.625 138.723 44.043 140.094 42.7773C141.43 41.5469 143.012 40.9141 144.77 40.9141C147.125 40.8789 149.023 41.9688 150.465 44.1484L153.875 42.3203C153.277 41.125 152.188 40 150.605 38.875C149.023 37.75 147.09 37.1875 144.77 37.1875C141.676 37.1875 139.18 38.2773 137.281 40.3867C135.348 42.5312 134.398 44.957 134.398 47.6289C134.398 50.3359 135.348 52.7266 137.246 54.8359C139.145 56.9453 141.641 58 144.77 58C147.09 58 149.023 57.4375 150.605 56.2773C152.188 55.1172 153.277 53.9219 153.875 52.6914ZM176.023 47.5234C176.023 44.6406 175.004 42.1797 172.965 40.1406C170.926 38.1016 168.465 37.0469 165.582 37.0469C162.699 37.0469 160.203 38.1016 158.164 40.1406C156.09 42.1797 155.07 44.6406 155.07 47.5234C155.07 50.4062 156.09 52.8672 158.164 54.9062C160.203 56.9805 162.699 58 165.582 58C168.465 58 170.926 56.9805 172.965 54.9062C175.004 52.8672 176.023 50.4062 176.023 47.5234ZM165.582 54.2031C163.719 54.2031 162.137 53.5703 160.836 52.2344C159.5 50.9336 158.867 49.3516 158.867 47.5234C158.867 45.6953 159.5 44.1133 160.836 42.7773C162.137 41.4414 163.719 40.7734 165.582 40.7734C167.41 40.7734 168.992 41.4414 170.328 42.7773C171.629 44.1133 172.297 45.6953 172.297 47.5234C172.297 49.3516 171.629 50.9336 170.328 52.2344C168.992 53.5703 167.41 54.2031 165.582 54.2031ZM178.203 49.6328C178.203 50.0898 178.238 50.582 178.309 51.1094C178.379 51.6719 178.59 52.3398 178.941 53.1836C179.258 54.0273 179.68 54.8008 180.242 55.4688C180.805 56.1367 181.613 56.6992 182.703 57.1914C183.758 57.6836 185.023 57.9297 186.43 57.9297C187.906 58 189.102 57.7891 190.051 57.2969C191.246 56.7344 192.055 56.207 192.477 55.75C193.039 55.1172 193.531 54.3086 193.988 53.3242C194.41 52.2695 194.656 50.8281 194.727 48.9297C194.762 48.3672 194.797 47.9102 194.832 47.4883L194.797 37.0469H190.859V49.6328C190.859 50.0547 190.789 50.4414 190.719 50.8633C190.648 51.2852 190.473 51.7422 190.227 52.3047C189.945 52.8672 189.488 53.2891 188.855 53.6055C188.188 53.957 187.379 54.0977 186.465 54.0977C183.582 54.0977 182.141 52.6211 182.141 49.6328V37.0469H178.203V49.6328ZM198.945 50.7227C198.945 52.2695 199.297 53.7461 200 55.1523C200.703 56.5938 201.898 57.4727 203.586 57.7539C204.113 57.8945 204.641 57.9297 205.168 57.9297C206.574 57.9297 207.77 57.6133 208.754 56.9453C209.738 56.3125 210.371 55.5742 210.723 54.7656L207.172 53.5C206.75 54.0273 206.223 54.2734 205.66 54.2734C205.062 54.3086 204.605 54.2734 204.289 54.1328C203.762 53.9219 203.34 53.5703 203.059 53.043C202.777 52.5156 202.637 52.0938 202.637 51.8125V30.6484H198.945V50.7227ZM202.637 41.2305H209.598L210.723 37.5039H202.637V41.2305ZM196.941 41.2305H198.945V37.5039H197.961L196.941 41.2305ZM219.582 37.2227C218.281 37.2227 217.156 37.4688 216.207 37.9258C215.223 38.3828 214.52 38.9453 214.098 39.6133C213.641 40.3164 213.324 40.9492 213.148 41.5469C212.938 42.1797 212.867 42.707 212.867 43.1992C212.867 43.7617 212.902 44.2891 213.043 44.7461C213.148 45.2031 213.395 45.7656 213.746 46.3984C214.098 47.0312 214.766 47.5938 215.715 48.0508C216.664 48.5078 217.859 48.8242 219.301 49C221.973 49.3516 223.344 50.2656 223.344 51.7773V51.9883C223.344 52.0586 223.309 52.1289 223.273 52.2344C222.852 53.5352 221.691 54.2031 219.863 54.2031H219.582C217.086 54.2031 215.715 53.0781 215.469 50.793H211.883C211.883 51.4609 211.988 52.1641 212.234 52.9375C212.48 53.7109 212.867 54.4844 213.395 55.2578C213.922 56.0312 214.73 56.6992 215.82 57.1914C216.875 57.7188 218.141 57.9648 219.582 57.9648C223.379 57.9648 225.699 56.6289 226.613 53.9219C226.824 53.3242 226.93 52.5859 226.93 51.707C226.93 51.3906 226.895 51.0742 226.859 50.793C226.824 50.5117 226.684 50.0547 226.473 49.457C226.262 48.8945 225.91 48.3672 225.453 47.875C224.996 47.3828 224.223 46.8906 223.168 46.3281C222.113 45.8008 220.812 45.4141 219.301 45.2031L218.984 45.1328C217.297 44.8516 216.488 44.2891 216.488 43.4805C216.488 42.8477 216.699 42.2852 217.156 41.7578C217.613 41.2656 218.422 40.9844 219.582 40.9844C221.41 40.9844 222.605 41.793 223.168 43.4102L226.684 42.4258C226.367 41.2305 225.629 40.0703 224.434 38.9453C223.238 37.8203 221.621 37.2227 219.582 37.2227Z" fill="black"/>
</svg>
