<svg width="360" height="195" viewBox="0 0 360 195" fill="none" xmlns="http://www.w3.org/2000/svg">
<rect x="-37" y="108.575" width="419.5" height="89.2034" transform="rotate(-15 -37 108.575)" fill="black"/>
<path opacity="0.75" d="M35.664 48.807C35.4138 48.3564 35.0429 47.9382 34.5513 47.5523C34.0818 47.1281 33.4874 46.7212 32.7683 46.3315C32.0492 45.9418 31.1471 45.7144 30.0621 45.6493C28.9991 45.5459 27.8941 45.6479 26.747 45.9552C25.6302 46.2545 24.6826 46.7025 23.9043 47.2993C23.1179 47.8659 22.5479 48.4554 22.1944 49.0677C21.8327 49.6499 21.6301 50.2218 21.5865 50.7835C21.573 51.3371 21.6108 51.7799 21.6998 52.112C21.8945 53.3215 22.5376 54.1521 23.6292 54.6038C24.7752 55.1378 26.5921 55.2172 29.0797 54.8418C30.3135 54.7377 31.5061 54.6608 32.6575 54.6111C33.8008 54.5312 35.0721 54.6273 36.4714 54.8994C37.8929 55.1332 39.1424 55.5102 40.22 56.0302C41.2895 56.5201 42.2768 57.307 43.1819 58.3909C44.1091 59.4366 44.783 60.7442 45.2036 62.3138C45.4662 63.0523 45.601 63.8573 45.6081 64.729C45.6454 65.5925 45.4765 66.5921 45.1014 67.7279C44.7484 68.8254 44.2052 69.8768 43.4716 70.8822C42.7602 71.8493 41.6582 72.8078 40.1657 73.7577C38.6732 74.7076 36.9007 75.4575 34.8481 76.0075C32.8257 76.5494 30.8924 76.7601 29.0484 76.6395C27.2043 76.5189 25.678 76.1353 24.4695 75.4885C23.283 74.8035 22.2191 73.9724 21.2779 72.9952C20.3588 71.9798 19.6299 71.0104 19.0913 70.0871C18.5447 69.1336 18.1993 68.207 18.0553 67.3074L23.4434 65.8636C23.5728 66.3466 23.7596 66.8627 24.0039 67.412C24.2783 67.9531 24.6896 68.5223 25.2378 69.1195C25.778 69.6865 26.4187 70.1457 27.1599 70.4971C27.9232 70.8102 28.8363 71.0185 29.8993 71.1219C30.9844 71.187 32.1306 71.0578 33.338 70.7343C35.934 70.0387 37.7828 69.0904 38.8845 67.8893C39.9861 66.6883 40.3267 65.3029 39.9061 63.7333C39.5098 62.2542 38.4346 61.1997 36.6805 60.5697C34.9566 59.9317 32.9043 59.8184 30.5234 60.2299C29.7062 60.3194 29.0138 60.3917 28.4462 60.4467C27.8706 60.4716 27.1016 60.4997 26.1395 60.531C25.2075 60.5543 24.3841 60.4999 23.6693 60.3679C22.9847 60.2278 22.2236 60.0435 21.3859 59.815C20.5703 59.5483 19.8663 59.1546 19.2739 58.6339C18.7035 58.075 18.1653 57.3943 17.659 56.5917C17.1528 55.7891 16.7339 54.769 16.4023 53.5314C16.2001 52.7768 16.0925 52.013 16.0795 51.24C16.0584 50.4369 16.2243 49.4865 16.5773 48.389C16.9222 47.2613 17.4091 46.2412 18.0381 45.3285C18.659 44.3857 19.5949 43.4717 20.8459 42.5865C22.097 41.7013 23.5677 41.0322 25.258 40.5793C26.7673 40.1749 28.2768 40.0131 29.7867 40.0938C31.2884 40.1443 32.6304 40.3833 33.8125 40.8106C34.9866 41.2078 36.0259 41.7058 36.9304 42.3046C37.8652 42.8953 38.6147 43.5194 39.1792 44.177C39.7657 44.7963 40.174 45.4148 40.4043 46.0325L35.664 48.807ZM45.1712 35.2436L51.1281 57.475C51.2898 58.0787 51.5009 58.6853 51.7613 59.295C52.0519 59.8965 52.4794 60.5261 53.0439 61.1836C53.6083 61.8412 54.2541 62.3799 54.9813 62.7998C55.7387 63.2115 56.6569 63.4993 57.7361 63.6631C58.8373 63.7886 60.0068 63.6855 61.2444 63.3539C62.5121 63.0142 63.5724 62.5036 64.4251 61.8222C65.2999 61.1025 65.9321 60.3831 66.3217 59.664C66.7114 58.9449 66.9822 58.1444 67.1341 57.2626C67.3162 56.3726 67.3677 55.5986 67.2884 54.9404C67.2312 54.244 67.1419 53.6694 67.0206 53.2166L61.0637 30.9852L66.3612 29.5657L72.3181 51.7971C72.496 52.4612 72.6257 53.1867 72.7072 53.9737C72.8188 54.7526 72.8561 55.6161 72.819 56.5643C72.7819 57.5125 72.631 58.4588 72.3664 59.4032C72.132 60.3395 71.7497 61.2669 71.2193 62.1855C70.7111 63.0658 70.0851 63.9291 69.3413 64.7754C68.6196 65.5835 67.6653 66.3083 66.4784 66.9499C65.3217 67.5833 64.0189 68.0942 62.57 68.4824C60.5476 69.0243 58.6748 69.2188 56.9514 69.0659C55.2583 68.9048 53.7843 68.4748 52.5294 67.7758C51.2744 67.0768 50.1874 66.2195 49.2683 65.2041C48.3491 64.1886 47.6192 63.1548 47.0785 62.1027C46.5377 61.0505 46.1218 59.9811 45.8306 58.8944L39.8737 36.6631L45.1712 35.2436ZM91.3375 33.8893C91.0874 33.4387 90.7165 33.0205 90.2249 32.6346C89.7553 32.2104 89.161 31.8035 88.4419 31.4138C87.7228 31.0242 86.8207 30.7968 85.7356 30.7316C84.6726 30.6282 83.5676 30.7302 82.4206 31.0375C81.3037 31.3368 80.3562 31.7848 79.5778 32.3816C78.7914 32.9482 78.2215 33.5377 77.8679 34.15C77.5063 34.7322 77.3036 35.3042 77.26 35.8658C77.2466 36.4194 77.2844 36.8622 77.3733 37.1943C77.568 38.4039 78.2112 39.2345 79.3028 39.6861C80.4488 40.2202 82.2656 40.2995 84.7532 39.9241C85.987 39.82 87.1797 39.7431 88.331 39.6934C89.4743 39.6135 90.7456 39.7096 92.145 39.9817C93.5664 40.2155 94.8159 40.5925 95.8935 41.1125C96.963 41.6024 97.9503 42.3893 98.8554 43.4733C99.7827 44.5189 100.457 45.8265 100.877 47.3962C101.14 48.1346 101.275 48.9397 101.282 49.8113C101.319 50.6748 101.15 51.6745 100.775 52.8102C100.422 53.9077 99.8787 54.9592 99.1452 55.9645C98.4337 56.9316 97.3318 57.8901 95.8393 58.84C94.3467 59.7899 92.5742 60.5399 90.5216 61.0899C88.4992 61.6318 86.566 61.8424 84.7219 61.7218C82.8779 61.6012 81.3516 61.2176 80.143 60.5708C78.9565 59.8858 77.8927 59.0547 76.9515 58.0776C76.0323 57.0621 75.3035 56.0927 74.7649 55.1694C74.2182 54.2159 73.8729 53.2893 73.7289 52.3897L79.1169 50.946C79.2464 51.4289 79.4332 51.945 79.6774 52.4943C79.9518 53.0354 80.3631 53.6046 80.9114 54.2018C81.4516 54.7688 82.0922 55.2281 82.8334 55.5794C83.5967 55.8925 84.5099 56.1008 85.5729 56.2042C86.6579 56.2693 87.8042 56.1401 89.0116 55.8166C91.6075 55.121 93.4563 54.1727 94.558 52.9717C95.6597 51.7706 96.0002 50.3853 95.5797 48.8156C95.1833 47.3366 94.1081 46.282 92.3541 45.652C90.6302 45.014 88.5778 44.9007 86.1969 45.3122C85.3798 45.4017 84.6874 45.474 84.1198 45.529C83.5441 45.5539 82.7752 45.582 81.813 45.6133C80.881 45.6366 80.0576 45.5822 79.3429 45.4502C78.6583 45.3101 77.8972 45.1258 77.0595 44.8974C76.2439 44.6306 75.5399 44.2369 74.9474 43.7163C74.3771 43.1573 73.8388 42.4766 73.3326 41.674C72.8264 40.8714 72.4075 39.8513 72.0758 38.6137C71.8736 37.8591 71.766 37.0953 71.753 36.3223C71.7319 35.5192 71.8979 34.5688 72.2509 33.4713C72.5957 32.3437 73.0827 31.3235 73.7116 30.4109C74.3325 29.468 75.2685 28.554 76.5195 27.6688C77.7705 26.7836 79.2412 26.1146 80.9316 25.6616C82.4408 25.2572 83.9504 25.0954 85.4602 25.1761C86.962 25.2266 88.3039 25.4656 89.4861 25.8929C90.6601 26.2901 91.6994 26.7881 92.604 27.3869C93.5387 27.9776 94.2883 28.6017 94.8527 29.2593C95.4392 29.8786 95.8476 30.4971 96.0778 31.1148L91.3375 33.8893ZM100.845 20.3259L104.885 35.4034L120.687 31.1693L116.647 16.0918L122.035 14.6481L131.534 50.1006L126.146 51.5443L122.13 36.5573L106.328 40.7915L110.344 55.7784L105.047 57.1979L95.5473 21.7454L100.845 20.3259ZM129.768 12.5759L139.268 48.0284L133.97 49.4479L124.471 13.9954L129.768 12.5759Z" fill="#FCD6F6"/>
<path opacity="0.75" d="M37.4757 55.5687C37.2256 55.1181 36.8547 54.6999 36.3631 54.314C35.8935 53.8898 35.2992 53.4829 34.5801 53.0932C33.861 52.7036 32.9589 52.4762 31.8738 52.411C30.8109 52.3076 29.7058 52.4096 28.5588 52.7169C27.442 53.0162 26.4944 53.4642 25.7161 54.061C24.9297 54.6276 24.3597 55.2171 24.0061 55.8294C23.6445 56.4116 23.4419 56.9836 23.3982 57.5452C23.3848 58.0988 23.4226 58.5416 23.5116 58.8737C23.7063 60.0833 24.3494 60.9139 25.441 61.3655C26.587 61.8996 28.4038 61.9789 30.8914 61.6035C32.1253 61.4994 33.3179 61.4225 34.4692 61.3728C35.6125 61.2929 36.8838 61.389 38.2832 61.6611C39.7047 61.8949 40.9542 62.2719 42.0317 62.7919C43.1012 63.2818 44.0885 64.0687 44.9937 65.1527C45.9209 66.1983 46.5948 67.5059 47.0154 69.0756C47.2779 69.814 47.4128 70.6191 47.4199 71.4907C47.4571 72.3542 47.2882 73.3539 46.9131 74.4896C46.5602 75.5871 46.0169 76.6386 45.2834 77.6439C44.5719 78.611 43.47 79.5695 41.9775 80.5194C40.485 81.4693 38.7124 82.2193 36.6598 82.7693C34.6374 83.3112 32.7042 83.5218 30.8601 83.4012C29.0161 83.2806 27.4898 82.897 26.2812 82.2503C25.0948 81.5652 24.0309 80.7341 23.0897 79.757C22.1705 78.7415 21.4417 77.7721 20.9031 76.8488C20.3564 75.8953 20.0111 74.9687 19.8671 74.0691L25.2552 72.6254C25.3846 73.1083 25.5714 73.6244 25.8156 74.1737C26.09 74.7148 26.5014 75.284 27.0496 75.8812C27.5898 76.4483 28.2305 76.9075 28.9717 77.2588C29.735 77.572 30.6481 77.7802 31.7111 77.8836C32.7962 77.9487 33.9424 77.8195 35.1498 77.496C37.7457 76.8004 39.5945 75.8521 40.6962 74.6511C41.7979 73.45 42.1385 72.0647 41.7179 70.495C41.3216 69.016 40.2464 67.9614 38.4923 67.3314C36.7684 66.6934 34.716 66.5801 32.3352 66.9916C31.518 67.0811 30.8256 67.1534 30.258 67.2084C29.6823 67.2333 28.9134 67.2614 27.9512 67.2927C27.0192 67.316 26.1959 67.2616 25.4811 67.1296C24.7965 66.9895 24.0354 66.8052 23.1977 66.5768C22.3821 66.31 21.6781 65.9163 21.0857 65.3957C20.5153 64.8367 19.977 64.156 19.4708 63.3534C18.9646 62.5508 18.5457 61.5307 18.2141 60.2931C18.0119 59.5385 17.9043 58.7747 17.8912 58.0017C17.8702 57.1986 18.0361 56.2483 18.3891 55.1507C18.734 54.0231 19.2209 53.0029 19.8499 52.0903C20.4707 51.1474 21.4067 50.2334 22.6577 49.3482C23.9087 48.463 25.3794 47.794 27.0698 47.341C28.5791 46.9366 30.0886 46.7748 31.5985 46.8555C33.1002 46.906 34.4421 47.145 35.6243 47.5723C36.7983 47.9695 37.8376 48.4675 38.7422 49.0663C39.6769 49.657 40.4265 50.2811 40.9909 50.9387C41.5774 51.558 41.9858 52.1765 42.216 52.7942L37.4757 55.5687ZM46.983 42.0053L52.9398 64.2367C53.1016 64.8404 53.3127 65.4471 53.5731 66.0567C53.8637 66.6582 54.2912 67.2878 54.8556 67.9454C55.42 68.6029 56.0659 69.1416 56.793 69.5615C57.5504 69.9732 58.4687 70.261 59.5479 70.4248C60.6491 70.5503 61.8185 70.4472 63.0561 70.1156C64.3239 69.7759 65.3841 69.2653 66.2368 68.5839C67.1116 67.8643 67.7438 67.1449 68.1335 66.4258C68.5232 65.7066 68.794 64.9062 68.9459 64.0243C69.128 63.1343 69.1794 62.3603 69.1001 61.7021C69.0429 61.0057 68.9537 60.4311 68.8323 59.9783L62.8755 37.7469L68.173 36.3275L74.1298 58.5589C74.3078 59.2229 74.4375 59.9485 74.5189 60.7354C74.6306 61.5143 74.6679 62.3779 74.6307 63.326C74.5936 64.2742 74.4428 65.2205 74.1782 66.1649C73.9438 67.1012 73.5614 68.0286 73.0311 68.9472C72.5229 69.8275 71.8969 70.6908 71.1531 71.5371C70.4314 72.3452 69.4771 73.07 68.2902 73.7116C67.1335 74.345 65.8307 74.8559 64.3818 75.2441C62.3594 75.786 60.4865 75.9805 58.7632 75.8276C57.0701 75.6665 55.5961 75.2365 54.3411 74.5375C53.0862 73.8385 51.9992 72.9812 51.08 71.9658C50.1609 70.9503 49.431 69.9165 48.8902 68.8644C48.3495 67.8122 47.9335 66.7428 47.6424 65.6562L41.6855 43.4248L46.983 42.0053ZM93.1493 40.6511C92.8991 40.2005 92.5283 39.7822 92.0366 39.3963C91.5671 38.9721 90.9728 38.5652 90.2537 38.1755C89.5346 37.7859 88.6325 37.5585 87.5474 37.4933C86.4844 37.3899 85.3794 37.4919 84.2324 37.7993C83.1155 38.0985 82.1679 38.5465 81.3896 39.1433C80.6032 39.7099 80.0332 40.2994 79.6797 40.9118C79.318 41.494 79.1154 42.0659 79.0718 42.6276C79.0584 43.1812 79.0961 43.624 79.1851 43.956C79.3798 45.1656 80.0229 45.9962 81.1145 46.4478C82.2606 46.9819 84.0774 47.0612 86.565 46.6858C87.7988 46.5817 88.9914 46.5048 90.1428 46.4551C91.2861 46.3752 92.5574 46.4713 93.9567 46.7434C95.3782 46.9772 96.6277 47.3542 97.7053 47.8743C98.7748 48.3642 99.7621 49.1511 100.667 50.235C101.594 51.2806 102.268 52.5883 102.689 54.1579C102.951 54.8963 103.086 55.7014 103.093 56.573C103.131 57.4365 102.962 58.4362 102.587 59.5719C102.234 60.6694 101.69 61.7209 100.957 62.7262C100.245 63.6933 99.1435 64.6518 97.651 65.6017C96.1585 66.5516 94.386 67.3016 92.3334 67.8516C90.311 68.3935 88.3777 68.6041 86.5337 68.4835C84.6897 68.363 83.1633 67.9793 81.9548 67.3326C80.7683 66.6476 79.7045 65.8165 78.7632 64.8393C77.8441 63.8238 77.1152 62.8544 76.5766 61.9311C76.03 60.9776 75.6847 60.051 75.5407 59.1514L80.9287 57.7077C81.0581 58.1906 81.2449 58.7067 81.4892 59.256C81.7636 59.7972 82.1749 60.3663 82.7232 60.9636C83.2633 61.5306 83.904 61.9898 84.6452 62.3412C85.4085 62.6543 86.3216 62.8625 87.3846 62.9659C88.4697 63.0311 89.616 62.9019 90.8234 62.5783C93.4193 61.8828 95.2681 60.9344 96.3698 59.7334C97.4715 58.5323 97.812 57.147 97.3914 55.5773C96.9951 54.0983 95.9199 53.0437 94.1658 52.4138C92.442 51.7757 90.3896 51.6624 88.0087 52.0739C87.1915 52.1634 86.4992 52.2357 85.9316 52.2908C85.3559 52.3156 84.5869 52.3437 83.6248 52.3751C82.6928 52.3983 81.8694 52.3439 81.1546 52.2119C80.47 52.0718 79.7089 51.8876 78.8712 51.6591C78.0557 51.3923 77.3516 50.9986 76.7592 50.478C76.1889 49.919 75.6506 49.2383 75.1444 48.4357C74.6381 47.6331 74.2192 46.6131 73.8876 45.3755C73.6854 44.6208 73.5778 43.857 73.5648 43.0841C73.5437 42.2809 73.7096 41.3306 74.0626 40.2331C74.4075 39.1054 74.8944 38.0852 75.5234 37.1726C76.1443 36.2298 77.0802 35.3157 78.3313 34.4305C79.5823 33.5453 81.053 32.8763 82.7434 32.4233C84.2526 32.0189 85.7622 31.8571 87.272 31.9378C88.7738 31.9884 90.1157 32.2273 91.2978 32.6547C92.4719 33.0518 93.5112 33.5498 94.4157 34.1486C95.3505 34.7393 96.1 35.3634 96.6645 36.021C97.251 36.6403 97.6594 37.2588 97.8896 37.8765L93.1493 40.6511ZM102.657 27.0876L106.697 42.1651L122.498 37.931L118.458 22.8535L123.847 21.4098L133.346 56.8623L127.958 58.306L123.942 43.3191L108.14 47.5532L112.156 62.5401L106.858 63.9596L97.359 28.5071L102.657 27.0876ZM131.58 19.3376L141.079 54.7901L135.782 56.2096L126.282 20.7571L131.58 19.3376Z" fill="#56CBF9"/>
<path d="M39.2875 62.33C39.0374 61.8794 38.6665 61.4611 38.1748 61.0752C37.7053 60.651 37.111 60.2441 36.3919 59.8544C35.6728 59.4648 34.7707 59.2374 33.6856 59.1723C32.6226 59.0689 31.5176 59.1708 30.3706 59.4782C29.2537 59.7774 28.3061 60.2255 27.5278 60.8222C26.7414 61.3888 26.1714 61.9783 25.8179 62.5907C25.4563 63.1729 25.2536 63.7448 25.21 64.3065C25.1966 64.8601 25.2344 65.3029 25.3233 65.6349C25.518 66.8445 26.1612 67.6751 27.2527 68.1267C28.3988 68.6608 30.2156 68.7401 32.7032 68.3648C33.937 68.2606 35.1296 68.1837 36.281 68.134C37.4243 68.0541 38.6956 68.1502 40.095 68.4223C41.5164 68.6562 42.7659 69.0331 43.8435 69.5532C44.913 70.0431 45.9003 70.83 46.8054 71.9139C47.7327 72.9595 48.4066 74.2672 48.8271 75.8368C49.0897 76.5753 49.2245 77.3803 49.2316 78.2519C49.2689 79.1154 49.1 80.1151 48.7249 81.2509C48.3719 82.3484 47.8287 83.3998 47.0952 84.4052C46.3837 85.3722 45.2817 86.3307 43.7892 87.2806C42.2967 88.2305 40.5242 88.9805 38.4716 89.5305C36.4492 90.0724 34.516 90.283 32.6719 90.1625C30.8279 90.0419 29.3016 89.6582 28.093 89.0115C26.9065 88.3265 25.8427 87.4954 24.9014 86.5182C23.9823 85.5027 23.2534 84.5333 22.7149 83.61C22.1682 82.6565 21.8229 81.7299 21.6789 80.8303L27.0669 79.3866C27.1963 79.8695 27.3832 80.3857 27.6274 80.9349C27.9018 81.4761 28.3131 82.0453 28.8614 82.6425C29.4015 83.2095 30.0422 83.6687 30.7834 84.0201C31.5467 84.3332 32.4599 84.5414 33.5228 84.6448C34.6079 84.71 35.7542 84.5808 36.9616 84.2573C39.5575 83.5617 41.4063 82.6134 42.508 81.4123C43.6097 80.2112 43.9502 78.8259 43.5296 77.2563C43.1333 75.7772 42.0581 74.7227 40.3041 74.0927C38.5802 73.4546 36.5278 73.3413 34.1469 73.7528C33.3298 73.8424 32.6374 73.9146 32.0698 73.9697C31.4941 73.9945 30.7252 74.0226 29.763 74.054C28.831 74.0772 28.0076 74.0229 27.2929 73.8909C26.6083 73.7508 25.8471 73.5665 25.0095 73.338C24.1939 73.0712 23.4899 72.6775 22.8974 72.1569C22.3271 71.598 21.7888 70.9172 21.2826 70.1146C20.7764 69.3121 20.3574 68.292 20.0258 67.0544C19.8236 66.2997 19.716 65.5359 19.703 64.763C19.6819 63.9598 19.8479 63.0095 20.2008 61.912C20.5457 60.7843 21.0327 59.7641 21.6616 58.8515C22.2825 57.9087 23.2185 56.9947 24.4695 56.1095C25.7205 55.2243 27.1912 54.5552 28.8816 54.1023C30.3908 53.6979 31.9004 53.536 33.4102 53.6167C34.912 53.6673 36.2539 53.9062 37.4361 54.3336C38.6101 54.7307 39.6494 55.2287 40.554 55.8275C41.4887 56.4182 42.2383 57.0423 42.8027 57.6999C43.3892 58.3192 43.7976 58.9377 44.0278 59.5554L39.2875 62.33ZM48.7947 48.7665L54.7516 70.9979C54.9134 71.6016 55.1245 72.2083 55.3849 72.8179C55.6755 73.4195 56.103 74.049 56.6674 74.7066C57.2318 75.3642 57.8776 75.9029 58.6048 76.3227C59.3622 76.7345 60.2805 77.0222 61.3596 77.186C62.4609 77.3115 63.6303 77.2084 64.8679 76.8768C66.1357 76.5371 67.1959 76.0266 68.0486 75.3452C68.9234 74.6255 69.5556 73.9061 69.9453 73.187C70.3349 72.4679 70.6057 71.6674 70.7577 70.7855C70.9398 69.8956 70.9912 69.1215 70.9119 68.4633C70.8547 67.7669 70.7654 67.1923 70.6441 66.7395L64.6872 44.5082L69.9847 43.0887L75.9416 65.3201C76.1196 65.9842 76.2493 66.7097 76.3307 67.4967C76.4424 68.2756 76.4796 69.1391 76.4425 70.0873C76.4054 71.0354 76.2546 71.9817 75.99 72.9261C75.7556 73.8624 75.3732 74.7899 74.8429 75.7084C74.3346 76.5887 73.7086 77.452 72.9648 78.2984C72.2431 79.1065 71.2888 79.8313 70.1019 80.4728C68.9452 81.1063 67.6424 81.6171 66.1935 82.0054C64.1711 82.5473 62.2983 82.7417 60.575 82.5888C58.8819 82.4278 57.4078 81.9978 56.1529 81.2987C54.898 80.5997 53.8109 79.7425 52.8918 78.727C51.9727 77.7116 51.2427 76.6778 50.702 75.6256C50.1612 74.5735 49.7453 73.5041 49.4541 72.4174L43.4972 50.186L48.7947 48.7665ZM94.9611 47.4123C94.7109 46.9617 94.34 46.5434 93.8484 46.1575C93.3789 45.7333 92.7845 45.3264 92.0654 44.9368C91.3463 44.5471 90.4442 44.3197 89.3592 44.2546C88.2962 44.1512 87.1912 44.2531 86.0441 44.5605C84.9273 44.8598 83.9797 45.3078 83.2014 45.9046C82.415 46.4711 81.845 47.0606 81.4914 47.673C81.1298 48.2552 80.9272 48.8271 80.8836 49.3888C80.8701 49.9424 80.9079 50.3852 80.9969 50.7172C81.1916 51.9268 81.8347 52.7574 82.9263 53.209C84.0723 53.7431 85.8891 53.8225 88.3767 53.4471C89.6106 53.3429 90.8032 53.266 91.9546 53.2163C93.0978 53.1365 94.3692 53.2326 95.7685 53.5047C97.19 53.7385 98.4395 54.1154 99.5171 54.6355C100.587 55.1254 101.574 55.9123 102.479 56.9962C103.406 58.0418 104.08 59.3495 104.501 60.9191C104.763 61.6576 104.898 62.4626 104.905 63.3342C104.942 64.1977 104.774 65.1974 104.398 66.3332C104.045 67.4307 103.502 68.4821 102.769 69.4875C102.057 70.4546 100.955 71.4131 99.4628 72.363C97.9703 73.3129 96.1977 74.0628 94.1451 74.6128C92.1227 75.1547 90.1895 75.3654 88.3455 75.2448C86.5014 75.1242 84.9751 74.7405 83.7665 74.0938C82.5801 73.4088 81.5162 72.5777 80.575 71.6005C79.6558 70.585 78.927 69.6157 78.3884 68.6923C77.8418 67.7388 77.4964 66.8123 77.3524 65.9126L82.7405 64.4689C82.8699 64.9519 83.0567 65.468 83.3009 66.0172C83.5754 66.5584 83.9867 67.1276 84.5349 67.7248C85.0751 68.2918 85.7158 68.751 86.457 69.1024C87.2203 69.4155 88.1334 69.6238 89.1964 69.7272C90.2815 69.7923 91.4277 69.6631 92.6351 69.3396C95.2311 68.644 97.0799 67.6957 98.1815 66.4946C99.2832 65.2936 99.6238 63.9082 99.2032 62.3386C98.8069 60.8595 97.7317 59.805 95.9776 59.175C94.2537 58.5369 92.2013 58.4236 89.8205 58.8351C89.0033 58.9247 88.3109 58.997 87.7433 59.052C87.1676 59.0768 86.3987 59.1049 85.4365 59.1363C84.5045 59.1595 83.6812 59.1052 82.9664 58.9732C82.2818 58.8331 81.5207 58.6488 80.683 58.4203C79.8674 58.1536 79.1634 57.7599 78.571 57.2392C78.0006 56.6803 77.4623 55.9995 76.9561 55.1969C76.4499 54.3944 76.031 53.3743 75.6994 52.1367C75.4972 51.3821 75.3896 50.6183 75.3766 49.8453C75.3555 49.0421 75.5214 48.0918 75.8744 46.9943C76.2193 45.8666 76.7062 44.8464 77.3352 43.9338C77.9561 42.991 78.892 42.077 80.143 41.1918C81.3941 40.3066 82.8648 39.6375 84.5551 39.1846C86.0644 38.7802 87.5739 38.6183 89.0838 38.6991C90.5855 38.7496 91.9275 38.9885 93.1096 39.4159C94.2837 39.8131 95.323 40.311 96.2275 40.9098C97.1622 41.5005 97.9118 42.1247 98.4762 42.7822C99.0628 43.4015 99.4711 44.02 99.7014 44.6378L94.9611 47.4123ZM104.468 33.8489L108.508 48.9264L124.31 44.6922L120.27 29.6147L125.658 28.171L135.158 63.6235L129.77 65.0672L125.754 50.0803L109.952 54.3144L113.968 69.3014L108.67 70.7208L99.1708 35.2683L104.468 33.8489ZM133.392 26.0988L142.891 61.5513L137.594 62.9708L128.094 27.5183L133.392 26.0988Z" fill="black"/>
<path d="M132.756 90.2526C132.506 89.802 132.135 89.3837 131.643 88.9978C131.174 88.5736 130.58 88.1667 129.86 87.777C129.141 87.3874 128.239 87.16 127.154 87.0949C126.091 86.9915 124.986 87.0934 123.839 87.4008C122.722 87.7 121.775 88.1481 120.996 88.7448C120.21 89.3114 119.64 89.9009 119.286 90.5133C118.925 91.0955 118.722 91.6674 118.679 92.2291C118.665 92.7827 118.703 93.2255 118.792 93.5575C118.987 94.7671 119.63 95.5977 120.721 96.0493C121.867 96.5834 123.684 96.6627 126.172 96.2874C127.406 96.1832 128.598 96.1063 129.75 96.0566C130.893 95.9767 132.164 96.0728 133.563 96.3449C134.985 96.5787 136.234 96.9557 137.312 97.4758C138.382 97.9657 139.369 98.7526 140.274 99.8365C141.201 100.882 141.875 102.19 142.296 103.759C142.558 104.498 142.693 105.303 142.7 106.175C142.737 107.038 142.569 108.038 142.193 109.173C141.84 110.271 141.297 111.322 140.564 112.328C139.852 113.295 138.75 114.253 137.258 115.203C135.765 116.153 133.993 116.903 131.94 117.453C129.918 117.995 127.984 118.206 126.14 118.085C124.296 117.964 122.77 117.581 121.562 116.934C120.375 116.249 119.311 115.418 118.37 114.441C117.451 113.425 116.722 112.456 116.183 111.533C115.637 110.579 115.291 109.653 115.147 108.753L120.535 107.309C120.665 107.792 120.852 108.308 121.096 108.858C121.37 109.399 121.782 109.968 122.33 110.565C122.87 111.132 123.511 111.591 124.252 111.943C125.015 112.256 125.928 112.464 126.991 112.567C128.076 112.633 129.223 112.503 130.43 112.18C133.026 111.484 134.875 110.536 135.977 109.335C137.078 108.134 137.419 106.748 136.998 105.179C136.602 103.7 135.527 102.645 133.773 102.015C132.049 101.377 129.996 101.264 127.615 101.675C126.798 101.765 126.106 101.837 125.538 101.892C124.963 101.917 124.194 101.945 123.232 101.977C122.3 102 121.476 101.945 120.761 101.813C120.077 101.673 119.316 101.489 118.478 101.261C117.662 100.994 116.958 100.6 116.366 100.079C115.796 99.5206 115.257 98.8398 114.751 98.0372C114.245 97.2346 113.826 96.2146 113.494 94.977C113.292 94.2223 113.185 93.4585 113.172 92.6856C113.15 91.8824 113.316 90.9321 113.669 89.8346C114.014 88.7069 114.501 87.6867 115.13 86.7741C115.751 85.8313 116.687 84.9173 117.938 84.0321C119.189 83.1469 120.66 82.4778 122.35 82.0249C123.859 81.6204 125.369 81.4586 126.879 81.5393C128.381 81.5899 129.722 81.8288 130.905 82.2562C132.079 82.6533 133.118 83.1513 134.022 83.7501C134.957 84.3408 135.707 84.9649 136.271 85.6225C136.858 86.2418 137.266 86.8603 137.496 87.478L132.756 90.2526ZM175.848 96.0793C175.694 96.8324 175.442 97.6439 175.093 98.5139C174.744 99.384 174.215 100.367 173.505 101.463C172.826 102.551 172.032 103.572 171.124 104.527C170.207 105.453 169.024 106.352 167.576 107.225C166.15 108.06 164.622 108.696 162.992 109.133C160.818 109.715 158.662 109.937 156.522 109.799C154.404 109.622 152.497 109.146 150.801 108.371C149.097 107.566 147.53 106.547 146.099 105.312C144.69 104.04 143.488 102.631 142.492 101.086C141.495 99.5415 140.775 97.939 140.33 96.2789C139.877 94.5885 139.696 92.8253 139.786 90.9894C139.877 89.1534 140.218 87.3474 140.809 85.5712C141.423 83.7567 142.256 82.094 143.307 80.583C144.35 79.0418 145.759 77.6613 147.535 76.4413C149.333 75.183 151.319 74.2627 153.492 73.6804C155.183 73.2274 156.843 73.0252 158.474 73.0735C160.126 73.0836 161.6 73.2711 162.895 73.6359C164.181 73.9705 165.387 74.424 166.511 74.9964C167.665 75.5606 168.596 76.1363 169.303 76.7232C170.002 77.28 170.598 77.8157 171.092 78.3304L167.259 82.3177C166.782 81.8634 166.171 81.3961 165.428 80.9159C164.676 80.4055 163.755 79.9245 162.663 79.4728C161.594 78.9829 160.377 78.7267 159.012 78.7042C157.669 78.6434 156.318 78.795 154.96 79.159C153.119 79.6523 151.491 80.4605 150.078 81.5834C148.664 82.7064 147.582 83.9829 146.833 85.413C146.084 86.8431 145.61 88.3937 145.41 90.0647C145.203 91.7055 145.306 93.2957 145.718 94.8351C146.123 96.3444 146.829 97.7728 147.837 99.1203C148.837 100.438 150.038 101.539 151.44 102.425C152.834 103.281 154.409 103.846 156.165 104.12C157.912 104.363 159.707 104.238 161.548 103.745C162.906 103.381 164.137 102.841 165.239 102.125C166.363 101.371 167.289 100.54 168.017 99.6336C168.766 98.6886 169.339 97.8072 169.735 96.9895C170.122 96.1415 170.409 95.4014 170.596 94.7691L175.848 96.0793ZM179.78 76.1967C177.982 79.2667 177.544 82.5222 178.466 85.9633C179.388 89.4044 181.403 92.035 184.511 93.8551C187.611 95.6449 190.882 96.0788 194.323 95.1568C197.764 94.2348 200.38 92.2237 202.17 89.1235C203.96 86.0234 204.393 82.7528 203.471 79.3117C202.549 75.8706 200.538 73.2551 197.438 71.4652C194.338 69.6753 191.067 69.2414 187.626 70.1635C184.185 71.0855 181.57 73.0966 179.78 76.1967ZM181.724 98.4843C177.361 95.9652 174.532 92.2908 173.238 87.4612C171.944 82.6316 172.556 78.0352 175.075 73.672C177.625 69.3008 181.314 66.4681 186.144 65.174C190.973 63.8799 195.57 64.4924 199.933 67.0115C204.296 69.5306 207.125 73.2049 208.419 78.0345C209.713 82.8642 209.1 87.4606 206.581 91.8237C204.062 96.1869 200.373 99.0195 195.513 100.322C190.714 101.608 186.117 100.995 181.724 98.4843ZM209.935 58.5564L215.892 80.7878C216.054 81.3915 216.265 81.9982 216.526 82.6078C216.816 83.2093 217.244 83.8389 217.808 84.4965C218.373 85.154 219.018 85.6928 219.746 86.1126C220.503 86.5244 221.421 86.8121 222.5 86.9759C223.602 87.1014 224.771 86.9983 226.009 86.6667C227.276 86.327 228.337 85.8165 229.189 85.1351C230.064 84.4154 230.696 83.696 231.086 82.9769C231.476 82.2578 231.746 81.4573 231.898 80.5754C232.08 79.6855 232.132 78.9114 232.053 78.2532C231.995 77.5568 231.906 76.9822 231.785 76.5294L225.828 54.2981L231.125 52.8786L237.082 75.11C237.26 75.7741 237.39 76.4996 237.471 77.2866C237.583 78.0655 237.62 78.929 237.583 79.8771C237.546 80.8253 237.395 81.7716 237.131 82.716C236.896 83.6523 236.514 84.5798 235.984 85.4983C235.475 86.3786 234.849 87.2419 234.106 88.0883C233.384 88.8963 232.43 89.6212 231.243 90.2627C230.086 90.8962 228.783 91.407 227.334 91.7952C225.312 92.3372 223.439 92.5316 221.716 92.3787C220.023 92.2177 218.549 91.7876 217.294 91.0886C216.039 90.3896 214.952 89.5324 214.032 88.5169C213.113 87.5015 212.383 86.4676 211.843 85.4155C211.302 84.3634 210.886 83.2939 210.595 82.2073L204.638 59.9759L209.935 58.5564ZM259.908 50.9413L249.403 53.7559L257.459 83.8204L252.071 85.2641L244.015 55.1996L233.42 58.0386L231.977 52.6505L258.464 45.5532L259.908 50.9413ZM265.156 43.7601L274.656 79.2126L269.358 80.632L259.859 45.1795L265.156 43.7601ZM282.615 77.0797L277.318 78.4992L267.843 43.1373L274.77 41.281L296.324 64.6714L289.033 37.4594L294.33 36.04L303.805 71.4019L296.878 73.2581L275.385 50.0942L282.615 77.0797ZM330.86 35.6665L327.117 39.6295C325.87 38.4756 324.399 37.5755 322.705 36.9293C321.034 36.2449 319.364 35.8675 317.695 35.797C315.376 35.836 313.237 36.4254 311.277 37.565C309.318 38.7047 307.783 40.2807 306.672 42.293C305.592 44.2973 305.056 46.4629 305.065 48.7899C305.074 51.1169 305.644 53.2449 306.775 55.174C307.899 57.073 309.471 58.5929 311.491 59.7339C313.512 60.8748 315.67 61.4449 317.967 61.4442C320.264 61.4435 322.388 60.8582 324.339 59.6883C326.32 58.5103 327.855 56.9343 328.944 54.9603C330.063 52.9782 330.603 50.8276 330.564 48.5087C330.622 48.3637 330.653 48.1775 330.657 47.95C330.661 47.7225 330.632 47.6169 330.572 47.6331L330.255 47.718L312.374 52.7034L312.53 47.1293L334.359 40.9404L334.45 40.9161C334.66 41.2158 334.991 42.2108 335.444 43.9012C335.63 44.5955 335.788 45.4266 335.918 46.3947C336.04 47.3326 336.073 48.4236 336.019 49.6677C335.994 50.9037 335.784 52.1732 335.389 53.476C335.024 54.7708 334.561 56.0597 333.999 57.3427C333.437 58.6256 332.574 59.8757 331.412 61.0929C330.25 62.3102 328.874 63.3908 327.283 64.3348C323.949 66.2632 320.682 67.1709 317.482 67.058C314.273 66.9149 311.301 66.0287 308.568 64.3994C305.834 62.7702 303.675 60.5665 302.089 57.7885C301.278 56.4528 300.679 55.0606 300.291 53.6117C299.902 52.1628 299.665 50.6734 299.579 49.1437C299.484 47.5837 299.587 46.0356 299.887 44.4993C300.218 42.955 300.72 41.5101 301.395 40.1646C302.1 38.811 303.055 37.4873 304.262 36.1935C305.49 34.8615 306.93 33.7154 308.581 32.7552C309.955 31.9665 311.348 31.367 312.758 30.9566C314.199 30.5382 315.529 30.3112 316.749 30.2755C317.969 30.2398 319.206 30.3289 320.46 30.5428C321.707 30.7265 322.852 31.018 323.898 31.4174C324.965 31.7784 325.943 32.2282 326.831 32.7666C327.742 33.2667 328.523 33.769 329.176 34.2735C329.821 34.7478 330.382 35.2121 330.86 35.6665Z" fill="#FF729F"/>
<path d="M134.568 97.0143C134.318 96.5637 133.947 96.1454 133.455 95.7595C132.986 95.3353 132.391 94.9284 131.672 94.5388C130.953 94.1491 130.051 93.9217 128.966 93.8566C127.903 93.7532 126.798 93.8551 125.651 94.1625C124.534 94.4618 123.586 94.9098 122.808 95.5065C122.022 96.0731 121.452 96.6626 121.098 97.275C120.737 97.8572 120.534 98.4291 120.49 98.9908C120.477 99.5444 120.515 99.9872 120.604 100.319C120.798 101.529 121.441 102.359 122.533 102.811C123.679 103.345 125.496 103.424 127.983 103.049C129.217 102.945 130.41 102.868 131.561 102.818C132.705 102.738 133.976 102.835 135.375 103.107C136.797 103.34 138.046 103.717 139.124 104.237C140.193 104.727 141.181 105.514 142.086 106.598C143.013 107.644 143.687 108.951 144.107 110.521C144.37 111.26 144.505 112.065 144.512 112.936C144.549 113.8 144.38 114.799 144.005 115.935C143.652 117.033 143.109 118.084 142.375 119.089C141.664 120.057 140.562 121.015 139.07 121.965C137.577 122.915 135.804 123.665 133.752 124.215C131.729 124.757 129.796 124.967 127.952 124.847C126.108 124.726 124.582 124.343 123.373 123.696C122.187 123.011 121.123 122.18 120.182 121.203C119.263 120.187 118.534 119.218 117.995 118.294C117.449 117.341 117.103 116.414 116.959 115.515L122.347 114.071C122.477 114.554 122.663 115.07 122.908 115.619C123.182 116.16 123.593 116.73 124.142 117.327C124.682 117.894 125.323 118.353 126.064 118.704C126.827 119.017 127.74 119.226 128.803 119.329C129.888 119.394 131.034 119.265 132.242 118.942C134.838 118.246 136.687 117.298 137.788 116.097C138.89 114.896 139.231 113.51 138.81 111.941C138.414 110.462 137.338 109.407 135.584 108.777C133.86 108.139 131.808 108.026 129.427 108.437C128.61 108.527 127.918 108.599 127.35 108.654C126.774 108.679 126.005 108.707 125.043 108.738C124.111 108.762 123.288 108.707 122.573 108.575C121.889 108.435 121.127 108.251 120.29 108.022C119.474 107.756 118.77 107.362 118.178 106.841C117.607 106.282 117.069 105.602 116.563 104.799C116.057 103.996 115.638 102.976 115.306 101.739C115.104 100.984 114.996 100.22 114.983 99.4473C114.962 98.6441 115.128 97.6938 115.481 96.5963C115.826 95.4686 116.313 94.4484 116.942 93.5358C117.563 92.593 118.499 91.679 119.75 90.7938C121.001 89.9086 122.471 89.2395 124.162 88.7866C125.671 88.3822 127.181 88.2203 128.691 88.3011C130.192 88.3516 131.534 88.5905 132.716 89.0179C133.89 89.4151 134.93 89.913 135.834 90.5118C136.769 91.1025 137.519 91.7267 138.083 92.3842C138.67 93.0035 139.078 93.622 139.308 94.2397L134.568 97.0143ZM177.66 102.841C177.506 103.594 177.254 104.406 176.905 105.276C176.556 106.146 176.026 107.129 175.317 108.225C174.638 109.312 173.844 110.334 172.935 111.289C172.019 112.214 170.836 113.113 169.388 113.987C167.961 114.822 166.433 115.458 164.803 115.895C162.63 116.477 160.473 116.699 158.333 116.561C156.216 116.384 154.309 115.908 152.613 115.133C150.909 114.328 149.342 113.308 147.911 112.074C146.502 110.801 145.3 109.393 144.304 107.848C143.307 106.303 142.587 104.701 142.142 103.041C141.689 101.35 141.508 99.587 141.598 97.7511C141.688 95.9151 142.03 94.1091 142.621 92.3329C143.235 90.5185 144.067 88.8557 145.118 87.3447C146.161 85.8036 147.571 84.423 149.347 83.203C151.145 81.9447 153.131 81.0244 155.304 80.4421C156.994 79.9891 158.655 79.7869 160.285 79.8352C161.938 79.8453 163.412 80.0328 164.707 80.3976C165.993 80.7322 167.199 81.1857 168.323 81.7581C169.477 82.3224 170.407 82.898 171.115 83.4849C171.814 84.0417 172.41 84.5774 172.904 85.0922L169.071 89.0795C168.593 88.6251 167.983 88.1578 167.24 87.6776C166.488 87.1672 165.567 86.6862 164.475 86.2346C163.406 85.7447 162.188 85.4885 160.824 85.4659C159.481 85.4051 158.13 85.5567 156.772 85.9207C154.931 86.4141 153.303 87.2222 151.889 88.3451C150.475 89.4681 149.394 90.7446 148.645 92.1747C147.896 93.6048 147.422 95.1554 147.222 96.8264C147.015 98.4673 147.117 100.057 147.53 101.597C147.934 103.106 148.641 104.534 149.649 105.882C150.649 107.199 151.85 108.301 153.252 109.187C154.646 110.043 156.221 110.608 157.976 110.881C159.724 111.125 161.518 111 163.36 110.507C164.718 110.143 165.948 109.603 167.051 108.887C168.175 108.132 169.101 107.302 169.829 106.395C170.578 105.45 171.151 104.569 171.546 103.751C171.934 102.903 172.221 102.163 172.407 101.531L177.66 102.841ZM181.592 82.9585C179.794 86.0284 179.356 89.2839 180.278 92.7251C181.2 96.1662 183.215 98.7967 186.323 100.617C189.423 102.407 192.694 102.841 196.135 101.919C199.576 100.996 202.192 98.9854 203.981 95.8853C205.771 92.7851 206.205 89.5145 205.283 86.0734C204.361 82.6323 202.35 80.0168 199.25 78.2269C196.15 76.4371 192.879 76.0031 189.438 76.9252C185.997 77.8472 183.381 79.8583 181.592 82.9585ZM183.536 105.246C179.172 102.727 176.344 99.0526 175.05 94.2229C173.756 89.3933 174.368 84.7969 176.887 80.4338C179.436 76.0625 183.126 73.2299 187.956 71.9358C192.785 70.6417 197.382 71.2541 201.745 73.7732C206.108 76.2923 208.936 79.9666 210.231 84.7963C211.525 89.6259 210.912 94.2223 208.393 98.5854C205.874 102.949 202.185 105.781 197.325 107.083C192.525 108.369 187.929 107.757 183.536 105.246ZM211.747 65.3182L217.704 87.5495C217.866 88.1532 218.077 88.7599 218.337 89.3695C218.628 89.9711 219.055 90.6006 219.62 91.2582C220.184 91.9158 220.83 92.4545 221.557 92.8743C222.315 93.2861 223.233 93.5738 224.312 93.7376C225.413 93.8631 226.583 93.7601 227.82 93.4284C229.088 93.0887 230.148 92.5782 231.001 91.8968C231.876 91.1771 232.508 90.4577 232.898 89.7386C233.287 89.0195 233.558 88.219 233.71 87.3371C233.892 86.4472 233.944 85.6731 233.864 85.015C233.807 84.3185 233.718 83.7439 233.597 83.2912L227.64 61.0598L232.937 59.6403L238.894 81.8717C239.072 82.5358 239.202 83.2613 239.283 84.0483C239.395 84.8272 239.432 85.6907 239.395 86.6389C239.358 87.587 239.207 88.5333 238.942 89.4777C238.708 90.414 238.326 91.3415 237.795 92.26C237.287 93.1403 236.661 94.0036 235.917 94.85C235.196 95.6581 234.241 96.3829 233.054 97.0244C231.898 97.6579 230.595 98.1687 229.146 98.557C227.124 99.0989 225.251 99.2934 223.527 99.1404C221.834 98.9794 220.36 98.5494 219.105 97.8503C217.85 97.1513 216.763 96.2941 215.844 95.2786C214.925 94.2632 214.195 93.2294 213.654 92.1772C213.114 91.1251 212.698 90.0557 212.407 88.969L206.45 66.7376L211.747 65.3182ZM261.72 57.703L251.215 60.5176L259.271 90.5821L253.883 92.0258L245.827 61.9614L235.232 64.8003L233.788 59.4122L260.276 52.3149L261.72 57.703ZM266.968 50.5218L276.467 85.9743L271.17 87.3938L261.67 51.9413L266.968 50.5218ZM284.427 83.8415L279.13 85.2609L269.655 49.899L276.582 48.0428L298.136 71.4331L290.845 44.2211L296.142 42.8017L305.617 78.1636L298.69 80.0198L277.197 56.8559L284.427 83.8415ZM332.671 42.4282L328.929 46.3912C327.681 45.2373 326.211 44.3372 324.517 43.6911C322.846 43.0066 321.175 42.6292 319.507 42.5587C317.188 42.5977 315.049 43.1871 313.089 44.3268C311.13 45.4664 309.595 47.0424 308.484 49.0547C307.404 51.059 306.868 53.2246 306.877 55.5516C306.885 57.8786 307.456 60.0067 308.587 61.9358C309.711 63.8347 311.283 65.3546 313.303 66.4956C315.323 67.6365 317.482 68.2066 319.779 68.2059C322.076 68.2052 324.2 67.6199 326.151 66.45C328.132 65.272 329.667 63.696 330.756 61.722C331.875 59.7399 332.415 57.5894 332.376 55.2704C332.434 55.1254 332.465 54.9392 332.469 54.7117C332.472 54.4843 332.444 54.3786 332.384 54.3948L332.067 54.4797L314.185 59.4652L314.342 53.891L336.171 47.7021L336.262 47.6778C336.471 47.9775 336.803 48.9725 337.256 50.6629C337.442 51.3572 337.6 52.1883 337.73 53.1564C337.852 54.0943 337.885 55.1853 337.83 56.4294C337.806 57.6654 337.596 58.9349 337.201 60.2378C336.836 61.5326 336.372 62.8214 335.81 64.1044C335.248 65.3873 334.386 66.6374 333.224 67.8547C332.062 69.0719 330.686 70.1525 329.094 71.0965C325.761 73.0249 322.494 73.9326 319.293 73.8197C316.084 73.6766 313.113 72.7904 310.38 71.1612C307.646 69.5319 305.487 67.3282 303.901 64.5502C303.09 63.2145 302.491 61.8223 302.102 60.3734C301.714 58.9245 301.477 57.4352 301.391 55.9054C301.296 54.3454 301.399 52.7973 301.699 51.2611C302.029 49.7167 302.532 48.2718 303.207 46.9263C303.911 45.5727 304.867 44.249 306.073 42.9553C307.302 41.6232 308.742 40.4771 310.393 39.5169C311.767 38.7282 313.159 38.1287 314.57 37.7184C316.011 37.2999 317.341 37.0729 318.561 37.0372C319.781 37.0015 321.018 37.0906 322.272 37.3045C323.518 37.4882 324.664 37.7797 325.709 38.1791C326.777 38.5401 327.755 38.9899 328.643 39.5283C329.553 40.0284 330.335 40.5308 330.988 41.0352C331.633 41.5095 332.194 41.9739 332.671 42.4282Z" fill="#81F4E1"/>
<path d="M136.38 103.776C136.129 103.325 135.759 102.907 135.267 102.521C134.797 102.097 134.203 101.69 133.484 101.3C132.765 100.91 131.863 100.683 130.778 100.618C129.715 100.514 128.61 100.616 127.463 100.924C126.346 101.223 125.398 101.671 124.62 102.268C123.833 102.834 123.264 103.424 122.91 104.036C122.548 104.618 122.346 105.19 122.302 105.752C122.289 106.306 122.326 106.748 122.415 107.08C122.61 108.29 123.253 109.121 124.345 109.572C125.491 110.106 127.308 110.186 129.795 109.81C131.029 109.706 132.222 109.629 133.373 109.58C134.516 109.5 135.788 109.596 137.187 109.868C138.608 110.102 139.858 110.479 140.936 110.999C142.005 111.489 142.992 112.276 143.897 113.359C144.825 114.405 145.499 115.713 145.919 117.282C146.182 118.021 146.317 118.826 146.324 119.697C146.361 120.561 146.192 121.561 145.817 122.696C145.464 123.794 144.921 124.845 144.187 125.851C143.476 126.818 142.374 127.776 140.881 128.726C139.389 129.676 137.616 130.426 135.564 130.976C133.541 131.518 131.608 131.729 129.764 131.608C127.92 131.487 126.394 131.104 125.185 130.457C123.999 129.772 122.935 128.941 121.994 127.964C121.074 126.948 120.346 125.979 119.807 125.056C119.26 124.102 118.915 123.175 118.771 122.276L124.159 120.832C124.288 121.315 124.475 121.831 124.719 122.38C124.994 122.922 125.405 123.491 125.953 124.088C126.494 124.655 127.134 125.114 127.875 125.466C128.639 125.779 129.552 125.987 130.615 126.09C131.7 126.156 132.846 126.026 134.054 125.703C136.65 125.007 138.498 124.059 139.6 122.858C140.702 121.657 141.042 120.271 140.622 118.702C140.225 117.223 139.15 116.168 137.396 115.538C135.672 114.9 133.62 114.787 131.239 115.198C130.422 115.288 129.729 115.36 129.162 115.415C128.586 115.44 127.817 115.468 126.855 115.5C125.923 115.523 125.1 115.468 124.385 115.336C123.7 115.196 122.939 115.012 122.102 114.784C121.286 114.517 120.582 114.123 119.989 113.602C119.419 113.044 118.881 112.363 118.375 111.56C117.868 110.758 117.45 109.738 117.118 108.5C116.916 107.745 116.808 106.981 116.795 106.209C116.774 105.405 116.94 104.455 117.293 103.358C117.638 102.23 118.125 101.21 118.754 100.297C119.375 99.3542 120.311 98.4402 121.562 97.555C122.813 96.6698 124.283 96.0007 125.974 95.5478C127.483 95.1434 128.992 94.9816 130.502 95.0623C132.004 95.1128 133.346 95.3518 134.528 95.7791C135.702 96.1763 136.741 96.6743 137.646 97.2731C138.581 97.8638 139.33 98.4879 139.895 99.1455C140.481 99.7648 140.89 100.383 141.12 101.001L136.38 103.776ZM179.472 109.602C179.318 110.355 179.066 111.167 178.717 112.037C178.367 112.907 177.838 113.89 177.129 114.986C176.45 116.074 175.656 117.095 174.747 118.05C173.83 118.975 172.648 119.875 171.199 120.748C169.773 121.583 168.245 122.219 166.615 122.656C164.442 123.238 162.285 123.46 160.145 123.322C158.027 123.145 156.12 122.669 154.425 121.894C152.721 121.089 151.153 120.07 149.723 118.835C148.314 117.563 147.112 116.154 146.115 114.609C145.119 113.064 144.398 111.462 143.954 109.802C143.501 108.111 143.319 106.348 143.41 104.512C143.5 102.676 143.841 100.87 144.433 99.0941C145.047 97.2797 145.879 95.617 146.93 94.106C147.973 92.5648 149.383 91.1842 151.159 89.9642C152.957 88.706 154.942 87.7857 157.116 87.2033C158.806 86.7504 160.467 86.5481 162.097 86.5965C163.75 86.6066 165.224 86.794 166.518 87.1588C167.805 87.4935 169.01 87.947 170.134 88.5193C171.288 89.0836 172.219 89.6592 172.926 90.2461C173.626 90.8029 174.222 91.3387 174.716 91.8534L170.883 95.8407C170.405 95.3863 169.795 94.919 169.051 94.4388C168.3 93.9284 167.378 93.4474 166.287 92.9958C165.217 92.5059 164 92.2497 162.635 92.2272C161.293 92.1664 159.942 92.318 158.584 92.6819C156.742 93.1753 155.115 93.9834 153.701 95.1064C152.287 96.2293 151.206 97.5058 150.457 98.9359C149.708 100.366 149.233 101.917 149.034 103.588C148.827 105.228 148.929 106.819 149.342 108.358C149.746 109.867 150.452 111.296 151.46 112.643C152.46 113.961 153.662 115.062 155.064 115.948C156.458 116.804 158.032 117.369 159.788 117.643C161.536 117.886 163.33 117.761 165.171 117.268C166.53 116.904 167.76 116.364 168.862 115.648C169.987 114.894 170.913 114.063 171.64 113.157C172.39 112.212 172.963 111.33 173.358 110.512C173.746 109.664 174.033 108.924 174.219 108.292L179.472 109.602ZM183.403 89.7197C181.605 92.7896 181.167 96.0452 182.089 99.4863C183.012 102.927 185.027 105.558 188.135 107.378C191.235 109.168 194.506 109.602 197.947 108.68C201.388 107.758 204.003 105.747 205.793 102.646C207.583 99.5463 208.017 96.2757 207.095 92.8346C206.173 89.3935 204.162 86.778 201.062 84.9882C197.962 83.1983 194.691 82.7644 191.25 83.6864C187.809 84.6085 185.193 86.6196 183.403 89.7197ZM185.347 112.007C180.984 109.488 178.156 105.814 176.862 100.984C175.567 96.1545 176.18 91.5581 178.699 87.195C181.248 82.8237 184.938 79.9911 189.767 78.697C194.597 77.4029 199.193 78.0154 203.556 80.5344C207.92 83.0535 210.748 86.7279 212.042 91.5575C213.336 96.3871 212.724 100.984 210.205 105.347C207.686 109.71 203.996 112.542 199.137 113.845C194.337 115.131 189.741 114.518 185.347 112.007ZM213.559 72.0794L219.516 94.3108C219.678 94.9145 219.889 95.5211 220.149 96.1308C220.44 96.7323 220.867 97.3619 221.432 98.0194C221.996 98.677 222.642 99.2157 223.369 99.6356C224.126 100.047 225.045 100.335 226.124 100.499C227.225 100.624 228.395 100.521 229.632 100.19C230.9 99.85 231.96 99.3394 232.813 98.658C233.688 97.9383 234.32 97.2189 234.71 96.4998C235.099 95.7807 235.37 94.9802 235.522 94.0984C235.704 93.2084 235.755 92.4343 235.676 91.7762C235.619 91.0798 235.53 90.5052 235.408 90.0524L229.451 67.821L234.749 66.4015L240.706 88.6329C240.884 89.297 241.013 90.0225 241.095 90.8095C241.207 91.5884 241.244 92.4519 241.207 93.4001C241.17 94.3483 241.019 95.2945 240.754 96.239C240.52 97.1753 240.137 98.1027 239.607 99.0213C239.099 99.9016 238.473 100.765 237.729 101.611C237.007 102.419 236.053 103.144 234.866 103.786C233.709 104.419 232.407 104.93 230.958 105.318C228.935 105.86 227.063 106.055 225.339 105.902C223.646 105.741 222.172 105.311 220.917 104.612C219.662 103.913 218.575 103.055 217.656 102.04C216.737 101.024 216.007 99.9906 215.466 98.9385C214.925 97.8863 214.51 96.8169 214.218 95.7302L208.261 73.4988L213.559 72.0794ZM263.531 64.4642L253.027 67.2789L261.083 97.3433L255.695 98.787L247.639 68.7226L237.044 71.5615L235.6 66.1735L262.088 59.0762L263.531 64.4642ZM268.78 57.283L278.279 92.7355L272.982 94.155L263.482 58.7025L268.78 57.283ZM286.239 90.6027L280.942 92.0221L271.466 56.6602L278.394 54.804L299.948 78.1943L292.656 50.9824L297.954 49.5629L307.429 84.9248L300.502 86.7811L279.008 63.6171L286.239 90.6027ZM334.483 49.1895L330.741 53.1525C329.493 51.9985 328.023 51.0985 326.329 50.4523C324.657 49.7679 322.987 49.3904 321.318 49.3199C318.999 49.359 316.86 49.9483 314.901 51.088C312.942 52.2277 311.407 53.8037 310.296 55.816C309.215 57.8202 308.679 59.9858 308.688 62.3128C308.697 64.6398 309.267 66.7679 310.399 68.697C311.522 70.5959 313.094 72.1158 315.115 73.2568C317.135 74.3978 319.294 74.9679 321.591 74.9671C323.887 74.9664 326.011 74.3811 327.963 73.2112C329.944 72.0333 331.479 70.4573 332.568 68.4832C333.687 66.5011 334.227 64.3506 334.187 62.0317C334.246 61.8867 334.277 61.7004 334.28 61.473C334.284 61.2455 334.256 61.1398 334.196 61.156L333.879 61.2409L315.997 66.2264L316.153 60.6522L337.983 54.4633L338.074 54.4391C338.283 54.7387 338.615 55.7338 339.068 57.4241C339.254 58.1184 339.412 58.9496 339.542 59.9177C339.663 60.8556 339.697 61.9466 339.642 63.1907C339.617 64.4267 339.408 65.6961 339.013 66.999C338.648 68.2938 338.184 69.5827 337.622 70.8656C337.06 72.1486 336.198 73.3986 335.036 74.6159C333.874 75.8331 332.497 76.9137 330.906 77.8577C327.573 79.7861 324.306 80.6939 321.105 80.5809C317.896 80.4378 314.925 79.5517 312.191 77.9224C309.458 76.2931 307.298 74.0895 305.713 71.3114C304.902 69.9758 304.302 68.5835 303.914 67.1346C303.526 65.6857 303.289 64.1964 303.202 62.6666C303.108 61.1067 303.211 59.5586 303.511 58.0223C303.841 56.4779 304.344 55.033 305.018 53.6875C305.723 52.3339 306.679 51.0103 307.885 49.7165C309.113 48.3844 310.553 47.2383 312.205 46.2782C313.579 45.4894 314.971 44.8899 316.382 44.4796C317.823 44.0612 319.153 43.8341 320.373 43.7984C321.592 43.7628 322.83 43.8519 324.084 44.0658C325.33 44.2495 326.476 44.541 327.521 44.9403C328.588 45.3014 329.566 45.7511 330.455 46.2895C331.365 46.7897 332.147 47.292 332.8 47.7965C333.444 48.2708 334.006 48.7351 334.483 49.1895Z" fill="white"/>
</svg>
