<svg width="277" height="100" viewBox="0 0 277 100" fill="none" xmlns="http://www.w3.org/2000/svg">
<rect x="28.5" y="98.5" width="69" height="202" transform="rotate(-90 28.5 98.5)" stroke="black" stroke-width="3"/>
<rect x="163" y="86" width="76" height="114" transform="rotate(-90 163 86)" fill="#4F4F4F"/>
<rect x="1.5" y="1.5" width="98" height="83" stroke="#4F4F4F" stroke-width="3"/>
<mask id="mask0_1015_121" style="mask-type:alpha" maskUnits="userSpaceOnUse" x="3" y="19" width="95" height="64">
<path d="M77.5074 41.6139L78.0806 41.8509L78.6539 41.6139L96.5 34.2336V81.5H4.5V29.8247L26.75 20.6232L77.5074 41.6139Z" fill="white" stroke="white" stroke-width="3"/>
</mask>
<g mask="url(#mask0_1015_121)">
<rect width="136.998" height="32.9965" transform="matrix(0.993916 -0.110136 0.543765 0.839238 -10.7905 70.207)" fill="#81F4E1"/>
<rect width="136.998" height="28.13" transform="matrix(0.993916 -0.110136 -0.543765 -0.839238 -6.55786 76.7397)" fill="#56CBF9"/>
<rect width="136.998" height="23.6653" transform="matrix(0.993916 -0.110136 0.543765 0.839238 -33.6152 34.9795)" fill="#FF729F"/>
<rect width="136.998" height="23.4139" transform="matrix(0.993916 -0.110136 -0.543765 -0.839238 -31.5698 38.1367)" fill="#FCD6F6"/>
</g>
<path d="M18.2266 58.2227C16.9258 58.2227 15.8008 58.4688 14.8516 58.9258C13.8672 59.3828 13.1641 59.9453 12.7422 60.6133C12.2852 61.3164 11.9688 61.9492 11.793 62.5469C11.582 63.1797 11.5117 63.707 11.5117 64.1992C11.5117 64.7617 11.5469 65.2891 11.6875 65.7461C11.793 66.2031 12.0391 66.7656 12.3906 67.3984C12.7422 68.0312 13.4102 68.5938 14.3594 69.0508C15.3086 69.5078 16.5039 69.8242 17.9453 70C20.6172 70.3516 21.9883 71.2656 21.9883 72.7773V72.9883C21.9883 73.0586 21.9531 73.1289 21.918 73.2344C21.4961 74.5352 20.3359 75.2031 18.5078 75.2031H18.2266C15.7305 75.2031 14.3594 74.0781 14.1133 71.793H10.5273C10.5273 72.4609 10.6328 73.1641 10.8789 73.9375C11.125 74.7109 11.5117 75.4844 12.0391 76.2578C12.5664 77.0312 13.375 77.6992 14.4648 78.1914C15.5195 78.7188 16.7852 78.9648 18.2266 78.9648C22.0234 78.9648 24.3438 77.6289 25.2578 74.9219C25.4688 74.3242 25.5742 73.5859 25.5742 72.707C25.5742 72.3906 25.5391 72.0742 25.5039 71.793C25.4688 71.5117 25.3281 71.0547 25.1172 70.457C24.9062 69.8945 24.5547 69.3672 24.0977 68.875C23.6406 68.3828 22.8672 67.8906 21.8125 67.3281C20.7578 66.8008 19.457 66.4141 17.9453 66.2031L17.6289 66.1328C15.9414 65.8516 15.1328 65.2891 15.1328 64.4805C15.1328 63.8477 15.3438 63.2852 15.8008 62.7578C16.2578 62.2656 17.0664 61.9844 18.2266 61.9844C20.0547 61.9844 21.25 62.793 21.8125 64.4102L25.3281 63.4258C25.0117 62.2305 24.2734 61.0703 23.0781 59.9453C21.8828 58.8203 20.2656 58.2227 18.2266 58.2227ZM27.9648 70.6328C27.9648 71.0898 28 71.582 28.0703 72.1094C28.1406 72.6719 28.3516 73.3398 28.7031 74.1836C29.0195 75.0273 29.4414 75.8008 30.0039 76.4688C30.5664 77.1367 31.375 77.6992 32.4648 78.1914C33.5195 78.6836 34.7852 78.9297 36.1914 78.9297C37.668 79 38.8633 78.7891 39.8125 78.2969C41.0078 77.7344 41.8164 77.207 42.2383 76.75C42.8008 76.1172 43.293 75.3086 43.75 74.3242C44.1719 73.2695 44.418 71.8281 44.4883 69.9297C44.5234 69.3672 44.5586 68.9102 44.5938 68.4883L44.5586 58.0469H40.6211V70.6328C40.6211 71.0547 40.5508 71.4414 40.4805 71.8633C40.4102 72.2852 40.2344 72.7422 39.9883 73.3047C39.707 73.8672 39.25 74.2891 38.6172 74.6055C37.9492 74.957 37.1406 75.0977 36.2266 75.0977C33.3438 75.0977 31.9023 73.6211 31.9023 70.6328V58.0469H27.9648V70.6328ZM54.5078 58.2227C53.207 58.2227 52.082 58.4688 51.1328 58.9258C50.1484 59.3828 49.4453 59.9453 49.0234 60.6133C48.5664 61.3164 48.25 61.9492 48.0742 62.5469C47.8633 63.1797 47.793 63.707 47.793 64.1992C47.793 64.7617 47.8281 65.2891 47.9688 65.7461C48.0742 66.2031 48.3203 66.7656 48.6719 67.3984C49.0234 68.0312 49.6914 68.5938 50.6406 69.0508C51.5898 69.5078 52.7852 69.8242 54.2266 70C56.8984 70.3516 58.2695 71.2656 58.2695 72.7773V72.9883C58.2695 73.0586 58.2344 73.1289 58.1992 73.2344C57.7773 74.5352 56.6172 75.2031 54.7891 75.2031H54.5078C52.0117 75.2031 50.6406 74.0781 50.3945 71.793H46.8086C46.8086 72.4609 46.9141 73.1641 47.1602 73.9375C47.4062 74.7109 47.793 75.4844 48.3203 76.2578C48.8477 77.0312 49.6562 77.6992 50.7461 78.1914C51.8008 78.7188 53.0664 78.9648 54.5078 78.9648C58.3047 78.9648 60.625 77.6289 61.5391 74.9219C61.75 74.3242 61.8555 73.5859 61.8555 72.707C61.8555 72.3906 61.8203 72.0742 61.7852 71.793C61.75 71.5117 61.6094 71.0547 61.3984 70.457C61.1875 69.8945 60.8359 69.3672 60.3789 68.875C59.9219 68.3828 59.1484 67.8906 58.0938 67.3281C57.0391 66.8008 55.7383 66.4141 54.2266 66.2031L53.9102 66.1328C52.2227 65.8516 51.4141 65.2891 51.4141 64.4805C51.4141 63.8477 51.625 63.2852 52.082 62.7578C52.5391 62.2656 53.3477 61.9844 54.5078 61.9844C56.3359 61.9844 57.5312 62.793 58.0938 64.4102L61.6094 63.4258C61.293 62.2305 60.5547 61.0703 59.3594 59.9453C58.1641 58.8203 56.5469 58.2227 54.5078 58.2227ZM64.7734 79H68.5703V66.7305C68.5703 66.2383 68.6055 65.7461 68.7109 65.3242C68.8164 64.9023 69.0273 64.4453 69.3086 63.918C69.5898 63.3906 70.082 62.9688 70.7148 62.6523C71.3477 62.3359 72.0859 62.1602 73 62.1602C74.1953 62.1602 75.1797 62.4766 75.8828 63.0742C76.5859 63.6719 77.0078 64.2695 77.1484 64.832C77.2891 65.4297 77.3594 66.0625 77.3594 66.7305V79H81.1562V66.7305C81.0859 65.6406 80.875 64.5156 80.4883 63.3555C80.0664 62.1953 79.2227 61.0703 77.8867 60.0156C76.5508 58.9609 74.9336 58.4336 73 58.4336C71.3828 58.4336 70.0117 58.7852 68.8164 59.4531C68.6406 59.5938 68.5703 59.5234 68.5703 59.3125V51.7891H64.7734V79ZM88.5039 53.3359C88.5039 52.8438 88.293 52.3867 87.9062 52.0352C87.4844 51.6836 87.0625 51.4727 86.5703 51.4727C86.0781 51.4727 85.6211 51.6836 85.2695 52.0352C84.8828 52.3867 84.707 52.8438 84.707 53.3359C84.707 53.8281 84.8828 54.2852 85.2695 54.6367C85.6211 55.0234 86.0781 55.1992 86.5703 55.1992C87.0625 55.1992 87.4844 55.0234 87.9062 54.6367C88.293 54.2852 88.5039 53.8281 88.5039 53.3359ZM88.5039 58.6797H84.7773V79.0703H88.5039V58.6797ZM106.469 58.2227C105.168 58.2227 104.043 58.4688 103.094 58.9258C102.109 59.3828 101.406 59.9453 100.984 60.6133C100.527 61.3164 100.211 61.9492 100.035 62.5469C99.8242 63.1797 99.7539 63.707 99.7539 64.1992C99.7539 64.7617 99.7891 65.2891 99.9297 65.7461C100.035 66.2031 100.281 66.7656 100.633 67.3984C100.984 68.0312 101.652 68.5938 102.602 69.0508C103.551 69.5078 104.746 69.8242 106.188 70C108.859 70.3516 110.23 71.2656 110.23 72.7773V72.9883C110.23 73.0586 110.195 73.1289 110.16 73.2344C109.738 74.5352 108.578 75.2031 106.75 75.2031H106.469C103.973 75.2031 102.602 74.0781 102.355 71.793H98.7695C98.7695 72.4609 98.875 73.1641 99.1211 73.9375C99.3672 74.7109 99.7539 75.4844 100.281 76.2578C100.809 77.0312 101.617 77.6992 102.707 78.1914C103.762 78.7188 105.027 78.9648 106.469 78.9648C110.266 78.9648 112.586 77.6289 113.5 74.9219C113.711 74.3242 113.816 73.5859 113.816 72.707C113.816 72.3906 113.781 72.0742 113.746 71.793C113.711 71.5117 113.57 71.0547 113.359 70.457C113.148 69.8945 112.797 69.3672 112.34 68.875C111.883 68.3828 111.109 67.8906 110.055 67.3281C109 66.8008 107.699 66.4141 106.188 66.2031L105.871 66.1328C104.184 65.8516 103.375 65.2891 103.375 64.4805C103.375 63.8477 103.586 63.2852 104.043 62.7578C104.5 62.2656 105.309 61.9844 106.469 61.9844C108.297 61.9844 109.492 62.793 110.055 64.4102L113.57 63.4258C113.254 62.2305 112.516 61.0703 111.32 59.9453C110.125 58.8203 108.508 58.2227 106.469 58.2227ZM116.207 70.6328C116.207 71.0898 116.242 71.582 116.312 72.1094C116.383 72.6719 116.594 73.3398 116.945 74.1836C117.262 75.0273 117.684 75.8008 118.246 76.4688C118.809 77.1367 119.617 77.6992 120.707 78.1914C121.762 78.6836 123.027 78.9297 124.434 78.9297C125.91 79 127.105 78.7891 128.055 78.2969C129.25 77.7344 130.059 77.207 130.48 76.75C131.043 76.1172 131.535 75.3086 131.992 74.3242C132.414 73.2695 132.66 71.8281 132.73 69.9297C132.766 69.3672 132.801 68.9102 132.836 68.4883L132.801 58.0469H128.863V70.6328C128.863 71.0547 128.793 71.4414 128.723 71.8633C128.652 72.2852 128.477 72.7422 128.23 73.3047C127.949 73.8672 127.492 74.2891 126.859 74.6055C126.191 74.957 125.383 75.0977 124.469 75.0977C121.586 75.0977 120.145 73.6211 120.145 70.6328V58.0469H116.207V70.6328ZM139.938 58.6094H138.566H136.211V88.4922H139.938V76.8555C139.938 76.6445 140.008 76.6445 140.184 76.7852C141.73 78.2617 143.84 79 146.512 79C149.043 79 151.398 78.0859 153.648 76.1875C155.898 74.3242 157.023 71.793 157.023 68.5586C157.023 65.3594 155.934 62.8281 153.754 61C151.574 59.1719 149.184 58.2578 146.512 58.2578C144.895 58.2578 143.523 58.5039 142.398 58.9961C141.273 59.4883 140.5 59.9805 140.078 60.5078C139.973 60.6484 139.938 60.6133 139.938 60.332V58.6094ZM146.652 75.2031C144.789 75.2031 143.207 74.5703 141.906 73.3047C140.57 72.0391 139.938 70.4922 139.938 68.6289C139.938 66.8008 140.57 65.2188 141.906 63.8828C143.207 62.582 144.789 61.9141 146.652 61.9141C148.48 61.9141 150.062 62.582 151.398 63.8828C152.699 65.2188 153.367 66.8008 153.367 68.6289C153.367 70.4922 152.699 72.0391 151.398 73.3047C150.062 74.5703 148.48 75.2031 146.652 75.2031ZM175.727 70.3867C175.199 71.8633 174.355 73.0586 173.195 73.9023C172.035 74.7812 170.734 75.2031 169.258 75.2031C166.938 75.2734 165.074 74.2539 163.703 72.1797C163.562 72.0039 163.598 71.8633 163.809 71.793L179.629 67.6094H179.699C179.699 67.4688 179.559 66.8711 179.312 65.8516C179.172 65.1836 178.891 64.4805 178.434 63.707C177.941 62.9336 177.344 62.125 176.57 61.2461C175.797 60.4023 174.777 59.6641 173.441 59.1016C172.105 58.5391 170.734 58.2578 169.258 58.2578C166.199 58.2578 163.738 59.3125 161.84 61.3516C159.941 63.4258 158.992 65.8164 158.992 68.5586C158.992 71.3711 159.906 73.7969 161.77 75.8711C163.633 77.9805 166.129 79 169.258 79C170.84 79 172.281 78.7188 173.547 78.1211C174.812 77.5586 175.797 76.8203 176.57 75.9766C177.344 75.1328 177.941 74.3242 178.398 73.5508C178.82 72.7773 179.137 72.0391 179.312 71.3359L175.727 70.3867ZM162.859 66.9766C163.352 65.4648 164.23 64.2344 165.426 63.2852C166.621 62.3711 167.922 61.9141 169.328 61.9141C169.961 61.9141 170.523 62.0195 171.016 62.1602C172.633 62.6875 173.898 63.5664 174.812 64.832C174.883 65.0078 174.918 65.0781 174.883 65.0781H174.812L162.93 68.3125C162.754 68.3828 162.648 68.3828 162.648 68.3125C162.613 68.2773 162.613 68.1719 162.613 67.9961C162.613 67.9258 162.613 67.8203 162.648 67.6797C162.648 67.5391 162.684 67.4336 162.719 67.3281L162.859 66.9766ZM182.336 79H186.379V66.4141C186.379 63.4258 187.785 61.9141 190.633 61.9141C191.195 61.9844 191.723 62.0547 192.145 62.1602L193.41 58.4336C192.566 58.2227 191.617 58.1172 190.633 58.1172C188.945 58.1172 187.504 58.4688 186.379 59.1367V58.3633H182.336V66.4141V79ZM198.719 58.5039H194.816L202.41 79H206.84L214.363 58.5039H210.566L204.66 74.5L198.719 58.5039ZM220.516 53.3359C220.516 52.8438 220.305 52.3867 219.918 52.0352C219.496 51.6836 219.074 51.4727 218.582 51.4727C218.09 51.4727 217.633 51.6836 217.281 52.0352C216.895 52.3867 216.719 52.8438 216.719 53.3359C216.719 53.8281 216.895 54.2852 217.281 54.6367C217.633 55.0234 218.09 55.1992 218.582 55.1992C219.074 55.1992 219.496 55.0234 219.918 54.6367C220.305 54.2852 220.516 53.8281 220.516 53.3359ZM220.516 58.6797H216.789V79.0703H220.516V58.6797ZM230.957 58.2227C229.656 58.2227 228.531 58.4688 227.582 58.9258C226.598 59.3828 225.895 59.9453 225.473 60.6133C225.016 61.3164 224.699 61.9492 224.523 62.5469C224.312 63.1797 224.242 63.707 224.242 64.1992C224.242 64.7617 224.277 65.2891 224.418 65.7461C224.523 66.2031 224.77 66.7656 225.121 67.3984C225.473 68.0312 226.141 68.5938 227.09 69.0508C228.039 69.5078 229.234 69.8242 230.676 70C233.348 70.3516 234.719 71.2656 234.719 72.7773V72.9883C234.719 73.0586 234.684 73.1289 234.648 73.2344C234.227 74.5352 233.066 75.2031 231.238 75.2031H230.957C228.461 75.2031 227.09 74.0781 226.844 71.793H223.258C223.258 72.4609 223.363 73.1641 223.609 73.9375C223.855 74.7109 224.242 75.4844 224.77 76.2578C225.297 77.0312 226.105 77.6992 227.195 78.1914C228.25 78.7188 229.516 78.9648 230.957 78.9648C234.754 78.9648 237.074 77.6289 237.988 74.9219C238.199 74.3242 238.305 73.5859 238.305 72.707C238.305 72.3906 238.27 72.0742 238.234 71.793C238.199 71.5117 238.059 71.0547 237.848 70.457C237.637 69.8945 237.285 69.3672 236.828 68.875C236.371 68.3828 235.598 67.8906 234.543 67.3281C233.488 66.8008 232.188 66.4141 230.676 66.2031L230.359 66.1328C228.672 65.8516 227.863 65.2891 227.863 64.4805C227.863 63.8477 228.074 63.2852 228.531 62.7578C228.988 62.2656 229.797 61.9844 230.957 61.9844C232.785 61.9844 233.98 62.793 234.543 64.4102L238.059 63.4258C237.742 62.2305 237.004 61.0703 235.809 59.9453C234.613 58.8203 232.996 58.2227 230.957 58.2227ZM256.973 70.3867C256.445 71.8633 255.602 73.0586 254.441 73.9023C253.281 74.7812 251.98 75.2031 250.504 75.2031C248.184 75.2734 246.32 74.2539 244.949 72.1797C244.809 72.0039 244.844 71.8633 245.055 71.793L260.875 67.6094H260.945C260.945 67.4688 260.805 66.8711 260.559 65.8516C260.418 65.1836 260.137 64.4805 259.68 63.707C259.188 62.9336 258.59 62.125 257.816 61.2461C257.043 60.4023 256.023 59.6641 254.688 59.1016C253.352 58.5391 251.98 58.2578 250.504 58.2578C247.445 58.2578 244.984 59.3125 243.086 61.3516C241.188 63.4258 240.238 65.8164 240.238 68.5586C240.238 71.3711 241.152 73.7969 243.016 75.8711C244.879 77.9805 247.375 79 250.504 79C252.086 79 253.527 78.7188 254.793 78.1211C256.059 77.5586 257.043 76.8203 257.816 75.9766C258.59 75.1328 259.188 74.3242 259.645 73.5508C260.066 72.7773 260.383 72.0391 260.559 71.3359L256.973 70.3867ZM244.105 66.9766C244.598 65.4648 245.477 64.2344 246.672 63.2852C247.867 62.3711 249.168 61.9141 250.574 61.9141C251.207 61.9141 251.77 62.0195 252.262 62.1602C253.879 62.6875 255.145 63.5664 256.059 64.832C256.129 65.0078 256.164 65.0781 256.129 65.0781H256.059L244.176 68.3125C244 68.3828 243.895 68.3828 243.895 68.3125C243.859 68.2773 243.859 68.1719 243.859 67.9961C243.859 67.9258 243.859 67.8203 243.895 67.6797C243.895 67.5391 243.93 67.4336 243.965 67.3281L244.105 66.9766Z" fill="black"/>
</svg>
