<svg version="1.1" viewBox="0.0 0.0 921.8372703412074 606.6876640419947" fill="none" stroke="none" stroke-linecap="square" stroke-miterlimit="10" xmlns:xlink="http://www.w3.org/1999/xlink" xmlns="http://www.w3.org/2000/svg"><clipPath id="p.0"><path d="m0 0l921.8373 0l0 606.6877l-921.8373 0l0 -606.6877z" clip-rule="nonzero"/></clipPath><g clip-path="url(#p.0)"><path fill="#000000" fill-opacity="0.0" d="m0 0l921.8373 0l0 606.6877l-921.8373 0z" fill-rule="evenodd"/><path fill="#cfe2f3" d="m299.80316 18.884514l309.25983 0l0 81.44882l-309.25983 0z" fill-rule="evenodd"/><path stroke="#000000" stroke-width="1.0" stroke-linejoin="round" stroke-linecap="butt" d="m299.80316 18.884514l309.25983 0l0 81.44882l-309.25983 0z" fill-rule="evenodd"/><path fill="#000000" d="m403.49997 52.65142l0 4.875l-0.390625 0q-0.1875 -1.40625 -0.671875 -2.234375q-0.484375 -0.828125 -1.375 -1.3125q-0.890625 -0.5 -1.859375 -0.5q-1.078125 0 -1.796875 0.671875q-0.703125 0.65625 -0.703125 1.5q0 0.640625 0.453125 1.171875q0.640625 0.78125 3.078125 2.078125q1.96875 1.0625 2.6875 1.640625q0.734375 0.5625 1.125 1.328125q0.390625 0.765625 0.390625 1.609375q0 1.609375 -1.25 2.78125q-1.234375 1.15625 -3.203125 1.15625q-0.609375 0 -1.15625 -0.09375q-0.3125 -0.0625 -1.328125 -0.390625q-1.015625 -0.328125 -1.296875 -0.328125q-0.25 0 -0.40625 0.15625q-0.15625 0.15625 -0.21875 0.65625l-0.390625 0l0 -4.84375l0.390625 0q0.265625 1.515625 0.71875 2.28125q0.46875 0.75 1.40625 1.25q0.9375 0.5 2.0625 0.5q1.3125 0 2.0625 -0.6875q0.75 -0.6875 0.75 -1.625q0 -0.53125 -0.28125 -1.0625q-0.28125 -0.53125 -0.890625 -0.984375q-0.40625 -0.3125 -2.21875 -1.328125q-1.8125 -1.015625 -2.578125 -1.609375q-0.765625 -0.609375 -1.171875 -1.34375q-0.390625 -0.734375 -0.390625 -1.59375q0 -1.53125 1.171875 -2.625q1.171875 -1.09375 2.96875 -1.09375q1.125 0 2.390625 0.546875q0.578125 0.265625 0.8125 0.265625q0.28125 0 0.453125 -0.15625q0.171875 -0.171875 0.265625 -0.65625l0.390625 0zm10.846069 10.8125q-0.375 1.890625 -1.5 2.90625q-1.125 1.015625 -2.5 1.015625q-1.625 0 -2.828125 -1.359375q-1.203125 -1.375 -1.203125 -3.703125q0 -2.25 1.328125 -3.65625q1.34375 -1.40625 3.21875 -1.40625q1.40625 0 2.3125 0.75q0.90625 0.75 0.90625 1.546875q0 0.390625 -0.265625 0.640625q-0.25 0.25 -0.703125 0.25q-0.609375 0 -0.921875 -0.40625q-0.1875 -0.21875 -0.25 -0.828125q-0.046875 -0.609375 -0.40625 -0.9375q-0.375 -0.3125 -1.015625 -0.3125q-1.046875 0 -1.671875 0.765625q-0.84375 1.03125 -0.84375 2.703125q0 1.703125 0.828125 3.015625q0.84375 1.3125 2.265625 1.3125q1.03125 0 1.84375 -0.703125q0.5625 -0.484375 1.109375 -1.734375l0.296875 0.140625zm6.0289307 -6.203125q2.171875 0 3.484375 1.65625q1.109375 1.40625 1.109375 3.21875q0 1.28125 -0.609375 2.59375q-0.609375 1.3125 -1.6875 1.984375q-1.078125 0.671875 -2.40625 0.671875q-2.15625 0 -3.421875 -1.71875q-1.078125 -1.453125 -1.078125 -3.25q0 -1.3125 0.640625 -2.609375q0.65625 -1.296875 1.71875 -1.921875q1.0625 -0.625 2.25 -0.625zm-0.3125 0.6875q-0.5625 0 -1.125 0.328125q-0.546875 0.328125 -0.890625 1.15625q-0.34375 0.8125 -0.34375 2.109375q0 2.078125 0.828125 3.59375q0.828125 1.5 2.1875 1.5q1.0 0 1.65625 -0.828125q0.65625 -0.828125 0.65625 -2.859375q0 -2.546875 -1.09375 -4.0q-0.734375 -1.0 -1.875 -1.0zm14.6796875 -0.40625l0 5.78125q0 1.65625 0.078125 2.03125q0.078125 0.375 0.25 0.515625q0.171875 0.140625 0.40625 0.140625q0.3125 0 0.71875 -0.171875l0.15625 0.359375l-2.859375 1.1875l-0.46875 0l0 -2.03125q-1.234375 1.34375 -1.875 1.6875q-0.640625 0.34375 -1.359375 0.34375q-0.8125 0 -1.40625 -0.46875q-0.578125 -0.46875 -0.8125 -1.1875q-0.21875 -0.734375 -0.21875 -2.0625l0 -4.265625q0 -0.671875 -0.15625 -0.9375q-0.140625 -0.265625 -0.4375 -0.40625q-0.28125 -0.140625 -1.03125 -0.125l0 -0.390625l3.34375 0l0 6.390625q0 1.328125 0.46875 1.75q0.46875 0.421875 1.125 0.421875q0.4375 0 1.0 -0.28125q0.578125 -0.28125 1.359375 -1.078125l0 -5.40625q0 -0.8125 -0.296875 -1.09375q-0.296875 -0.296875 -1.234375 -0.3125l0 -0.390625l3.25 0zm5.0703125 -3.125l0 3.125l2.234375 0l0 0.734375l-2.234375 0l0 6.1875q0 0.921875 0.265625 1.25q0.265625 0.328125 0.6875 0.328125q0.34375 0 0.65625 -0.21875q0.328125 -0.21875 0.5 -0.625l0.40625 0q-0.359375 1.015625 -1.03125 1.53125q-0.65625 0.515625 -1.375 0.515625q-0.46875 0 -0.9375 -0.265625q-0.453125 -0.265625 -0.671875 -0.75q-0.21875 -0.5 -0.21875 -1.53125l0 -6.421875l-1.515625 0l0 -0.34375q0.578125 -0.234375 1.171875 -0.78125q0.609375 -0.546875 1.078125 -1.28125q0.234375 -0.40625 0.65625 -1.453125l0.328125 0zm5.581909 -2.140625q0.4375 0 0.734375 0.3125q0.3125 0.3125 0.3125 0.75q0 0.4375 -0.3125 0.75q-0.296875 0.3125 -0.734375 0.3125q-0.4375 0 -0.75 -0.3125q-0.3125 -0.3125 -0.3125 -0.75q0 -0.4375 0.296875 -0.75q0.3125 -0.3125 0.765625 -0.3125zm0.859375 4.984375l0 7.671875q0 0.890625 0.125 1.1875q0.140625 0.296875 0.390625 0.453125q0.265625 0.140625 0.9375 0.140625l0 0.375l-4.640625 0l0 -0.375q0.703125 0 0.9375 -0.125q0.25 -0.140625 0.390625 -0.453125q0.140625 -0.3125 0.140625 -1.203125l0 -3.671875q0 -1.5625 -0.09375 -2.015625q-0.078125 -0.328125 -0.234375 -0.453125q-0.15625 -0.140625 -0.421875 -0.140625q-0.296875 0 -0.71875 0.15625l-0.140625 -0.375l2.875 -1.171875l0.453125 0zm5.4256287 2.03125q1.671875 -2.03125 3.1875 -2.03125q0.78125 0 1.34375 0.390625q0.5625 0.390625 0.90625 1.296875q0.21875 0.625 0.21875 1.90625l0 4.078125q0 0.90625 0.15625 1.234375q0.109375 0.25 0.359375 0.40625q0.265625 0.140625 0.953125 0.140625l0 0.375l-4.71875 0l0 -0.375l0.1875 0q0.671875 0 0.9375 -0.203125q0.265625 -0.203125 0.375 -0.59375q0.03125 -0.15625 0.03125 -0.984375l0 -3.90625q0 -1.296875 -0.34375 -1.890625q-0.328125 -0.59375 -1.125 -0.59375q-1.25 0 -2.46875 1.359375l0 5.03125q0 0.96875 0.109375 1.203125q0.140625 0.296875 0.390625 0.4375q0.265625 0.140625 1.046875 0.140625l0 0.375l-4.71875 0l0 -0.375l0.203125 0q0.734375 0 0.984375 -0.359375q0.265625 -0.375 0.265625 -1.421875l0 -3.546875q0 -1.71875 -0.078125 -2.09375q-0.078125 -0.375 -0.25 -0.5q-0.15625 -0.140625 -0.421875 -0.140625q-0.296875 0 -0.703125 0.15625l-0.15625 -0.375l2.875 -1.171875l0.453125 0l0 2.03125zm10.4296875 4.3125q-0.875 -0.421875 -1.34375 -1.1875q-0.46875 -0.765625 -0.46875 -1.6875q0 -1.421875 1.0625 -2.4375q1.078125 -1.03125 2.734375 -1.03125q1.375 0 2.375 0.671875l2.015625 0q0.453125 0 0.515625 0.03125q0.078125 0.015625 0.109375 0.078125q0.0625 0.09375 0.0625 0.34375q0 0.265625 -0.046875 0.375q-0.03125 0.046875 -0.109375 0.078125q-0.078125 0.03125 -0.53125 0.03125l-1.234375 0q0.578125 0.75 0.578125 1.921875q0 1.328125 -1.03125 2.28125q-1.015625 0.9375 -2.734375 0.9375q-0.703125 0 -1.4375 -0.203125q-0.46875 0.390625 -0.625 0.6875q-0.15625 0.296875 -0.15625 0.515625q0 0.171875 0.171875 0.34375q0.171875 0.15625 0.671875 0.234375q0.28125 0.046875 1.453125 0.078125q2.140625 0.046875 2.78125 0.140625q0.96875 0.140625 1.546875 0.71875q0.578125 0.578125 0.578125 1.4375q0 1.171875 -1.109375 2.203125q-1.625 1.53125 -4.234375 1.53125q-2.015625 0 -3.390625 -0.90625q-0.78125 -0.53125 -0.78125 -1.09375q0 -0.25 0.109375 -0.5q0.171875 -0.375 0.734375 -1.0625q0.0625 -0.09375 1.0625 -1.125q-0.546875 -0.328125 -0.78125 -0.578125q-0.21875 -0.265625 -0.21875 -0.578125q0 -0.375 0.296875 -0.859375q0.296875 -0.484375 1.375 -1.390625zm1.8125 -5.84375q-0.765625 0 -1.296875 0.625q-0.515625 0.609375 -0.515625 1.875q0 1.65625 0.703125 2.5625q0.546875 0.6875 1.375 0.6875q0.796875 0 1.296875 -0.59375q0.515625 -0.59375 0.515625 -1.875q0 -1.65625 -0.71875 -2.59375q-0.53125 -0.6875 -1.359375 -0.6875zm-1.921875 9.328125q-0.484375 0.53125 -0.734375 0.984375q-0.25 0.46875 -0.25 0.84375q0 0.5 0.609375 0.875q1.03125 0.65625 3.0 0.65625q1.875 0 2.765625 -0.671875q0.890625 -0.65625 0.890625 -1.40625q0 -0.546875 -0.53125 -0.765625q-0.53125 -0.234375 -2.140625 -0.28125q-2.34375 -0.0625 -3.609375 -0.234375zm13.246094 0l0 -0.390625l0.53125 0q0.90625 0 1.28125 -0.5625q0.21875 -0.34375 0.21875 -1.546875l0 -9.125q0 -1.3125 -0.28125 -1.65625q-0.40625 -0.453125 -1.21875 -0.453125l-0.53125 0l0 -0.390625l5.75 0q3.171875 0 4.8125 0.71875q1.65625 0.71875 2.65625 2.40625q1.015625 1.671875 1.015625 3.859375q0 2.953125 -1.796875 4.9375q-2.015625 2.203125 -6.125 2.203125l-6.3125 0zm4.03125 -1.015625q1.328125 0.28125 2.21875 0.28125q2.421875 0 4.015625 -1.6875q1.59375 -1.703125 1.59375 -4.609375q0 -2.921875 -1.59375 -4.609375q-1.59375 -1.6875 -4.09375 -1.6875q-0.9375 0 -2.140625 0.296875l0 12.015625zm17.089996 -0.359375q-1.46875 1.140625 -1.84375 1.3125q-0.5625 0.265625 -1.203125 0.265625q-0.984375 0 -1.625 -0.671875q-0.640625 -0.6875 -0.640625 -1.796875q0 -0.6875 0.3125 -1.203125q0.421875 -0.703125 1.46875 -1.328125q1.0625 -0.625 3.53125 -1.53125l0 -0.375q0 -1.421875 -0.453125 -1.953125q-0.453125 -0.53125 -1.328125 -0.53125q-0.65625 0 -1.03125 0.359375q-0.40625 0.34375 -0.40625 0.8125l0.03125 0.59375q0 0.484375 -0.25 0.75q-0.25 0.25 -0.640625 0.25q-0.390625 0 -0.640625 -0.265625q-0.234375 -0.265625 -0.234375 -0.734375q0 -0.90625 0.90625 -1.65625q0.921875 -0.75 2.578125 -0.75q1.28125 0 2.09375 0.4375q0.609375 0.3125 0.90625 1.0q0.1875 0.453125 0.1875 1.84375l0 3.234375q0 1.359375 0.046875 1.671875q0.046875 0.3125 0.171875 0.421875q0.125 0.09375 0.28125 0.09375q0.15625 0 0.28125 -0.078125q0.21875 -0.125 0.84375 -0.75l0 0.578125q-1.15625 1.5625 -2.21875 1.5625q-0.515625 0 -0.828125 -0.34375q-0.296875 -0.359375 -0.296875 -1.21875zm0 -0.671875l0 -3.640625q-1.578125 0.625 -2.03125 0.890625q-0.828125 0.453125 -1.1875 0.953125q-0.34375 0.5 -0.34375 1.09375q0 0.75 0.4375 1.25q0.453125 0.484375 1.03125 0.484375q0.796875 0 2.09375 -1.03125zm6.825836 -10.625l0 3.125l2.234375 0l0 0.734375l-2.234375 0l0 6.1875q0 0.921875 0.265625 1.25q0.265625 0.328125 0.6875 0.328125q0.34375 0 0.65625 -0.21875q0.328125 -0.21875 0.5 -0.625l0.40625 0q-0.359375 1.015625 -1.03125 1.53125q-0.65625 0.515625 -1.375 0.515625q-0.46875 0 -0.9375 -0.265625q-0.453125 -0.265625 -0.671875 -0.75q-0.21875 -0.5 -0.21875 -1.53125l0 -6.421875l-1.515625 0l0 -0.34375q0.578125 -0.234375 1.171875 -0.78125q0.609375 -0.546875 1.078125 -1.28125q0.234375 -0.40625 0.65625 -1.453125l0.328125 0zm8.566254 11.296875q-1.46875 1.140625 -1.84375 1.3125q-0.5625 0.265625 -1.203125 0.265625q-0.984375 0 -1.625 -0.671875q-0.640625 -0.6875 -0.640625 -1.796875q0 -0.6875 0.3125 -1.203125q0.421875 -0.703125 1.46875 -1.328125q1.0625 -0.625 3.53125 -1.53125l0 -0.375q0 -1.421875 -0.453125 -1.953125q-0.453125 -0.53125 -1.328125 -0.53125q-0.65625 0 -1.03125 0.359375q-0.40625 0.34375 -0.40625 0.8125l0.03125 0.59375q0 0.484375 -0.25 0.75q-0.25 0.25 -0.640625 0.25q-0.390625 0 -0.640625 -0.265625q-0.234375 -0.265625 -0.234375 -0.734375q0 -0.90625 0.90625 -1.65625q0.921875 -0.75 2.578125 -0.75q1.28125 0 2.0937805 0.4375q0.609375 0.3125 0.90625 1.0q0.1875 0.453125 0.1875 1.84375l0 3.234375q0 1.359375 0.046875 1.671875q0.046875 0.3125 0.171875 0.421875q0.125 0.09375 0.28125 0.09375q0.15625 0 0.28125 -0.078125q0.21875 -0.125 0.84375 -0.75l0 0.578125q-1.15625 1.5625 -2.21875 1.5625q-0.515625 0 -0.828125 -0.34375q-0.29690552 -0.359375 -0.29690552 -1.21875zm0 -0.671875l0 -3.640625q-1.578125 0.625 -2.03125 0.890625q-0.828125 0.453125 -1.1875 0.953125q-0.34375 0.5 -0.34375 1.09375q0 0.75 0.4375 1.25q0.453125 0.484375 1.03125 0.484375q0.796875 0 2.09375 -1.03125z" fill-rule="nonzero"/><path fill="#cfe2f3" d="m32.524933 156.45932l184.66142 0l0 63.08661l-184.66142 0z" fill-rule="evenodd"/><path stroke="#000000" stroke-width="1.0" stroke-linejoin="round" stroke-linecap="butt" d="m32.524933 156.45932l184.66142 0l0 63.08661l-184.66142 0z" fill-rule="evenodd"/><path fill="#000000" d="m108.50132 188.87325l0 4.109375q0 1.328125 0.296875 1.65625q0.390625 0.453125 1.1875 0.453125l0.546875 0l0 0.390625l-6.046875 0l0 -0.390625l0.53125 0q0.890625 0 1.28125 -0.578125q0.203125 -0.328125 0.203125 -1.53125l0 -9.125q0 -1.328125 -0.28125 -1.65625q-0.40625 -0.453125 -1.203125 -0.453125l-0.53125 0l0 -0.390625l5.171875 0q1.890625 0 2.984375 0.390625q1.09375 0.390625 1.84375 1.328125q0.75 0.921875 0.75 2.1875q0 1.734375 -1.140625 2.8125q-1.140625 1.078125 -3.21875 1.078125q-0.515625 0 -1.109375 -0.0625q-0.59375 -0.078125 -1.265625 -0.21875zm0 -0.59375q0.546875 0.09375 0.96875 0.15625q0.4375 0.046875 0.734375 0.046875q1.09375 0 1.875 -0.828125q0.78125 -0.84375 0.78125 -2.1875q0 -0.90625 -0.375 -1.6875q-0.375 -0.796875 -1.0625 -1.1875q-0.6875 -0.390625 -1.5625 -0.390625q-0.53125 0 -1.359375 0.203125l0 5.875zm13.564819 5.828125q-1.46875 1.140625 -1.84375 1.3125q-0.5625 0.265625 -1.203125 0.265625q-0.984375 0 -1.625 -0.671875q-0.640625 -0.6875 -0.640625 -1.796875q0 -0.6875 0.3125 -1.203125q0.421875 -0.703125 1.46875 -1.328125q1.0625 -0.625 3.53125 -1.53125l0 -0.375q0 -1.421875 -0.453125 -1.953125q-0.453125 -0.53125 -1.328125 -0.53125q-0.65625 0 -1.03125 0.359375q-0.40625 0.34375 -0.40625 0.8125l0.03125 0.59375q0 0.484375 -0.25 0.75q-0.25 0.25 -0.640625 0.25q-0.390625 0 -0.640625 -0.265625q-0.234375 -0.265625 -0.234375 -0.734375q0 -0.90625 0.90625 -1.65625q0.921875 -0.75 2.578125 -0.75q1.28125 0 2.09375 0.4375q0.609375 0.3125 0.90625 1.0q0.1875 0.453125 0.1875 1.84375l0 3.234375q0 1.359375 0.046875 1.671875q0.046875 0.3125 0.171875 0.421875q0.125 0.09375 0.28125 0.09375q0.15625 0 0.28125 -0.078125q0.21875 -0.125 0.84375 -0.75l0 0.578125q-1.15625 1.5625 -2.21875 1.5625q-0.515625 0 -0.828125 -0.34375q-0.296875 -0.359375 -0.296875 -1.21875zm0 -0.671875l0 -3.640625q-1.578125 0.625 -2.03125 0.890625q-0.828125 0.453125 -1.1875 0.953125q-0.34375 0.5 -0.34375 1.09375q0 0.75 0.4375 1.25q0.453125 0.484375 1.03125 0.484375q0.796875 0 2.09375 -1.03125zm6.6070786 -1.4375q-0.8750076 -0.421875 -1.3437576 -1.1875q-0.46875 -0.765625 -0.46875 -1.6875q0 -1.421875 1.0625 -2.4375q1.0781326 -1.03125 2.7343826 -1.03125q1.375 0 2.375 0.671875l2.015625 0q0.453125 0 0.515625 0.03125q0.078125 0.015625 0.109375 0.078125q0.0625 0.09375 0.0625 0.34375q0 0.265625 -0.046875 0.375q-0.03125 0.046875 -0.109375 0.078125q-0.078125 0.03125 -0.53125 0.03125l-1.234375 0q0.578125 0.75 0.578125 1.921875q0 1.328125 -1.03125 2.28125q-1.015625 0.9375 -2.734375 0.9375q-0.703125 0 -1.4375 -0.203125q-0.46875 0.390625 -0.625 0.6875q-0.15625 0.296875 -0.15625 0.515625q0 0.171875 0.171875 0.34375q0.171875 0.15625 0.671875 0.234375q0.28125 0.046875 1.453125 0.078125q2.140625 0.046875 2.78125 0.140625q0.96875 0.140625 1.546875 0.71875q0.578125 0.578125 0.578125 1.4375q0 1.171875 -1.109375 2.203125q-1.625 1.53125 -4.234375 1.53125q-2.015625 0 -3.3906326 -0.90625q-0.78125 -0.53125 -0.78125 -1.09375q0 -0.25 0.109375 -0.5q0.171875 -0.375 0.734375 -1.0625q0.0625 -0.09375 1.0625076 -1.125q-0.5468826 -0.328125 -0.7812576 -0.578125q-0.21875 -0.265625 -0.21875 -0.578125q0 -0.375 0.296875 -0.859375q0.296875 -0.484375 1.3750076 -1.390625zm1.8125 -5.84375q-0.765625 0 -1.296875 0.625q-0.515625 0.609375 -0.515625 1.875q0 1.65625 0.703125 2.5625q0.546875 0.6875 1.375 0.6875q0.796875 0 1.296875 -0.59375q0.515625 -0.59375 0.515625 -1.875q0 -1.65625 -0.71875 -2.59375q-0.53125 -0.6875 -1.359375 -0.6875zm-1.921875 9.328125q-0.484375 0.53125 -0.7343826 0.984375q-0.25 0.46875 -0.25 0.84375q0 0.5 0.6093826 0.875q1.03125 0.65625 3.0 0.65625q1.875 0 2.765625 -0.671875q0.890625 -0.65625 0.890625 -1.40625q0 -0.546875 -0.53125 -0.765625q-0.53125 -0.234375 -2.140625 -0.28125q-2.34375 -0.0625 -3.609375 -0.234375zm9.8203125 -5.953125q0 2.125 1.03125 3.34375q1.046875 1.203125 2.453125 1.203125q0.9375 0 1.625 -0.515625q0.703125 -0.515625 1.171875 -1.765625l0.3125 0.203125q-0.21875 1.4375 -1.265625 2.609375q-1.046875 1.171875 -2.640625 1.171875q-1.71875 0 -2.9375 -1.34375q-1.21875 -1.34375 -1.21875 -3.59375q0 -2.453125 1.25 -3.8125q1.25 -1.375 3.15625 -1.375q1.59375 0 2.625 1.0625q1.03125 1.046875 1.03125 2.8125l-6.59375 0zm0 -0.59375l4.421875 0q-0.046875 -0.921875 -0.21875 -1.296875q-0.265625 -0.578125 -0.78125 -0.90625q-0.515625 -0.34375 -1.078125 -0.34375q-0.859375 0 -1.546875 0.671875q-0.671875 0.671875 -0.796875 1.875z" fill-rule="nonzero"/><path fill="#cfe2f3" d="m260.98425 156.45932l184.6614 0l0 63.08661l-184.6614 0z" fill-rule="evenodd"/><path stroke="#000000" stroke-width="1.0" stroke-linejoin="round" stroke-linecap="butt" d="m260.98425 156.45932l184.6614 0l0 63.08661l-184.6614 0z" fill-rule="evenodd"/><path fill="#000000" d="m336.96063 188.87325l0 4.109375q0 1.328125 0.296875 1.65625q0.390625 0.453125 1.1875 0.453125l0.546875 0l0 0.390625l-6.046875 0l0 -0.390625l0.53125 0q0.890625 0 1.28125 -0.578125q0.203125 -0.328125 0.203125 -1.53125l0 -9.125q0 -1.328125 -0.28125 -1.65625q-0.40625 -0.453125 -1.203125 -0.453125l-0.53125 0l0 -0.390625l5.171875 0q1.890625 0 2.984375 0.390625q1.09375 0.390625 1.84375 1.328125q0.75 0.921875 0.75 2.1875q0 1.734375 -1.140625 2.8125q-1.140625 1.078125 -3.21875 1.078125q-0.515625 0 -1.109375 -0.0625q-0.59375 -0.078125 -1.265625 -0.21875zm0 -0.59375q0.546875 0.09375 0.96875 0.15625q0.4375 0.046875 0.734375 0.046875q1.09375 0 1.875 -0.828125q0.78125 -0.84375 0.78125 -2.1875q0 -0.90625 -0.375 -1.6875q-0.375 -0.796875 -1.0625 -1.1875q-0.6875 -0.390625 -1.5625 -0.390625q-0.53125 0 -1.359375 0.203125l0 5.875zm13.564819 5.828125q-1.46875 1.140625 -1.84375 1.3125q-0.5625 0.265625 -1.203125 0.265625q-0.984375 0 -1.625 -0.671875q-0.640625 -0.6875 -0.640625 -1.796875q0 -0.6875 0.3125 -1.203125q0.421875 -0.703125 1.46875 -1.328125q1.0625 -0.625 3.53125 -1.53125l0 -0.375q0 -1.421875 -0.453125 -1.953125q-0.453125 -0.53125 -1.328125 -0.53125q-0.65625 0 -1.03125 0.359375q-0.40625 0.34375 -0.40625 0.8125l0.03125 0.59375q0 0.484375 -0.25 0.75q-0.25 0.25 -0.640625 0.25q-0.390625 0 -0.640625 -0.265625q-0.234375 -0.265625 -0.234375 -0.734375q0 -0.90625 0.90625 -1.65625q0.921875 -0.75 2.578125 -0.75q1.28125 0 2.09375 0.4375q0.609375 0.3125 0.90625 1.0q0.1875 0.453125 0.1875 1.84375l0 3.234375q0 1.359375 0.046875 1.671875q0.046875 0.3125 0.171875 0.421875q0.125 0.09375 0.28125 0.09375q0.15625 0 0.28125 -0.078125q0.21875 -0.125 0.84375 -0.75l0 0.578125q-1.15625 1.5625 -2.21875 1.5625q-0.515625 0 -0.828125 -0.34375q-0.296875 -0.359375 -0.296875 -1.21875zm0 -0.671875l0 -3.640625q-1.578125 0.625 -2.03125 0.890625q-0.828125 0.453125 -1.1875 0.953125q-0.34375 0.5 -0.34375 1.09375q0 0.75 0.4375 1.25q0.453125 0.484375 1.03125 0.484375q0.796875 0 2.09375 -1.03125zm6.607086 -1.4375q-0.875 -0.421875 -1.34375 -1.1875q-0.46875 -0.765625 -0.46875 -1.6875q0 -1.421875 1.0625 -2.4375q1.078125 -1.03125 2.734375 -1.03125q1.375 0 2.375 0.671875l2.015625 0q0.453125 0 0.515625 0.03125q0.078125 0.015625 0.109375 0.078125q0.0625 0.09375 0.0625 0.34375q0 0.265625 -0.046875 0.375q-0.03125 0.046875 -0.109375 0.078125q-0.078125 0.03125 -0.53125 0.03125l-1.234375 0q0.578125 0.75 0.578125 1.921875q0 1.328125 -1.03125 2.28125q-1.015625 0.9375 -2.734375 0.9375q-0.703125 0 -1.4375 -0.203125q-0.46875 0.390625 -0.625 0.6875q-0.15625 0.296875 -0.15625 0.515625q0 0.171875 0.171875 0.34375q0.171875 0.15625 0.671875 0.234375q0.28125 0.046875 1.453125 0.078125q2.140625 0.046875 2.78125 0.140625q0.96875 0.140625 1.546875 0.71875q0.578125 0.578125 0.578125 1.4375q0 1.171875 -1.109375 2.203125q-1.625 1.53125 -4.234375 1.53125q-2.015625 0 -3.390625 -0.90625q-0.78125 -0.53125 -0.78125 -1.09375q0 -0.25 0.109375 -0.5q0.171875 -0.375 0.734375 -1.0625q0.0625 -0.09375 1.0625 -1.125q-0.546875 -0.328125 -0.78125 -0.578125q-0.21875 -0.265625 -0.21875 -0.578125q0 -0.375 0.296875 -0.859375q0.296875 -0.484375 1.375 -1.390625zm1.8125 -5.84375q-0.765625 0 -1.296875 0.625q-0.515625 0.609375 -0.515625 1.875q0 1.65625 0.703125 2.5625q0.546875 0.6875 1.375 0.6875q0.796875 0 1.296875 -0.59375q0.515625 -0.59375 0.515625 -1.875q0 -1.65625 -0.71875 -2.59375q-0.53125 -0.6875 -1.359375 -0.6875zm-1.921875 9.328125q-0.484375 0.53125 -0.734375 0.984375q-0.25 0.46875 -0.25 0.84375q0 0.5 0.609375 0.875q1.03125 0.65625 3.0 0.65625q1.875 0 2.765625 -0.671875q0.890625 -0.65625 0.890625 -1.40625q0 -0.546875 -0.53125 -0.765625q-0.53125 -0.234375 -2.140625 -0.28125q-2.34375 -0.0625 -3.609375 -0.234375zm9.8203125 -5.953125q0 2.125 1.03125 3.34375q1.046875 1.203125 2.453125 1.203125q0.9375 0 1.625 -0.515625q0.703125 -0.515625 1.171875 -1.765625l0.3125 0.203125q-0.21875 1.4375 -1.265625 2.609375q-1.046875 1.171875 -2.640625 1.171875q-1.71875 0 -2.9375 -1.34375q-1.21875 -1.34375 -1.21875 -3.59375q0 -2.453125 1.25 -3.8125q1.25 -1.375 3.15625 -1.375q1.59375 0 2.625 1.0625q1.03125 1.046875 1.03125 2.8125l-6.59375 0zm0 -0.59375l4.421875 0q-0.046875 -0.921875 -0.21875 -1.296875q-0.265625 -0.578125 -0.78125 -0.90625q-0.515625 -0.34375 -1.078125 -0.34375q-0.859375 0 -1.546875 0.671875q-0.671875 0.671875 -0.796875 1.875z" fill-rule="nonzero"/><path fill="#cfe2f3" d="m489.44357 156.45932l184.6614 0l0 63.08661l-184.6614 0z" fill-rule="evenodd"/><path stroke="#000000" stroke-width="1.0" stroke-linejoin="round" stroke-linecap="butt" d="m489.44357 156.45932l184.6614 0l0 63.08661l-184.6614 0z" fill-rule="evenodd"/><path fill="#000000" d="m565.42 188.87325l0 4.109375q0 1.328125 0.296875 1.65625q0.390625 0.453125 1.1875 0.453125l0.546875 0l0 0.390625l-6.046875 0l0 -0.390625l0.53125 0q0.890625 0 1.28125 -0.578125q0.203125 -0.328125 0.203125 -1.53125l0 -9.125q0 -1.328125 -0.28125 -1.65625q-0.40625 -0.453125 -1.203125 -0.453125l-0.53125 0l0 -0.390625l5.171875 0q1.890625 0 2.984375 0.390625q1.09375 0.390625 1.84375 1.328125q0.75 0.921875 0.75 2.1875q0 1.734375 -1.140625 2.8125q-1.140625 1.078125 -3.21875 1.078125q-0.515625 0 -1.109375 -0.0625q-0.59375 -0.078125 -1.265625 -0.21875zm0 -0.59375q0.546875 0.09375 0.96875 0.15625q0.4375 0.046875 0.734375 0.046875q1.09375 0 1.875 -0.828125q0.78125 -0.84375 0.78125 -2.1875q0 -0.90625 -0.375 -1.6875q-0.375 -0.796875 -1.0625 -1.1875q-0.6875 -0.390625 -1.5625 -0.390625q-0.53125 0 -1.359375 0.203125l0 5.875zm13.564819 5.828125q-1.46875 1.140625 -1.84375 1.3125q-0.5625 0.265625 -1.203125 0.265625q-0.984375 0 -1.625 -0.671875q-0.640625 -0.6875 -0.640625 -1.796875q0 -0.6875 0.3125 -1.203125q0.421875 -0.703125 1.46875 -1.328125q1.0625 -0.625 3.53125 -1.53125l0 -0.375q0 -1.421875 -0.453125 -1.953125q-0.453125 -0.53125 -1.328125 -0.53125q-0.65625 0 -1.03125 0.359375q-0.40625 0.34375 -0.40625 0.8125l0.03125 0.59375q0 0.484375 -0.25 0.75q-0.25 0.25 -0.640625 0.25q-0.390625 0 -0.640625 -0.265625q-0.234375 -0.265625 -0.234375 -0.734375q0 -0.90625 0.90625 -1.65625q0.921875 -0.75 2.578125 -0.75q1.28125 0 2.09375 0.4375q0.609375 0.3125 0.90625 1.0q0.1875 0.453125 0.1875 1.84375l0 3.234375q0 1.359375 0.046875 1.671875q0.046875 0.3125 0.171875 0.421875q0.125 0.09375 0.28125 0.09375q0.15625 0 0.28125 -0.078125q0.21875 -0.125 0.84375 -0.75l0 0.578125q-1.15625 1.5625 -2.21875 1.5625q-0.515625 0 -0.828125 -0.34375q-0.296875 -0.359375 -0.296875 -1.21875zm0 -0.671875l0 -3.640625q-1.578125 0.625 -2.03125 0.890625q-0.828125 0.453125 -1.1875 0.953125q-0.34375 0.5 -0.34375 1.09375q0 0.75 0.4375 1.25q0.453125 0.484375 1.03125 0.484375q0.796875 0 2.09375 -1.03125zm6.6070557 -1.4375q-0.875 -0.421875 -1.34375 -1.1875q-0.46875 -0.765625 -0.46875 -1.6875q0 -1.421875 1.0625 -2.4375q1.078125 -1.03125 2.734375 -1.03125q1.375 0 2.375 0.671875l2.015625 0q0.453125 0 0.515625 0.03125q0.078125 0.015625 0.109375 0.078125q0.0625 0.09375 0.0625 0.34375q0 0.265625 -0.046875 0.375q-0.03125 0.046875 -0.109375 0.078125q-0.078125 0.03125 -0.53125 0.03125l-1.234375 0q0.578125 0.75 0.578125 1.921875q0 1.328125 -1.03125 2.28125q-1.015625 0.9375 -2.734375 0.9375q-0.703125 0 -1.4375 -0.203125q-0.46875 0.390625 -0.625 0.6875q-0.15625 0.296875 -0.15625 0.515625q0 0.171875 0.171875 0.34375q0.171875 0.15625 0.671875 0.234375q0.28125 0.046875 1.453125 0.078125q2.140625 0.046875 2.78125 0.140625q0.96875 0.140625 1.546875 0.71875q0.578125 0.578125 0.578125 1.4375q0 1.171875 -1.109375 2.203125q-1.625 1.53125 -4.234375 1.53125q-2.015625 0 -3.390625 -0.90625q-0.78125 -0.53125 -0.78125 -1.09375q0 -0.25 0.109375 -0.5q0.171875 -0.375 0.734375 -1.0625q0.0625 -0.09375 1.0625 -1.125q-0.546875 -0.328125 -0.78125 -0.578125q-0.21875 -0.265625 -0.21875 -0.578125q0 -0.375 0.296875 -0.859375q0.296875 -0.484375 1.375 -1.390625zm1.8125 -5.84375q-0.765625 0 -1.296875 0.625q-0.515625 0.609375 -0.515625 1.875q0 1.65625 0.703125 2.5625q0.546875 0.6875 1.375 0.6875q0.796875 0 1.296875 -0.59375q0.515625 -0.59375 0.515625 -1.875q0 -1.65625 -0.71875 -2.59375q-0.53125 -0.6875 -1.359375 -0.6875zm-1.921875 9.328125q-0.484375 0.53125 -0.734375 0.984375q-0.25 0.46875 -0.25 0.84375q0 0.5 0.609375 0.875q1.03125 0.65625 3.0 0.65625q1.875 0 2.765625 -0.671875q0.890625 -0.65625 0.890625 -1.40625q0 -0.546875 -0.53125 -0.765625q-0.53125 -0.234375 -2.140625 -0.28125q-2.34375 -0.0625 -3.609375 -0.234375zm9.8203125 -5.953125q0 2.125 1.03125 3.34375q1.046875 1.203125 2.453125 1.203125q0.9375 0 1.625 -0.515625q0.703125 -0.515625 1.171875 -1.765625l0.3125 0.203125q-0.21875 1.4375 -1.265625 2.609375q-1.046875 1.171875 -2.640625 1.171875q-1.71875 0 -2.9375 -1.34375q-1.21875 -1.34375 -1.21875 -3.59375q0 -2.453125 1.25 -3.8125q1.25 -1.375 3.15625 -1.375q1.59375 0 2.625 1.0625q1.03125 1.046875 1.03125 2.8125l-6.59375 0zm0 -0.59375l4.421875 0q-0.046875 -0.921875 -0.21875 -1.296875q-0.265625 -0.578125 -0.78125 -0.90625q-0.515625 -0.34375 -1.078125 -0.34375q-0.859375 0 -1.546875 0.671875q-0.671875 0.671875 -0.796875 1.875z" fill-rule="nonzero"/><path fill="#cfe2f3" d="m717.9029 156.45932l184.66144 0l0 63.08661l-184.66144 0z" fill-rule="evenodd"/><path stroke="#000000" stroke-width="1.0" stroke-linejoin="round" stroke-linecap="butt" d="m717.9029 156.45932l184.66144 0l0 63.08661l-184.66144 0z" fill-rule="evenodd"/><path fill="#000000" d="m793.8793 188.87325l0 4.109375q0 1.328125 0.296875 1.65625q0.390625 0.453125 1.1875 0.453125l0.546875 0l0 0.390625l-6.046875 0l0 -0.390625l0.53125 0q0.890625 0 1.28125 -0.578125q0.203125 -0.328125 0.203125 -1.53125l0 -9.125q0 -1.328125 -0.28125 -1.65625q-0.40625 -0.453125 -1.203125 -0.453125l-0.53125 0l0 -0.390625l5.171875 0q1.890625 0 2.984375 0.390625q1.09375 0.390625 1.84375 1.328125q0.75 0.921875 0.75 2.1875q0 1.734375 -1.140625 2.8125q-1.140625 1.078125 -3.21875 1.078125q-0.515625 0 -1.109375 -0.0625q-0.59375 -0.078125 -1.265625 -0.21875zm0 -0.59375q0.546875 0.09375 0.96875 0.15625q0.4375 0.046875 0.734375 0.046875q1.09375 0 1.875 -0.828125q0.78125 -0.84375 0.78125 -2.1875q0 -0.90625 -0.375 -1.6875q-0.375 -0.796875 -1.0625 -1.1875q-0.6875 -0.390625 -1.5625 -0.390625q-0.53125 0 -1.359375 0.203125l0 5.875zm13.564819 5.828125q-1.46875 1.140625 -1.84375 1.3125q-0.5625 0.265625 -1.203125 0.265625q-0.984375 0 -1.625 -0.671875q-0.640625 -0.6875 -0.640625 -1.796875q0 -0.6875 0.3125 -1.203125q0.421875 -0.703125 1.46875 -1.328125q1.0625 -0.625 3.53125 -1.53125l0 -0.375q0 -1.421875 -0.453125 -1.953125q-0.453125 -0.53125 -1.328125 -0.53125q-0.65625 0 -1.03125 0.359375q-0.40625 0.34375 -0.40625 0.8125l0.03125 0.59375q0 0.484375 -0.25 0.75q-0.25 0.25 -0.640625 0.25q-0.390625 0 -0.640625 -0.265625q-0.234375 -0.265625 -0.234375 -0.734375q0 -0.90625 0.90625 -1.65625q0.921875 -0.75 2.578125 -0.75q1.28125 0 2.09375 0.4375q0.609375 0.3125 0.90625 1.0q0.1875 0.453125 0.1875 1.84375l0 3.234375q0 1.359375 0.046875 1.671875q0.046875 0.3125 0.171875 0.421875q0.125 0.09375 0.28125 0.09375q0.15625 0 0.28125 -0.078125q0.21875 -0.125 0.84375 -0.75l0 0.578125q-1.15625 1.5625 -2.21875 1.5625q-0.515625 0 -0.828125 -0.34375q-0.296875 -0.359375 -0.296875 -1.21875zm0 -0.671875l0 -3.640625q-1.578125 0.625 -2.03125 0.890625q-0.828125 0.453125 -1.1875 0.953125q-0.34375 0.5 -0.34375 1.09375q0 0.75 0.4375 1.25q0.453125 0.484375 1.03125 0.484375q0.796875 0 2.09375 -1.03125zm6.6070557 -1.4375q-0.875 -0.421875 -1.34375 -1.1875q-0.46875 -0.765625 -0.46875 -1.6875q0 -1.421875 1.0625 -2.4375q1.078125 -1.03125 2.734375 -1.03125q1.375 0 2.375 0.671875l2.015625 0q0.453125 0 0.515625 0.03125q0.078125 0.015625 0.109375 0.078125q0.0625 0.09375 0.0625 0.34375q0 0.265625 -0.046875 0.375q-0.03125 0.046875 -0.109375 0.078125q-0.078125 0.03125 -0.53125 0.03125l-1.234375 0q0.578125 0.75 0.578125 1.921875q0 1.328125 -1.03125 2.28125q-1.015625 0.9375 -2.734375 0.9375q-0.703125 0 -1.4375 -0.203125q-0.46875 0.390625 -0.625 0.6875q-0.15625 0.296875 -0.15625 0.515625q0 0.171875 0.171875 0.34375q0.171875 0.15625 0.671875 0.234375q0.28125 0.046875 1.453125 0.078125q2.140625 0.046875 2.78125 0.140625q0.96875 0.140625 1.546875 0.71875q0.578125 0.578125 0.578125 1.4375q0 1.171875 -1.109375 2.203125q-1.625 1.53125 -4.234375 1.53125q-2.015625 0 -3.390625 -0.90625q-0.78125 -0.53125 -0.78125 -1.09375q0 -0.25 0.109375 -0.5q0.171875 -0.375 0.734375 -1.0625q0.0625 -0.09375 1.0625 -1.125q-0.546875 -0.328125 -0.78125 -0.578125q-0.21875 -0.265625 -0.21875 -0.578125q0 -0.375 0.296875 -0.859375q0.296875 -0.484375 1.375 -1.390625zm1.8125 -5.84375q-0.765625 0 -1.296875 0.625q-0.515625 0.609375 -0.515625 1.875q0 1.65625 0.703125 2.5625q0.546875 0.6875 1.375 0.6875q0.796875 0 1.296875 -0.59375q0.515625 -0.59375 0.515625 -1.875q0 -1.65625 -0.71875 -2.59375q-0.53125 -0.6875 -1.359375 -0.6875zm-1.921875 9.328125q-0.484375 0.53125 -0.734375 0.984375q-0.25 0.46875 -0.25 0.84375q0 0.5 0.609375 0.875q1.03125 0.65625 3.0 0.65625q1.875 0 2.765625 -0.671875q0.890625 -0.65625 0.890625 -1.40625q0 -0.546875 -0.53125 -0.765625q-0.53125 -0.234375 -2.140625 -0.28125q-2.34375 -0.0625 -3.609375 -0.234375zm9.8203125 -5.953125q0 2.125 1.03125 3.34375q1.046875 1.203125 2.453125 1.203125q0.9375 0 1.625 -0.515625q0.703125 -0.515625 1.171875 -1.765625l0.3125 0.203125q-0.21875 1.4375 -1.265625 2.609375q-1.046875 1.171875 -2.640625 1.171875q-1.71875 0 -2.9375 -1.34375q-1.21875 -1.34375 -1.21875 -3.59375q0 -2.453125 1.25 -3.8125q1.25 -1.375 3.15625 -1.375q1.59375 0 2.625 1.0625q1.03125 1.046875 1.03125 2.8125l-6.59375 0zm0 -0.59375l4.421875 0q-0.046875 -0.921875 -0.21875 -1.296875q-0.265625 -0.578125 -0.78125 -0.90625q-0.515625 -0.34375 -1.078125 -0.34375q-0.859375 0 -1.546875 0.671875q-0.671875 0.671875 -0.796875 1.875z" fill-rule="nonzero"/><path fill="#000000" fill-opacity="0.0" d="m454.43307 100.333336l-329.5748 56.125984" fill-rule="evenodd"/><path stroke="#000000" stroke-width="1.0" stroke-linejoin="round" stroke-linecap="butt" d="m454.43307 100.333336l-323.65997 55.11869" fill-rule="evenodd"/><path fill="#000000" stroke="#000000" stroke-width="1.0" stroke-linecap="butt" d="m130.49582 153.82375l-4.196396 2.390152l4.7509766 0.86642456z" fill-rule="evenodd"/><path fill="#000000" fill-opacity="0.0" d="m454.43307 100.333336l-101.102356 56.125984" fill-rule="evenodd"/><path stroke="#000000" stroke-width="1.0" stroke-linejoin="round" stroke-linecap="butt" d="m454.43307 100.333336l-95.85651 53.213783" fill-rule="evenodd"/><path fill="#000000" stroke="#000000" stroke-width="1.0" stroke-linecap="butt" d="m357.77487 152.103l-3.1660156 3.646759l4.769409 -0.75849915z" fill-rule="evenodd"/><path fill="#000000" fill-opacity="0.0" d="m454.43307 100.333336l127.33859 56.125984" fill-rule="evenodd"/><path stroke="#000000" stroke-width="1.0" stroke-linejoin="round" stroke-linecap="butt" d="m454.43307 100.333336l121.848236 53.706047" fill-rule="evenodd"/><path fill="#000000" stroke="#000000" stroke-width="1.0" stroke-linecap="butt" d="m575.6151 155.55081l4.8187866 0.31889343l-3.4863892 -3.341751z" fill-rule="evenodd"/><path fill="#000000" fill-opacity="0.0" d="m454.43307 100.333336l355.811 56.125984" fill-rule="evenodd"/><path stroke="#000000" stroke-width="1.0" stroke-linejoin="round" stroke-linecap="butt" d="m454.43307 100.333336l349.88425 55.191093" fill-rule="evenodd"/><path fill="#000000" stroke="#000000" stroke-width="1.0" stroke-linecap="butt" d="m804.06 157.15599l4.7400513 -0.92445374l-4.225281 -2.3386688z" fill-rule="evenodd"/><path fill="#cfe2f3" d="m168.6693 279.8714l108.72441 0l0 43.527557l-108.72441 0z" fill-rule="evenodd"/><path stroke="#000000" stroke-width="1.0" stroke-linejoin="round" stroke-linecap="butt" d="m168.6693 279.8714l108.72441 0l0 43.527557l-108.72441 0z" fill-rule="evenodd"/><path fill="#000000" d="m200.82574 294.67767l0 4.875l-0.390625 0q-0.1875 -1.40625 -0.671875 -2.234375q-0.484375 -0.828125 -1.375 -1.3125q-0.890625 -0.5 -1.859375 -0.5q-1.078125 0 -1.796875 0.671875q-0.703125 0.65625 -0.703125 1.5q0 0.640625 0.453125 1.171875q0.640625 0.78125 3.078125 2.078125q1.96875 1.0625 2.6875 1.640625q0.734375 0.5625 1.125 1.328125q0.390625 0.765625 0.390625 1.609375q0 1.609375 -1.25 2.78125q-1.234375 1.15625 -3.203125 1.15625q-0.609375 0 -1.15625 -0.09375q-0.3125 -0.0625 -1.328125 -0.390625q-1.015625 -0.328125 -1.296875 -0.328125q-0.25 0 -0.40625 0.15625q-0.15625 0.15625 -0.21875 0.65625l-0.390625 0l0 -4.84375l0.390625 0q0.265625 1.515625 0.71875 2.28125q0.46875 0.75 1.40625 1.25q0.9375 0.5 2.0625 0.5q1.3125 0 2.0625 -0.6875q0.75 -0.6875 0.75 -1.625q0 -0.53125 -0.28125 -1.0625q-0.28125 -0.53125 -0.890625 -0.984375q-0.40625 -0.3125 -2.21875 -1.328125q-1.8125 -1.015625 -2.578125 -1.609375q-0.765625 -0.609375 -1.171875 -1.34375q-0.390625 -0.734375 -0.390625 -1.59375q0 -1.53125 1.171875 -2.625q1.171875 -1.09375 2.96875 -1.09375q1.125 0 2.390625 0.546875q0.578125 0.265625 0.8125 0.265625q0.28125 0 0.453125 -0.15625q0.171875 -0.171875 0.265625 -0.65625l0.390625 0zm4.3460693 8.484375q0 2.125 1.03125 3.34375q1.046875 1.203125 2.453125 1.203125q0.9375 0 1.625 -0.515625q0.703125 -0.515625 1.171875 -1.765625l0.3125 0.203125q-0.21875 1.4375 -1.265625 2.609375q-1.046875 1.171875 -2.640625 1.171875q-1.71875 0 -2.9375 -1.34375q-1.21875 -1.34375 -1.21875 -3.59375q0 -2.453125 1.25 -3.8125q1.25 -1.375 3.15625 -1.375q1.59375 0 2.625 1.0625q1.03125 1.046875 1.03125 2.8125l-6.59375 0zm0 -0.59375l4.421875 0q-0.046875 -0.921875 -0.21875 -1.296875q-0.265625 -0.578125 -0.78125 -0.90625q-0.515625 -0.34375 -1.078125 -0.34375q-0.859375 0 -1.546875 0.671875q-0.671875 0.671875 -0.796875 1.875zm15.966446 2.921875q-0.375 1.890625 -1.5 2.90625q-1.125 1.015625 -2.5 1.015625q-1.625 0 -2.828125 -1.359375q-1.203125 -1.375 -1.203125 -3.703125q0 -2.25 1.328125 -3.65625q1.34375 -1.40625 3.21875 -1.40625q1.40625 0 2.3125 0.75q0.90625 0.75 0.90625 1.546875q0 0.390625 -0.265625 0.640625q-0.25 0.25 -0.703125 0.25q-0.609375 0 -0.921875 -0.40625q-0.1875 -0.21875 -0.25 -0.828125q-0.046875 -0.609375 -0.40625 -0.9375q-0.375 -0.3125 -1.015625 -0.3125q-1.046875 0 -1.671875 0.765625q-0.84375 1.03125 -0.84375 2.703125q0 1.703125 0.828125 3.015625q0.84375 1.3125 2.265625 1.3125q1.03125 0 1.84375 -0.703125q0.5625 -0.484375 1.109375 -1.734375l0.296875 0.140625zm4.138321 -9.046875l0 3.125l2.234375 0l0 0.734375l-2.234375 0l0 6.1875q0 0.921875 0.265625 1.25q0.265625 0.328125 0.6875 0.328125q0.34375 0 0.65625 -0.21875q0.328125 -0.21875 0.5 -0.625l0.40625 0q-0.359375 1.015625 -1.03125 1.53125q-0.65625 0.515625 -1.375 0.515625q-0.46875 0 -0.9375 -0.265625q-0.453125 -0.265625 -0.671875 -0.75q-0.21875 -0.5 -0.21875 -1.53125l0 -6.421875l-1.515625 0l0 -0.34375q0.578125 -0.234375 1.171875 -0.78125q0.609375 -0.546875 1.078125 -1.28125q0.234375 -0.40625 0.65625 -1.453125l0.328125 0zm5.581894 -2.140625q0.4375 0 0.734375 0.3125q0.3125 0.3125 0.3125 0.75q0 0.4375 -0.3125 0.75q-0.296875 0.3125 -0.734375 0.3125q-0.4375 0 -0.75 -0.3125q-0.3125 -0.3125 -0.3125 -0.75q0 -0.4375 0.296875 -0.75q0.3125 -0.3125 0.765625 -0.3125zm0.859375 4.984375l0 7.671875q0 0.890625 0.125 1.1875q0.140625 0.296875 0.390625 0.453125q0.265625 0.140625 0.9375 0.140625l0 0.375l-4.640625 0l0 -0.375q0.703125 0 0.9375 -0.125q0.25 -0.140625 0.390625 -0.453125q0.140625 -0.3125 0.140625 -1.203125l0 -3.671875q0 -1.5625 -0.09375 -2.015625q-0.078125 -0.328125 -0.234375 -0.453125q-0.15625 -0.140625 -0.421875 -0.140625q-0.296875 0 -0.71875 0.15625l-0.140625 -0.375l2.875 -1.171875l0.453125 0zm7.300644 0q2.171875 0 3.484375 1.65625q1.109375 1.40625 1.109375 3.21875q0 1.28125 -0.609375 2.59375q-0.609375 1.3125 -1.6875 1.984375q-1.078125 0.671875 -2.40625 0.671875q-2.15625 0 -3.421875 -1.71875q-1.078125 -1.453125 -1.078125 -3.25q0 -1.3125 0.640625 -2.609375q0.65625 -1.296875 1.71875 -1.921875q1.0625 -0.625 2.25 -0.625zm-0.3125 0.6875q-0.5625 0 -1.125 0.328125q-0.546875 0.328125 -0.890625 1.15625q-0.34375 0.8125 -0.34375 2.109375q0 2.078125 0.828125 3.59375q0.828125 1.5 2.1875 1.5q1.0 0 1.65625 -0.828125q0.65625 -0.828125 0.65625 -2.859375q0 -2.546875 -1.09375 -4.0q-0.734375 -1.0 -1.875 -1.0zm9.1015625 1.34375q1.671875 -2.03125 3.1875 -2.03125q0.78125 0 1.34375 0.390625q0.5625 0.390625 0.90625 1.296875q0.21875 0.625 0.21875 1.90625l0 4.078125q0 0.90625 0.15625 1.234375q0.109375 0.25 0.359375 0.40625q0.265625 0.140625 0.953125 0.140625l0 0.375l-4.71875 0l0 -0.375l0.1875 0q0.671875 0 0.9375 -0.203125q0.265625 -0.203125 0.375 -0.59375q0.03125 -0.15625 0.03125 -0.984375l0 -3.90625q0 -1.296875 -0.34375 -1.890625q-0.328125 -0.59375 -1.125 -0.59375q-1.25 0 -2.46875 1.359375l0 5.03125q0 0.96875 0.109375 1.203125q0.140625 0.296875 0.390625 0.4375q0.265625 0.140625 1.046875 0.140625l0 0.375l-4.71875 0l0 -0.375l0.203125 0q0.734375 0 0.984375 -0.359375q0.265625 -0.375 0.265625 -1.421875l0 -3.546875q0 -1.71875 -0.078125 -2.09375q-0.078125 -0.375 -0.25 -0.5q-0.15625 -0.140625 -0.421875 -0.140625q-0.296875 0 -0.703125 0.15625l-0.15625 -0.375l2.875 -1.171875l0.453125 0l0 2.03125z" fill-rule="nonzero"/><path fill="#cfe2f3" d="m298.95276 279.8714l108.724396 0l0 43.527557l-108.724396 0z" fill-rule="evenodd"/><path stroke="#000000" stroke-width="1.0" stroke-linejoin="round" stroke-linecap="butt" d="m298.95276 279.8714l108.724396 0l0 43.527557l-108.724396 0z" fill-rule="evenodd"/><path fill="#000000" d="m331.10922 294.67767l0 4.875l-0.390625 0q-0.1875 -1.40625 -0.671875 -2.234375q-0.484375 -0.828125 -1.375 -1.3125q-0.890625 -0.5 -1.859375 -0.5q-1.078125 0 -1.796875 0.671875q-0.703125 0.65625 -0.703125 1.5q0 0.640625 0.453125 1.171875q0.640625 0.78125 3.078125 2.078125q1.96875 1.0625 2.6875 1.640625q0.734375 0.5625 1.125 1.328125q0.390625 0.765625 0.390625 1.609375q0 1.609375 -1.25 2.78125q-1.234375 1.15625 -3.203125 1.15625q-0.609375 0 -1.15625 -0.09375q-0.3125 -0.0625 -1.328125 -0.390625q-1.015625 -0.328125 -1.296875 -0.328125q-0.25 0 -0.40625 0.15625q-0.15625 0.15625 -0.21875 0.65625l-0.390625 0l0 -4.84375l0.390625 0q0.265625 1.515625 0.71875 2.28125q0.46875 0.75 1.40625 1.25q0.9375 0.5 2.0625 0.5q1.3125 0 2.0625 -0.6875q0.75 -0.6875 0.75 -1.625q0 -0.53125 -0.28125 -1.0625q-0.28125 -0.53125 -0.890625 -0.984375q-0.40625 -0.3125 -2.21875 -1.328125q-1.8125 -1.015625 -2.578125 -1.609375q-0.765625 -0.609375 -1.171875 -1.34375q-0.390625 -0.734375 -0.390625 -1.59375q0 -1.53125 1.171875 -2.625q1.171875 -1.09375 2.96875 -1.09375q1.125 0 2.390625 0.546875q0.578125 0.265625 0.8125 0.265625q0.28125 0 0.453125 -0.15625q0.171875 -0.171875 0.265625 -0.65625l0.390625 0zm4.3460693 8.484375q0 2.125 1.03125 3.34375q1.046875 1.203125 2.453125 1.203125q0.9375 0 1.625 -0.515625q0.703125 -0.515625 1.171875 -1.765625l0.3125 0.203125q-0.21875 1.4375 -1.265625 2.609375q-1.046875 1.171875 -2.640625 1.171875q-1.71875 0 -2.9375 -1.34375q-1.21875 -1.34375 -1.21875 -3.59375q0 -2.453125 1.25 -3.8125q1.25 -1.375 3.15625 -1.375q1.59375 0 2.625 1.0625q1.03125 1.046875 1.03125 2.8125l-6.59375 0zm0 -0.59375l4.421875 0q-0.046875 -0.921875 -0.21875 -1.296875q-0.265625 -0.578125 -0.78125 -0.90625q-0.515625 -0.34375 -1.078125 -0.34375q-0.859375 0 -1.546875 0.671875q-0.671875 0.671875 -0.796875 1.875zm15.966431 2.921875q-0.375 1.890625 -1.5 2.90625q-1.125 1.015625 -2.5 1.015625q-1.625 0 -2.828125 -1.359375q-1.203125 -1.375 -1.203125 -3.703125q0 -2.25 1.328125 -3.65625q1.34375 -1.40625 3.21875 -1.40625q1.40625 0 2.3125 0.75q0.90625 0.75 0.90625 1.546875q0 0.390625 -0.265625 0.640625q-0.25 0.25 -0.703125 0.25q-0.609375 0 -0.921875 -0.40625q-0.1875 -0.21875 -0.25 -0.828125q-0.046875 -0.609375 -0.40625 -0.9375q-0.375 -0.3125 -1.015625 -0.3125q-1.046875 0 -1.671875 0.765625q-0.84375 1.03125 -0.84375 2.703125q0 1.703125 0.828125 3.015625q0.84375 1.3125 2.265625 1.3125q1.03125 0 1.84375 -0.703125q0.5625 -0.484375 1.109375 -1.734375l0.296875 0.140625zm4.138336 -9.046875l0 3.125l2.234375 0l0 0.734375l-2.234375 0l0 6.1875q0 0.921875 0.265625 1.25q0.265625 0.328125 0.6875 0.328125q0.34375 0 0.65625 -0.21875q0.328125 -0.21875 0.5 -0.625l0.40625 0q-0.359375 1.015625 -1.03125 1.53125q-0.65625 0.515625 -1.375 0.515625q-0.46875 0 -0.9375 -0.265625q-0.453125 -0.265625 -0.671875 -0.75q-0.21875 -0.5 -0.21875 -1.53125l0 -6.421875l-1.515625 0l0 -0.34375q0.578125 -0.234375 1.171875 -0.78125q0.609375 -0.546875 1.078125 -1.28125q0.234375 -0.40625 0.65625 -1.453125l0.328125 0zm5.5818787 -2.140625q0.4375 0 0.734375 0.3125q0.3125 0.3125 0.3125 0.75q0 0.4375 -0.3125 0.75q-0.296875 0.3125 -0.734375 0.3125q-0.4375 0 -0.75 -0.3125q-0.3125 -0.3125 -0.3125 -0.75q0 -0.4375 0.296875 -0.75q0.3125 -0.3125 0.765625 -0.3125zm0.859375 4.984375l0 7.671875q0 0.890625 0.125 1.1875q0.140625 0.296875 0.390625 0.453125q0.265625 0.140625 0.9375 0.140625l0 0.375l-4.640625 0l0 -0.375q0.703125 0 0.9375 -0.125q0.25 -0.140625 0.390625 -0.453125q0.140625 -0.3125 0.140625 -1.203125l0 -3.671875q0 -1.5625 -0.09375 -2.015625q-0.078125 -0.328125 -0.234375 -0.453125q-0.15625 -0.140625 -0.421875 -0.140625q-0.296875 0 -0.71875 0.15625l-0.140625 -0.375l2.875 -1.171875l0.453125 0zm7.300659 0q2.171875 0 3.484375 1.65625q1.109375 1.40625 1.109375 3.21875q0 1.28125 -0.609375 2.59375q-0.609375 1.3125 -1.6875 1.984375q-1.078125 0.671875 -2.40625 0.671875q-2.15625 0 -3.421875 -1.71875q-1.078125 -1.453125 -1.078125 -3.25q0 -1.3125 0.640625 -2.609375q0.65625 -1.296875 1.71875 -1.921875q1.0625 -0.625 2.25 -0.625zm-0.3125 0.6875q-0.5625 0 -1.125 0.328125q-0.546875 0.328125 -0.890625 1.15625q-0.34375 0.8125 -0.34375 2.109375q0 2.078125 0.828125 3.59375q0.828125 1.5 2.1875 1.5q1.0 0 1.65625 -0.828125q0.65625 -0.828125 0.65625 -2.859375q0 -2.546875 -1.09375 -4.0q-0.734375 -1.0 -1.875 -1.0zm9.1015625 1.34375q1.671875 -2.03125 3.1875 -2.03125q0.78125 0 1.34375 0.390625q0.5625 0.390625 0.90625 1.296875q0.21875 0.625 0.21875 1.90625l0 4.078125q0 0.90625 0.15625 1.234375q0.109375 0.25 0.359375 0.40625q0.265625 0.140625 0.953125 0.140625l0 0.375l-4.71875 0l0 -0.375l0.1875 0q0.671875 0 0.9375 -0.203125q0.265625 -0.203125 0.375 -0.59375q0.03125 -0.15625 0.03125 -0.984375l0 -3.90625q0 -1.296875 -0.34375 -1.890625q-0.328125 -0.59375 -1.125 -0.59375q-1.25 0 -2.46875 1.359375l0 5.03125q0 0.96875 0.109375 1.203125q0.140625 0.296875 0.390625 0.4375q0.265625 0.140625 1.046875 0.140625l0 0.375l-4.71875 0l0 -0.375l0.203125 0q0.734375 0 0.984375 -0.359375q0.265625 -0.375 0.265625 -1.421875l0 -3.546875q0 -1.71875 -0.078125 -2.09375q-0.078125 -0.375 -0.25 -0.5q-0.15625 -0.140625 -0.421875 -0.140625q-0.296875 0 -0.703125 0.15625l-0.15625 -0.375l2.875 -1.171875l0.453125 0l0 2.03125z" fill-rule="nonzero"/><path fill="#cfe2f3" d="m429.2362 275.6719l108.72443 0l0 43.527557l-108.72443 0z" fill-rule="evenodd"/><path stroke="#000000" stroke-width="1.0" stroke-linejoin="round" stroke-linecap="butt" d="m429.2362 275.6719l108.72443 0l0 43.527557l-108.72443 0z" fill-rule="evenodd"/><path fill="#000000" d="m461.39267 290.47818l0 4.875l-0.390625 0q-0.1875 -1.40625 -0.671875 -2.234375q-0.484375 -0.828125 -1.375 -1.3125q-0.890625 -0.5 -1.859375 -0.5q-1.078125 0 -1.796875 0.671875q-0.703125 0.65625 -0.703125 1.5q0 0.640625 0.453125 1.171875q0.640625 0.78125 3.078125 2.078125q1.96875 1.0625 2.6875 1.640625q0.734375 0.5625 1.125 1.328125q0.390625 0.765625 0.390625 1.609375q0 1.609375 -1.25 2.78125q-1.234375 1.15625 -3.203125 1.15625q-0.609375 0 -1.15625 -0.09375q-0.3125 -0.0625 -1.328125 -0.390625q-1.015625 -0.328125 -1.296875 -0.328125q-0.25 0 -0.40625 0.15625q-0.15625 0.15625 -0.21875 0.65625l-0.390625 0l0 -4.84375l0.390625 0q0.265625 1.515625 0.71875 2.28125q0.46875 0.75 1.40625 1.25q0.9375 0.5 2.0625 0.5q1.3125 0 2.0625 -0.6875q0.75 -0.6875 0.75 -1.625q0 -0.53125 -0.28125 -1.0625q-0.28125 -0.53125 -0.890625 -0.984375q-0.40625 -0.3125 -2.21875 -1.328125q-1.8125 -1.015625 -2.578125 -1.609375q-0.765625 -0.609375 -1.171875 -1.34375q-0.390625 -0.734375 -0.390625 -1.59375q0 -1.53125 1.171875 -2.625q1.171875 -1.09375 2.96875 -1.09375q1.125 0 2.390625 0.546875q0.578125 0.265625 0.8125 0.265625q0.28125 0 0.453125 -0.15625q0.171875 -0.171875 0.265625 -0.65625l0.390625 0zm4.3460693 8.484375q0 2.125 1.03125 3.34375q1.046875 1.203125 2.453125 1.203125q0.9375 0 1.625 -0.515625q0.703125 -0.515625 1.171875 -1.765625l0.3125 0.203125q-0.21875 1.4375 -1.265625 2.609375q-1.046875 1.171875 -2.640625 1.171875q-1.71875 0 -2.9375 -1.34375q-1.21875 -1.34375 -1.21875 -3.59375q0 -2.453125 1.25 -3.8125q1.25 -1.375 3.15625 -1.375q1.59375 0 2.625 1.0625q1.03125 1.046875 1.03125 2.8125l-6.59375 0zm0 -0.59375l4.421875 0q-0.046875 -0.921875 -0.21875 -1.296875q-0.265625 -0.578125 -0.78125 -0.90625q-0.515625 -0.34375 -1.078125 -0.34375q-0.859375 0 -1.546875 0.671875q-0.671875 0.671875 -0.796875 1.875zm15.966461 2.921875q-0.375 1.890625 -1.5 2.90625q-1.125 1.015625 -2.5 1.015625q-1.625 0 -2.828125 -1.359375q-1.203125 -1.375 -1.203125 -3.703125q0 -2.25 1.328125 -3.65625q1.34375 -1.40625 3.21875 -1.40625q1.40625 0 2.3125 0.75q0.90625 0.75 0.90625 1.546875q0 0.390625 -0.265625 0.640625q-0.25 0.25 -0.703125 0.25q-0.609375 0 -0.921875 -0.40625q-0.1875 -0.21875 -0.25 -0.828125q-0.046875 -0.609375 -0.40625 -0.9375q-0.375 -0.3125 -1.015625 -0.3125q-1.046875 0 -1.671875 0.765625q-0.84375 1.03125 -0.84375 2.703125q0 1.703125 0.828125 3.015625q0.84375 1.3125 2.265625 1.3125q1.03125 0 1.84375 -0.703125q0.5625 -0.484375 1.109375 -1.734375l0.296875 0.140625zm4.1383057 -9.046875l0 3.125l2.234375 0l0 0.734375l-2.234375 0l0 6.1875q0 0.921875 0.265625 1.25q0.265625 0.328125 0.6875 0.328125q0.34375 0 0.65625 -0.21875q0.328125 -0.21875 0.5 -0.625l0.40625 0q-0.359375 1.015625 -1.03125 1.53125q-0.65625 0.515625 -1.375 0.515625q-0.46875 0 -0.9375 -0.265625q-0.453125 -0.265625 -0.671875 -0.75q-0.21875 -0.5 -0.21875 -1.53125l0 -6.421875l-1.515625 0l0 -0.34375q0.578125 -0.234375 1.171875 -0.78125q0.609375 -0.546875 1.078125 -1.28125q0.234375 -0.40625 0.65625 -1.453125l0.328125 0zm5.581909 -2.140625q0.4375 0 0.734375 0.3125q0.3125 0.3125 0.3125 0.75q0 0.4375 -0.3125 0.75q-0.296875 0.3125 -0.734375 0.3125q-0.4375 0 -0.75 -0.3125q-0.3125 -0.3125 -0.3125 -0.75q0 -0.4375 0.296875 -0.75q0.3125 -0.3125 0.765625 -0.3125zm0.859375 4.984375l0 7.671875q0 0.890625 0.125 1.1875q0.140625 0.296875 0.390625 0.453125q0.265625 0.140625 0.9375 0.140625l0 0.375l-4.640625 0l0 -0.375q0.703125 0 0.9375 -0.125q0.25 -0.140625 0.390625 -0.453125q0.140625 -0.3125 0.140625 -1.203125l0 -3.671875q0 -1.5625 -0.09375 -2.015625q-0.078125 -0.328125 -0.234375 -0.453125q-0.15625 -0.140625 -0.421875 -0.140625q-0.296875 0 -0.71875 0.15625l-0.140625 -0.375l2.875 -1.171875l0.453125 0zm7.3006287 0q2.171875 0 3.484375 1.65625q1.109375 1.40625 1.109375 3.21875q0 1.28125 -0.609375 2.59375q-0.609375 1.3125 -1.6875 1.984375q-1.078125 0.671875 -2.40625 0.671875q-2.15625 0 -3.421875 -1.71875q-1.078125 -1.453125 -1.078125 -3.25q0 -1.3125 0.640625 -2.609375q0.65625 -1.296875 1.71875 -1.921875q1.0625 -0.625 2.25 -0.625zm-0.3125 0.6875q-0.5625 0 -1.125 0.328125q-0.546875 0.328125 -0.890625 1.15625q-0.34375 0.8125 -0.34375 2.109375q0 2.078125 0.828125 3.59375q0.828125 1.5 2.1875 1.5q1.0 0 1.65625 -0.828125q0.65625 -0.828125 0.65625 -2.859375q0 -2.546875 -1.09375 -4.0q-0.734375 -1.0 -1.875 -1.0zm9.1015625 1.34375q1.671875 -2.03125 3.1875 -2.03125q0.7812805 0 1.3437805 0.390625q0.5625 0.390625 0.90625 1.296875q0.21875 0.625 0.21875 1.90625l0 4.078125q0 0.90625 0.15625 1.234375q0.109375 0.25 0.359375 0.40625q0.265625 0.140625 0.953125 0.140625l0 0.375l-4.7187805 0l0 -0.375l0.1875 0q0.671875 0 0.9375 -0.203125q0.26565552 -0.203125 0.37503052 -0.59375q0.03125 -0.15625 0.03125 -0.984375l0 -3.90625q0 -1.296875 -0.34378052 -1.890625q-0.328125 -0.59375 -1.125 -0.59375q-1.25 0 -2.46875 1.359375l0 5.03125q0 0.96875 0.109375 1.203125q0.140625 0.296875 0.390625 0.4375q0.265625 0.140625 1.046875 0.140625l0 0.375l-4.71875 0l0 -0.375l0.203125 0q0.734375 0 0.984375 -0.359375q0.265625 -0.375 0.265625 -1.421875l0 -3.546875q0 -1.71875 -0.078125 -2.09375q-0.078125 -0.375 -0.25 -0.5q-0.15625 -0.140625 -0.421875 -0.140625q-0.296875 0 -0.703125 0.15625l-0.15625 -0.375l2.875 -1.171875l0.453125 0l0 2.03125z" fill-rule="nonzero"/><path fill="#000000" fill-opacity="0.0" d="m353.31497 219.54593l-130.26773 60.314972" fill-rule="evenodd"/><path stroke="#000000" stroke-width="1.0" stroke-linejoin="round" stroke-linecap="butt" d="m353.31497 219.54593l-124.82301 57.794037" fill-rule="evenodd"/><path fill="#000000" stroke="#000000" stroke-width="1.0" stroke-linecap="butt" d="m227.79796 275.8411l-3.4241028 3.4055786l4.812088 -0.40786743z" fill-rule="evenodd"/><path fill="#000000" fill-opacity="0.0" d="m353.31497 219.54593l0 60.314972" fill-rule="evenodd"/><path stroke="#000000" stroke-width="1.0" stroke-linejoin="round" stroke-linecap="butt" d="m353.31497 219.54593l0 54.314972" fill-rule="evenodd"/><path fill="#000000" stroke="#000000" stroke-width="1.0" stroke-linecap="butt" d="m351.66324 273.8609l1.6517334 4.538086l1.6517334 -4.538086z" fill-rule="evenodd"/><path fill="#000000" fill-opacity="0.0" d="m353.31497 219.54593l130.2992 56.125977" fill-rule="evenodd"/><path stroke="#000000" stroke-width="1.0" stroke-linejoin="round" stroke-linecap="butt" d="m353.31497 219.54593l124.788666 53.75235" fill-rule="evenodd"/><path fill="#000000" stroke="#000000" stroke-width="1.0" stroke-linecap="butt" d="m477.45023 274.81525l4.8213196 0.2783203l-3.5144653 -3.3122864z" fill-rule="evenodd"/><path fill="#cfe2f3" d="m89.06562 360.0l101.10236 0l0 35.811035l-101.10236 0z" fill-rule="evenodd"/><path stroke="#000000" stroke-width="1.0" stroke-linejoin="round" stroke-linecap="butt" d="m89.06562 360.0l101.10236 0l0 35.811035l-101.10236 0z" fill-rule="evenodd"/><path fill="#000000" d="m116.55016 373.67426l0.1875 3.0l-0.1875 0q-0.40625 -1.34375 -1.15625 -1.9375q-0.75 -0.59375 -1.796875 -0.59375q-0.875 0 -1.59375 0.453125q-0.703125 0.4375 -1.109375 1.421875q-0.40625 0.96875 -0.40625 2.421875q0 1.203125 0.375 2.078125q0.390625 0.875 1.15625 1.34375q0.78125 0.46875 1.765625 0.46875q0.859375 0 1.515625 -0.359375q0.65625 -0.375 1.4375 -1.46875l0.203125 0.140625q-0.65625 1.171875 -1.546875 1.71875q-0.875 0.546875 -2.09375 0.546875q-2.203125 0 -3.40625 -1.625q-0.890625 -1.21875 -0.890625 -2.859375q0 -1.3125 0.59375 -2.421875q0.59375 -1.109375 1.625 -1.71875q1.03125 -0.609375 2.265625 -0.609375q0.953125 0 1.890625 0.46875q0.265625 0.140625 0.390625 0.140625q0.171875 0 0.3125 -0.109375q0.15625 -0.1875 0.234375 -0.5l0.234375 0zm4.1866302 2.890625q1.359375 0 2.171875 1.03125q0.703125 0.875 0.703125 2.015625q0 0.796875 -0.390625 1.625q-0.375 0.8125 -1.046875 1.234375q-0.671875 0.421875 -1.5 0.421875q-1.359375 0 -2.140625 -1.078125q-0.671875 -0.90625 -0.671875 -2.03125q0 -0.8125 0.40625 -1.625q0.40625 -0.8125 1.0625 -1.203125q0.671875 -0.390625 1.40625 -0.390625zm-0.203125 0.421875q-0.34375 0 -0.6875 0.21875q-0.34375 0.203125 -0.5625 0.71875q-0.21875 0.5 -0.21875 1.3125q0 1.296875 0.515625 2.25q0.515625 0.9375 1.375 0.9375q0.625 0 1.03125 -0.515625q0.40625 -0.53125 0.40625 -1.796875q0 -1.578125 -0.671875 -2.5q-0.46875 -0.625 -1.1875 -0.625zm5.7265625 0.84375q0.65625 -0.640625 0.765625 -0.734375q0.296875 -0.25 0.625 -0.390625q0.34375 -0.140625 0.6718826 -0.140625q0.5625 0 0.96875 0.328125q0.40625 0.328125 0.546875 0.9375q0.671875 -0.78125 1.125 -1.015625q0.46875 -0.25 0.953125 -0.25q0.46875 0 0.828125 0.25q0.375 0.234375 0.59375 0.796875q0.140625 0.375 0.140625 1.1875l0 2.5625q0 0.5625 0.09375 0.765625q0.0625 0.140625 0.234375 0.25q0.171875 0.09375 0.578125 0.09375l0 0.234375l-2.953125 0l0 -0.234375l0.125 0q0.390625 0 0.609375 -0.15625q0.140625 -0.09375 0.203125 -0.328125q0.03125 -0.109375 0.03125 -0.625l0 -2.5625q0 -0.734375 -0.171875 -1.03125q-0.25 -0.421875 -0.8125 -0.421875q-0.34375 0 -0.703125 0.171875q-0.34375 0.171875 -0.828125 0.640625l-0.015625 0.078125l0.015625 0.28125l0 2.84375q0 0.609375 0.0625 0.765625q0.0625 0.140625 0.25 0.25q0.1875 0.09375 0.65625 0.09375l0 0.234375l-3.0156326 0l0 -0.234375q0.48438263 0 0.6718826 -0.109375q0.1875 -0.125 0.265625 -0.359375q0.03125 -0.109375 0.03125 -0.640625l0 -2.5625q0 -0.734375 -0.21875 -1.046875q-0.28125 -0.421875 -0.7968826 -0.421875q-0.359375 0 -0.703125 0.1875q-0.53125 0.28125 -0.828125 0.640625l0 3.203125q0 0.578125 0.078125 0.765625q0.078125 0.171875 0.234375 0.265625q0.171875 0.078125 0.65625 0.078125l0 0.234375l-2.953125 0l0 -0.234375q0.421875 0 0.578125 -0.078125q0.15625 -0.09375 0.234375 -0.28125q0.09375 -0.203125 0.09375 -0.75l0 -2.28125q0 -0.984375 -0.0625 -1.265625q-0.03125 -0.21875 -0.140625 -0.296875q-0.09375 -0.078125 -0.265625 -0.078125q-0.171875 0 -0.4375 0.09375l-0.09375 -0.234375l1.796875 -0.734375l0.28125 0l0 1.265625zm8.163933 -0.5l1.84375 -0.734375l0.234375 0l0 1.390625q0.46875 -0.78125 0.9375 -1.09375q0.46875 -0.328125 0.96875 -0.328125q0.90625 0 1.5 0.703125q0.734375 0.859375 0.734375 2.234375q0 1.546875 -0.875 2.5625q-0.734375 0.828125 -1.84375 0.828125q-0.484375 0 -0.828125 -0.140625q-0.265625 -0.09375 -0.59375 -0.390625l0 1.8125q0 0.609375 0.078125 0.78125q0.078125 0.171875 0.265625 0.265625q0.1875 0.09375 0.671875 0.09375l0 0.234375l-3.125 0l0 -0.234375l0.15625 0q0.359375 0 0.625 -0.140625q0.125 -0.0625 0.1875 -0.234375q0.0625 -0.15625 0.0625 -0.796875l0 -5.640625q0 -0.578125 -0.046875 -0.734375q-0.046875 -0.15625 -0.171875 -0.234375q-0.109375 -0.078125 -0.296875 -0.078125q-0.15625 0 -0.40625 0.09375l-0.078125 -0.21875zm2.078125 1.046875l0 2.21875q0 0.71875 0.0625 0.953125q0.09375 0.375 0.4375 0.671875q0.359375 0.28125 0.90625 0.28125q0.65625 0 1.046875 -0.515625q0.53125 -0.65625 0.53125 -1.859375q0 -1.375 -0.59375 -2.109375q-0.421875 -0.5 -0.984375 -0.5q-0.3125 0 -0.625 0.15625q-0.234375 0.109375 -0.78125 0.703125zm7.9296875 -1.8125q1.359375 0 2.171875 1.03125q0.703125 0.875 0.703125 2.015625q0 0.796875 -0.390625 1.625q-0.375 0.8125 -1.046875 1.234375q-0.671875 0.421875 -1.5 0.421875q-1.359375 0 -2.140625 -1.078125q-0.671875 -0.90625 -0.671875 -2.03125q0 -0.8125 0.40625 -1.625q0.40625 -0.8125 1.0625 -1.203125q0.671875 -0.390625 1.40625 -0.390625zm-0.203125 0.421875q-0.34375 0 -0.6875 0.21875q-0.34375 0.203125 -0.5625 0.71875q-0.21875 0.5 -0.21875 1.3125q0 1.296875 0.515625 2.25q0.515625 0.9375 1.375 0.9375q0.625 0 1.03125 -0.515625q0.40625 -0.53125 0.40625 -1.796875q0 -1.578125 -0.671875 -2.5q-0.46875 -0.625 -1.1875 -0.625zm5.6953125 0.84375q1.046875 -1.265625 2.0 -1.265625q0.484375 0 0.828125 0.25q0.35935974 0.234375 0.56248474 0.796875q0.140625 0.390625 0.140625 1.203125l0 2.546875q0 0.5625 0.09375 0.765625q0.078125 0.15625 0.234375 0.25q0.15625 0.09375 0.59375 0.09375l0 0.234375l-2.9531097 0l0 -0.234375l0.125 0q0.421875 0 0.578125 -0.125q0.171875 -0.125 0.234375 -0.375q0.03125 -0.09375 0.03125 -0.609375l0 -2.4375q0 -0.8125 -0.21875 -1.1875q-0.203125 -0.375 -0.703125 -0.375q-0.78125 0 -1.546875 0.859375l0 3.140625q0 0.609375 0.0625 0.75q0.09375 0.1875 0.25 0.28125q0.171875 0.078125 0.65625 0.078125l0 0.234375l-2.953125 0l0 -0.234375l0.140625 0q0.453125 0 0.609375 -0.234375q0.15625 -0.234375 0.15625 -0.875l0 -2.21875q0 -1.078125 -0.046875 -1.3125q-0.046875 -0.234375 -0.15625 -0.3125q-0.09375 -0.078125 -0.265625 -0.078125q-0.1875 0 -0.4375 0.09375l-0.09375 -0.234375l1.796875 -0.734375l0.28125 0l0 1.265625zm5.9296722 1.15625q-0.015625 1.328125 0.640625 2.078125q0.65625 0.765625 1.53125 0.765625q0.578125 0 1.015625 -0.3125q0.4375 -0.328125 0.734375 -1.109375l0.1875 0.125q-0.125 0.890625 -0.78125 1.625q-0.65625 0.734375 -1.65625 0.734375q-1.0625 0 -1.828125 -0.828125q-0.765625 -0.84375 -0.765625 -2.265625q0 -1.53125 0.78125 -2.375q0.78125 -0.859375 1.96875 -0.859375q1.0 0 1.640625 0.65625q0.640625 0.65625 0.640625 1.765625l-4.109375 0zm0 -0.375l2.75 0q-0.03125 -0.578125 -0.125 -0.8125q-0.171875 -0.359375 -0.5 -0.5625q-0.3125 -0.21875 -0.65625 -0.21875q-0.546875 0 -0.984375 0.421875q-0.421875 0.421875 -0.484375 1.171875zm6.6500397 -0.78125q1.046875 -1.265625 2.0 -1.265625q0.484375 0 0.828125 0.25q0.359375 0.234375 0.5625 0.796875q0.140625 0.390625 0.140625 1.203125l0 2.546875q0 0.5625 0.09375 0.765625q0.078125 0.15625 0.234375 0.25q0.15625 0.09375 0.59375 0.09375l0 0.234375l-2.953125 0l0 -0.234375l0.125 0q0.421875 0 0.578125 -0.125q0.171875 -0.125 0.234375 -0.375q0.03125 -0.09375 0.03125 -0.609375l0 -2.4375q0 -0.8125 -0.21875 -1.1875q-0.203125 -0.375 -0.703125 -0.375q-0.78125 0 -1.546875 0.859375l0 3.140625q0 0.609375 0.0625 0.75q0.09375 0.1875 0.25 0.28125q0.171875 0.078125 0.65625 0.078125l0 0.234375l-2.953125 0l0 -0.234375l0.140625 0q0.453125 0 0.609375 -0.234375q0.15625 -0.234375 0.15625 -0.875l0 -2.21875q0 -1.078125 -0.046875 -1.3125q-0.046875 -0.234375 -0.15625 -0.3125q-0.09375 -0.078125 -0.265625 -0.078125q-0.1875 0 -0.4375 0.09375l-0.09375 -0.234375l1.796875 -0.734375l0.28125 0l0 1.265625zm6.6484375 -3.046875l0 1.953125l1.40625 0l0 0.46875l-1.40625 0l0 3.859375q0 0.578125 0.171875 0.78125q0.171875 0.203125 0.421875 0.203125q0.21875 0 0.421875 -0.125q0.203125 -0.140625 0.3125 -0.40625l0.25 0q-0.21875 0.640625 -0.640625 0.96875q-0.421875 0.3125 -0.859375 0.3125q-0.296875 0 -0.59375 -0.15625q-0.28125 -0.171875 -0.421875 -0.484375q-0.125 -0.3125 -0.125 -0.953125l0 -4.0l-0.953125 0l0 -0.21875q0.359375 -0.140625 0.734375 -0.484375q0.375 -0.34375 0.671875 -0.8125q0.140625 -0.25 0.421875 -0.90625l0.1875 0z" fill-rule="nonzero"/><path fill="#cfe2f3" d="m89.06562 417.31235l101.10236 0l0 35.811005l-101.10236 0z" fill-rule="evenodd"/><path stroke="#000000" stroke-width="1.0" stroke-linejoin="round" stroke-linecap="butt" d="m89.06562 417.31235l101.10236 0l0 35.811005l-101.10236 0z" fill-rule="evenodd"/><path fill="#000000" d="m116.55016 430.9866l0.1875 3.0l-0.1875 0q-0.40625 -1.34375 -1.15625 -1.9375q-0.75 -0.59375 -1.796875 -0.59375q-0.875 0 -1.59375 0.453125q-0.703125 0.4375 -1.109375 1.421875q-0.40625 0.96875 -0.40625 2.421875q0 1.203125 0.375 2.078125q0.390625 0.875 1.15625 1.34375q0.78125 0.46875 1.765625 0.46875q0.859375 0 1.515625 -0.359375q0.65625 -0.375 1.4375 -1.46875l0.203125 0.140625q-0.65625 1.171875 -1.546875 1.71875q-0.875 0.546875 -2.09375 0.546875q-2.203125 0 -3.40625 -1.625q-0.890625 -1.21875 -0.890625 -2.859375q0 -1.3125 0.59375 -2.421875q0.59375 -1.109375 1.625 -1.71875q1.03125 -0.609375 2.265625 -0.609375q0.953125 0 1.890625 0.46875q0.265625 0.140625 0.390625 0.140625q0.171875 0 0.3125 -0.109375q0.15625 -0.1875 0.234375 -0.5l0.234375 0zm4.1866302 2.890625q1.359375 0 2.171875 1.03125q0.703125 0.875 0.703125 2.015625q0 0.796875 -0.390625 1.625q-0.375 0.8125 -1.046875 1.234375q-0.671875 0.421875 -1.5 0.421875q-1.359375 0 -2.140625 -1.078125q-0.671875 -0.90625 -0.671875 -2.03125q0 -0.8125 0.40625 -1.625q0.40625 -0.8125 1.0625 -1.203125q0.671875 -0.390625 1.40625 -0.390625zm-0.203125 0.421875q-0.34375 0 -0.6875 0.21875q-0.34375 0.203125 -0.5625 0.71875q-0.21875 0.5 -0.21875 1.3125q0 1.296875 0.515625 2.25q0.515625 0.9375 1.375 0.9375q0.625 0 1.03125 -0.515625q0.40625 -0.53125 0.40625 -1.796875q0 -1.578125 -0.671875 -2.5q-0.46875 -0.625 -1.1875 -0.625zm5.7265625 0.84375q0.65625 -0.640625 0.765625 -0.734375q0.296875 -0.25 0.625 -0.390625q0.34375 -0.140625 0.6718826 -0.140625q0.5625 0 0.96875 0.328125q0.40625 0.328125 0.546875 0.9375q0.671875 -0.78125 1.125 -1.015625q0.46875 -0.25 0.953125 -0.25q0.46875 0 0.828125 0.25q0.375 0.234375 0.59375 0.796875q0.140625 0.375 0.140625 1.1875l0 2.5625q0 0.5625 0.09375 0.765625q0.0625 0.140625 0.234375 0.25q0.171875 0.09375 0.578125 0.09375l0 0.234375l-2.953125 0l0 -0.234375l0.125 0q0.390625 0 0.609375 -0.15625q0.140625 -0.09375 0.203125 -0.328125q0.03125 -0.109375 0.03125 -0.625l0 -2.5625q0 -0.734375 -0.171875 -1.03125q-0.25 -0.421875 -0.8125 -0.421875q-0.34375 0 -0.703125 0.171875q-0.34375 0.171875 -0.828125 0.640625l-0.015625 0.078125l0.015625 0.28125l0 2.84375q0 0.609375 0.0625 0.765625q0.0625 0.140625 0.25 0.25q0.1875 0.09375 0.65625 0.09375l0 0.234375l-3.0156326 0l0 -0.234375q0.48438263 0 0.6718826 -0.109375q0.1875 -0.125 0.265625 -0.359375q0.03125 -0.109375 0.03125 -0.640625l0 -2.5625q0 -0.734375 -0.21875 -1.046875q-0.28125 -0.421875 -0.7968826 -0.421875q-0.359375 0 -0.703125 0.1875q-0.53125 0.28125 -0.828125 0.640625l0 3.203125q0 0.578125 0.078125 0.765625q0.078125 0.171875 0.234375 0.265625q0.171875 0.078125 0.65625 0.078125l0 0.234375l-2.953125 0l0 -0.234375q0.421875 0 0.578125 -0.078125q0.15625 -0.09375 0.234375 -0.28125q0.09375 -0.203125 0.09375 -0.75l0 -2.28125q0 -0.984375 -0.0625 -1.265625q-0.03125 -0.21875 -0.140625 -0.296875q-0.09375 -0.078125 -0.265625 -0.078125q-0.171875 0 -0.4375 0.09375l-0.09375 -0.234375l1.796875 -0.734375l0.28125 0l0 1.265625zm8.163933 -0.5l1.84375 -0.734375l0.234375 0l0 1.390625q0.46875 -0.78125 0.9375 -1.09375q0.46875 -0.328125 0.96875 -0.328125q0.90625 0 1.5 0.703125q0.734375 0.859375 0.734375 2.234375q0 1.546875 -0.875 2.5625q-0.734375 0.828125 -1.84375 0.828125q-0.484375 0 -0.828125 -0.140625q-0.265625 -0.09375 -0.59375 -0.390625l0 1.8125q0 0.609375 0.078125 0.78125q0.078125 0.171875 0.265625 0.265625q0.1875 0.09375 0.671875 0.09375l0 0.234375l-3.125 0l0 -0.234375l0.15625 0q0.359375 0 0.625 -0.140625q0.125 -0.0625 0.1875 -0.234375q0.0625 -0.15625 0.0625 -0.796875l0 -5.640625q0 -0.578125 -0.046875 -0.734375q-0.046875 -0.15625 -0.171875 -0.234375q-0.109375 -0.078125 -0.296875 -0.078125q-0.15625 0 -0.40625 0.09375l-0.078125 -0.21875zm2.078125 1.046875l0 2.21875q0 0.71875 0.0625 0.953125q0.09375 0.375 0.4375 0.671875q0.359375 0.28125 0.90625 0.28125q0.65625 0 1.046875 -0.515625q0.53125 -0.65625 0.53125 -1.859375q0 -1.375 -0.59375 -2.109375q-0.421875 -0.5 -0.984375 -0.5q-0.3125 0 -0.625 0.15625q-0.234375 0.109375 -0.78125 0.703125zm7.9296875 -1.8125q1.359375 0 2.171875 1.03125q0.703125 0.875 0.703125 2.015625q0 0.796875 -0.390625 1.625q-0.375 0.8125 -1.046875 1.234375q-0.671875 0.421875 -1.5 0.421875q-1.359375 0 -2.140625 -1.078125q-0.671875 -0.90625 -0.671875 -2.03125q0 -0.8125 0.40625 -1.625q0.40625 -0.8125 1.0625 -1.203125q0.671875 -0.390625 1.40625 -0.390625zm-0.203125 0.421875q-0.34375 0 -0.6875 0.21875q-0.34375 0.203125 -0.5625 0.71875q-0.21875 0.5 -0.21875 1.3125q0 1.296875 0.515625 2.25q0.515625 0.9375 1.375 0.9375q0.625 0 1.03125 -0.515625q0.40625 -0.53125 0.40625 -1.796875q0 -1.578125 -0.671875 -2.5q-0.46875 -0.625 -1.1875 -0.625zm5.6953125 0.84375q1.046875 -1.265625 2.0 -1.265625q0.484375 0 0.828125 0.25q0.35935974 0.234375 0.56248474 0.796875q0.140625 0.390625 0.140625 1.203125l0 2.546875q0 0.5625 0.09375 0.765625q0.078125 0.15625 0.234375 0.25q0.15625 0.09375 0.59375 0.09375l0 0.234375l-2.9531097 0l0 -0.234375l0.125 0q0.421875 0 0.578125 -0.125q0.171875 -0.125 0.234375 -0.375q0.03125 -0.09375 0.03125 -0.609375l0 -2.4375q0 -0.8125 -0.21875 -1.1875q-0.203125 -0.375 -0.703125 -0.375q-0.78125 0 -1.546875 0.859375l0 3.140625q0 0.609375 0.0625 0.75q0.09375 0.1875 0.25 0.28125q0.171875 0.078125 0.65625 0.078125l0 0.234375l-2.953125 0l0 -0.234375l0.140625 0q0.453125 0 0.609375 -0.234375q0.15625 -0.234375 0.15625 -0.875l0 -2.21875q0 -1.078125 -0.046875 -1.3125q-0.046875 -0.234375 -0.15625 -0.3125q-0.09375 -0.078125 -0.265625 -0.078125q-0.1875 0 -0.4375 0.09375l-0.09375 -0.234375l1.796875 -0.734375l0.28125 0l0 1.265625zm5.9296722 1.15625q-0.015625 1.328125 0.640625 2.078125q0.65625 0.765625 1.53125 0.765625q0.578125 0 1.015625 -0.3125q0.4375 -0.328125 0.734375 -1.109375l0.1875 0.125q-0.125 0.890625 -0.78125 1.625q-0.65625 0.734375 -1.65625 0.734375q-1.0625 0 -1.828125 -0.828125q-0.765625 -0.84375 -0.765625 -2.265625q0 -1.53125 0.78125 -2.375q0.78125 -0.859375 1.96875 -0.859375q1.0 0 1.640625 0.65625q0.640625 0.65625 0.640625 1.765625l-4.109375 0zm0 -0.375l2.75 0q-0.03125 -0.578125 -0.125 -0.8125q-0.171875 -0.359375 -0.5 -0.5625q-0.3125 -0.21875 -0.65625 -0.21875q-0.546875 0 -0.984375 0.421875q-0.421875 0.421875 -0.484375 1.171875zm6.6500397 -0.78125q1.046875 -1.265625 2.0 -1.265625q0.484375 0 0.828125 0.25q0.359375 0.234375 0.5625 0.796875q0.140625 0.390625 0.140625 1.203125l0 2.546875q0 0.5625 0.09375 0.765625q0.078125 0.15625 0.234375 0.25q0.15625 0.09375 0.59375 0.09375l0 0.234375l-2.953125 0l0 -0.234375l0.125 0q0.421875 0 0.578125 -0.125q0.171875 -0.125 0.234375 -0.375q0.03125 -0.09375 0.03125 -0.609375l0 -2.4375q0 -0.8125 -0.21875 -1.1875q-0.203125 -0.375 -0.703125 -0.375q-0.78125 0 -1.546875 0.859375l0 3.140625q0 0.609375 0.0625 0.75q0.09375 0.1875 0.25 0.28125q0.171875 0.078125 0.65625 0.078125l0 0.234375l-2.953125 0l0 -0.234375l0.140625 0q0.453125 0 0.609375 -0.234375q0.15625 -0.234375 0.15625 -0.875l0 -2.21875q0 -1.078125 -0.046875 -1.3125q-0.046875 -0.234375 -0.15625 -0.3125q-0.09375 -0.078125 -0.265625 -0.078125q-0.1875 0 -0.4375 0.09375l-0.09375 -0.234375l1.796875 -0.734375l0.28125 0l0 1.265625zm6.6484375 -3.046875l0 1.953125l1.40625 0l0 0.46875l-1.40625 0l0 3.859375q0 0.578125 0.171875 0.78125q0.171875 0.203125 0.421875 0.203125q0.21875 0 0.421875 -0.125q0.203125 -0.140625 0.3125 -0.40625l0.25 0q-0.21875 0.640625 -0.640625 0.96875q-0.421875 0.3125 -0.859375 0.3125q-0.296875 0 -0.59375 -0.15625q-0.28125 -0.171875 -0.421875 -0.484375q-0.125 -0.3125 -0.125 -0.953125l0 -4.0l-0.953125 0l0 -0.21875q0.359375 -0.140625 0.734375 -0.484375q0.375 -0.34375 0.671875 -0.8125q0.140625 -0.25 0.421875 -0.90625l0.1875 0z" fill-rule="nonzero"/><path fill="#cfe2f3" d="m89.06562 482.88452l101.10236 0l0 35.811035l-101.10236 0z" fill-rule="evenodd"/><path stroke="#000000" stroke-width="1.0" stroke-linejoin="round" stroke-linecap="butt" d="m89.06562 482.88452l101.10236 0l0 35.811035l-101.10236 0z" fill-rule="evenodd"/><path fill="#000000" d="m116.55016 496.55878l0.1875 3.0l-0.1875 0q-0.40625 -1.34375 -1.15625 -1.9375q-0.75 -0.59375 -1.796875 -0.59375q-0.875 0 -1.59375 0.453125q-0.703125 0.4375 -1.109375 1.421875q-0.40625 0.96875 -0.40625 2.421875q0 1.203125 0.375 2.078125q0.390625 0.875 1.15625 1.34375q0.78125 0.46875 1.765625 0.46875q0.859375 0 1.515625 -0.359375q0.65625 -0.375 1.4375 -1.46875l0.203125 0.140625q-0.65625 1.171875 -1.546875 1.71875q-0.875 0.546875 -2.09375 0.546875q-2.203125 0 -3.40625 -1.625q-0.890625 -1.21875 -0.890625 -2.859375q0 -1.3125 0.59375 -2.421875q0.59375 -1.109375 1.625 -1.71875q1.03125 -0.609375 2.265625 -0.609375q0.953125 0 1.890625 0.46875q0.265625 0.140625 0.390625 0.140625q0.171875 0 0.3125 -0.109375q0.15625 -0.1875 0.234375 -0.5l0.234375 0zm4.1866302 2.890625q1.359375 0 2.171875 1.03125q0.703125 0.875 0.703125 2.015625q0 0.796875 -0.390625 1.625q-0.375 0.8125 -1.046875 1.234375q-0.671875 0.421875 -1.5 0.421875q-1.359375 0 -2.140625 -1.078125q-0.671875 -0.90625 -0.671875 -2.03125q0 -0.8125 0.40625 -1.625q0.40625 -0.8125 1.0625 -1.203125q0.671875 -0.390625 1.40625 -0.390625zm-0.203125 0.421875q-0.34375 0 -0.6875 0.21875q-0.34375 0.203125 -0.5625 0.71875q-0.21875 0.5 -0.21875 1.3125q0 1.296875 0.515625 2.25q0.515625 0.9375 1.375 0.9375q0.625 0 1.03125 -0.515625q0.40625 -0.53125 0.40625 -1.796875q0 -1.578125 -0.671875 -2.5q-0.46875 -0.625 -1.1875 -0.625zm5.7265625 0.84375q0.65625 -0.640625 0.765625 -0.734375q0.296875 -0.25 0.625 -0.390625q0.34375 -0.140625 0.6718826 -0.140625q0.5625 0 0.96875 0.328125q0.40625 0.328125 0.546875 0.9375q0.671875 -0.78125 1.125 -1.015625q0.46875 -0.25 0.953125 -0.25q0.46875 0 0.828125 0.25q0.375 0.234375 0.59375 0.796875q0.140625 0.375 0.140625 1.1875l0 2.5625q0 0.5625 0.09375 0.765625q0.0625 0.140625 0.234375 0.25q0.171875 0.09375 0.578125 0.09375l0 0.234375l-2.953125 0l0 -0.234375l0.125 0q0.390625 0 0.609375 -0.15625q0.140625 -0.09375 0.203125 -0.328125q0.03125 -0.109375 0.03125 -0.625l0 -2.5625q0 -0.734375 -0.171875 -1.03125q-0.25 -0.421875 -0.8125 -0.421875q-0.34375 0 -0.703125 0.171875q-0.34375 0.171875 -0.828125 0.640625l-0.015625 0.078125l0.015625 0.28125l0 2.84375q0 0.609375 0.0625 0.765625q0.0625 0.140625 0.25 0.25q0.1875 0.09375 0.65625 0.09375l0 0.234375l-3.0156326 0l0 -0.234375q0.48438263 0 0.6718826 -0.109375q0.1875 -0.125 0.265625 -0.359375q0.03125 -0.109375 0.03125 -0.640625l0 -2.5625q0 -0.734375 -0.21875 -1.046875q-0.28125 -0.421875 -0.7968826 -0.421875q-0.359375 0 -0.703125 0.1875q-0.53125 0.28125 -0.828125 0.640625l0 3.203125q0 0.578125 0.078125 0.765625q0.078125 0.171875 0.234375 0.265625q0.171875 0.078125 0.65625 0.078125l0 0.234375l-2.953125 0l0 -0.234375q0.421875 0 0.578125 -0.078125q0.15625 -0.09375 0.234375 -0.28125q0.09375 -0.203125 0.09375 -0.75l0 -2.28125q0 -0.984375 -0.0625 -1.265625q-0.03125 -0.21875 -0.140625 -0.296875q-0.09375 -0.078125 -0.265625 -0.078125q-0.171875 0 -0.4375 0.09375l-0.09375 -0.234375l1.796875 -0.734375l0.28125 0l0 1.265625zm8.163933 -0.5l1.84375 -0.734375l0.234375 0l0 1.390625q0.46875 -0.78125 0.9375 -1.09375q0.46875 -0.328125 0.96875 -0.328125q0.90625 0 1.5 0.703125q0.734375 0.859375 0.734375 2.234375q0 1.546875 -0.875 2.5625q-0.734375 0.828125 -1.84375 0.828125q-0.484375 0 -0.828125 -0.140625q-0.265625 -0.09375 -0.59375 -0.390625l0 1.8125q0 0.609375 0.078125 0.78125q0.078125 0.171875 0.265625 0.265625q0.1875 0.09375 0.671875 0.09375l0 0.234375l-3.125 0l0 -0.234375l0.15625 0q0.359375 0 0.625 -0.140625q0.125 -0.0625 0.1875 -0.234375q0.0625 -0.15625 0.0625 -0.796875l0 -5.640625q0 -0.578125 -0.046875 -0.734375q-0.046875 -0.15625 -0.171875 -0.234375q-0.109375 -0.078125 -0.296875 -0.078125q-0.15625 0 -0.40625 0.09375l-0.078125 -0.21875zm2.078125 1.046875l0 2.21875q0 0.71875 0.0625 0.953125q0.09375 0.375 0.4375 0.671875q0.359375 0.28125 0.90625 0.28125q0.65625 0 1.046875 -0.515625q0.53125 -0.65625 0.53125 -1.859375q0 -1.375 -0.59375 -2.109375q-0.421875 -0.5 -0.984375 -0.5q-0.3125 0 -0.625 0.15625q-0.234375 0.109375 -0.78125 0.703125zm7.9296875 -1.8125q1.359375 0 2.171875 1.03125q0.703125 0.875 0.703125 2.015625q0 0.796875 -0.390625 1.625q-0.375 0.8125 -1.046875 1.234375q-0.671875 0.421875 -1.5 0.421875q-1.359375 0 -2.140625 -1.078125q-0.671875 -0.90625 -0.671875 -2.03125q0 -0.8125 0.40625 -1.625q0.40625 -0.8125 1.0625 -1.203125q0.671875 -0.390625 1.40625 -0.390625zm-0.203125 0.421875q-0.34375 0 -0.6875 0.21875q-0.34375 0.203125 -0.5625 0.71875q-0.21875 0.5 -0.21875 1.3125q0 1.296875 0.515625 2.25q0.515625 0.9375 1.375 0.9375q0.625 0 1.03125 -0.515625q0.40625 -0.53125 0.40625 -1.796875q0 -1.578125 -0.671875 -2.5q-0.46875 -0.625 -1.1875 -0.625zm5.6953125 0.84375q1.046875 -1.265625 2.0 -1.265625q0.484375 0 0.828125 0.25q0.35935974 0.234375 0.56248474 0.796875q0.140625 0.390625 0.140625 1.203125l0 2.546875q0 0.5625 0.09375 0.765625q0.078125 0.15625 0.234375 0.25q0.15625 0.09375 0.59375 0.09375l0 0.234375l-2.9531097 0l0 -0.234375l0.125 0q0.421875 0 0.578125 -0.125q0.171875 -0.125 0.234375 -0.375q0.03125 -0.09375 0.03125 -0.609375l0 -2.4375q0 -0.8125 -0.21875 -1.1875q-0.203125 -0.375 -0.703125 -0.375q-0.78125 0 -1.546875 0.859375l0 3.140625q0 0.609375 0.0625 0.75q0.09375 0.1875 0.25 0.28125q0.171875 0.078125 0.65625 0.078125l0 0.234375l-2.953125 0l0 -0.234375l0.140625 0q0.453125 0 0.609375 -0.234375q0.15625 -0.234375 0.15625 -0.875l0 -2.21875q0 -1.078125 -0.046875 -1.3125q-0.046875 -0.234375 -0.15625 -0.3125q-0.09375 -0.078125 -0.265625 -0.078125q-0.1875 0 -0.4375 0.09375l-0.09375 -0.234375l1.796875 -0.734375l0.28125 0l0 1.265625zm5.9296722 1.15625q-0.015625 1.328125 0.640625 2.078125q0.65625 0.765625 1.53125 0.765625q0.578125 0 1.015625 -0.3125q0.4375 -0.328125 0.734375 -1.109375l0.1875 0.125q-0.125 0.890625 -0.78125 1.625q-0.65625 0.734375 -1.65625 0.734375q-1.0625 0 -1.828125 -0.828125q-0.765625 -0.84375 -0.765625 -2.265625q0 -1.53125 0.78125 -2.375q0.78125 -0.859375 1.96875 -0.859375q1.0 0 1.640625 0.65625q0.640625 0.65625 0.640625 1.765625l-4.109375 0zm0 -0.375l2.75 0q-0.03125 -0.578125 -0.125 -0.8125q-0.171875 -0.359375 -0.5 -0.5625q-0.3125 -0.21875 -0.65625 -0.21875q-0.546875 0 -0.984375 0.421875q-0.421875 0.421875 -0.484375 1.171875zm6.6500397 -0.78125q1.046875 -1.265625 2.0 -1.265625q0.484375 0 0.828125 0.25q0.359375 0.234375 0.5625 0.796875q0.140625 0.390625 0.140625 1.203125l0 2.546875q0 0.5625 0.09375 0.765625q0.078125 0.15625 0.234375 0.25q0.15625 0.09375 0.59375 0.09375l0 0.234375l-2.953125 0l0 -0.234375l0.125 0q0.421875 0 0.578125 -0.125q0.171875 -0.125 0.234375 -0.375q0.03125 -0.09375 0.03125 -0.609375l0 -2.4375q0 -0.8125 -0.21875 -1.1875q-0.203125 -0.375 -0.703125 -0.375q-0.78125 0 -1.546875 0.859375l0 3.140625q0 0.609375 0.0625 0.75q0.09375 0.1875 0.25 0.28125q0.171875 0.078125 0.65625 0.078125l0 0.234375l-2.953125 0l0 -0.234375l0.140625 0q0.453125 0 0.609375 -0.234375q0.15625 -0.234375 0.15625 -0.875l0 -2.21875q0 -1.078125 -0.046875 -1.3125q-0.046875 -0.234375 -0.15625 -0.3125q-0.09375 -0.078125 -0.265625 -0.078125q-0.1875 0 -0.4375 0.09375l-0.09375 -0.234375l1.796875 -0.734375l0.28125 0l0 1.265625zm6.6484375 -3.046875l0 1.953125l1.40625 0l0 0.46875l-1.40625 0l0 3.859375q0 0.578125 0.171875 0.78125q0.171875 0.203125 0.421875 0.203125q0.21875 0 0.421875 -0.125q0.203125 -0.140625 0.3125 -0.40625l0.25 0q-0.21875 0.640625 -0.640625 0.96875q-0.421875 0.3125 -0.859375 0.3125q-0.296875 0 -0.59375 -0.15625q-0.28125 -0.171875 -0.421875 -0.484375q-0.125 -0.3125 -0.125 -0.953125l0 -4.0l-0.953125 0l0 -0.21875q0.359375 -0.140625 0.734375 -0.484375q0.375 -0.34375 0.671875 -0.8125q0.140625 -0.25 0.421875 -0.90625l0.1875 0z" fill-rule="nonzero"/><path fill="#cfe2f3" d="m89.06562 557.90027l101.10236 0l0 35.811035l-101.10236 0z" fill-rule="evenodd"/><path stroke="#000000" stroke-width="1.0" stroke-linejoin="round" stroke-linecap="butt" d="m89.06562 557.90027l101.10236 0l0 35.811035l-101.10236 0z" fill-rule="evenodd"/><path fill="#000000" d="m116.55016 571.5745l0.1875 3.0l-0.1875 0q-0.40625 -1.34375 -1.15625 -1.9375q-0.75 -0.59375 -1.796875 -0.59375q-0.875 0 -1.59375 0.453125q-0.703125 0.4375 -1.109375 1.421875q-0.40625 0.96875 -0.40625 2.421875q0 1.203125 0.375 2.078125q0.390625 0.875 1.15625 1.34375q0.78125 0.46875 1.765625 0.46875q0.859375 0 1.515625 -0.359375q0.65625 -0.375 1.4375 -1.46875l0.203125 0.140625q-0.65625 1.171875 -1.546875 1.71875q-0.875 0.546875 -2.09375 0.546875q-2.203125 0 -3.40625 -1.625q-0.890625 -1.21875 -0.890625 -2.859375q0 -1.3125 0.59375 -2.421875q0.59375 -1.109375 1.625 -1.71875q1.03125 -0.609375 2.265625 -0.609375q0.953125 0 1.890625 0.46875q0.265625 0.140625 0.390625 0.140625q0.171875 0 0.3125 -0.109375q0.15625 -0.1875 0.234375 -0.5l0.234375 0zm4.1866302 2.890625q1.359375 0 2.171875 1.03125q0.703125 0.875 0.703125 2.015625q0 0.796875 -0.390625 1.625q-0.375 0.8125 -1.046875 1.234375q-0.671875 0.421875 -1.5 0.421875q-1.359375 0 -2.140625 -1.078125q-0.671875 -0.90625 -0.671875 -2.03125q0 -0.8125 0.40625 -1.625q0.40625 -0.8125 1.0625 -1.203125q0.671875 -0.390625 1.40625 -0.390625zm-0.203125 0.421875q-0.34375 0 -0.6875 0.21875q-0.34375 0.203125 -0.5625 0.71875q-0.21875 0.5 -0.21875 1.3125q0 1.296875 0.515625 2.25q0.515625 0.9375 1.375 0.9375q0.625 0 1.03125 -0.515625q0.40625 -0.53125 0.40625 -1.796875q0 -1.578125 -0.671875 -2.5q-0.46875 -0.625 -1.1875 -0.625zm5.7265625 0.84375q0.65625 -0.640625 0.765625 -0.734375q0.296875 -0.25 0.625 -0.390625q0.34375 -0.140625 0.6718826 -0.140625q0.5625 0 0.96875 0.328125q0.40625 0.328125 0.546875 0.9375q0.671875 -0.78125 1.125 -1.015625q0.46875 -0.25 0.953125 -0.25q0.46875 0 0.828125 0.25q0.375 0.234375 0.59375 0.796875q0.140625 0.375 0.140625 1.1875l0 2.5625q0 0.5625 0.09375 0.765625q0.0625 0.140625 0.234375 0.25q0.171875 0.09375 0.578125 0.09375l0 0.234375l-2.953125 0l0 -0.234375l0.125 0q0.390625 0 0.609375 -0.15625q0.140625 -0.09375 0.203125 -0.328125q0.03125 -0.109375 0.03125 -0.625l0 -2.5625q0 -0.734375 -0.171875 -1.03125q-0.25 -0.421875 -0.8125 -0.421875q-0.34375 0 -0.703125 0.171875q-0.34375 0.171875 -0.828125 0.640625l-0.015625 0.078125l0.015625 0.28125l0 2.84375q0 0.609375 0.0625 0.765625q0.0625 0.140625 0.25 0.25q0.1875 0.09375 0.65625 0.09375l0 0.234375l-3.0156326 0l0 -0.234375q0.48438263 0 0.6718826 -0.109375q0.1875 -0.125 0.265625 -0.359375q0.03125 -0.109375 0.03125 -0.640625l0 -2.5625q0 -0.734375 -0.21875 -1.046875q-0.28125 -0.421875 -0.7968826 -0.421875q-0.359375 0 -0.703125 0.1875q-0.53125 0.28125 -0.828125 0.640625l0 3.203125q0 0.578125 0.078125 0.765625q0.078125 0.171875 0.234375 0.265625q0.171875 0.078125 0.65625 0.078125l0 0.234375l-2.953125 0l0 -0.234375q0.421875 0 0.578125 -0.078125q0.15625 -0.09375 0.234375 -0.28125q0.09375 -0.203125 0.09375 -0.75l0 -2.28125q0 -0.984375 -0.0625 -1.265625q-0.03125 -0.21875 -0.140625 -0.296875q-0.09375 -0.078125 -0.265625 -0.078125q-0.171875 0 -0.4375 0.09375l-0.09375 -0.234375l1.796875 -0.734375l0.28125 0l0 1.265625zm8.163933 -0.5l1.84375 -0.734375l0.234375 0l0 1.390625q0.46875 -0.78125 0.9375 -1.09375q0.46875 -0.328125 0.96875 -0.328125q0.90625 0 1.5 0.703125q0.734375 0.859375 0.734375 2.234375q0 1.546875 -0.875 2.5625q-0.734375 0.828125 -1.84375 0.828125q-0.484375 0 -0.828125 -0.140625q-0.265625 -0.09375 -0.59375 -0.390625l0 1.8125q0 0.609375 0.078125 0.78125q0.078125 0.171875 0.265625 0.265625q0.1875 0.09375 0.671875 0.09375l0 0.234375l-3.125 0l0 -0.234375l0.15625 0q0.359375 0 0.625 -0.140625q0.125 -0.0625 0.1875 -0.234375q0.0625 -0.15625 0.0625 -0.796875l0 -5.640625q0 -0.578125 -0.046875 -0.734375q-0.046875 -0.15625 -0.171875 -0.234375q-0.109375 -0.078125 -0.296875 -0.078125q-0.15625 0 -0.40625 0.09375l-0.078125 -0.21875zm2.078125 1.046875l0 2.21875q0 0.71875 0.0625 0.953125q0.09375 0.375 0.4375 0.671875q0.359375 0.28125 0.90625 0.28125q0.65625 0 1.046875 -0.515625q0.53125 -0.65625 0.53125 -1.859375q0 -1.375 -0.59375 -2.109375q-0.421875 -0.5 -0.984375 -0.5q-0.3125 0 -0.625 0.15625q-0.234375 0.109375 -0.78125 0.703125zm7.9296875 -1.8125q1.359375 0 2.171875 1.03125q0.703125 0.875 0.703125 2.015625q0 0.796875 -0.390625 1.625q-0.375 0.8125 -1.046875 1.234375q-0.671875 0.421875 -1.5 0.421875q-1.359375 0 -2.140625 -1.078125q-0.671875 -0.90625 -0.671875 -2.03125q0 -0.8125 0.40625 -1.625q0.40625 -0.8125 1.0625 -1.203125q0.671875 -0.390625 1.40625 -0.390625zm-0.203125 0.421875q-0.34375 0 -0.6875 0.21875q-0.34375 0.203125 -0.5625 0.71875q-0.21875 0.5 -0.21875 1.3125q0 1.296875 0.515625 2.25q0.515625 0.9375 1.375 0.9375q0.625 0 1.03125 -0.515625q0.40625 -0.53125 0.40625 -1.796875q0 -1.578125 -0.671875 -2.5q-0.46875 -0.625 -1.1875 -0.625zm5.6953125 0.84375q1.046875 -1.265625 2.0 -1.265625q0.484375 0 0.828125 0.25q0.35935974 0.234375 0.56248474 0.796875q0.140625 0.390625 0.140625 1.203125l0 2.546875q0 0.5625 0.09375 0.765625q0.078125 0.15625 0.234375 0.25q0.15625 0.09375 0.59375 0.09375l0 0.234375l-2.9531097 0l0 -0.234375l0.125 0q0.421875 0 0.578125 -0.125q0.171875 -0.125 0.234375 -0.375q0.03125 -0.09375 0.03125 -0.609375l0 -2.4375q0 -0.8125 -0.21875 -1.1875q-0.203125 -0.375 -0.703125 -0.375q-0.78125 0 -1.546875 0.859375l0 3.140625q0 0.609375 0.0625 0.75q0.09375 0.1875 0.25 0.28125q0.171875 0.078125 0.65625 0.078125l0 0.234375l-2.953125 0l0 -0.234375l0.140625 0q0.453125 0 0.609375 -0.234375q0.15625 -0.234375 0.15625 -0.875l0 -2.21875q0 -1.078125 -0.046875 -1.3125q-0.046875 -0.234375 -0.15625 -0.3125q-0.09375 -0.078125 -0.265625 -0.078125q-0.1875 0 -0.4375 0.09375l-0.09375 -0.234375l1.796875 -0.734375l0.28125 0l0 1.265625zm5.9296722 1.15625q-0.015625 1.328125 0.640625 2.078125q0.65625 0.765625 1.53125 0.765625q0.578125 0 1.015625 -0.3125q0.4375 -0.328125 0.734375 -1.109375l0.1875 0.125q-0.125 0.890625 -0.78125 1.625q-0.65625 0.734375 -1.65625 0.734375q-1.0625 0 -1.828125 -0.828125q-0.765625 -0.84375 -0.765625 -2.265625q0 -1.53125 0.78125 -2.375q0.78125 -0.859375 1.96875 -0.859375q1.0 0 1.640625 0.65625q0.640625 0.65625 0.640625 1.765625l-4.109375 0zm0 -0.375l2.75 0q-0.03125 -0.578125 -0.125 -0.8125q-0.171875 -0.359375 -0.5 -0.5625q-0.3125 -0.21875 -0.65625 -0.21875q-0.546875 0 -0.984375 0.421875q-0.421875 0.421875 -0.484375 1.171875zm6.6500397 -0.78125q1.046875 -1.265625 2.0 -1.265625q0.484375 0 0.828125 0.25q0.359375 0.234375 0.5625 0.796875q0.140625 0.390625 0.140625 1.203125l0 2.546875q0 0.5625 0.09375 0.765625q0.078125 0.15625 0.234375 0.25q0.15625 0.09375 0.59375 0.09375l0 0.234375l-2.953125 0l0 -0.234375l0.125 0q0.421875 0 0.578125 -0.125q0.171875 -0.125 0.234375 -0.375q0.03125 -0.09375 0.03125 -0.609375l0 -2.4375q0 -0.8125 -0.21875 -1.1875q-0.203125 -0.375 -0.703125 -0.375q-0.78125 0 -1.546875 0.859375l0 3.140625q0 0.609375 0.0625 0.75q0.09375 0.1875 0.25 0.28125q0.171875 0.078125 0.65625 0.078125l0 0.234375l-2.953125 0l0 -0.234375l0.140625 0q0.453125 0 0.609375 -0.234375q0.15625 -0.234375 0.15625 -0.875l0 -2.21875q0 -1.078125 -0.046875 -1.3125q-0.046875 -0.234375 -0.15625 -0.3125q-0.09375 -0.078125 -0.265625 -0.078125q-0.1875 0 -0.4375 0.09375l-0.09375 -0.234375l1.796875 -0.734375l0.28125 0l0 1.265625zm6.6484375 -3.046875l0 1.953125l1.40625 0l0 0.46875l-1.40625 0l0 3.859375q0 0.578125 0.171875 0.78125q0.171875 0.203125 0.421875 0.203125q0.21875 0 0.421875 -0.125q0.203125 -0.140625 0.3125 -0.40625l0.25 0q-0.21875 0.640625 -0.640625 0.96875q-0.421875 0.3125 -0.859375 0.3125q-0.296875 0 -0.59375 -0.15625q-0.28125 -0.171875 -0.421875 -0.484375q-0.125 -0.3125 -0.125 -0.953125l0 -4.0l-0.953125 0l0 -0.21875q0.359375 -0.140625 0.734375 -0.484375q0.375 -0.34375 0.671875 -0.8125q0.140625 -0.25 0.421875 -0.90625l0.1875 0z" fill-rule="nonzero"/><path fill="#cfe2f3" d="m227.82152 417.31235l101.10237 0l0 35.811005l-101.10237 0z" fill-rule="evenodd"/><path stroke="#000000" stroke-width="1.0" stroke-linejoin="round" stroke-linecap="butt" d="m227.82152 417.31235l101.10237 0l0 35.811005l-101.10237 0z" fill-rule="evenodd"/><path fill="#000000" d="m266.02734 440.01785l0 -0.234375l0.328125 0q0.5625 0 0.796875 -0.359375q0.140625 -0.21875 0.140625 -0.96875l0 -5.703125q0 -0.828125 -0.1875 -1.03125q-0.25 -0.28125 -0.75 -0.28125l-0.328125 0l0 -0.25l3.578125 0q1.984375 0 3.015625 0.453125q1.03125 0.453125 1.65625 1.5q0.640625 1.046875 0.640625 2.421875q0 1.84375 -1.125 3.078125q-1.265625 1.375 -3.828125 1.375l-3.9375 0zm2.515625 -0.640625q0.828125 0.1875 1.375 0.1875q1.515625 0 2.515625 -1.0625q1.0 -1.0625 1.0 -2.875q0 -1.828125 -1.0 -2.875q-1.0 -1.0625 -2.5625 -1.0625q-0.578125 0 -1.328125 0.1875l0 7.5zm10.672028 -0.21875q-0.921875 0.703125 -1.15625 0.828125q-0.34375 0.15625 -0.75 0.15625q-0.609375 0 -1.015625 -0.421875q-0.40625 -0.421875 -0.40625 -1.109375q0 -0.4375 0.203125 -0.765625q0.265625 -0.4375 0.921875 -0.828125q0.671875 -0.390625 2.203125 -0.953125l0 -0.234375q0 -0.890625 -0.28125 -1.21875q-0.28125 -0.328125 -0.828125 -0.328125q-0.40625 0 -0.65625 0.21875q-0.234375 0.21875 -0.234375 0.5l0 0.375q0 0.3125 -0.15625 0.46875q-0.140625 0.15625 -0.390625 0.15625q-0.234375 0 -0.390625 -0.15625q-0.15625 -0.171875 -0.15625 -0.46875q0 -0.5625 0.5625 -1.03125q0.578125 -0.46875 1.625 -0.46875q0.78125 0 1.296875 0.265625q0.375 0.203125 0.5625 0.640625q0.125 0.28125 0.125 1.140625l0 2.03125q0 0.84375 0.03125 1.046875q0.03125 0.1875 0.09375 0.25q0.078125 0.0625 0.1875 0.0625q0.09375 0 0.171875 -0.046875q0.140625 -0.078125 0.53125 -0.46875l0 0.359375q-0.734375 0.96875 -1.390625 0.96875q-0.328125 0 -0.515625 -0.21875q-0.1875 -0.21875 -0.1875 -0.75zm0 -0.421875l0 -2.265625q-0.984375 0.390625 -1.265625 0.546875q-0.515625 0.28125 -0.75 0.59375q-0.21875 0.3125 -0.21875 0.6875q0 0.46875 0.28125 0.78125q0.28125 0.3125 0.65625 0.3125q0.484375 0 1.296875 -0.65625zm4.25943 -6.640625l0 1.953125l1.40625 0l0 0.46875l-1.40625 0l0 3.859375q0 0.578125 0.171875 0.78125q0.171875 0.203125 0.421875 0.203125q0.21875 0 0.421875 -0.125q0.203125 -0.140625 0.3125 -0.40625l0.25 0q-0.21875 0.640625 -0.640625 0.96875q-0.421875 0.3125 -0.859375 0.3125q-0.296875 0 -0.59375 -0.15625q-0.28125 -0.171875 -0.421875 -0.484375q-0.125 -0.3125 -0.125 -0.953125l0 -4.0l-0.953125 0l0 -0.21875q0.359375 -0.140625 0.734375 -0.484375q0.375 -0.34375 0.671875 -0.8125q0.140625 -0.25 0.421875 -0.90625l0.1875 0zm5.3592224 7.0625q-0.921875 0.703125 -1.15625 0.828125q-0.34375 0.15625 -0.75 0.15625q-0.609375 0 -1.015625 -0.421875q-0.40625 -0.421875 -0.40625 -1.109375q0 -0.4375 0.203125 -0.765625q0.265625 -0.4375 0.921875 -0.828125q0.671875 -0.390625 2.203125 -0.953125l0 -0.234375q0 -0.890625 -0.28125 -1.21875q-0.28125 -0.328125 -0.828125 -0.328125q-0.40625 0 -0.65625 0.21875q-0.234375 0.21875 -0.234375 0.5l0 0.375q0 0.3125 -0.15625 0.46875q-0.140625 0.15625 -0.390625 0.15625q-0.234375 0 -0.390625 -0.15625q-0.15625 -0.171875 -0.15625 -0.46875q0 -0.5625 0.5625 -1.03125q0.578125 -0.46875 1.625 -0.46875q0.78125 0 1.296875 0.265625q0.375 0.203125 0.5625 0.640625q0.125 0.28125 0.125 1.140625l0 2.03125q0 0.84375 0.03125 1.046875q0.03125 0.1875 0.09375 0.25q0.078125 0.0625 0.1875 0.0625q0.09375 0 0.171875 -0.046875q0.140625 -0.078125 0.53125 -0.46875l0 0.359375q-0.734375 0.96875 -1.390625 0.96875q-0.328125 0 -0.515625 -0.21875q-0.1875 -0.21875 -0.1875 -0.75zm0 -0.421875l0 -2.265625q-0.984375 0.390625 -1.265625 0.546875q-0.515625 0.28125 -0.75 0.59375q-0.21875 0.3125 -0.21875 0.6875q0 0.46875 0.28125 0.78125q0.28125 0.3125 0.65625 0.3125q0.484375 0 1.296875 -0.65625z" fill-rule="nonzero"/><path fill="#cfe2f3" d="m227.82152 360.0l101.10237 0l0 35.811035l-101.10237 0z" fill-rule="evenodd"/><path stroke="#000000" stroke-width="1.0" stroke-linejoin="round" stroke-linecap="butt" d="m227.82152 360.0l101.10237 0l0 35.811035l-101.10237 0z" fill-rule="evenodd"/><path fill="#000000" d="m266.02734 382.7055l0 -0.234375l0.328125 0q0.5625 0 0.796875 -0.359375q0.140625 -0.21875 0.140625 -0.96875l0 -5.703125q0 -0.828125 -0.1875 -1.03125q-0.25 -0.28125 -0.75 -0.28125l-0.328125 0l0 -0.25l3.578125 0q1.984375 0 3.015625 0.453125q1.03125 0.453125 1.65625 1.5q0.640625 1.046875 0.640625 2.421875q0 1.84375 -1.125 3.078125q-1.265625 1.375 -3.828125 1.375l-3.9375 0zm2.515625 -0.640625q0.828125 0.1875 1.375 0.1875q1.515625 0 2.515625 -1.0625q1.0 -1.0625 1.0 -2.875q0 -1.828125 -1.0 -2.875q-1.0 -1.0625 -2.5625 -1.0625q-0.578125 0 -1.328125 0.1875l0 7.5zm10.672028 -0.21875q-0.921875 0.703125 -1.15625 0.828125q-0.34375 0.15625 -0.75 0.15625q-0.609375 0 -1.015625 -0.421875q-0.40625 -0.421875 -0.40625 -1.109375q0 -0.4375 0.203125 -0.765625q0.265625 -0.4375 0.921875 -0.828125q0.671875 -0.390625 2.203125 -0.953125l0 -0.234375q0 -0.890625 -0.28125 -1.21875q-0.28125 -0.328125 -0.828125 -0.328125q-0.40625 0 -0.65625 0.21875q-0.234375 0.21875 -0.234375 0.5l0 0.375q0 0.3125 -0.15625 0.46875q-0.140625 0.15625 -0.390625 0.15625q-0.234375 0 -0.390625 -0.15625q-0.15625 -0.171875 -0.15625 -0.46875q0 -0.5625 0.5625 -1.03125q0.578125 -0.46875 1.625 -0.46875q0.78125 0 1.296875 0.265625q0.375 0.203125 0.5625 0.640625q0.125 0.28125 0.125 1.140625l0 2.03125q0 0.84375 0.03125 1.046875q0.03125 0.1875 0.09375 0.25q0.078125 0.0625 0.1875 0.0625q0.09375 0 0.171875 -0.046875q0.140625 -0.078125 0.53125 -0.46875l0 0.359375q-0.734375 0.96875 -1.390625 0.96875q-0.328125 0 -0.515625 -0.21875q-0.1875 -0.21875 -0.1875 -0.75zm0 -0.421875l0 -2.265625q-0.984375 0.390625 -1.265625 0.546875q-0.515625 0.28125 -0.75 0.59375q-0.21875 0.3125 -0.21875 0.6875q0 0.46875 0.28125 0.78125q0.28125 0.3125 0.65625 0.3125q0.484375 0 1.296875 -0.65625zm4.25943 -6.640625l0 1.953125l1.40625 0l0 0.46875l-1.40625 0l0 3.859375q0 0.578125 0.171875 0.78125q0.171875 0.203125 0.421875 0.203125q0.21875 0 0.421875 -0.125q0.203125 -0.140625 0.3125 -0.40625l0.25 0q-0.21875 0.640625 -0.640625 0.96875q-0.421875 0.3125 -0.859375 0.3125q-0.296875 0 -0.59375 -0.15625q-0.28125 -0.171875 -0.421875 -0.484375q-0.125 -0.3125 -0.125 -0.953125l0 -4.0l-0.953125 0l0 -0.21875q0.359375 -0.140625 0.734375 -0.484375q0.375 -0.34375 0.671875 -0.8125q0.140625 -0.25 0.421875 -0.90625l0.1875 0zm5.3592224 7.0625q-0.921875 0.703125 -1.15625 0.828125q-0.34375 0.15625 -0.75 0.15625q-0.609375 0 -1.015625 -0.421875q-0.40625 -0.421875 -0.40625 -1.109375q0 -0.4375 0.203125 -0.765625q0.265625 -0.4375 0.921875 -0.828125q0.671875 -0.390625 2.203125 -0.953125l0 -0.234375q0 -0.890625 -0.28125 -1.21875q-0.28125 -0.328125 -0.828125 -0.328125q-0.40625 0 -0.65625 0.21875q-0.234375 0.21875 -0.234375 0.5l0 0.375q0 0.3125 -0.15625 0.46875q-0.140625 0.15625 -0.390625 0.15625q-0.234375 0 -0.390625 -0.15625q-0.15625 -0.171875 -0.15625 -0.46875q0 -0.5625 0.5625 -1.03125q0.578125 -0.46875 1.625 -0.46875q0.78125 0 1.296875 0.265625q0.375 0.203125 0.5625 0.640625q0.125 0.28125 0.125 1.140625l0 2.03125q0 0.84375 0.03125 1.046875q0.03125 0.1875 0.09375 0.25q0.078125 0.0625 0.1875 0.0625q0.09375 0 0.171875 -0.046875q0.140625 -0.078125 0.53125 -0.46875l0 0.359375q-0.734375 0.96875 -1.390625 0.96875q-0.328125 0 -0.515625 -0.21875q-0.1875 -0.21875 -0.1875 -0.75zm0 -0.421875l0 -2.265625q-0.984375 0.390625 -1.265625 0.546875q-0.515625 0.28125 -0.75 0.59375q-0.21875 0.3125 -0.21875 0.6875q0 0.46875 0.28125 0.78125q0.28125 0.3125 0.65625 0.3125q0.484375 0 1.296875 -0.65625z" fill-rule="nonzero"/><path fill="#cfe2f3" d="m227.82152 482.88452l101.10237 0l0 35.811035l-101.10237 0z" fill-rule="evenodd"/><path stroke="#000000" stroke-width="1.0" stroke-linejoin="round" stroke-linecap="butt" d="m227.82152 482.88452l101.10237 0l0 35.811035l-101.10237 0z" fill-rule="evenodd"/><path fill="#000000" d="m266.02734 505.59003l0 -0.234375l0.328125 0q0.5625 0 0.796875 -0.359375q0.140625 -0.21875 0.140625 -0.96875l0 -5.703125q0 -0.828125 -0.1875 -1.03125q-0.25 -0.28125 -0.75 -0.28125l-0.328125 0l0 -0.25l3.578125 0q1.984375 0 3.015625 0.453125q1.03125 0.453125 1.65625 1.5q0.640625 1.046875 0.640625 2.421875q0 1.84375 -1.125 3.078125q-1.265625 1.375 -3.828125 1.375l-3.9375 0zm2.515625 -0.640625q0.828125 0.1875 1.375 0.1875q1.515625 0 2.515625 -1.0625q1.0 -1.0625 1.0 -2.875q0 -1.828125 -1.0 -2.875q-1.0 -1.0625 -2.5625 -1.0625q-0.578125 0 -1.328125 0.1875l0 7.5zm10.672028 -0.21875q-0.921875 0.703125 -1.15625 0.828125q-0.34375 0.15625 -0.75 0.15625q-0.609375 0 -1.015625 -0.421875q-0.40625 -0.421875 -0.40625 -1.109375q0 -0.4375 0.203125 -0.765625q0.265625 -0.4375 0.921875 -0.828125q0.671875 -0.390625 2.203125 -0.953125l0 -0.234375q0 -0.890625 -0.28125 -1.21875q-0.28125 -0.328125 -0.828125 -0.328125q-0.40625 0 -0.65625 0.21875q-0.234375 0.21875 -0.234375 0.5l0 0.375q0 0.3125 -0.15625 0.46875q-0.140625 0.15625 -0.390625 0.15625q-0.234375 0 -0.390625 -0.15625q-0.15625 -0.171875 -0.15625 -0.46875q0 -0.5625 0.5625 -1.03125q0.578125 -0.46875 1.625 -0.46875q0.78125 0 1.296875 0.265625q0.375 0.203125 0.5625 0.640625q0.125 0.28125 0.125 1.140625l0 2.03125q0 0.84375 0.03125 1.046875q0.03125 0.1875 0.09375 0.25q0.078125 0.0625 0.1875 0.0625q0.09375 0 0.171875 -0.046875q0.140625 -0.078125 0.53125 -0.46875l0 0.359375q-0.734375 0.96875 -1.390625 0.96875q-0.328125 0 -0.515625 -0.21875q-0.1875 -0.21875 -0.1875 -0.75zm0 -0.421875l0 -2.265625q-0.984375 0.390625 -1.265625 0.546875q-0.515625 0.28125 -0.75 0.59375q-0.21875 0.3125 -0.21875 0.6875q0 0.46875 0.28125 0.78125q0.28125 0.3125 0.65625 0.3125q0.484375 0 1.296875 -0.65625zm4.25943 -6.640625l0 1.953125l1.40625 0l0 0.46875l-1.40625 0l0 3.859375q0 0.578125 0.171875 0.78125q0.171875 0.203125 0.421875 0.203125q0.21875 0 0.421875 -0.125q0.203125 -0.140625 0.3125 -0.40625l0.25 0q-0.21875 0.640625 -0.640625 0.96875q-0.421875 0.3125 -0.859375 0.3125q-0.296875 0 -0.59375 -0.15625q-0.28125 -0.171875 -0.421875 -0.484375q-0.125 -0.3125 -0.125 -0.953125l0 -4.0l-0.953125 0l0 -0.21875q0.359375 -0.140625 0.734375 -0.484375q0.375 -0.34375 0.671875 -0.8125q0.140625 -0.25 0.421875 -0.90625l0.1875 0zm5.3592224 7.0625q-0.921875 0.703125 -1.15625 0.828125q-0.34375 0.15625 -0.75 0.15625q-0.609375 0 -1.015625 -0.421875q-0.40625 -0.421875 -0.40625 -1.109375q0 -0.4375 0.203125 -0.765625q0.265625 -0.4375 0.921875 -0.828125q0.671875 -0.390625 2.203125 -0.953125l0 -0.234375q0 -0.890625 -0.28125 -1.21875q-0.28125 -0.328125 -0.828125 -0.328125q-0.40625 0 -0.65625 0.21875q-0.234375 0.21875 -0.234375 0.5l0 0.375q0 0.3125 -0.15625 0.46875q-0.140625 0.15625 -0.390625 0.15625q-0.234375 0 -0.390625 -0.15625q-0.15625 -0.171875 -0.15625 -0.46875q0 -0.5625 0.5625 -1.03125q0.578125 -0.46875 1.625 -0.46875q0.78125 0 1.296875 0.265625q0.375 0.203125 0.5625 0.640625q0.125 0.28125 0.125 1.140625l0 2.03125q0 0.84375 0.03125 1.046875q0.03125 0.1875 0.09375 0.25q0.078125 0.0625 0.1875 0.0625q0.09375 0 0.171875 -0.046875q0.140625 -0.078125 0.53125 -0.46875l0 0.359375q-0.734375 0.96875 -1.390625 0.96875q-0.328125 0 -0.515625 -0.21875q-0.1875 -0.21875 -0.1875 -0.75zm0 -0.421875l0 -2.265625q-0.984375 0.390625 -1.265625 0.546875q-0.515625 0.28125 -0.75 0.59375q-0.21875 0.3125 -0.21875 0.6875q0 0.46875 0.28125 0.78125q0.28125 0.3125 0.65625 0.3125q0.484375 0 1.296875 -0.65625z" fill-rule="nonzero"/><path fill="#cfe2f3" d="m227.82152 557.90027l101.10237 0l0 35.811035l-101.10237 0z" fill-rule="evenodd"/><path stroke="#000000" stroke-width="1.0" stroke-linejoin="round" stroke-linecap="butt" d="m227.82152 557.90027l101.10237 0l0 35.811035l-101.10237 0z" fill-rule="evenodd"/><path fill="#000000" d="m266.02734 580.6058l0 -0.234375l0.328125 0q0.5625 0 0.796875 -0.359375q0.140625 -0.21875 0.140625 -0.96875l0 -5.703125q0 -0.828125 -0.1875 -1.03125q-0.25 -0.28125 -0.75 -0.28125l-0.328125 0l0 -0.25l3.578125 0q1.984375 0 3.015625 0.453125q1.03125 0.453125 1.65625 1.5q0.640625 1.046875 0.640625 2.421875q0 1.84375 -1.125 3.078125q-1.265625 1.375 -3.828125 1.375l-3.9375 0zm2.515625 -0.640625q0.828125 0.1875 1.375 0.1875q1.515625 0 2.515625 -1.0625q1.0 -1.0625 1.0 -2.875q0 -1.828125 -1.0 -2.875q-1.0 -1.0625 -2.5625 -1.0625q-0.578125 0 -1.328125 0.1875l0 7.5zm10.672028 -0.21875q-0.921875 0.703125 -1.15625 0.828125q-0.34375 0.15625 -0.75 0.15625q-0.609375 0 -1.015625 -0.421875q-0.40625 -0.421875 -0.40625 -1.109375q0 -0.4375 0.203125 -0.765625q0.265625 -0.4375 0.921875 -0.828125q0.671875 -0.390625 2.203125 -0.953125l0 -0.234375q0 -0.890625 -0.28125 -1.21875q-0.28125 -0.328125 -0.828125 -0.328125q-0.40625 0 -0.65625 0.21875q-0.234375 0.21875 -0.234375 0.5l0 0.375q0 0.3125 -0.15625 0.46875q-0.140625 0.15625 -0.390625 0.15625q-0.234375 0 -0.390625 -0.15625q-0.15625 -0.171875 -0.15625 -0.46875q0 -0.5625 0.5625 -1.03125q0.578125 -0.46875 1.625 -0.46875q0.78125 0 1.296875 0.265625q0.375 0.203125 0.5625 0.640625q0.125 0.28125 0.125 1.140625l0 2.03125q0 0.84375 0.03125 1.046875q0.03125 0.1875 0.09375 0.25q0.078125 0.0625 0.1875 0.0625q0.09375 0 0.171875 -0.046875q0.140625 -0.078125 0.53125 -0.46875l0 0.359375q-0.734375 0.96875 -1.390625 0.96875q-0.328125 0 -0.515625 -0.21875q-0.1875 -0.21875 -0.1875 -0.75zm0 -0.421875l0 -2.265625q-0.984375 0.390625 -1.265625 0.546875q-0.515625 0.28125 -0.75 0.59375q-0.21875 0.3125 -0.21875 0.6875q0 0.46875 0.28125 0.78125q0.28125 0.3125 0.65625 0.3125q0.484375 0 1.296875 -0.65625zm4.25943 -6.640625l0 1.953125l1.40625 0l0 0.46875l-1.40625 0l0 3.859375q0 0.578125 0.171875 0.78125q0.171875 0.203125 0.421875 0.203125q0.21875 0 0.421875 -0.125q0.203125 -0.140625 0.3125 -0.40625l0.25 0q-0.21875 0.640625 -0.640625 0.96875q-0.421875 0.3125 -0.859375 0.3125q-0.296875 0 -0.59375 -0.15625q-0.28125 -0.171875 -0.421875 -0.484375q-0.125 -0.3125 -0.125 -0.953125l0 -4.0l-0.953125 0l0 -0.21875q0.359375 -0.140625 0.734375 -0.484375q0.375 -0.34375 0.671875 -0.8125q0.140625 -0.25 0.421875 -0.90625l0.1875 0zm5.3592224 7.0625q-0.921875 0.703125 -1.15625 0.828125q-0.34375 0.15625 -0.75 0.15625q-0.609375 0 -1.015625 -0.421875q-0.40625 -0.421875 -0.40625 -1.109375q0 -0.4375 0.203125 -0.765625q0.265625 -0.4375 0.921875 -0.828125q0.671875 -0.390625 2.203125 -0.953125l0 -0.234375q0 -0.890625 -0.28125 -1.21875q-0.28125 -0.328125 -0.828125 -0.328125q-0.40625 0 -0.65625 0.21875q-0.234375 0.21875 -0.234375 0.5l0 0.375q0 0.3125 -0.15625 0.46875q-0.140625 0.15625 -0.390625 0.15625q-0.234375 0 -0.390625 -0.15625q-0.15625 -0.171875 -0.15625 -0.46875q0 -0.5625 0.5625 -1.03125q0.578125 -0.46875 1.625 -0.46875q0.78125 0 1.296875 0.265625q0.375 0.203125 0.5625 0.640625q0.125 0.28125 0.125 1.140625l0 2.03125q0 0.84375 0.03125 1.046875q0.03125 0.1875 0.09375 0.25q0.078125 0.0625 0.1875 0.0625q0.09375 0 0.171875 -0.046875q0.140625 -0.078125 0.53125 -0.46875l0 0.359375q-0.734375 0.96875 -1.390625 0.96875q-0.328125 0 -0.515625 -0.21875q-0.1875 -0.21875 -0.1875 -0.75zm0 -0.421875l0 -2.265625q-0.984375 0.390625 -1.265625 0.546875q-0.515625 0.28125 -0.75 0.59375q-0.21875 0.3125 -0.21875 0.6875q0 0.46875 0.28125 0.78125q0.28125 0.3125 0.65625 0.3125q0.484375 0 1.296875 -0.65625z" fill-rule="nonzero"/><path fill="#000000" fill-opacity="0.0" d="m190.16798 377.90552l37.66928 0" fill-rule="evenodd"/><path stroke="#000000" stroke-width="1.0" stroke-linejoin="round" stroke-linecap="butt" d="m196.16798 377.90552l25.669281 0" fill-rule="evenodd"/><path fill="#000000" stroke="#000000" stroke-width="1.0" stroke-linecap="butt" d="m196.16798 376.25378l-4.538101 1.6517334l4.538101 1.6517334z" fill-rule="evenodd"/><path fill="#000000" stroke="#000000" stroke-width="1.0" stroke-linecap="butt" d="m221.83727 379.55725l4.538101 -1.6517334l-4.538101 -1.6517334z" fill-rule="evenodd"/><path fill="#000000" fill-opacity="0.0" d="m190.16798 435.21783l37.66928 0" fill-rule="evenodd"/><path stroke="#000000" stroke-width="1.0" stroke-linejoin="round" stroke-linecap="butt" d="m196.16798 435.21783l25.669281 0" fill-rule="evenodd"/><path fill="#000000" stroke="#000000" stroke-width="1.0" stroke-linecap="butt" d="m196.16798 433.5661l-4.538101 1.6517334l4.538101 1.6517334z" fill-rule="evenodd"/><path fill="#000000" stroke="#000000" stroke-width="1.0" stroke-linecap="butt" d="m221.83727 436.86957l4.538101 -1.6517334l-4.538101 -1.6517334z" fill-rule="evenodd"/><path fill="#000000" fill-opacity="0.0" d="m190.16798 500.79004l37.66928 0" fill-rule="evenodd"/><path stroke="#000000" stroke-width="1.0" stroke-linejoin="round" stroke-linecap="butt" d="m196.16798 500.79004l25.669281 0" fill-rule="evenodd"/><path fill="#000000" stroke="#000000" stroke-width="1.0" stroke-linecap="butt" d="m196.16798 499.1383l-4.538101 1.6517334l4.538101 1.6517334z" fill-rule="evenodd"/><path fill="#000000" stroke="#000000" stroke-width="1.0" stroke-linecap="butt" d="m221.83727 502.44177l4.538101 -1.6517334l-4.538101 -1.6517334z" fill-rule="evenodd"/><path fill="#000000" fill-opacity="0.0" d="m190.16798 575.8058l37.66928 0" fill-rule="evenodd"/><path stroke="#000000" stroke-width="1.0" stroke-linejoin="round" stroke-linecap="butt" d="m193.59506 575.8058l30.815125 0" fill-rule="evenodd"/><path fill="#000000" stroke="#000000" stroke-width="1.0" stroke-linecap="butt" d="m193.59506 575.8058l1.124588 -1.1245728l-3.0897675 1.1245728l3.0897675 1.1245728z" fill-rule="evenodd"/><path fill="#000000" stroke="#000000" stroke-width="1.0" stroke-linecap="butt" d="m224.41019 575.8058l-1.124588 1.1245728l3.0897675 -1.1245728l-3.0897675 -1.1245728z" fill-rule="evenodd"/><path fill="#000000" fill-opacity="0.0" d="m223.0315 323.39896l-83.401566 36.59842" fill-rule="evenodd"/><path stroke="#000000" stroke-width="1.0" stroke-linejoin="round" stroke-linecap="butt" d="m223.0315 323.39896l-77.9073 34.18741" fill-rule="evenodd"/><path fill="#000000" stroke="#000000" stroke-width="1.0" stroke-linecap="butt" d="m144.46046 356.07385l-3.491867 3.33609l4.8193207 -0.31106567z" fill-rule="evenodd"/><path fill="#000000" fill-opacity="0.0" d="m223.0315 323.39896l55.338593 36.59842" fill-rule="evenodd"/><path stroke="#000000" stroke-width="1.0" stroke-linejoin="round" stroke-linecap="butt" d="m223.0315 323.39896l52.480103 34.707947" fill-rule="evenodd"/><path fill="#000000" stroke="#000000" stroke-width="1.0" stroke-linecap="butt" d="m275.5116 358.1069l-1.5583801 0.31765747l3.1975098 0.76638794l-1.9567871 -2.642395z" fill-rule="evenodd"/></g></svg>